<?xml version="1.0" encoding="utf-8"?>
<!-- Generator: Adobe Illustrator 23.0.3, SVG Export Plug-In . SVG Version: 6.00 Build 0)  -->
<svg version="1.1" id="Layer_1" xmlns="http://www.w3.org/2000/svg" xmlns:xlink="http://www.w3.org/1999/xlink" x="0px" y="0px"
	 viewBox="0 0 1609.4 1469.3" style="enable-background:new 0 0 1609.4 1469.3;" xml:space="preserve">
<style type="text/css">
	.st0{opacity:0.29;}
	.st1{opacity:0.51;}
	.st2{fill:#7A4417;}
</style>
<title>logicon</title>
<g class="st0">
	<g id="Layer_1-2">
		<g class="st1">
			<path class="st2" d="M1439,1134.6c1.2,3.7,2.7,7,3.3,10.4c1,4.5,1.6,9,1.7,13.6c-0.1,6.9-3.6,10.7-10.8,12.9
				c-0.4,0.2-0.9,0.3-1.3,0.3c-10.2,0.7-18.8,5.7-28,9c-7.7,2.8-15.2,5.6-23.7,5.4c-4.4-0.1-5.6,3.3-6.7,6.1s-1.6,6.1-2.3,9.2
				c-2.5,11.1-4.9,22.1-7.5,33.7c3.5,1.2,6.7,2.1,9.8,3.2c8.7,3,10.5,9.4,3.2,14.7c-8.4,6-17.7,11-26.7,16.3
				c-4.4,2.7-10.2,3.6-12.6,8.9c-0.5,1.1-3,1.9-4.7,2.2c-20.5,3.4-39.4,11.4-59,17.5c-8.8,2.8-15.3,6.3-17.2,15.3
				c-0.5,2.6-2.3,5-3.9,7.3c-5.6,8.1-11.9,15.8-15.9,24.8c-0.9,1.7-2.1,3.3-3.5,4.6c-4.8,5.1-7.8,4.9-12.7-1
				c-7.4,3.7-14.8,7.7-22.5,11.2c-5.6,2.5-10.5,6.4-14.1,11.4c-4.5,5.9-9.2,11.5-14.3,16.8c-3.3,3.9-7.7,6.8-12.6,8.4
				c-1.7,0.7-3.1,2.1-3.7,3.9c-1.3,4.8-4.4,7.4-9.5,8.8c-3.2,0.9-6,2.9-9.1,4.3c-7,3.2-14.2,4.6-22,1.2c-2,1.6-3.9,3.3-6,4.8
				c-7.9,5.6-15.5,3.5-18.7-5.2c-0.9-2.4-1.5-4.8-2.4-7.5c-7.3-0.5-14.6-0.6-21.7-1.4c-11.9-1.4-23.8-3.4-35.7-5
				c-2.3-0.3-5.2-0.3-7.1,0.7c-21,10.6-43.8,15.1-67.2,17.8c-16.2,1.8-32.6,3-48.8,4.9c-4,0.4-7.9,1.8-11.2,4
				c-10.4,7.5-20.5,15.4-30.3,23.4c-3,2.4-5.1,5.9-7.1,9.1c-4,6.4-12.7,10.3-20.3,8.1c-5.3-1.7-10.5-3.9-15.3-6.7
				c-5.5-3.1-11.7-4.8-18-4.8c-10-0.3-19.9-1-29.8-2.3c-9.2-1.1-17.7-5.4-24.2-12c-1-0.9-2.1-1.7-3.2-2.5c-2.8,2.8-5.7,5.2-8.1,8
				c-3.5,4.1-8.4,6.4-13.3,8.6c-5.5,2.5-10.6,1.5-15.3-2c-0.6-0.4-1.1-0.8-1.5-1.3c-6.1-8.4-15.9-12.9-24.1-19
				c-5.8-4.4-11.8-8.6-15.3-15c-1.2-2.2-3-3-5.5-2.9c-1.4-0.1-2.7,0-4.1,0.2c-14.9,4.4-29.8,9-45.2,13.6c0.7,3.5,1.3,6.6,1.8,9.6
				c1.5,8.3-3.6,12.4-12.3,9.9c-3-0.9-6-2-8.8-3.4c-8.6-4.3-17-8.9-25.6-13.2c-1.9-1.1-4-1.7-6.2-1.8c-2.7,0.1-5.3-1-7.1-3.1
				c-11.9-13.2-26.6-23.5-40.8-34.3c-4.9-3.8-9.3-9-15-10.7c-5.3-1.6-12,0.6-18,1.1c-0.9,0.1-1.8,0.1-2.7,0.1
				c-11.1-0.6-22.2-1.7-33.3-0.4c-1.1,0-2.3,0-3.4-0.2c-8.5-0.9-10.3-3.3-7.5-11.1c-9.4-5.3-18.9-10.6-28.4-15.8
				c-1.5-0.8-3.4-0.9-5.2-1.1c-9.5-1.3-19-2.3-28.4-3.7c-5.2-0.8-10.3-2.2-14.1-5.8c-2-1.8-4-1.8-6.2-1.1c-4.6,1.4-8.3,0.5-11.8-2.6
				c-2.3-2-5.3-3.3-8-4.8c-7.3-4.2-12.9-9.3-13.5-17.8c-3-1-5.8-1.7-8.5-2.8c-8-3.4-9.7-10.1-4.1-16.4c2-2.3,4.3-4.3,6.4-6.4
				c-4.1-7.8-8.4-15.2-11.9-22.8c-3.9-8.5-7.3-17.2-10.6-25.9c-1-2.5-2-4.5-4.5-5.9c-18-10-32.4-23.6-45.3-38.7
				c-11.6-13.7-23.8-27-33.8-41.9c-2.1-3.2-6.1-5.9-9.9-7.3c-11.3-4.4-22.9-8.3-34.5-11.8c-4.4-1.3-9.4-1.6-14.1-1.7
				c-8.4-0.2-16-4.5-17.9-12c-1.2-5.1-1.7-10.3-1.4-15.6c0.2-6.3-1.5-11.8-4.8-17.3c-4.7-7.9-8.8-16-12.4-24.4
				c-3.5-8-3.8-17.1-0.8-25.3c0.4-1.3,0.7-2.6,0.9-3.9c-4.1-0.9-7.8-1.9-11.5-2.4c-5.3-0.8-9.8-3.3-14.2-5.9
				c-5.6-3.3-7.4-8.2-6.3-14.2c0-0.4,0.2-0.8,0.3-1.2c5.2-9.8,3.9-20.8,6.4-31.1c1.3-5.5,3.1-10.9,5.3-16.1c1.8-4.3,2-6.6-1.5-10.1
				c-2-2-4.3-3.7-6.5-5.5c-9.6-7.7-19.2-15.5-29.2-23.7c-2.8,2.3-5.3,4.3-7.8,6.3c-7.2,5.5-13.2,3.6-15.6-4.8
				c-0.4-1.2-0.6-2.4-0.7-3.7c-0.4-9.6-0.8-19.3-1.1-28.9c-0.1-3.7,1.2-7.3-1.9-10.8c-1-1-0.5-3.7,0.1-5.3
				c8-21.1,10.2-43.4,14.6-65.2c0.5-2.1-0.2-4.3-1.9-5.7c-7.4-7.5-13.3-16.4-17.2-26.2c-0.7-1.7-2.3-3.1-3.3-4.7
				c-2.7-4.1-5.8-8.1-7.8-12.4c-2.8-6-0.6-8.6,7.3-9.7c0.1-6.7-0.1-13.6,0.5-20.4c0.8-7.8-0.8-15.6-4.6-22.4
				c-3.5-6.5-6-13.6-8.3-20.6c-1.1-3.2-1.3-6.6-0.8-9.9c0.7-2.5-0.3-5.1-2.3-6.7c-3.4-2.8-4-6.2-3.2-10.3c0.7-3.5,0.6-7.1,0.8-10.6
				c0.5-7.2,2.6-13.6,9.8-17.8c-0.7-2.9-1.2-5.8-1.5-8.7c-0.5-7.7,4.2-11.9,12.5-11.1c3.4,0.3,6.6,1.2,10.2,1.8
				c1.2-1.7,2.5-3.1,3.5-4.7c9.2-13.7,19.7-26.4,31.4-38c1.3-1.3,2.7-3.2,2.7-4.8c0.1-24.5,9.2-46.9,19.3-69
				c5.3-11.8,11.6-23.2,17-35c1.8-3.8,2.5-8,2.1-12.2c-1.9-12.4-4.6-24.8-7.2-37.1c-0.6-2.7-1.8-5.2-3.6-7.4
				c-5.5-7.2-4.2-17.5,3.1-23.1c0.2-0.2,0.5-0.4,0.7-0.5c3.7-2.5,7.5-4.8,11.5-6.7c5.8-2.7,10.6-7,13.9-12.4
				c4.8-7.4,10.1-14.5,15.9-21.2c6.3-7.6,15.2-12.7,24.9-14.4c1.2-0.3,2.4-0.7,3.5-1.2c-1.2-3.5-2-7-3.4-10.2
				c-2-4.7-1.9-9.5-1.6-14.2c0.4-6,3.7-10.2,10.1-12.1c0.4-0.2,0.8-0.3,1.3-0.4c11.4-0.8,20.8-6.8,31.2-10c6-1.9,12.2-3.4,18.4-4.3
				c6.2-0.8,8.4-1.7,9.8-7.4c2.2-8.6,4-17.2,5.9-25.8c1.2-5.3,2.2-10.6,3.4-16.2c-4-1.3-7.4-2.2-10.7-3.4c-7.2-2.7-8.6-8-3.3-13.4
				c1.9-1.9,4-3.5,6.3-4.8c8.5-4.9,17-9.7,25.6-14.4c3.1-1.7,6.4-2.7,8-6.3c0.6-1.3,3.2-2.4,5-2.7c23.6-4.2,45.5-13.3,67.9-20.8
				c2.8-0.9,4.5-2.3,5.5-5c3.4-9.7,8.8-18.7,15.7-26.3c1.4-1.6,2-3.7,3.1-5.5c2.4-4,4.5-8.3,7.5-11.9c4.3-5.3,7.7-5,12.9,0.9
				c5.2-2.6,10.3-5.6,15.8-7.9c10.2-4.3,18.4-10.3,24.3-19.3c3.4-4.8,7.3-9.2,11.7-13.1c3.1-2.8,6.6-5.2,10.4-6.8
				c2.8-1.2,4.5-2.4,5.1-5.2c1-4,3.5-6.4,8-7.7c3.9-1.1,7.3-3.4,11-5c8.2-3.6,12.8-3.8,21.3-1c2.1-1.6,4.2-3.5,6.6-5.1
				c7.4-5,14.7-3,17.9,5c1,2.5,1.7,5.2,2.7,8.2c2.3,0.2,4.5,0.4,6.8,0.4c17.3,0.4,34.5,2.4,51.4,6c2.2,0.4,4.4,0.1,6.4-0.8
				c19.9-10.1,41.5-14.6,63.8-17.3c17.1-2.1,34.2-5,51.5-5.3c4.3-0.3,8.4-1.7,11.8-4.2c10.6-7.6,20.7-15.7,30.8-23.9
				c2.5-2,4.6-4.6,6-7.5c3.7-7.6,14.3-11.9,23-8.7c4.6,1.7,9,3.8,13.3,6.3c5.4,3.2,11,4.4,17.4,4.6c9.8,0.2,19.5,1,29.2,2.2
				c9.7,1.1,18.6,5.4,25.4,12.4c0.8,0.8,1.6,1.4,2.9,2.5c2.7-2.6,5.5-5,7.8-7.7c3.4-3.9,7.9-6.3,12.5-8.4c6.1-2.9,11.9-2.3,17,2
				c0.4,0.3,0.7,0.5,1,0.9c6,8.1,15.5,12.6,23.5,18.6c6,4.5,12,8.9,15.9,15.4c1.9,3.1,5.1,3.8,10.2,2.3c8.9-2.5,17.8-5.2,26.6-7.9
				c5.8-1.8,11.5-3.7,17.7-5.7c-0.7-3.7-1.4-6.9-2-10.2c-1.1-7.1,3.1-10.9,10.7-9.4c2.4,0.5,4.8,1.2,7,2.3
				c8.5,4.1,16.9,8.2,25.3,12.5c3.9,2,7.2,5,12.4,4.4c1.5-0.2,3.7,1.6,4.9,2.9c15.7,16.9,35.4,29.5,53.5,43.8
				c2.1,1.7,4.1,1.9,6.9,1.4c10.5-2.1,21.3-2.3,31.9-0.7c2.6,0.4,5.4-0.2,8.1-0.3c4.3-0.1,8.7-0.6,12.9-0.1
				c8.4,0.9,9.9,3.3,7.4,11.1c9.2,5.2,18.5,10.5,27.9,15.6c2,1.1,4.8,1.2,7.2,1.6c9.2,1.3,18.5,2.3,27.7,3.7
				c4.9,0.6,9.6,2.6,13.5,5.6c1.4,1,3.1,1.4,4.8,1.1c5.6-1.5,10.1-0.2,14.3,3.5c2.1,1.9,5,2.9,7.5,4.4c6.7,4,12,9,12.6,17.3
				c2.5,0.8,5.1,1.5,7.6,2.4c9,3.4,10.9,10.8,4.4,17.6c-1.8,1.9-4.2,3.2-6.4,4.8c1.6,3,2.7,5,3.8,7c7.9,13.6,14.4,27.9,19.6,42.8
				c0.6,1.9,1.8,4.1,3.5,5c20.5,11.3,36.3,27.2,50.4,44.6c9.7,11.9,18.9,24.1,28.7,36c2.4,3.1,5.5,5.6,9.1,7.3
				c13.9,5.9,28,11.1,43,14c2,0.4,4.1,0.5,6.1,0.4c10.3-0.4,17.6,4.5,19.6,13.8c0.9,4.7,1.1,9.6,0.8,14.4
				c-0.2,5.6,1.3,10.5,4.2,15.6c5,8.6,9.5,17.6,13.4,26.7c3.8,8.9,2.8,18.1-0.8,27.6c4,0.9,7.6,2.1,11.4,2.6
				c5.4,0.6,9.8,3.2,14.2,5.8c5.9,3.4,7.9,8.4,6.6,14.6c-0.1,0.4-0.2,0.8-0.3,1.2c-5,9.7-3.9,20.4-6.3,30.5
				c-1.3,5.5-3,10.9-5.2,16.2c-2.1,5-2.3,7.3,2,11.1c3.6,3.2,7.4,6.2,11.1,9.3c7.8,6.4,15.7,12.7,23.9,19.3c3.1-2.5,5.7-4.7,8.6-6.7
				c6.4-4.7,12.2-3,14.5,4.3c0.7,2.2,1.1,4.5,1.2,6.8c0.3,10.3,0.4,20.5,0.7,30.8c0,1.8,0.5,3.6,1.5,5.2c1.5,2.1,1.7,4.9,0.6,7.2
				c-6.6,16.9-9,34.6-12.2,52.1c-0.9,5-3.3,10.3-2.2,14.8s5.9,8.2,9,12.2c1.3,1.7,2.5,3.5,3.6,5.3c4.5,8.2,8.4,16.7,14.7,23.9
				c1,1.4,1.8,2.9,2.4,4.5c2.9,6.9,1.4,9.3-6.9,10.9c-0.3,10.1-0.7,20.4-0.8,30.6c0,2,1.2,4,2,5.9c3.2,7.4,6.7,14.7,9.7,22.1
				c1.3,3.3,2.5,6.9,2.4,10.4c-0.2,5.1-0.5,9.7,4.3,13.5c1.3,1,1.1,3.9,1.1,5.9c0,3.3-0.7,6.7-0.7,10c-0.2,8.1-2.1,15.4-9.8,20.2
				c0.5,3.4,1.4,6.5,1.5,9.5c0.2,7.1-5.1,11.3-12.8,10.3c-3.1-0.4-6.2-1.3-9.9-2.2c-1.3,1.8-2.7,3.7-4,5.6
				c-9,13.2-18.9,25.7-30.6,36.9c-2,1.9-3.2,3.8-3.2,6.6c-0.3,16.7-4.3,32.8-10.9,48.4c-7.8,18.3-15,36.9-25.1,54.3
				c-2,3.7-2.7,8-2,12.2c1.9,12.4,4.6,24.8,7.3,37.1c0.7,2.7,1.9,5.2,3.6,7.4c5.4,8.2,4.4,16.9-3.5,23.1c-3.9,2.9-8.2,5.4-12.6,7.4
				c-5.1,2.5-9.5,6.3-12.6,11.1c-5.4,8-11.2,15.8-17.5,23.2c-6,7.2-14.3,11.6-24,13.5C1441.3,1133.8,1440.3,1134.2,1439,1134.6z
				 M1010.3,227.3l-20.7-6.9c-1.7,9.1-3.3,17.2-4.9,25.6l10.9,3.5c5.2-7.9,10-15.2,14.9-22.5c-2.3,8.4-4.6,16.9-6.9,25.5l28.4,11.6
				c3.6-11.3,7.1-21.7,9.2-32.8c-8.1-1.2-15.4-2.3-22.8-3.4C1015.7,227.6,1013,227.5,1010.3,227.3z M869.6,1185.8
				c-1.4,6.4-1.4,6.4,0.1,9.3C871.1,1192.2,871,1188.8,869.6,1185.8c0.6,0.7,1.6,1.3,1.8,2c0.4,2,0.8,4,1,6c4.3,0,6.2-1.7,6.6-5.3
				c0.9-7.7,2-15.3,3.1-23.1c1.1,8-0.4,16.2,2.4,24.2c3.3-5.5,3.9-11.6,5.2-17.4c1.4-6.3,2.8-12.7,4.2-19.1c1.3-6,3.3-11.9,4.1-19
				l-5.7,3.1c-12.4,6.6-25.2,12.5-39.6,14.6c-11.1,1.7-22.2,3.5-33.4,5.3c-1.1,0.2-2.2,0.4-3.6,0.7c-3.2,13.2-6.4,26.4-9.8,40
				c7.5,1.4,14.4,2.5,21.2,4c5.5,1.2,11.3,1.1,16.8-0.5c4.1-1.1,6.4-3,7.8-6.8c3.5-9.4,9.2-17.7,16.8-24.2l-7.7,26l1.4,0.6
				c0.9-0.9,1.8-1.9,2.6-3C866.5,1191.2,868,1188.5,869.6,1185.8z M958,534.9c2.1-3.4,4-6.9,6.2-10.2c4.3-6.4,8.8-12.6,12.8-18.4
				l-33.4-30.3c-4.3,10.1-8.8,20.6-13.1,31.1c-0.5,1.8-0.3,3.6,0.6,5.2c5.1,8.9,12.3,16.5,21,21.9c2.2,1.4,4,1.1,6.1,0.3
				c-1.2,3.1,1.4,4.1,3.5,5.2c17.6,9.4,31.8,22.3,45,36.2c13,13.7,22.1,29.2,25.6,47.2c1.9,9.8,5.8,19.1,11.6,27.3
				c8.7,12.4,12.8,26.3,13.9,40.9c0.6,7.9,0.7,16,2,23.8c4,23.6,8.2,47.1,12.7,70.6c2.7,13.9,5,27.7,3.1,41.8c0,0.9,0.2,1.7,0.4,2.5
				c12.4,1.7,24.6,4.1,37.1,5.1c0.7-2.9,1.3-5.1,1.8-7.3c3.3-16.8,2.1-33.4-1.9-49.9c-5.6-23.1-6.9-47-3.9-70.6
				c1.2-10.2,1.7-20.5,2.3-30.7c0.6-9.5-2.2-18.2-7.3-26.4c-5.7-9.2-10-19.2-12.8-29.7c-2-6.5-4.4-12.8-7.3-18.9
				c-4.1-9.1-9.2-17.8-12.7-27c-5.4-14.2-15.3-24-30.3-29.6c-1.3-0.5-2.5-1.1-3.7-1.6c-19.8-7.5-38-18.7-53.6-32.9
				c-1.4-1.1-2.8-2.2-4.3-3.1c-4.5,6.1-8.7,11.9-13,17.5C963.7,528.5,960.8,531.7,958,534.9z M1163.1,774l0.2,0.1
				c0.6-2.4,1.3-4.9,1.7-7.3c1.2-8.5,2-17.1,3.5-25.6c1.8-9.7,1.7-19.7-0.2-29.4c-1.8-8.9-1.2-17.9-0.2-26.9
				c1.4-12.7,2-25.5,2.8-38.2c0.6-9.8,0.9-19.7,1.5-29.5c0.3-5.4,0.8-10.9,1.2-16.3c0.3-3-0.9-5.9-3.2-7.9c-2.2-2.3-4.1-5-5.5-7.8
				c-5.7-10.2-11.2-20.5-16.7-30.9c-3.5-6.6-9.1-11.3-15.5-15.5c-9.1-5.9-18.1-12-26.6-18.7c-9.7-7.8-20.5-14.1-32.2-18.7
				c-11.4-4.5-22.1-10.7-31.7-18.3c-8.7-6.8-17.8-13-26.8-19.4c-1.4-0.8-2.8-1.5-4.3-2.2L990.3,492c1,1.1,1.5,1.7,2.2,2.3
				c15.6,14.6,32.7,27.3,53.5,35.3c21.4,8.2,34.9,22.7,41.6,43c2,6,4.9,11.7,7.2,17.6c3,7.5,6.5,14.8,8.5,22.5
				c3.2,12.3,8.1,24.1,14.7,35c4.6,7.4,7.3,15.5,7.1,24c-0.4,12.8-1.1,25.5-2.4,38.3c-2,19.1-1.6,38.1,2.7,56.9
				c3.8,16.4,8.3,32.7,7.4,49.7c-0.4,7.1-1.2,14.1-1.9,21.8l10.4,1.4v0.7l-11.7,0.7c-0.4,2.3-0.8,4.3-1.2,6.8
				c10.7,0.2,20.7,2.1,31.4,1.2c-0.3-3.8-0.3-7.2-0.7-10.5c-1.3-12.3-2.5-24.6,0.2-36.9c1.6-7.2,2.8-14.4,4-21.7
				C1163.7,778.1,1163.2,776,1163.1,774z M539.5,852.2l1.2-4.3c-1.2-0.1-2.7-0.7-3.6-0.3c-10.6,4.8-21.1,9.7-31.6,14.7
				c-0.7,0.3-1,1.5-2,3.3c2.6-0.5,4.1-0.5,5.4-1c8.3-3.5,16.4-7.1,24.7-10.5c2-0.8,4.1-1.4,6.2-2c-1.6,1.4-3.4,2.6-5.2,3.7
				c-7,3.5-14.1,6.8-21.2,10.2c-2.1,1-4.2,2.2-6.3,3.3c6.1,12.2,14.4,21.5,27.5,26.6c5,2,9.9,4.2,15,6c17.9,6.2,33.7,17.2,45.7,31.8
				c2.8,3.3,5.6,6.6,8.2,10c8.9,11.8,20.1,21.6,32.9,28.9c16.3,9.2,30.5,20.5,42,34.5c6.4,7.8,14.9,12.7,24.9,15.7
				c25.3,7.5,50.7,15,75.2,24.5c9.6,3.7,20.1,4.5,30.2,2.2c6.2-1.3,12.4-2.7,18.6-4c29.9-6.2,57.5-16.9,82.3-33.8
				c7.3-5,15.1-9.4,22.7-13.9c16.2-9.5,31-21.1,44.1-34.5c7.8-8,15.6-15.8,23.4-23.8c10.1-10.5,23.1-17.8,37.3-20.9
				c23.7-5,44.8-18.3,59.4-37.6c4.1-5.3,7.4-10.9,8.8-17.8c-1.7-0.2-3.3-0.3-5-0.2c-20.1,2.2-40.2,4.3-60.3,6.7
				c-2.6,0.5-5.1,1.5-7.4,3c-7.8,4.8-14.3,11.6-18.8,19.6c-3.3,5.7-6.2,11.7-9.7,17.3c-10.5,17.3-26.4,28-47.6,31.6
				c-6.5,1-13.1,1.7-19.7,2c-8.1,0.5-16,3.2-22.7,7.8c-4.3,3.1-8.8,6-13.4,8.7c-8.5,4.7-16.4,10.5-23.4,17.2c-3.2,3-6.4,5.9-9.7,8.9
				c-9.8,8.7-22,14.2-35,15.7c-24.8,3.3-49.5,6.4-74.3,9.7c-21.1,2.8-38.7-2.4-53.8-16.9c-16-15.5-33.3-29.7-44.8-48.8
				c-4.8-8-12.2-14.2-21-18.5c-12.9-6.2-24-15.6-32.1-27.4c-5.7-8.3-14.1-14.3-23.7-17.2c-16.4-5.1-29.5-13.9-37.8-28.1
				c-0.1-0.2-0.2-0.4-0.3-0.5C544,851.4,541.8,851.7,539.5,852.2z M587.5,822c1.8-1.5,2.5-4,1.7-6.2c-3-10.8-5.4-21.7-8.6-32.3
				c-5.5-17.9-3.9-35.2,3.4-52.3c6.3-14.8,12.2-29.8,17.9-44.8c5.6-14.7,9.5-29.8,9.8-45.5c0.1-7.7-0.6-15.5-0.6-23.2
				c0-17.8,7.5-27,25.9-32.4c1.5-0.5,3-0.9,4.6-1.2c9.6-1.7,19.2-3.2,28.8-5.1c29.8-5.9,53.2-20.1,68.1-45.1
				c2.1-3.5,4.3-6.9,6.6-10.3c14.2-20,33.7-34,58.1-41.7c10.4-3.3,20.9-2.9,30.1,4.3c3.3,2.3,6.9,4.1,10.8,5.2
				c8,2.6,13.9,7.2,17,14.4c3.6,8.2,9.4,14.8,16.9,20.2c5.4,4,9.9,9.2,13.1,15.1c1.8,3.2,3.5,6.4,5.4,9.4c1.8,2.8,3.7,5.6,7.4,6.9
				c0.7-0.7,1.3-1.5,1.8-2.3c3.7-9.9,7.4-19.8,11-29.7c0.3-0.8,0.3-1.7,0-2.5c-3.2-6-6.6-12-10.2-18.5l-3.1,4.3
				c1.3-10.6,1.3-10.8-3.9-20.5c-1.2-2.5-2.7-4.9-4.3-7.1c-9.4-11.9-20-22.1-36.9-24.9c-6.6-1.1-12.8-4.2-19-6.8
				c-15.6-6.4-31.3-8.1-47.6-1.9c-18.4,6.9-35.5,16.8-50.7,29.2c-13.3,10.9-26.2,22.1-39.1,33.3c-23.6,20.4-51.1,34.1-82.4,41.3
				c-10.6,2.4-21.2,5-31.7,7.6c-5.5,1.3-9.8,4.2-12.2,9.2c-8,16.8-12.3,34.3-9,52.7c3.8,20.8,2.3,42.1-4.1,62.2
				c-3.1,9.8-6,19.8-8.3,29.8c-3.2,13.7-6.1,27.5-8.7,41.3c-1.2,6.8-1.9,13.7-2.1,20.6c-0.3,9.2,0.2,18.4,0.2,27.7
				c0,6.3-0.5,12.6-0.7,18.8c-0.2,6.1,2.6,10.8,8.1,14.8c6.1-2.3,12.2-4.7,18.3-6.9c3.5-1.3,7.2-2.5,10.8-3.7
				c-2.2,1.4-4.3,2.9-6.6,4.1c-6.5,3.5-13,6.8-19.6,10.2c1.3,1.8,2.3,3.1,3.2,4.5c7.4,11.7,17.5,20,31.8,24.2
				c15.4,4.6,26.6,14.2,34.9,26.8c5.2,7.9,12.4,14.3,20.9,18.5c12.7,6.2,23.4,15.8,30.9,27.7c8,12.7,18.2,23.5,29.8,33.3
				c6.1,5.1,11.8,10.5,17.8,15.6c6,5.3,13.8,7.9,21.8,7.5c5-0.2,10-0.3,15-0.9c19.8-2.3,39.6-5.5,59.5-6.9
				c19.6-1.3,35.3-8.2,48-21.9c7-7.4,15.1-13.6,24-18.4c3.1-1.7,6-3.7,8.6-6.1c12.1-11.2,26.5-17.3,43.8-17.7
				c15-0.4,28-5.6,38.1-15.9c3.7-3.9,7.2-8.1,10.4-12.4c4.9-6.3,9.5-12.8,14.3-19.2c0.5-0.8,1-1.7,1.4-2.6c-7.1,1.1-13.5,2.5-20.1,3
				s-13.1,0.4-19.7,0.3c-5.2,0-10.4-0.8-15.5-0.4c-7.5,0.7-14.8,2.3-22.2,3.2c-8.3,0.9-16.3,3.7-23.3,8.3c-3.7,2.5-7.1,5.3-11,7.5
				c-6.5,3.8-13,7.8-20,10.7c-9,3.6-16.7,8.5-23,15.3c-3,3.2-5.9,6.4-8.6,9.8c-6.6,8.6-16.6,14-27.4,14.8
				c-12.9,1.1-24.6,5.6-36.5,10c-8.4,3.3-17,6.2-25.7,8.6c-22.6,5.8-41.6,0.3-57-16.2c-9.7-10.3-15.9-23.4-17.4-37.5
				c-0.9-7.7-1.7-15.4-2.3-23.1c-0.8-9.6-6.3-15.7-15.9-19.3c-6.6-2.3-12.9-5.2-19-8.6c-12-6.9-23.9-13.7-37-18.7
				c-7.8-3-12.5-8.8-14.6-16.4c-0.3-1.4-0.8-2.8-1.5-4.2C589.9,822.2,588.4,822.2,587.5,822L587.5,822z M1169.6,299.6
				c1-2.7-1.5-3.3-3.1-4.1c-8.7-4.5-17.2-9.6-26.3-13.2c-19-7.6-37.1-17.5-53.8-29.4c-7-5-14.1-10-21.1-14.9
				c-5.1-3.8-11.4-5.8-17.8-5.6l-9.2,34.2c1.2,0.7,2.1,1.3,3.1,1.7c13.2,6.5,26.7,12.6,39.7,19.5c8.4,4.4,16.4,9.5,24,15.3
				c14.1,10.8,30.7,16.6,48.2,22.7c5.6-9,11-17.7,16.4-26.4c-1,2.8-1.8,5.6-3,8.3c-3,6.7-6.2,13.3-9.4,20.1c1.5,0.9,2.5,1.5,3.4,2.1
				c19.7,12.5,39.6,24.6,59,37.4c27,17.8,43,42.8,53.8,71c1.3,3.8,2.9,7.5,4.7,11.1c3.8,6.9,6.5,14.3,7.9,22c1.2,6.7,4,12.8,7,19
				c4.7,9.3,8.8,18.8,12.4,28.5c5,14.5,11.7,28.3,20,41.2c4.4,6.8,8.6,13.8,12.7,20.8c5.9,10.2,10.7,20.9,12.8,32.3
				c2.8,14.9,5,29.8,7.2,44.8c2.9,21.4,4.6,43,5,64.5c0.3,12.4,0.5,24.7-2.3,36.9c-2.3,9.7-1.9,19.6-0.4,29.4
				c1.8,11.8,4,23.7,2.9,35.7c-2,21.3-3.7,42.6-6.7,63.8c-2.7,18.9-10.5,36.4-22.7,52c-6.1,7.8-12.7,15.3-19.1,22.9
				c-1.6,1.8-3.1,3.6-4.5,5.5c-5.1,7.6-11.9,13.7-19,19.7c-4,3.6-7.8,7.5-11.2,11.7c-7.8,9-15,18.5-23.2,27.1
				c-10.1,10.4-19.1,21.8-26.7,34.1c-3.9,6.4-8,12.7-12.1,19c-9.4,14.5-21.5,27-35.8,36.7c-4.8,3.2-9.3,6.7-13.9,10.1
				c-27.7,20.6-57.2,38.7-88,55c-4.7,2.6-9.7,4.7-14.8,6.3c-14.5,4.3-27.1,11.5-39.1,20.1c-7.7,5.5-15.7,11-24.3,15
				c-20.7,9.6-41.7,18.6-63,27.1c-17.2,6.7-35.6,9.9-54,9.3c-1.6,0.1-3.2,0.2-4.7,0.5c-1.2,6.9-2.3,13.4-3.5,20.5
				c6.8-1.3,12.5-3,18.3-3.4c17.5-1,33.8-6.2,50.2-11.4c12.3-3.8,24.7-7.2,37.7-8.4c14.5-1.3,28.8-3.8,42.1-9.7
				c12.7-5.7,25.5-11.2,36.7-19.2c17.6-12.6,37.1-21.9,57.6-29.7c5.9-2.2,11.7-4.6,17.7-6.6c7.8-2.5,14.7-7.3,19.9-13.7
				c7.7-9.3,15.2-19,24.4-27c22.5-19.6,43.7-40.4,68.7-57.4c7.8-5.3,14.6-11.9,20.3-19.4c13-17.1,27.6-32.8,45.6-45.6
				c5.9-4.2,10.7-9.8,13.9-16.3c5.3-10.4,10.9-20.8,15.6-31.4c3-7,5.3-14.2,7.1-21.6c2.5-10.2,4.8-20.5,9.7-30
				c4.5-8.9,7.7-18.3,9.6-28.1c4.1-21.5,10.2-42.5,20.4-62.4c1.2-2.2,2.1-4.6,2.6-7.1c3.5-18,5.4-36.1,3.4-54.4
				c-1.5-13.8-3.3-27.5-1.6-41.4c1.5-12.5,3-25,4.9-37.4c1.3-8.3,0.8-16.1-3.1-23.9c-6.4-13-12-26.3-15.5-40.2
				c-3.7-14.9-7.7-29.8-11.3-44.7c-1.7-6.9-3.1-13.9-4.1-21c-2-14.7-5.8-28.7-12.8-42.2c-8.5-16.3-14.3-34-17-52.2
				c-1.1-7.4-4.1-14.4-8.6-20.3c-5.6-7.4-11.3-14.7-16.8-22.2c-6.6-8.7-14.2-16.5-22.7-23.4c-6.9-5.7-14-11.5-19.5-18.4
				c-9.2-11.4-19.7-21.7-31.4-30.5c-14.8-11.3-28-24.4-39.3-39.1c-6.8-9-16.4-15-25.8-21.3C1172.8,299.4,1171,299.7,1169.6,299.6
				L1169.6,299.6z M873.2,1369.3c8.5-1.5,16.4-2.7,24.2-4.2c53.4-10.4,106.8-20.9,160.2-31.4c17.1-3.4,33.9-8.5,51.2-10.6
				c12.1-1.6,23.9-4.6,35.2-9.1c7.8-3,15.7-5.7,23.5-8.4c1.3-0.4,2.6-0.7,3.9-1.2c3.6-1.2,7.6-1.7,10.6-3.6
				c12-7.5,24.2-14.9,35.5-23.4c22.8-17.1,45-34.7,67.4-52.2c1.4-1,2.6-2.3,3.6-3.7c7.7-14.7,19.7-26.1,32.2-37.2
				c12.6-10.9,23-24.2,30.7-39c10.7-20.9,24.3-40.3,39.7-58.5c6-7.1,11.6-14.5,16.9-22.1c3.3-5,6.1-10.2,8.3-15.7
				c4-9.6,7.5-19.3,11.2-29c26.2-68.8,52.3-137.7,73.8-207.9c3-9.7,6.1-19.3,10.5-28.5c2.8-5.9,4.9-12.1,6.1-18.5
				c0.7-3.9,1-7.9,1.7-11.8c1.3-8.3,1.8-16.8,4.4-24.8c2-5.7,2.6-11.8,1.9-17.8c-1.6-14.4-3.1-28.8-5.7-43
				c-4.1-22.9-8.8-45.8-13.5-68.6c-0.7-3.2-2.4-6.2-3.9-9.3c-3.5-7.2-7.7-14.3-10.7-21.7c-2.9-7-4.8-14.4-6.9-21.7
				c-3.7-13.1-8.8-25.6-17.2-36.8c-16.4-21.9-30.1-45.7-40.9-70.9c-6.9-16.1-16.7-30.4-29.2-43.6
				c-59.5-63.3-118.4-126.9-182.2-186.5c-4.1-3.6-7.7-7.7-10.9-12.1c-4.8-7.2-11.4-12.4-18.4-17.4c-9-6.4-18.8-12.1-26.6-19.7
				c-7.9-7.7-17.7-11.4-27.3-15.9c-3-1.4-6.2-2.7-9.4-3.8c-32.4-11.1-64.9-22.1-97.3-33c-2.4-0.7-4.9-0.9-7.4-0.8
				c-10.7,0.3-21.4-0.8-31.8-3.3c-4.6-1-9.4-1.8-13.9-3.2c-20.3-6.3-41-6.7-62.1-5.6c-13.4,0.7-26.8,0.6-40.2-0.2
				c-17.2-1-34.4-3.3-51.6-4.6c-6.8-0.6-13.6-0.5-20.3,0.5c-39.2,6.6-78.3,13.2-117.4,20.4c-49.3,9.1-98.6,18.1-147.3,29.8
				c-12.1,3-24.4,5.3-36.7,6.9c-7.9,0.9-15.6,2.7-23,5.4c-10.5,3.9-21.1,7.8-31.7,11.6c-1.5,0.5-3,0.9-4.5,1.3
				c-3.2,1-6.7,1.4-9.4,3.1c-9.2,5.4-18.5,10.8-27,17.1c-25.9,19.5-51.5,39.4-77.1,59.2c-1.4,1-2.6,2.3-3.5,3.8
				c-7.5,14.2-19.1,25.5-31.4,36.2c-12.9,11.2-23.6,24.7-31.5,39.9c-10.7,20.6-23.8,39.9-39,57.5c-2.7,3.1-5.2,6.4-7.8,9.5
				C202,402.9,194.1,415,190,429c-2,6.6-4.9,13.1-7.4,19.6c-27,70.6-53.6,141.2-75.5,213.3c-2.4,8.3-5.5,16.4-9.2,24.3
				c-2.8,5.7-4.8,11.7-5.9,17.9c-0.8,3.9-1,7.9-1.7,11.8c-1.3,8.3-1.7,16.9-4.4,24.8c-2.2,6.3-2.8,13.1-1.9,19.7
				c2,16.7,4.2,33.3,7.1,49.8c2.9,16.8,6.9,33.3,10,50.1c1.6,8.7,3.3,17.2,9,24.7c2.8,3.7,4.5,8.2,6.1,12.6
				c2.9,7.5,5.4,15.1,7.5,22.8c4.2,16.3,11.6,31.6,21.8,45.1c14.2,18.8,25.4,39.2,34.8,60.4c3.7,8.4,7.8,16.5,12.4,24.5
				c3.1,5.2,6.6,10,10.6,14.5c6.6,7.5,13.6,14.7,20.4,22c54.4,58.4,109,116.6,167.7,171.5c4.9,4.6,9.8,9.4,13.6,14.9
				c4.7,6.7,10.8,11.8,17.5,16.6c9,6.5,17.9,13,26.8,19.5c1.1,0.8,2,1.7,3,2.5c2.7,2.2,5,5,8.1,6.3c13.1,5.8,26.1,11.9,39.7,16.7
				c27.6,9.7,55.6,18.6,83.4,27.8c1.9,0.7,4,1,6,1c16-1,31.2,2.2,46.4,6.1c4.8,1.2,9.7,2.3,14.5,3.4c10.6,2.7,21.6,3.7,32.5,2.9
				c32.4-2.6,64.6-0.7,96.7,3.4c8.9,1.1,18,1,27.5,1.5c3.2-11.9,6.1-22.9,9.2-34.4c-4.3,0-7.4,0-10.5,0c-15.3,0.2-30.5,0.8-45.7,0.7
				c-12.7-0.1-25.3-2.4-37.3-6.8c-8.4-3.1-17.2-5.6-25.9-8c-18.3-5-37.3-5.4-56.1-6.1c-33.5-1.3-64.4-9.3-92.5-26.7
				c-16.2-10-33.4-18.7-50-28.3c-8.5-4.9-17.1-9.8-24.5-15.9c-16.9-13.7-35.2-25.5-54.7-35.1c-9.4-4.5-18.1-10.4-25.7-17.5
				c-10.5-9.8-22-18.4-34.3-25.8c-5.6-3.5-10.7-7.7-15.3-12.4c-10.8-10.9-20.2-23.1-28.1-36.3c-2.4-3.8-5.5-7.2-9.2-9.9
				c-13.5-10.9-27.2-21.7-40.1-33.2c-15.8-14-27.9-30.9-39.6-48c-1.4-2-3-4-4.5-6c-6.3,3.2-11.8,6.1-17.5,8.7
				c-2.2,1-4.6,1.7-7.1,1.8c-2.9,0.2-4.1-1.9-2.6-4.3c1.3-1.7,2.8-3.3,4.4-4.8c4.9-4.6,9.8-9.2,14.7-13.8c-2-3.4-3.6-6.3-5.4-9.3
				c-7.8-12.7-13.2-26.1-15.3-40.7c-2.9-20.3-10.1-39.5-20.7-57.6c-2.4-4.1-4.6-8.2-6.9-12.3c-15.3-27.2-23-55.8-20.8-86.6
				c1.3-17.8,0.9-35.6,1.6-53.4c0.3-8.2,0.4-16.4,2.1-24.4c4.8-21.9,7-44.4,6.3-66.9c-0.3-9,0.9-18.1,3.5-26.8
				c4-13.5,6.5-27.4,7.3-41.5c0.4-6.4,2.2-12.8,4.4-19c5.1-14.4,12.3-27.9,20.6-41c1.6-2.7,2.7-5.7,3.4-8.7
				c3.9-16.8,6.8-33.8,11.7-50.4c9-30.6,26-58,43.3-85.1c7.7-12.4,18-23.1,30.1-31.3c2.8-1.8,5.2-4,7.8-6.1
				c17.4-13.6,30.2-30.6,42.1-48.4c18.8-28,43.6-49.6,76.2-63.8c15.8-6.9,30.7-15.5,46.2-23c9.9-4.8,19.8-9.7,30.2-13
				c20.3-6.4,40-14.9,58.5-25.4c9.3-5.4,19.4-9.5,29.9-12.1c14.2-3.4,28.1-8.2,41.4-14.4c6.8-3,14-5.2,21.3-6.4
				c15.4-2.9,31.1-4.3,46.8-4c4.5,0.1,9-0.7,13.2-2.3c23.1-8.4,46.6-15.8,71.3-19.2c30.7-4.1,61.7-5.3,92.6-3.7
				c9.3,0.5,18.5,2.3,27.2,5.5c8.3,2.9,16.7,5.7,25.1,8c17.8,5,36.2,6.3,54.7,6.7c37,0.9,71.2,9.7,101.9,29.7
				c13.7,8.9,28.8,16,43,24.3c9.8,5.7,19.7,11.4,28.5,18.3c16.1,12.9,33.5,24,52,33.3c10,4.8,19.3,11,27.4,18.5
				c10.4,9.6,21.7,18.1,33.8,25.4c5.8,3.6,11.1,7.9,15.8,12.8c10.8,10.9,20.2,23.1,28,36.3c2.1,3.5,4.9,6.6,8.3,9
				c15.7,11.5,31,23.5,44.4,37.2c24.4,24.9,43.3,53.3,59.9,83c4.7,8.4,7.1,17.6,8.8,27c1.6,9.1,3.8,18.1,6.3,27
				c4.3,15.3,12.4,29.2,20.4,43.1c16.1,28,24.6,57.5,22.2,89.5c-1.3,17.1-0.9,34.3-1.6,51.5c-0.3,8.8-0.3,17.7-2.2,26.3
				c-4.8,22-6.9,44.4-6.3,66.9c0.3,8.8-0.8,17.7-3.3,26.1c-4.1,13.5-6.5,27.4-7.3,41.5c-0.3,6.4-2.1,12.9-4.3,19
				c-5.1,14.4-12.3,27.9-20.5,41c-1.7,2.9-2.9,6-3.6,9.3c-3.6,15.6-6.3,31.3-10.6,46.7c-8.9,32-26.5,60.5-44.5,88.7
				c-7.9,12.3-18.2,23-30.2,31.3c-15.5,11-29,24.6-39.9,40.2c-3.6,5.1-7.2,10.2-10.7,15.3c-18.5,27-42.8,48.1-74.4,62
				c-16.4,7.2-31.9,16.1-48,23.9c-9.2,4.5-18.5,9.2-28.4,12.2c-20.8,6.4-40.9,15.1-59.8,25.8c-9.1,5.3-19,9.3-29.3,11.8
				c-14.5,3.4-28.5,8.4-42,14.7c-5.1,2.4-10.5,4.1-16,5.3c-17.1,3.7-34.6,4.8-52.2,5c-3.8,0.1-7.6,0.6-11.2,1.7
				c-13.4,4.1-26.7,8.4-40,12.7c-1.7,0.5-3.3,1.2-5.3,1.9L873.2,1369.3z M1019,449.9c1.9,1.6,3.5,3.1,5.3,4.4
				c8.1,6.4,16.5,12.6,24.4,19.2c9.6,7.9,20.5,14.3,32.2,18.7c9.2,3.5,17.9,8.2,25.8,13.9c11.9,8.7,24.1,17.2,36.2,25.7
				c5.9,4.1,11,8.7,14.7,14.7s7.9,11.8,11.3,17.9c9.1,16.2,15.6,32.9,14.5,51.6c-0.7,12.1,0.4,24.3,0.5,36.5
				c0.1,8.6,0.3,17.2-0.4,25.7c-1,12.4-1.9,24.6,0.8,36.9c1.9,8.9,1.3,17.9-0.5,26.9c-3.1,15.2-5.4,30.7-9.4,45.7
				c-5.3,19.9-4.9,39.8-2.5,59.9c0.1,0.8,0.1,1.9,0.6,2.3c1.3,0.9,2,1.3,0,2.3c-0.8,0.5-1,2.2-1.2,3.4c-2.4,16.4-4.5,32.8-7.2,49.2
				c-0.9,5.2-2.6,10.2-5,14.8c-3.8,7.2-8,14.2-12.7,20.8c-10.7,15.3-23.4,28.7-41.7,37c-10.2,4.6-19.7,10.5-29.3,16.1
				c-11.5,6.8-23.5,12.9-35.8,18.2c-7.6,3.2-14.8,7.2-21.5,12c-10.6,8-22.4,14.1-35,18.2c-17.4,5.5-34.7,11.5-52.2,16.8
				c-13.8,4.2-26.2,10.5-38,18.1c-7.7,4.9-15.9,9.1-24.3,12.5c-13.9,5.8-28,11-42.2,16.1c-5.7,2.2-11.6,3.5-17.7,4.1
				c-9.8,0.7-19.6,0.7-29.3,0.2c-18.8-1-36.8-4.5-53-14.4c-9.2-5.7-19.3-10.3-29.2-15c-12.5-5.9-24.6-12.6-36.2-20.1
				c-7.1-4.6-14.7-8.4-22.6-11.4c-12-4.4-23-10-32.7-17.8c-15-11.9-30.2-23.6-45-35.7c-9.5-7.7-20.2-13.9-31.6-18.3
				c-11-4.3-21.3-10.2-30.6-17.5c-7.9-6.4-16.2-12.3-24.9-17.7c-10.9-6.6-19.8-14.6-25.6-25.5c-2.2-4-5-7.8-7.5-11.5l-37,23.5
				c5.2,7.7,8.5,16.3,16.9,21.8c10.2,6.8,18.8,15.2,27.1,23.8c9,9.3,20,16.4,32.3,20.6c15.6,5.6,29.8,13.4,44.3,21
				c5.5,2.7,10.3,6.8,13.9,11.8c5.8,8.5,13.5,15.3,22.4,20.8c7.4,4.6,14.9,8.9,22.4,13.3c8.2,4.8,17.3,7.9,26.7,9.2
				c10.9,1.6,21.5,5.3,31.1,10.8c4.1,2.2,8.4,4.1,12.8,5.8c9.1,3.7,17.4,8.2,23.2,16c1.3,1.4,2.6,2.8,4.1,4l2.4-1.8
				c1,1.8,1.4,4.2,3,5.4c8.4,6,17.1,11.8,25.8,17.6c2.3,1.4,4.7,2.6,7.2,3.5c9.8,3.9,20,7.1,29.5,11.6c18.3,8.7,37.8,8,57.4,7.7
				c3.1,0,5-1.4,5.7-4.4c1.3-5.3,2.9-10.6,4.4-15.8c0.6-1.6,1.2-3.2,2-4.8c3.3,7.2-0.6,13.9,0.2,20.7c8.9-2.2,17.3-4.8,26-6.3
				c18.6-3.3,35-10.3,49.3-21.7c1.5-1.3,3.2-2.4,5-3.3c5.1-2.1,6.5-6,7.3-10.5c0.4-2.3,1.1-4.6,1.7-7l0.9,0.2
				c-0.4,3.6-0.8,7.2-1.2,10.9c0.7,0,1.5-0.1,2.2-0.2c9.4-4.6,18.9-9.2,28.2-13.9c1-0.5,1.7-1.8,2.5-2.8s1.5-1.8,2.8-3.4
				c2.6,5.7,7.5,4.8,11.7,3.9c6.9-1.3,13.6-3.2,20.2-5.6c20.4-8,39.8-17.4,54-34c4.4-5.1,11.1-8.6,17-12.5
				c5.3-3.6,11.1-6.6,16.5-10.1c7.6-4.9,15.4-9,24.9-9.5c1.4,0,2.7-0.3,4-0.9c1-0.7,1.9-1.5,2.6-2.5c2.5-0.3,4.9-0.3,7-1
				c5.1-1.7,10.2-3.5,15.1-5.7c6.9-3.1,14-6.1,20.4-10c8.3-5.1,15.9-11.3,24.1-16.5c12.4-7.9,22.6-17.5,29.5-30
				c1.1-2.1,2.3-4.1,3.7-6c3.8-4.7,5.5-10,6.4-15.7c1.5-10.4,4.2-20.6,8-30.5c5-12.8,6.4-26.7,4.1-40.3c-2.5-14.8-2.7-29.7-2.1-44.5
				c0.1-5.5,1.4-10.8,3.8-15.8c4.9-9.4,7.9-19.6,8.9-30.1c1.5-18.6,2.5-37.1-5.2-55.2c-2.8-6.4-2.8-13.9-3.7-21
				c-0.7-6-0.8-12.1-1.3-18.2c-0.7-8.4-0.7-16.8,3.4-24.6c0.8-1.9,1.4-3.8,1.9-5.7l-3.9-1.3c4.3-1.4,4.9-4.3,5-7.6
				c0.1-2.5,0.8-5,1-7.5c0.6-9.4,1.8-18.8,1.5-28.1c-0.4-9.8-2.5-19.5-3.7-29.3c-1.3-11.2-4.2-21.8-10.6-31.6
				c-2.7-4.1-5-8.5-7.9-12.5c-2-3.1-4.5-5.8-7.3-8.2c-10.9-8.2-21.1-17.2-30.5-26.9c-9-9.5-20.7-15.5-33.1-20.7
				c-10.3-4.3-20.5-9-30.6-13.8c-5.2-2.5-10.2-5.4-15.6-8.2c-3.3,4.8-6.5,9.2-9.6,13.7l-1.1-0.6c2.2-5.2,4.4-10.4,6.4-15.1
				c-9.6-15-22.7-25.9-38.1-35s-31.3-16.8-50.3-17.6l-10.9,26.1c15.1,5.5,26,15.7,38.1,24.7l11.5-15.6l1.2,0.7
				C1025.8,438.5,1022.4,444.1,1019,449.9z M913.8,1246.8c5.5-2,10-3.4,14.2-5.2c19.7-8.7,39.4-17.4,59-26.2
				c8.7-3.9,16.9-9,24.2-15.1c4.2-3.5,8.6-6.9,13.1-10c12.6-8.7,26.2-15,42.2-16.5c5.6-0.6,11.1-2.1,16.2-4.5
				c11.3-5.3,22.8-10.6,33.2-17.3c21.7-14.2,42.6-29.4,64.1-43.9c12-8.1,22.2-18.4,30.1-30.5c4.8-7.2,9-14.6,14-21.6
				c6.9-9.6,13.5-19.5,21.6-28.2c9.9-10.6,19-21.8,27.3-33.7c3.7-5.2,8.6-9.7,13.1-14.3c3.2-3.3,7.4-5.8,10-9.4
				c5.4-7.2,12.4-12.7,18.8-19c9.6-9.3,18.6-19.2,21.9-32.1c2.8-10.6,4.9-21.3,6.4-32.1c1.8-14.3,2.5-28.8,3.8-43.2
				c1.4-15.7,1.6-31.3-2.3-46.9c-4.5-18.1-4.1-36.2,4.7-53.5c1.7-3.6,2.7-7.6,2.9-11.6c0.6-10.9,1.3-21.8,0.7-32.7
				c-1.4-24.9-5.5-49.6-9.1-74.3c-2.3-15.7-6.9-30.3-15.2-44c-4-6.6-8.4-13-12.1-19.7c-5.6-10.3-11.7-20.5-15.8-31.3
				c-5.1-13.5-11.2-26.6-18.3-39.2c-3-5.3-4.6-11.3-6.7-17c-1.8-5.2-3.3-10.4-5-15.6c-1.8-5.4-4.2-10.6-5.6-16.1
				c-4.8-18.6-13.3-35.1-29.9-47.4c-6-4.5-11.8-9.2-18.2-13.3c-15.9-10.2-31.9-20.1-48-30.1c-4.7-2.9-9.7-5.5-14.6-8.2
				c-1.6-0.7-3.2-1.3-4.9-1.9l-29.7,49.2c1.8,0.8,3,1.4,4.3,1.8c21.1,8,41.2,18.5,59.8,31.3c16.8,11.5,34.3,22.2,47.7,37.3
				c0.9,0.9,1.9,1.8,3,2.6c4.4,3.6,7.6,8.3,9.4,13.6c3.2,9,6.9,17.8,9.8,26.8c2.4,7.6,4.9,15.4,5.9,23.2c1.8,15.8,6.9,31,14.9,44.7
				c4.3,7.3,6.5,15.6,9.6,23.5c2,5.1,3.8,10.2,5.7,15.4c1.4,4,3.5,7.9,3.9,12c1.1,12.7,2.1,25.5,2.2,38.2c0.2,14-0.5,28.1-1,42.1
				c-0.7,18.3-2.7,36.4-8.6,54c-5.4,15.4-6.2,31.9-2.5,47.8c3.7,15.8,5,31.9,4.8,48.1c-0.1,14.5-2,28.8-3.7,43.2
				c-1.3,11-2.2,22.1-6.4,32.7c-1.6,4.1-2.8,8.4-3.8,12.7c-1.4,5.9-4.4,11.2-8.8,15.4c-5.8,5.9-11.6,11.8-17.1,17.9
				c-8,8.8-17,16.5-26.9,23.1c-10,6.6-18.7,15.1-25.5,25.1c-4.5,6.6-9.5,12.8-15,18.6c-6.9,7.2-14.8,13.5-20.8,21.5
				c-2.8,3.9-7.4,6.8-11.5,9.7c-4.4,3.1-8.9,5.9-13.7,8.3c-21.5,11-43,22-64.6,32.7c-14.1,7.1-29.1,12.4-44.5,15.7
				c-18.5,3.6-35.8,11.8-50.3,24c-11.7,9.9-24.6,18.3-38.4,25c-3.9,1.9-5.4,4.3-6.1,8.2c-3.4,18.6-8,37-16.2,54.4
				C914.9,1243,914.3,1244.8,913.8,1246.8z M1050.8,215.1c0.8,0.2,1.9,0.4,3,0.6c10.3,1.3,18.8,5.7,26.7,11.7
				c10.9,8.2,22.3,15.9,33.5,23.8c5.6,3.9,11.2,7.9,16.9,11.8c4.6,3.1,9.2,6.2,14,8.9c16.3,9.2,32.9,18.1,46.4,30.8
				c12.7,12,25,24.4,37.1,36.9c6.1,6.3,12.6,12.1,20.4,16.6c10.6,6,18.9,14.3,26.4,23.4c5.3,6.5,11,13,17.7,18.2
				c18.1,13.9,31.4,31.4,45.3,48.5c7.1,8.6,11.6,19,13,30c1.9,14.5,7,28.5,14.7,40.9c1.7,2.7,3.2,5.6,4.7,8.4
				c5.3,9.4,9,19.7,10.9,30.3c2.4,13.7,5,27.3,9.3,40.5c3.4,10.4,5.8,21.1,9.1,31.6s7,20.8,10.7,31.1c2,5.3,4.6,10.5,6.9,15.7
				c2.9,6.4,3.9,13.4,2.9,20.3c-2.4,16.8-4.9,33.6-7.3,50.5c-1.8,12.7-3.6,25.3-3.6,38.1c-0.1,14.9-1.1,29.8-5.7,44.2
				c-5.3,16.7-11.5,33.1-16.8,49.8c-2.3,6.8-3.7,13.8-4.3,20.9c-0.8,11.9-4.1,23-9.1,34c-3.5,7.7-6.9,15.7-8.4,23.8
				c-4.2,22.2-14.5,42.3-24.3,62.5c-3.9,8.1-9.8,15-17.2,20.1c-15.2,10.6-28.1,24.2-37.9,40c-6.8,10.7-15.7,19.9-26,27.3
				c-13.5,9.8-26.2,20.7-38,32.5c-5.4,5.4-11.2,10.4-17.1,15.3c-9.9,8.2-19,17.4-27.2,27.3c-3.4,4.2-7,8.3-10.5,12.4
				c-5.1,5.9-11.7,10.3-19,12.8c-23,8.6-45.9,17.2-68.8,26c-2.5,1-4.9,2.3-7.3,3.4c-11.7,5.5-23.3,11.4-35.3,16.5
				c-7.1,3-14.4,5.3-21.9,7c-14.1,3.3-28.3,6.3-42.6,8.9c-13.9,2.6-27.3,6.1-40,12.2c-5.9,2.8-12.9,4.2-19.5,5.4
				c-9.3,1.8-19,2.3-28.2,4.4c-12.3,2.8-10.2,1.3-10.7,12.3c-0.3,6.2,0,12.4,0,19.3l13-2.7c22.6-4.7,45.1-10.2,67.9-13.9
				c16.2-2.7,31.9-5.9,47.1-12c9.7-3.8,19.7-6.5,30-8c12.5-1.9,24.6-5.7,35.9-11.3c15.8-7.7,32.2-14,49.1-18.8
				c14.9-4.1,29.3-10.2,42.6-18.1c11.9-7,23.7-14.2,36-20.5c21.9-11,41-26.8,55.8-46.3c8-10.5,15.5-21.2,23-32
				c12.5-17.8,27.8-33.2,47-45c10.9-6.6,20.3-15.4,27.6-25.8c7.9-11.5,15.3-23.3,22.8-35c13.6-21.4,22.2-44.5,27.9-68.6
				c0.2-1.3,0.4-2.7,0.5-4l-1-0.3c-2.1,4.4-4.1,8.8-6.4,13.5c-0.3-0.7-0.5-1-0.4-1.1c8-26.9,15.7-53.8,27.3-79.6
				c4.4-9.6,7.1-19.9,8.1-30.4c1.1-12.6,4.4-25,9.6-36.5c3.1-6.9,4.9-14.4,5.4-22c1.4-20.1,2.8-40.2,8.1-59.8
				c4.1-15.2,4.5-30.7,3.6-46.2c-0.6-10.7-1.3-21.4-1-32c0.6-25.3-5.2-49.1-17.1-71.8c-5.8-11.1-12-22.1-18-33.1
				c-9.9-18-16.3-36.8-17.9-57c-1-13-4.2-25.3-10.8-36.7c-7.5-12.9-15.4-25.7-23.4-38.4c-13-20.7-30.2-38.3-49.4-54.2
				c-1-0.7-2.1-1.4-3.2-2l-0.5,0.7l9.8,11.8c-2.7-1.9-5.3-4-7.8-6.2c-18.7-17.1-37.1-34.6-53.3-53.9c-7.5-9.2-16.4-17.1-26.3-23.5
				c-9.6-6.1-18.5-13.1-25.5-21.7c-8.5-10.5-19.3-18.3-31.1-25.1c-15.1-8.8-29.4-18.9-42.6-30.3c-9-7.9-19-14.6-29.7-19.9
				c-18-9-36-17.9-54-26.9c-1.5-0.7-3.1-1.3-4.7-1.8C1048.9,188.5,1049.8,201.4,1050.8,215.1z M216.6,496.2
				c-7.4,27.9-15.3,55.2-27.1,81.4c-4.3,9.4-6.9,19.5-7.9,29.8c-1.1,12.6-4.4,25-9.6,36.5c-3.1,6.9-4.9,14.4-5.4,21.9
				c-1.4,19.9-2.7,39.7-7.9,59.2c-4.1,15.4-4.7,31.1-3.8,46.8c0.6,11.3,1.3,22.6,1.1,33.9c-0.4,23.5,5,46.7,15.9,67.6
				c6,11.8,12.5,23.3,18.9,34.9c9.9,17.9,16.7,36.8,18.1,56.9c1.1,14.6,5.5,28.7,12.9,41.4c0.8,1.4,1.9,2.7,2.9,4.3l32.3-21.7
				c-0.7-11.2-4.7-21.2-10.1-31c-1.8-3.2-3.4-6.4-5.3-9.5c-7.8-12.8-12.2-26.5-14.8-40.9c-2.1-11.8-5.3-23.3-8.3-34.9
				c-2.6-10.2-5.5-20.3-8.7-30.4c-3.4-10.8-7.2-21.6-11.1-32.3c-2.2-5.9-5-11.7-7.5-17.5c-2.4-5.9-3.1-12.3-2.1-18.5
				c2.4-17,4.9-34,7.4-51.1c1.8-12.5,3.4-24.9,3.6-37.5c0.1-11.5,0.7-23.3,3.6-34.3c5.1-19.5,11.8-38.7,18.4-57.8
				c2.7-7.9,4.7-15.7,5-24c0.1-9.1,2.2-18,6.2-26.2c6.6-13.3,10.7-27.1,13.8-41.3c3.4-15.5,11.6-29.5,17.8-44.1
				c5.4-12.7,14.3-23.5,25.7-31.1c11.4-7.7,21-17.8,28.3-29.5c10-16.1,23.2-29.5,39.3-40.5c2.1-1.5,4-3.2,6.1-4.8
				c-1.6-2.5-3-5.1-4.3-7.8c-0.4-1.1-0.1-2.4,0.7-3.3c0.6-0.5,2.6-0.1,3.5,0.6c1.9,1.4,3.8,2.9,5.5,4.5c9-7.9,17.2-15.4,25.9-22.5
				c16.7-13.6,31.9-29.1,45.3-46c5.8-7.4,13.5-12.2,22.8-15.4c11.3-3.9,22.4-8.1,33.5-12.4c8.4-3.2,16.7-6.6,25-10
				c6.6-2.7,13.3-5.4,19.7-8.6c17.3-8.4,34.5-17.1,53.7-21.4c12.6-2.8,25.2-5.6,37.9-7.9c15.5-2.8,30.4-6.5,44.6-13.2
				c7.1-3.3,15.6-4.2,23.6-5.9c10.2-2.1,20.8-2.9,30.7-5.8c13.7-4,27.4-7.6,41.8-8.8c3.6-0.3,7.2-0.9,10.8-1.5
				c19-2.9,37.5-2.8,55.5,4.8c10.8,4.6,22.6,6.3,34.5,6.7c8.6,0.3,17.3,0.7,25.9,1.5c12.8,1.3,24.7,5.5,36.5,9.9
				c14.8,5.5,30.3,8.4,46.1,11.9c4.4-13.5,9.6-26.2,9.5-40.4c-2.5-0.3-4.4-0.7-6.4-0.8c-9.5-0.5-19.1-1.2-28.6-1.4
				c-26.5-0.8-52-5.1-75.9-16.1c-9.8-4.7-20.5-7.4-31.4-7.9c-16.8-0.7-33.7-1-50.5-1.1c-27.1-0.2-53.3,4.8-79,12.5
				c-1.2,0.4-2.4,0.9-3.5,1.5l0.2,0.8c5.7-0.7,11.4-1.5,17.1-2.2c-8,2.8-16.2,5-24.5,6.7c-18.6,3.8-37.2,7.9-56,10.9
				c-16,2.5-31.7,5.4-46.4,12c-10.9,4.9-22.8,7.4-34.7,8.9c-7.4,1-14.6,3-21.5,6c-5.2,2.2-10.1,4.8-15.4,6.8
				c-13.8,5.4-27.5,11.2-41.7,15.6c-18,5.4-35.3,13.1-51.5,22.8c-10.1,6.1-20.3,12-30.8,17.4c-20.7,10.5-38.8,25.4-52.9,43.7
				c-8,10.4-15.7,21.1-23.1,31.9c-13.1,19-29.2,35.3-49.7,47.8c-9.6,5.7-18,13.4-24.4,22.6c-8.4,12-16.3,24.2-24.1,36.5
				c-14,21.9-22.9,45.6-28.7,70.3c-0.2,1.1-0.2,2.2-0.2,3.4l1,0.2L216.6,496.2z M970,818.5c0.2-0.8,0.5-1.5,0.7-2.2l33.5,4.9
				c0-16.7,0.3-32.6-0.2-48.5c-0.1-4.7-1.9-9.5-4.1-13.8c-4-7.7-6.4-16.1-7.2-24.7c-0.6-6.9-1.6-13.8-1.7-20.7
				c-0.1-12-4.3-23.6-11.9-32.8c-7-8.9-12.4-18.9-16.1-29.7c-3.4-9.7-8.9-18.2-15.5-26.4c-7.1-8.6-13.6-17.7-19.5-27.2
				c-6-10-13.5-18.2-24.5-23.8c-10.2-5.2-18.5-13.5-23.5-23.8c-2.4-5-5.8-9.6-9.8-13.4c-8.7-7.7-15.8-16.2-19.8-26.7
				c-1.7-4.4-5.3-7-9.9-8.9c-5.5-2.4-10.8-5.2-15.9-8.4c-3-1.8-5.9-2.9-9.6-2.1c-5.5,1.1-11.1,2.7-16.7,2.9c-3.5,0.1-7,1.2-10,3
				c-15.2,8.8-27.2,20.3-35.4,35c-4.3,7.6-8.7,15.2-13.4,22.6c-7.5,11.9-17.7,21.8-29.9,28.8c-13.9,8.2-29.2,12.5-45.2,15.2
				c-8.5,1.4-16.9,3.2-25.3,5.2c-6.6,1.6-10.5,5.5-10.7,12.2c-0.1,2.7-0.6,5.4-0.8,8.1c-1.7,25.2-6.6,49.9-16.1,73.7
				c-5.8,14.6-11.6,29.1-17.5,43.6c-4.7,11.6-5.4,24.4-2.2,36.5c3.8,14.9,7.8,29.7,11.4,44.6c1.6,6.6,5.6,10.5,12.3,13.1
				c7.3,2.8,14.4,6.1,21.3,9.9c10.7,6.1,21.5,11.8,33.2,16c13,4.6,20.6,13.5,22.9,26c1.5,8.5,2.7,17,4,25.5
				c2.2,14.3,10.2,25.3,22.6,33.9c5.3,3.6,11.5,5.4,17.8,5.3c8.9,0.1,17.1-2.3,25.1-5.3c18.7-7,37.7-12.5,58.2-12.2
				c5.2,0.1,10.3-1.8,14.2-5.4c4.6-4,9.2-8.2,13.6-12.3c5.6-5.3,11.5-10.3,19.1-13c11-3.9,20.3-10.1,29.7-16.5
				c6.3-4.3,13.6-7.5,20.4-11.2c0.8-0.5,1.5-1.1,2.7-1.9l-20-4.7c0-0.4,0.1-0.8,0.1-1.3c15.9-0.3,31.8-0.5,47.7-0.8
				c3.9-0.1,8,0.5,11.5-0.4c9.2-2.4,18.2-5.2,27-8.6c12.6-5,18.2-14.8,17-28.4C992.2,826.7,980.3,824.5,970,818.5z M1089.8,439.3
				c14,7.4,27,15,41.3,20.6c17.2,6.8,32.3,16.3,44.1,29.9c7,7.9,14.1,15.7,21.1,23.6c0.4,0.5,0.9,1,1.4,1.4
				c15.2,12,21,28.6,26.2,45.4c4.1,13.5,7.1,27.3,10,41c1.2,6.4,1.7,12.9,1.6,19.3c-0.1,5.5-0.7,10.9-1.7,16.2
				c-1.3,7.2-2.5,14.5-4.7,21.5c-1.6,4.5-2.3,9.3-2.2,14.2c0.4,6.9,0.8,13.8,0.8,20.7c0,7.8,0.8,15.5,3.9,22.8
				c5.8,13.6,7.1,27.6,6.2,42c-1.1,17.4-2.6,34.7-10.7,50.9c-1.3,2.9-1.9,6-1.8,9.2c0,11.3,0.2,22.6,0.6,34c0.2,5.6,1,11.3,1.5,16.9
				c1.8,20.8-7.9,39.2-14.3,58.3c-1.9,5.8-4.4,11.4-6.8,17.1c-1.8,4.3-3.3,8.9-6.1,12.6c-6.6,8.6-13.8,16.7-21.4,24.4
				c-7.4,7.3-15.9,13.7-24,20.5c-4.7,4-9.2,8.1-14.2,11.8c-13.1,9.5-28.6,15-44.2,19.2c-12.3,3.3-23.4,7.5-33.6,14.4
				c-0.9,0.6-1.9,1.2-2.9,1.6c-10.5,4.7-19.9,11.6-27.5,20.3c-6.7,7.4-14.7,13.4-23.7,17.7c-4.8,2.3-9.6,4.9-14.4,7.1
				c-14.3,6.7-28.7,12.7-45,14.1c-1.4,0.2-2.8,0.6-4.1,1.2c-3,19.4-6,38.4-9.1,58.5c3.4-1.8,5.9-2.9,8-4.4
				c10.3-7.3,20.7-14.4,30.6-22.1c10.6-8.2,22.3-14.9,34.7-19.7c7.3-2.8,14.8-5.4,22.3-7.8c13.9-4.4,27.5-9.9,40.6-16.3
				c19.7-9.7,39.3-19.3,59.2-28.7c7.4-3.5,14.3-7.2,19.1-13.7c1.9-2.6,4.8-4.4,7.2-6.7c1.9-1.8,3.8-3.6,5.6-5.5
				c6.1-6.5,12.1-13,18.1-19.6c2.9-3.2,6.1-6.3,8.6-9.7c6.3-8.9,14.5-16.1,23.5-22.6c5.9-4.2,11.5-8.8,16.7-13.8
				c9.3-9.2,18.3-18.7,27.1-28.3c2.3-2.5,4.1-5.5,5.1-8.7c5.2-16.7,9.8-33.5,12.2-50.8c3.6-26.2,5.2-52.3-1.1-78.2
				c-5.5-22.6-3.8-44.9,0.8-67.3c2.6-12.5,3.9-25.3,4.9-38c1.2-15.7,1.7-31.4,2.3-47.1c0.6-15.4,2.9-31-4.7-45.7
				c-0.6-1.1-0.5-2.5-0.9-3.7c-0.7-2.2-1.5-4.4-2.3-6.5c-2.8-7.1-5.5-14.2-8.3-21.2c-2.2-5.5-4.1-11.1-6.8-16.4
				c-4.1-7.9-6.8-16.4-7.9-25.3c-1.3-10-3.7-19.9-7.3-29.3c-3.5-9.5-7-19.1-10.6-28.5c-1-2.5-2-5.3-3.9-7.2
				c-8.3-8.1-16.2-16.7-25.4-23.7c-19.2-14.4-38.6-28.7-60.8-39.3c-9.2-4.5-18.6-8.3-28.3-11.5L1089.8,439.3z M451.1,897.5
				c3.9,6.4,7.4,11.8,10.5,17.3c3.6,6.5,9.1,11.3,15.5,15.5c9.1,5.9,18.1,12,26.6,18.7c9.8,7.7,20.6,14,32.1,18.8
				c8.5,3.5,16.6,7.8,24.2,12.8c19.5,13.4,38.6,27.3,57.7,41.3c8,5.7,16.8,10.3,26,13.6c7.5,2.9,15.2,6,21.6,10.6
				c15,10.6,31,19.8,47.3,28.6c7,3.8,13.7,8.3,20.5,12.5c4,2.4,7.9,4.9,11.9,7.4c3.5,2.2,7.1,3.3,11.5,1.9c2.9-0.7,5.9-0.8,8.8-0.2
				c12.6,2.1,25.3,2.1,38.1,2.3c7.2,0,14.4-1.5,21-4.4c10.8-4.5,21.6-8.9,32.7-12.5c11.4-3.9,22.4-9.1,32.5-15.7
				c7.8-5.1,16.1-9.5,24.7-13.2c22.7-9,45.8-17.4,68.8-25.9c8.4-3,16.3-7.3,23.3-12.8c7.7-6.1,16.3-10.9,25.6-14.2
				c13-4.6,25.2-10.6,37.3-16.8c10.9-5.6,22.2-10.5,33.4-15.8c4.5-2.1,9.1-4,13.3-6.5c1.9-1.1,3.1-3.3,4.3-5.2
				c1.8-2.9,3.1-6,5.1-8.8c7.3-10.4,15-20.5,21.9-31.1c2.5-4.2,4.1-8.8,4.8-13.5c2.4-14,4.3-28.2,6.4-42.3c0.1-1.5,0.1-3,0-4.5
				l-32.7,5.4c-3.1,7.7-5,15.2-8.9,21.7c-12.8,21.5-31.2,38-56.3,47.3c-6.5,2.5-13.2,4.6-20,6.2c-9.4,2.1-18,6.9-24.8,13.7
				c-6.9,6.9-13.9,13.8-20.7,20.9c-15.1,15.6-31.8,29.3-51.2,40.3c-14.2,8-28.2,16.2-42.3,24.2c-14.2,8.2-29.4,14.5-45.3,18.9
				c-14,3.7-28.1,7-42.2,10.2c-4.5,0.9-9,1.4-13.5,1.6c-13.6,0.9-26-3.3-38.2-8.1c-19.2-7.6-38.3-15.6-57.6-22.9
				c-15.1-5.8-27.8-14-37.8-26c-7.8-9.3-17.3-17-27.9-22.9c-17.7-9.9-33.7-22.7-47.3-37.8c-10.8-11.9-24.3-20.9-39.4-26.3
				c-9.7-3.6-19.3-7.6-28.7-11.7c-11-4.7-20.3-12.6-26.6-22.8c-1.9-3-3.9-6-6-9.1L451.1,897.5z M442.9,413.2c1.1-1.4,2-2.4,2.7-3.4
				c5.5-7.7,13.3-13.6,21.5-18.1c22.9-12.5,46.4-23.9,69.9-35.4c15.3-7.7,31.6-13.4,48.3-17c16.8-3.3,32.4-10.7,45.6-21.6
				c23.5-19.5,50.5-33.5,79.6-44.4c4.8-1.8,9.5-4,14.4-5.8c6.5-2.4,13.1-4.7,19.8-6.6s13.7-3.2,20.5-4.9c5.6-1.4,11.1-1.9,16.8-0.6
				c5.1,1.2,10.2,2.1,15.4,2.9c16,2.6,31.7,5.6,46.5,12c12.2,5.3,25,7.5,38.4,7.8c12,0.3,24,2.2,35.5,5.6c3,1,6.1,1.6,9.3,1.8
				c7.9,0.1,15.2,2.1,22.5,4.8c1.6,0.6,3.3,1.1,5.4,1.7c4.5-14.6,9-28.7,13.4-42.9c-8.7-3.9-16.8-6.7-25.5-7.3
				c-14-1-28.2-1.6-42.2-1.9c-14.6-0.3-29.2-0.4-43.4-3.6c-13.8-3.2-27.8-4.1-41.9-4.5c-6.8-0.2-13.6-1.2-20.1-3.2
				c-5-1.5-10-3.1-15.1-3.6c-8.9-0.9-17.3-3.2-25.9-5.4c-12.1-3.1-24.7-4.4-37.2-2.5c-12.7,2.1-25.1,5.9-36.8,11.2
				c-18.7,8.2-37.3,16.5-55.9,24.9c-9.6,4.2-18.5,9.8-26.5,16.4c-5.8,4.8-11.9,9.2-18.2,13.2c-10,6.4-20.9,11-33.3,12.2
				c-9.7,0.9-18.5,4.3-27,8.4c-37,18.2-68.9,43-101.3,67c-3.3,2.4-5.7,5.7-8.2,8.3L442.9,413.2z M323.2,972
				c7.7,10.3,10.2,21.6,13,32.8c0.3,1.2,0.7,2.4,1.3,3.6c4.4,7.9,6,16.6,8.7,25.1c4.5,14,10.8,27.2,23.3,37c8.5,6.6,17,13.3,26,19.3
				c11.8,7.9,24.1,15.1,36,22.8c14,9.1,28.5,17.4,45.3,21.4c2.4,0.7,4.7,1.5,7,2.4c15.4,5.8,28.9,13.8,39.2,26.4
				c4.3,5,9.4,9.2,15.1,12.5c11.1,6.5,22.5,12.9,34.4,17.8c25.3,10.5,51,20.2,76.6,30c4.7,1.7,9.5,2.9,14.4,3.8
				c13.4,2.8,27.2,2.6,40.8,2.4c20-0.5,40,1.5,59.6,5.8c7.6,1.7,15.4,2.2,23.1,1.4c2.6-9.5,5.2-18.8,7.6-27.8
				c-14.6-5-28.6-9.9-42.7-14.4c-4.5-1.6-9.2-2.4-14-2.4c-22.6,0.7-43.8-7-65.9-9.5c-4.8-0.5-9.5-2.7-14.1-4.5
				c-5-2-9.9-4.2-14.6-6.8c-19.9-11-39.8-21.9-59.6-33.2c-14-8-27.2-17-38.3-28.2c-13.9-14-30.5-23.6-50-29.4
				c-25.2-7.4-47.7-19.7-68.9-34c-17-11.5-34.8-22.3-48.3-37.6c-0.6-0.6-1.3-1.2-2-1.7c-5.8-4.4-9.2-10.1-11.5-16.7
				c-3.9-11.6-8.4-23-12.9-35.2L323.2,972z M288.6,1087.1c20.5,17.2,40.1,35.3,57.1,55.6c8.6,10.2,18.5,19.2,29.5,26.8
				c8.9,6,17.1,13,24.4,20.9c8.9,9.8,19.2,18.1,30.7,24.6c14.4,8.2,28,17.8,40.6,28.6c12.1,10.4,25.6,19.1,40.1,25.9
				c14.1,6.8,28.1,13.8,42,20.9c14.2,7.3,29.5,12.6,45.2,15.5c18.8,3.5,37.9,4.3,57,4.9c25.1,0.8,49.2,5.3,71.8,15.6
				c8,3.7,16.5,6.2,25.3,7.4c21.3,3,42.7,2.4,64,1.7c1-0.2,2-0.5,2.9-0.9c2-10.4,4.1-20.7,6.2-31.8c-5.3,0.5-9.6,0.9-13.9,1.3
				c-12,1.3-23.7,0.6-34.8-3.8c-17.2-6.8-35.2-9.6-53.9-9.6c-13.4,0-26.7-2.4-39.3-7c-15.4-5.8-31.3-10.4-47.4-13.7
				c-6.2-1.2-12.4-2.7-18.5-4.5c-18.8-5.9-38.3-9.7-57.9-11.4c-11.5-1-22.4-5.4-31.3-12.7c-9.8-7.8-20.4-14.7-30.7-22
				c-6.1-4.3-12.3-8.6-18.6-12.8c-5-3.3-9.9-6.7-15.1-9.6c-15.9-9-32.1-17.8-45.3-30.1c-12.8-11.9-25.1-24.3-37.2-36.8
				c-6.4-6.9-13.8-12.9-22-17.7c-9.4-5.4-17.5-12.6-24-21.2c-6.8-9-15.2-16.6-23.9-24c-7.2-6-13.9-12.6-20.1-19.6
				c-10.8-12.6-22.7-24.6-30-40.2l-28.8,17.2c16,28.5,36.7,52.6,63.6,72.1L288.6,1087.1z M400.6,390.3c-5,7.8-9,14.6-13.6,21.1
				c-7.1,10-13.7,20.4-22.1,29.4c-10.4,11-19.9,22.8-28.6,35.2c-3.4,4.9-8,9-12.3,13.4c-3.5,3.6-8,6.4-10.9,10.3
				c-5,6.6-11.4,11.9-17.5,17.6c-10.2,9.6-19.3,20.2-23.1,33.5c-1.9,6.5-3.8,13-4.6,19.6c-1.7,13.1-2.6,26.3-3.8,39.4
				c-1,10.7-1.8,21.3-2.7,32c-1,11.9,2.4,23.3,4.4,34.8c2.9,16,2.6,31.6-4.6,46.9c-2.4,5.1-3.3,10.9-4.2,16.4
				c-0.9,5.4-1.1,10.9-0.8,16.3c1.2,18,2.7,35.9,4.3,53.9c0.4,4.9,1.5,9.8,2.2,14.7c0.7,0,1.3,0,2-0.2c15.1-6.3,30.2-12.6,45.5-18.7
				c3.3-1.3,3.5-3.4,3.6-6c0.3-11.1,0.4-22.2,0.8-33.3c0.6-18.5,2.7-36.8,8.7-54.6c5.2-15.2,6.1-31.5,2.4-47.2
				c-3.3-14.3-4.9-29-4.9-43.7c0-15.3,1.1-30.6,3.4-45.7c1.6-10.3,1.3-20.9,5.3-31c2.3-5.7,3.7-11.7,5.3-17.5
				c1.4-5.2,4.1-9.9,7.9-13.7c4.6-4.6,9.2-9.3,13.5-14.1c10-11,21.3-20.9,33.5-29.4c6.6-4.7,12.5-10.2,17.8-16.3
				c7.9-9.2,14.8-19.1,22.6-29.4L400.6,390.3z M394.6,931.9l-31.2,16c0.1,1.4,0.4,2.8,0.7,4.2c4.5,12.5,9,25.1,13.8,37.5
				c1,2.6,2.6,4.9,4.7,6.8c13.4,12.8,27.3,25.1,42.8,35.9c24.3,17.1,50.1,31.2,79.2,39.8c11.9,3.4,23.2,8.5,33.5,15.3
				c7.7,5.2,15,10.9,22.6,16.3c10.4,7.4,20.5,15.3,31.5,22c22.4,13.6,45.3,26.5,68.1,39.6c1.9,1.1,3.9,2.5,6,2.9
				c9.9,2.2,19.9,4.2,29.9,6.1c7.8,1.5,15.6,2.7,23.4,4.1c4.7,0.8,9.4,2.1,14.1,2.3c13.4,0.6,25.9,4.1,38.1,8.9
				c8.5,3.4,17.4,5.5,26.5,6.4c3.2-12,6.3-23.8,9.5-35.6c-1.2-0.3-1.9-0.7-2.5-0.5c-12.9,2.5-25.5-0.2-37.9-2.5
				c-12.2-2.3-24-6.3-36-9.7c-6.7-1.9-13.6-3.5-20.1-5.9c-16.6-6-30.3-16.4-42.9-27.4c-7.9-6.9-15.8-12.9-25.8-16.8
				c-2.7-1.1-5.3-2.4-7.7-4c-9.1-5.5-19.1-8.5-29.7-10.6c-8.2-1.5-16.2-4-23.8-7.4c-10.3-4.9-19.9-11-29.6-16.9
				c-10.2-6.1-19.2-14-26.6-23.3c-2-2.6-4.5-4.8-7.3-6.5c-13.3-6.9-26.6-13.8-40.2-19.9c-16.6-7.5-31.7-16.5-43.4-29.8
				c-6.9-7.9-14-15.7-21.1-23.6c-0.3-0.4-0.6-0.7-0.9-1C405.1,948.5,398.7,941.5,394.6,931.9L394.6,931.9z M784,1246.3
				c-11.4-2-22.5-4.2-33.8-5.7c-11.9-1.6-23.9-2.7-35.9-3.4c-9.5-0.6-19.1-0.2-28.7-0.3c-17.3-0.1-34.4-3.4-50.4-9.7
				c-6.3-2.5-12.7-4.7-19-6.9c-32.7-11.8-64.4-26.1-95-42.6c-4.5-2.3-8.8-5.1-12.8-8.3c-11.2-9.2-24.1-16.2-37.9-20.8
				c-10.7-3.5-20.9-8.2-30.4-14.1c-17.8-11.3-35.6-22.6-52.9-34.5c-7.6-5.2-14.3-11.7-20.7-18.2c-14.4-14.7-23-32.5-30.4-50.8
				c-1.2-2.9-2.1-6-3.6-8.8c-5.1-9-8-18.6-10-28.6c-1.3-6-3.9-11.6-7.6-16.4l-42.1,24.1c2.8,4.8,4.9,9.2,7.7,13.2
				c5.2,7.4,11,14.4,16.4,21.7c6.8,9,14.8,17.2,23.6,24.3c6.8,5.5,13.7,11.3,19,18c9.8,12.6,21.9,23,34.4,33
				c11.2,8.9,22,18.3,30.3,29.7c9.3,12.8,21.7,22.6,35.7,30.6c9.4,5.4,19,10.9,29.1,15c20.2,8,38.6,18.6,56,30.9
				c5.6,4,11.3,7.8,16.7,12c5.5,4.3,12.1,6.9,19.1,7.7c18.1,2,36.1,4.3,53.5,9.7c10.8,3.3,21.8,5.9,32.6,9.2
				c13.4,4.1,26.7,8.3,39.9,12.8c10.3,3.5,20.7,6.4,31.7,7.3c5.2,0.4,10.4,1.3,15.6,1.8c16.7,1.5,32.6,5.7,48.1,11.4
				c15.1,5.5,30.3,3,45.5,1.2c2.4-12.3,4.6-23.9,6.7-34.9c-9.5-2.5-18.3-4.6-26.9-7.1c-6.4-1.7-12.9-2.4-19.5-2.3l-4.3,6.1l-0.7-0.3
				C783.3,1250.2,783.7,1248.2,784,1246.3z M950.6,305c-3.7-3.1-7.9-4.5-12.5-5.2c-4.9-0.8-9.8-2-14.6-3c-3.1-0.6-6.2-1.4-9.3-2
				c-7.1-1.2-14.3-2.3-21.5-3.4c-5.6-0.9-11.1-2.5-16.7-2.9c-11.8-0.7-23.3-3.3-34.3-7.5c-6.1-2.4-12.3-4.4-18.7-5.9
				c-14.4-3-28.9-5.6-43.4-8.1c-3.3-0.6-6.8-0.5-10.1,0.2c-17.8,4.2-35.9,7.6-52.5,15.4c-2.2,1-4.6,1.7-7,2.6
				c-24.6,9.2-47.8,20.9-67.4,37.5c-18.2,15.3-39.2,25.6-62.4,32.6c-14.8,4.5-29.3,10.2-43.1,17.1c-14,7-28.2,13.7-42.3,20.5
				c-6,2.9-12,5.9-18.7,9.2l31,35.7c4.9-1.2,9.2-2.8,13.7-3.2c6.2-0.6,11.2-3,16.2-6.1s10.1-6.4,15.5-9.1c8.8-4.2,16.7-10,23.2-17.2
				c7.6-8.6,16.9-15.6,27.4-20.5c5.5-2.6,10.8-5.4,16.3-7.9c13.7-6.3,27.9-11.2,43.3-12.7c4-0.5,7.9-1.8,11.4-3.8
				c13.2-7.4,26.2-15.2,39.2-22.8c2.9-1.7,5.9-3.2,8.7-4.9c17.6-10.7,38.3-12.1,58.1-16.3c7.5-1.6,15.2-2.6,22.8-3.6
				c4.5-0.6,9.1-1.6,13.5-1.1c11.3,1.2,22.6,2.4,33.6,5c15,3.5,29.7,8,44.3,12.7c7,2.4,13.7,5.4,20,9.2c7.3,4.2,13.9,9.4,20.9,14.1
				c1.3,0.7,2.6,1.3,4,1.8C943.1,335.6,946.8,320.5,950.6,305z M374.5,866.3c0-7.5-0.4-14.2,0.1-20.8c0.5-7.1,1.5-14.2,2.7-21.2
				c0.7-4.6,1.9-9.1,3.5-13.4c1.7-4.3,2.5-8.9,2.2-13.5c-0.4-7.1-0.8-14.2-0.8-21.3c0-7.8-0.9-15.5-3.9-22.8
				c-5-12.1-7.1-25.2-6.3-38.2c1-18.5,2-36.8,10.6-54.1c1.4-3.1,2.1-6.4,2-9.8c0.1-11.1-0.1-22.2-0.5-33.3c-0.2-5.8-1-11.7-1.5-17.5
				c-1.7-21,7.9-39.5,14.6-58.7c1.9-5.4,4-10.7,6.3-15.9c2.1-4.8,3.8-10,7-14.2c7.8-10.3,16-20.3,26.7-28.5
				c8.3-6.4,15.9-13.6,24-20.6l-22-27.1c-7,7.6-13.9,14.3-19.8,21.7c-6.1,7.7-12.9,14.7-21.2,20.4c-8.5,5.8-16.4,12.6-23.4,20.1
				c-7.3,7.8-14.9,15.3-22,23.2c-2.3,2.5-4.1,5.4-5.2,8.6c-5.1,16.5-9.8,33-12.1,50.2c-3.7,26.6-5.1,53.1,1,79.4
				c4.4,18.2,4.8,37.2,1.3,55.6c-1.8,9.3-4.3,18.5-5.2,27.9c-1.5,17.1-2.1,34.3-2.9,51.5c-0.1,1.3,0.8,2.6,1.1,3.9
				c0.1,0.4,0.5,1.1,0.3,1.3c-3.4,3-2.2,7.1-2.5,10.7c-0.5,6.9-0.3,13.8-0.8,20.7c-0.5,6.4-0.2,12.5,2.8,18.4c1.5,3,1.9,6.5,3,9.6
				c2.5,6.7,5.1,13.3,7.9,20.4L374.5,866.3z M280.4,903.6c-2.9-4.9-5.5-9-7.9-13.3c-7.3-12.5-13-25.5-14.9-39.6
				c-1-8.1-4-16-4.1-24.3c-0.1-5-1.5-9.9-2.1-14.9c-2.8-21.2-4.5-42.5-5-63.9c-0.3-12.8-0.6-25.5,2.4-38.2
				c2.2-9.5,1.9-19.2,0.4-28.8c-2.1-12.9-4-25.8-2.8-38.8c1.7-18.2,3.3-36.3,5.4-54.5c1.5-12.4,4.9-24.4,10.2-35.7
				c7.4-16,18.2-29.9,30.2-43.1c2.6-2.6,5-5.4,7.2-8.4c5.1-7.3,11.6-13.4,18.6-19.1c3.5-2.6,6.6-5.7,9.3-9.2
				c9.2-12.6,19.4-24.4,30.5-35.4c15.2-15.3,24.3-34.3,36.5-51.7l-20.1-20.4c-13.3,8.9-25.9,17.7-35.1,30
				c-13,17.1-27.6,32.8-45.6,45.6c-5.9,4.2-10.6,9.7-13.8,16.1c-5.1,10-10.6,20-15.1,30.3c-3.2,7.3-5.2,15.1-7.6,22.7
				c-3.2,9.8-5.5,19.9-9.5,29.4s-7.7,18.8-9.6,28.7c-4.1,21.5-10.3,42.5-20.4,62.4c-1.2,2.2-2.1,4.6-2.6,7.1
				c-3.6,18-5.4,36.1-3.4,54.4c1.5,13.8,3.3,27.5,1.6,41.4c-1.5,12.5-2.9,25-4.9,37.4c-1.3,8.3-0.6,16.1,3.2,23.9
				c6.3,13,12,26.3,15.4,40.2c3.6,14.7,7.6,29.3,11.2,44c1.7,7.1,2.9,14.4,4.3,21.6c1.3,6.7,2.4,13.5,3.8,20.9L280.4,903.6z
				 M978.5,217.5c-3.4-0.9-6-1.7-8.6-2.4c-16-3.9-31.8-8.8-47.1-14.7c-11.6-4.6-23.8-6.7-36.4-7.9c-16.3-1.5-32.7-3.2-48-9.1
				c-16-6.2-32.2-8.4-49.3-5.9c-12.5,1.9-25.5,2.1-37.7,5.1c-17.1,4.4-34,8.8-51.7,11.1c-11.3,1.5-22.3,5.5-33.4,8.7
				c-13.9,4.1-27.8,7.9-42.4,9.4c-8.5,0.8-17.3,1.9-25.4,4.5c-18.6,5.8-36.2,13.8-51.9,24.8c-16.2,11.2-33.7,20.3-52.1,27.2
				c-7.1,2.7-14.1,5.9-21.4,8.1c-8.5,2.6-16,7.8-21.3,14.9c-12.1,15.8-26.5,29.8-42.4,42.5c-9.4,7.5-18.1,15.9-27.5,24.3l19.9,15.4
				c8.3-6.9,16-13.6,24-20c5-4,10.4-7.5,15.5-11.4c27.7-20.6,57.3-38.6,88.1-55c5-2.6,10.1-4.8,15.5-6.5c13.8-4.2,25.9-11,37.4-19.2
				c7.9-5.6,16-11.4,24.8-15.4c21.1-9.8,42.6-19,64.3-27.7c27.2-10.8,55.8-10.5,84.6-6.7c6.5,0.9,13,2.4,19.5,2.9
				c8.3,0.7,16,2.8,23.9,4.9c6.2,1.5,12.4,2.6,18.7,3.4c11.2,1.6,22.6,2.4,33.7,4.5c15.2,2.9,30.5,4.8,46,4.6
				c7.7-0.1,15.5,0,23.2,0.2c16,0.3,31.8,2.2,46.9,7.4c1.1,0.3,2.2,0.5,3.4,0.6L978.5,217.5z M926.4,363.9c-0.8-1.8-1-4.4-2.5-5.5
				c-8.8-6.3-17.8-12.3-26.9-18.3c-1.9-1.1-3.9-2.1-6-2.9c-10.2-4-20.6-7.9-30.7-12.1c-12.3-5.3-25.6-7.9-39-7.6
				c-3.6,0.1-7.3-0.2-10.9,0.1c-4.3,0.3-8.7,0.6-12.6,1.8c-12.2,3.9-24.4,8.1-37.2,10.1c-13.6,2.2-26.5,7.6-37.5,15.7
				c-13.1,9.7-27.5,17.1-41.9,24.8c-5.8,3.1-12.2,4.9-18.7,5.2c-9.3,0.4-18.5,2.4-27,6.1c-6.6,2.9-13.1,5.8-19.6,8.8
				c-12.4,5.6-23.3,13-32,23c-5.7,6.6-13.1,11.6-21,15.8c-4.9,2.6-9.6,5.5-14.2,8.6c-8,5.4-16.5,9.5-26.7,10.4
				c-2.1,0.4-4.3,0.9-6.3,1.5l16.5,27c1.2-0.5,2.3-1,3.4-1.6c11.8-7.3,24.3-13.1,37.1-18.6c7.1-3.1,13.9-7,20.1-11.7
				c9.6-7.3,20.4-12.9,31.8-16.7c18.9-6.1,37.7-12.4,56.7-18.3c12.2-3.7,23.8-9.3,34.2-16.6c8.2-5.8,17.2-10.4,26.7-13.8
				c13.5-4.9,27-10,40.3-15.3c6.9-2.9,14.3-4.5,21.8-4.7c7.7,0,15.5-0.5,23.2-0.1c19.9,1,39,4.5,56.4,14.7
				c14.1,8.3,29.5,15,44.3,22.3c0.3,0.1,0.8-0.1,1.8-0.3c1.6-6.5,2.8-13.3,4.9-19.9c2-6.2,0.1-10.5-5.6-14L926.4,363.9z
				 M1064.1,828.8c0.7-1.4,1.3-2.9,1.8-4.4c2-8.2,2.2-16.7,0.5-25c-6.4-34.9-14-69.6-17.5-105c-1.6-16-7.4-31.1-18.7-43.9
				c-5.6-6.5-9.4-14.3-11.1-22.7c-3.1-14.8-11-27.3-21.6-38.7c-13.6-14.5-28.7-27.4-47.2-36.7c-10.7-5.4-20.3-12.1-27.6-21.2
				c-0.3-0.4-1-0.5-1.5-0.8c-5,9.8-10,19.3-15,29c2.2,1.4,4.4,2.9,6.8,4.2c11.3,5.9,20.5,15.1,26.5,26.4c5.4,9.9,12,19,19.5,27.3
				c6.4,7.2,11.7,15.1,14.8,24c4.7,13.5,11.6,26.2,20.3,37.5c5.8,7.4,9,16.5,9.4,25.9c0.3,7.1,0.3,14.3,0.4,21.4
				c0,10.8,1.6,21.2,6.2,31.3c2.2,4.8,3.6,9.9,3.9,15.2c0.8,14.4,0.8,28.9,1.2,43.3c0,2.3,0,4.5,0,7.1L1064.1,828.8z M469.2,471.3
				c-4.3,2.9-7.9,5.7-12,8c-18,10.3-32,23.9-41.5,41.5c-2.5,4.8-4.9,9.4-5.8,14.6c-1.6,10.6-4.3,21.1-8.1,31.1
				c-5,12.8-6.5,26.7-4.1,40.3c2.5,14.6,2.4,29.2,2.3,43.9c0,6-1,11.8-4,17c-4.9,8.7-7.8,18.4-8.6,28.3c-1.7,19-2.9,37.9,5,56.4
				c2.8,6.4,2.8,13.9,3.7,20.9c0.7,6,0.8,12.1,1.3,18.1c0.7,8.4,0.7,16.8-3.4,24.6c-0.7,1.4-0.9,3-1.6,5.5l32.3-12.2
				c0.5-7.4,0.8-14.5,1.6-21.5c1.5-11.2,1.1-22.6-1.1-33.8c-1.8-8.9-1.3-17.9,0.5-26.9c3.2-15.6,6.1-31.3,9.6-46.9s6-30.9,3.2-46.8
				c-2-11.3-0.2-22.5,2-33.7c1.7-8.2,2.9-16.5,3.6-24.8c0.7-12.2,3.7-23.6,11.3-33.8c2-2.8,3.4-6,5.5-8.7c5.5-7.2,10.9-14.4,17-21.1
				c4.9-5.4,10.7-10.1,16.3-15.2L469.2,471.3z M910.8,475.1c2.8-12.5,5.4-23.6,7.6-34.9c0.3-1.5-1-3.6-2.2-4.8
				c-4.6-4.6-10.3-7.9-16.5-9.7c-19.7-5.9-39.3-12-59.2-17.1c-7.5-1.9-15.7-1.6-23.7-1.7c-5.9,0.1-11.8,0.5-17.6,1.4
				c-2.5,0.3-4.3-1-6.3-1.4c-2.5-0.5-5.6,1.3-8.3,2.2c-27,9-51.8,21.5-74,38.3c-9.3,7-18.9,13.8-28.7,20.3
				c-13.3,8.9-27,17-42.7,22.1c-19.3,6.2-38.5,12.8-57.9,18.7c-17.1,5.2-30.2,15.8-44.4,25.3l23.9,34.7c0.7-1.1,1.3-2.3,1.8-3.5
				c3.7-10.6,11.8-17.3,22.7-21.2c9.1-3.3,18.4-6.1,27.8-8.5c28.4-6.6,53.2-19.2,75.8-36c17-12.6,34.2-25.1,51.6-37.2
				c16.3-11.3,34.1-20.1,54.2-24.5c16.9-3.7,34.6-2.4,50.7,3.8c6.7,2.5,13.7,5,20.7,6c16.8,2.5,29.2,11,39.8,22.4
				C907.2,471.2,908.5,472.5,910.8,475.1z M474.8,792.5c3.6-13.3,6.9-25.9,10.5-38.4c4.2-14.2,4.8-29.1,1.7-43.6
				c-3.6-16.6-4.4-33.3-0.4-49.9c7.3-30.6,9.9-61.7,10.8-92.9c0.2-5.2,0.8-10.5,1.7-15.6c1.4-8.1,5.6-14.5,13.8-18.4
				c3.4-1.6,6.5-3.5,10.5-5.7l-21-23.8c-6.7,3-13,5-14.2,12.4c-0.3,2.1-2.2,4.1-3.8,5.9c-8.8,9.7-15.9,20.5-22.3,31.6
				c-2.3,4-3.8,8.4-4.5,13c-2.1,12.4-3.2,24.9-5.4,37.3c-1.8,9.8-2.6,19.5-1.4,29.4c1.2,9.6,2,19.2,0.5,28.8
				c-3.3,20.5-6.3,41-9.4,61.6c-1.4,9.1-3.3,18.3-1.3,27.5c3,13.6,2.5,27,0,40.6c-0.7,3.8-0.8,7.7-1.2,12.5L474.8,792.5z
				 M530.1,777.2c-2-15.6,4.4-29.3,8.2-43.5c1.5-5.7,2.7-11.5,4.1-17.2c2.2-8.8,4.3-17.5,6.6-26.3c1.8-6.7,4.3-13.3,5.8-20
				c3.5-15.6,1.8-31.3-0.6-46.9c-2-12.8-2.1-25.5,1.6-38c0.9-3.2,1.8-6.5,2.8-9.7c0.6-1.9,0.7-3.6-1.1-5.1
				c-9.7-8.2-16.4-18.5-23.8-28.2c-1.2-1.5-2.4-2.9-3.8-4.7c-3.3,1.7-6.1,3.4-9.2,4.7c-7.3,3-10.4,8.4-11,15.4s-1.1,13.8-1.3,20.7
				c-0.6,26.6-1.9,53.2-8.2,79.3c-4.5,18.8-4.4,37.3,1.4,55.9c3.7,11.9,4,24.6,1.1,36.7c-2.2,9.4-5,18.7-7.5,28.1
				c-0.7,2.5-1.2,5.1-2,8.6L530.1,777.2z M925.8,410.5c-3.7-2.1-6.8-3.8-9.9-5.6c-15.2-8.9-30.3-17.8-45.4-26.7
				c-2.7-1.6-5.4-3.1-8.1-4.6c-2.4-1.4-5.2-1.7-7.8-1c-3.1,0.6-6.3,0.8-9.4,0.6c-12.3-0.6-24.5-1.3-36.8-2.1
				c-9.1-0.6-17.4,1.5-25.6,5.3c-9.2,4.2-18.6,7.9-28.3,10.9c-12.6,4-24.5,9.7-35.5,17c-7.4,4.9-15.3,9.1-23.6,12.4
				c-23.4,9.2-47.2,17.6-70.7,26.7c-6.5,2.4-12.6,5.7-18.2,9.8c-11,8.4-23.4,14.9-36.5,19.3c-3.2,1-6.3,2.3-9.4,3.8
				c-7.5,3.7-15,7.5-22.4,11.3l4.2,7.7l-1,0.6l-5.6-6.8l-24.8,11.8l18.9,23.6c5.2-3.9,10-7.3,14.5-11c6.6-5.6,14-10.2,21.9-13.7
				c7.8-3.5,15.6-7,22.9-11.1c9-5.1,18.6-9,28.6-11.6c15.5-3.9,30.3-10,44.1-18.2c14.6-8.9,29.5-17.5,43.8-26.8
				c26.1-17.1,55.2-27.2,86.2-33.5c5.6-1.2,11.4-1.2,16.9,0.2c1.8,0.3,3.6,0.3,5.3,0.1c10.2-0.4,20.5-1.8,30.6-1
				c23.7,1.8,46.3,8.6,68.8,15.3c3.5,1,6.8,2.9,10.7,4.7C924.7,415,925.2,413,925.8,410.5z M1035.3,275.5
				c-6.2,16.9-12.3,33.5-18.4,50.3c1.9,1.2,3.6,2.3,5.3,3.3c16.8,9.7,32.5,20.8,46.2,34.1c3,2.9,6.1,5.7,9.4,8.2
				c10.1,7.8,21.7,13.3,34.1,16.4l32.1-48.8c-5.7-1.9-10.8-3.5-15.9-5.3c-16.4-5.8-30.9-14-41.5-27.5c-2.8-3.6-6.3-6.7-10.3-9.1
				c-12.3-7.1-25-13.6-37.5-20.4C1037.7,276.2,1036.5,275.8,1035.3,275.5L1035.3,275.5z M994.6,383.9c37.4,5.9,65.6,25.1,90.6,49.5
				c6.8-12,13.6-23.8,20.2-35.3c-0.4-0.6-0.5-0.8-0.7-0.9c-1-0.5-2-0.9-3.1-1.3c-14.1-4.5-27.2-11.4-39-20.3
				c-8.5-6.3-16.6-13-25.3-19.2c-8-5.8-16.5-11-25.6-17C1005.9,354.6,1000.4,368.7,994.6,383.9z M288.6,899.7l39.7-16.3
				c-3.3-8.9-4.1-18-9-26c-1.9-3.3-3.1-7-3.5-10.8c-1.1-10.8-1.6-21.7-2.4-32.6c-0.1-1.9-0.3-3.9-0.4-6.3l-48.5,21.8
				C265.3,855.4,272.3,878.7,288.6,899.7L288.6,899.7z M536.6,841.9c-8.7-9-8.2-19.3-7.7-29.7c0.4-9.4,0.7-18.8,0.9-28.2
				c-0.1-1.7-0.3-3.5-0.7-5.2c-11.1,3.7-21.5,7.3-32,10.5c-3.9,1.2-5.6,3.2-5.9,6.7c-0.9,10-2.6,19.9-2.5,29.9
				c0,11.3,6,21.1,11.5,31.6L536.6,841.9z M997.2,161.3c-1.5,14.6-3,28.4-4.5,42.4c16.7,5.7,34.2,9.3,51.8,10.6
				c0.7-13.9,3.3-27.3,0.7-40.8C1029.6,166.7,1013.7,163.1,997.2,161.3z M306.1,956.7c-5.1-16-10.7-30.9-20.5-44.4l-37.2,14.4
				l21.4,51.2L306.1,956.7z M347.5,930.6c-1-13.7-8.3-24.7-14.9-36.7l-38,14.3l19.9,43.2L347.5,930.6z M936,1112.7
				c-1,0-1.5-0.2-1.8,0c-9.2,5-18.4,10-27.6,14.9c-2.7,1.4-3.2,3.7-3.6,6.3c-2.4,14.9-5,29.8-7.6,44.6c-0.4,2.1-0.6,4.3-1,8
				c10.4-4.5,19.2-8.3,28-12c3-1.3,3.4-3.7,3.8-6.2c2.3-12.4,4.6-24.7,6.8-37.1C934.1,1125.2,935,1119,936,1112.7z M922.6,1186.7
				c-10,3.9-18.9,7.5-27.9,10.9c-2.8,1.1-3.3,3-3.8,5.4c-2.2,11.8-4.5,23.5-6.6,35.2c-0.8,4.7-1.5,9.3-2.3,14.8
				c3.5-0.2,6.2,0,8.8-0.5c4.7-0.9,9.2-2.3,13.9-3.1c5.1-0.8,7.1-3.6,7.8-7.9c1.7-10.5,3.6-21.1,5.5-31.6
				C919.4,1202.6,920.9,1195.3,922.6,1186.7L922.6,1186.7z M987.7,490.3l20.7-31.1c-12.3-7.8-22.1-17.9-36.1-22.9l-6.7,14.5
				l-1.1-0.4l4.7-15.3l-7.5-2.5c-2.7,6.6-5,12.7-7.7,18.7c-1.2,2.8-0.9,5.1,1.1,7.5C964.6,470.2,976.2,479.6,987.7,490.3
				L987.7,490.3z M1001.6,261c-4.8,17.3-8.8,33.6-11,50.4l20.1,11.2c6.3-17.1,12.3-33.4,18.5-50.1L1001.6,261z M443.9,880.6
				l39.5-16.2c-4.1-10.9-8-20.9-11.9-31.1c-0.3-0.1-0.6-0.1-0.9,0c-10.3,5.4-20.6,10.7-30.7,16.3c-1.3,0.8-2.1,2-2.4,3.4
				c-0.6,5.4-0.9,10.8-1.2,16.3c-0.2,2.6,0.9,5.1,3.1,6.7C441,877.4,442.5,878.9,443.9,880.6z M500.8,440.5
				c-9-13-16.6-25.9-26.9-37.2c-11.1,3.6-15,13.9-23.8,19.5c4.3,5.5,8.2,10.4,11.9,15.3s7.4,9.8,10.8,14.3L500.8,440.5z
				 M802.7,1209.7c-3.3,8.9-6.6,17.8-10.1,27.1c2.3,0.3,4.3,0.5,6.3,0.9c5.1,0.9,10.2,1.8,15.3,2.9c4,0.9,7.8,2.3,11.8,3.1
				c3.4,0.7,7,0.7,10.7,1.1l7.8-31.3C829.8,1216.8,817.1,1210.2,802.7,1209.7L802.7,1209.7z M426.5,846.6c0-10.5,0-20.9-1-31.5
				c-9.5,2.4-18.1,4.3-26.4,6.8c-5,1.5-9,4.3-8.2,10.3c0.2,1.8-0.6,3.7-0.8,5.6c-0.9,7.4-1.8,14.9-2.8,23.4L426.5,846.6z
				 M425.1,857.2l-35.5,16.2c1.8,10.1,1.6,20.1,4.1,30.4l37.1-17.7C428.9,876,427,866.8,425.1,857.2z M385.8,907.9
				c-2.5-10-5-19.8-7.7-30.2l-33.2,12.3c4.9,11.5,9.5,22.3,14.3,33.4L385.8,907.9z M439,842.2l32.3-11.2c0.8-11.4,1.6-22,2.4-33.2
				c-10.9,3.8-21.5,7.5-32,11.4c-1.4,0.8-2.4,2.2-2.6,3.8C438.9,822.3,439,831.7,439,842.2z M508.3,452.5l-28.4,11.1l23.6,29.2
				l23.3-12.8C520.5,470.6,514.6,461.8,508.3,452.5z M1003.5,859.6c2.8-0.3,3.9-0.3,5-0.5c9.3-1.8,18.6-3.6,28-5.4
				c8-1.5,18.4-9.6,22-17.5l-43.3-5.1C1014.7,841.8,1011.7,850.9,1003.5,859.6z M988.3,326.9l-9.4,50.7l9,4.4l17.5-45.6L988.3,326.9
				z M968.2,371.7c0.7-2.9,1.4-5.1,1.8-7.3c2.3-12.6,4.5-25.1,6.7-37.7c1.2-7.3,0.6-8-8-10.5c-3.4,17-6.8,34-10.2,51.4L968.2,371.7z
				 M923.9,499.2c4.3-11.5,8.1-21.5,11.7-31.6c0.5-1.3,0.5-2.8-0.1-4.2c-1.5-2.9-3.6-5.5-6-9c-4.8,9.4-9.2,17.9-13.3,26.4
				c-0.5,1.3-0.5,2.8,0.1,4.1C918.4,489.3,920.9,493.5,923.9,499.2z M972.2,301.1l7.2,3.6l12-47.3l-8.8-2.8
				C979,270.5,975.6,285.7,972.2,301.1z M1111.6,840.6l-38.5-2.7l-7.7,11.7l44.7-2.3L1111.6,840.6z M956.5,414
				c3-9.8,5.8-19,8.7-28.6l-9.5-3.7c-2.4,9.5-4.6,18.4-7,27.6L956.5,414z M966.8,418.6c1.2,0.6,2.3,1.1,3.6,1.6
				c1.2,0.3,2.4,0.4,3.6,0.5l9.1-26.4l-7.9-3.1C972.4,400.5,969.7,409.2,966.8,418.6L966.8,418.6z M846.7,1346.5l-1-0.1
				c-3.7,9.4-7.4,18.9-11.6,29.6l12.6-2.3L846.7,1346.5z M944.1,423.5c-5.8,11.1-5.7,11.6,1.7,19c1.9-5.1,3.7-9.9,5.5-14.8
				L944.1,423.5z M905.9,1382.5l0.2,1.6l32-2.4c0-0.6-0.1-1.1-0.2-1.7L905.9,1382.5z M669.7,89.2c7.4-0.4,14.9-0.7,22.3-1.2
				c3.6-0.3,7.1-0.9,10.6-1.4C691.6,85.5,680.4,86.3,669.7,89.2z M330,215.9l1,0.9l13.4-12.8l-1.4-1.1
				C336,204.8,334.8,211.9,330,215.9z M1478,953.8c-4.6,6.8-8.6,13.9-11,21.6C1471.7,968.6,1475.8,961.6,1478,953.8z M873.5,1327.4
				l18.4-5.2C880.2,1321.2,875.6,1322.4,873.5,1327.4L873.5,1327.4z M555.5,1372.2c-6.3-1.8-12.6-4.1-19.5-3.6
				C541.8,1372.8,549,1371.3,555.5,1372.2L555.5,1372.2z M1530.3,615.6l-1.3,0.5l5.3,16.4l1.8-0.5
				C1537.6,625.6,1531.7,621.2,1530.3,615.6L1530.3,615.6z M1361,326.9c-1.7-6.4-8.5-15.4-13.8-18.4
				C1351.9,314.6,1356.5,320.7,1361,326.9z M1056,96.5c-0.1,0.5-0.2,1-0.3,1.4l18.6,4.3c-0.8-1.7-1-2.9-1.4-3
				C1067.3,98.3,1061.6,97.4,1056,96.5z M248.8,1142.6c1.8,6.6,8.4,15.3,13.8,18.4L248.8,1142.6z M1136.6,1398.9
				c5.8-1.4,4.7-6.3,7.2-10.3C1135.2,1392.3,1135,1392.7,1136.6,1398.9z M1589.6,792c-0.8,8.5-0.6,8.9,6.1,9.9
				C1596.7,797,1592.3,795.3,1589.6,792L1589.6,792z M75.4,836.2c-2.9,4.1-1.6,8.2,5.3,17C79,847.7,77.3,842.3,75.4,836.2z
				 M473.4,70.4c-6.1,1.6-5.1,6.3-7.3,10.3C474.4,76.8,474.4,76.8,473.4,70.4L473.4,70.4z M345.7,1331.2c4.7,3.7,8.5,1,13.3,0.3
				C351,1327.1,351,1327.1,345.7,1331.2z M1250.8,137.6c7.4,4.7,8.2,4.7,12.8,0.3C1259.4,134.2,1255.3,137.2,1250.8,137.6z
				 M14.3,666.9c-0.1,5.1,0.5,6,6.1,9.5C20.7,669.1,20.7,669.1,14.3,666.9z M156,393.2c2.6-4,0.8-6.9,1.1-11.1l-6.2,6L156,393.2z
				 M807.8,1423.6l-1.6-1.2l-8.9,4.8l8.3,2.4C806.5,1427.2,807.2,1425.4,807.8,1423.6z M132.1,512.3l1.9,0.7l9.7-19.3l-1.5-0.6
				L132.1,512.3z M151.3,1075.3l-1.3,1c0.5,1.9,1,3.8,1.7,6.2l6.9-1.1C157.7,1076.8,152.8,1078.1,151.3,1075.3L151.3,1075.3z
				 M1451.3,388l-0.5,1.7l9.1,4.6c-0.9-3.2-1.6-5.4-2.3-7.9L1451.3,388z M804.1,39.9c-1.1,2.7-3,4.4-0.6,7.2l8.6-5.1L804.1,39.9z
				 M1452.4,1086.9l6.1-5.3c-1.7-2.1-2.2-5-6.1-4.1V1086.9z M1266.1,1265c0.4,0.4,0.8,0.8,1.2,1.2c5.7-1.7,7-7.1,9.5-10L1266.1,1265
				z M761.3,34.2l0.9,1.2l9.5-4.6c-0.3-0.5-0.6-1-0.9-1.6C767.5,30.5,763.2,30.2,761.3,34.2z M1441.5,350.3c2.7,2.3,5.2,5.1,9.4,4.7
				C1448.1,352.9,1446.4,349.1,1441.5,350.3z M849,1433.6c-4.7,1.7-8,2.7-10.2,5.7C842.3,1438.6,846.5,1439,849,1433.6z M50.6,654.2
				c-1,3.9-2.1,7.9,0.9,11.5C51.3,661.9,50.9,658,50.6,654.2z M1560,803.2h-2l1,11.7l0.9-0.1L1560,803.2z M858.9,1223.2
				c0.3-2.6,0.6-4.8,0.9-7c0.3-1.9,0.5-3.9,0.7-5.8h-1.6V1223.2z M168.2,1119.1c-2.7-2.4-5.2-5.2-10.6-5.4
				C161.4,1116.7,163.5,1120.1,168.2,1119.1z M125,419c0.6-3.1,1.9-6.3,0.1-9.4C123.4,412.8,121.9,415.8,125,419z M491,98.6l0.9,1.3
				l11.4-6.6l-0.8-1.2L491,98.6z M1255.9,172.8c0.2-0.4,0.5-0.9,0.7-1.3l-10.7-5c-0.2,0.4-0.5,0.9-0.7,1.3L1255.9,172.8z
				 M1483.3,1059.8c4.2-5.4,4.1-7.1,0.5-9.7C1483.7,1053.6,1483.5,1056.7,1483.3,1059.8L1483.3,1059.8z M363,1302.5
				c0.3-0.5,0.5-1,0.8-1.5l-11.2-4.9l-0.6,1.2L363,1302.5z M487.2,872.1l-0.8-1.5l-9.4,4.2c0.1,0.3,0.3,0.5,0.4,0.8L487.2,872.1z
				 M1107.3,1375.4l0.8,1.2l9.5-5.4l-0.8-1.3L1107.3,1375.4z M857.8,1229.1h-0.5v5.3h0.5V1229.1z M839.6,1454.2l0.4,1.1
				c0.8,0,1.8,0.3,2.5-0.1s1-1.3,1.5-2l-0.7-0.6L839.6,1454.2z M108.5,406l2,0.2v-3.7l-1.2-0.1L108.5,406z M147.5,1125.5l1.3-1.4
				l-3.2-1.9l-0.9,1L147.5,1125.5z M1464.5,347.5c-1-3.2-1-3.2-4-2.7L1464.5,347.5z M770.9,14.9c-2.8-1.3-4.3-1.2-5.6,2.1
				L770.9,14.9z M1501.2,1063.2l-1.9-0.3v3.8l1.2,0.1C1500.7,1065.6,1501,1064.4,1501.2,1063.2z"/>
			<path class="st2" d="M939.7,750.8c-2.8,20.6-5.5,41.1-8.3,61.7c-0.7,5.3-3.7,9.3-8.3,12.5c-8.1,5.4-16,11.1-24,16.6
				c-1.9,1.5-4,2.8-6.3,3.8c-10.1,4.1-17.9,10.8-24.6,18.5c-13.4,15.3-29.8,26.8-49.3,35c-10.1,4.3-19.6,9.8-29.8,14
				c-7.6,3.1-15.6,6.2-23.8,7.3c-20.2,2.7-30.6-4.7-36.8-18.3c-8-17.8-15.3-35.8-22.9-53.7c-0.9-2.1-1.7-4.3-2.3-6.6
				c-3.7-12.7-11.6-22.5-23.1-30.2c-8-5.3-16-10.4-25.2-13.8c-2.1-0.8-4.2-1.7-6.2-2.6c-6.6-3.1-9.7-8.2-8.8-14.9
				c0.7-5.2,2-10.3,2.6-15.5c0.8-7.7,2-15.5,1.5-23.1c-1.2-19.5,0.5-39.1,5-58.1c3-12.9,8.5-25,16.2-35.7
				c6.3-8.8,14.7-14.2,26.4-14.4c7.9-0.1,15.6-3,21.5-8.3c6-5.1,11.6-10.6,16.9-16.3c8.9-10.1,17.3-20.5,25.8-30.9
				c8.8-10.8,16.2-22.7,22.1-35.3c4.7-9.9,11.9-17.7,20.5-24.7c2.7-2.2,6.4-2.7,9.6-1.4c4.8,1.6,9,4.8,11.9,9c0.8,1,1.4,2.1,1.9,3.3
				c3.7,13,13.7,21.8,23.5,31c12.3,11.5,23.7,23.7,35.3,35.9c7.2,7.6,10.4,17.1,12.6,26.8c0.8,3.9,1.7,7.8,2.5,11.7
				c1.6,7.9,4.9,15.4,9.8,21.9c6.8,9.3,11.7,19.8,14.3,31.1c3.2,13.1,7.8,25.9,13.6,38.1C937.6,733,939.6,741.9,939.7,750.8z
				 M804.1,525.1c-8.2,2.5-11.9,7.6-14.4,14c-9.3,23.8-21.3,46.5-35.8,67.6c-7.5,11.2-16.5,21.3-26.8,30
				c-9.8,8.2-20.8,13.5-34.2,13.7c-6.7,0.1-11.6,2.8-15.9,7.3c-4.9,5.2-7.8,11.3-10.2,17.6c-6.3,16.4-8.6,33.3-9.2,50.6
				c-0.4,11.5-0.8,23-1.8,34.5c-0.5,6.2-2.4,12.4-3.4,18.6c-0.8,5-0.4,5.5,4.6,7.7c3.3,1.4,6.7,2.6,10,4.1
				c23.6,11.3,42.8,26.1,49.3,51.4c1.9,7,4.6,13.7,8.2,19.9c4.9,8.7,9.1,17.8,12.4,27.2c0.9,2.4,1.9,4.7,3.1,7
				c5.1,10,11.5,13.1,23.1,10.1c7.4-1.9,14.4-5,21.3-8.2c9.4-4.3,18.3-9.4,27.8-13.5c16.6-6.9,31.3-17.6,43-31.2
				c1.3-1.5,2.7-2.8,4.1-4.2c6.7-7.1,14.7-12.8,23.6-16.9c3.3-1.4,6.1-3.6,9.1-5.5c7-4.6,14.1-9.2,21-13.9c1.5-1,3.1-2.7,3.4-4.3
				c3-15.5,6-30.9,8.3-46.5c2.1-13.7,0.6-26.9-5.5-40c-4.6-9.7-7.5-20.2-10.4-30.5c-3-10.8-7-21.2-13.9-30.5
				c-5.7-7.7-9.5-16.7-11.2-26.1c-0.7-3.9-1.7-7.8-2.5-11.7c-2-10.4-7.3-19.8-15-27c-6.1-5.7-11.6-11.8-17.3-17.7
				c-4.8-5-9.1-10.6-14.3-15.2c-9.8-8.5-17.8-17.8-21.7-29.9C811.6,529.4,808.3,526.2,804.1,525.1z"/>
			<path class="st2" d="M1163.1,774c-7.5,2.9-14.9,5.9-22.5,8.6c-1,0.4-2.6-0.5-3.9-0.8c0.7-0.9,1.3-2.4,2.2-2.6
				c8.1-1.8,16.2-3.4,24.3-5.1L1163.1,774z"/>
			<path class="st2" d="M876.3,748.7c-0.5,11-0.8,22.7-1.5,34.4c-0.6,10.7-4.5,20.5-10.9,29.4c-12.3,17.2-27.1,32.5-43.9,45.4
				c-8.2,6.3-17.6,10.4-28.6,10.3s-19.2-4.6-24.6-13.3c-3.5-5.4-5.4-11.5-5.7-17.9c-0.2-4.8-0.1-9.6-0.3-14.5
				c-0.4-11.8-6.3-18-19-20.1c-1.8-0.3-3.6-0.6-5.4-0.9c-7.2-0.7-13.9-3.9-19-9.1c-3.2-3.3-6.4-6.7-8.4-10.6
				c-10.8-20.6-17.2-42.3-17.6-65.3c-0.1-7,2.7-12.9,9.1-16.6c21.1-12.3,36.9-29.7,53.9-46.1c12.8-12.2,22.8-27.1,29-43.6
				c0.7-2,2-4,2-6c0.1-6.1,4.8-9.6,8.4-13.6c3.3-3.7,9.8-4,14.4-1.2c1.7,1.1,3.3,2.3,4.8,3.5c5.3,4,10.8,7.5,18,8.3
				c5.3,0.6,9.1,3.7,11.7,7.9c1.4,2.1,2.6,4.4,3.6,6.8c6.6,17.6,14,35,17.4,53.5c2,10.3,4.6,20.5,8,30.5c3.1,9.3,4.9,18.7,4.6,28.4
				C876.2,735,876.3,741.5,876.3,748.7z M863.1,738.5c-0.8-13.3-1.2-26-2.4-38.7c-0.7-7.9-2.8-15.7-4-23.6
				c-2.9-20.6-11.9-39.4-19.2-58.8c-0.4-1-0.9-1.9-1.5-2.8c-1.7-3.2-4.3-5.4-8.3-5.9c-7.1-0.8-12.7-4.3-18-8.3
				c-1.7-1.4-3.5-2.7-5.4-3.8c-1.4-0.7-4-1.3-4.9-0.6c-3.8,2.9-7.9,5.8-7.6,11.1c0.5,7.9-1.5,15.7-5.5,22.4
				c-5.1,8.4-10.4,16.8-16.9,24.2c-9,10.2-19.2,19.6-28.9,29.3c-9.1,9.1-18.7,17.8-30.3,24.2c-5.2,2.9-7.3,7-7,12.6
				c1,19.5,6.8,37.9,15.3,55.7c5.1,10.7,13,18.2,26.7,18.5c0.2,0,0.5,0,0.7,0.1c13.4,2.6,22,10.8,24,23.4c0.7,4.5,0.7,9.2,0.9,13.8
				c0.3,5.9,1.3,11.7,4.6,16.9c4.8,7.8,12.1,10.3,21.4,7.8c7.6-1.9,14.4-6.1,19.6-12c10.4-11.9,20.7-24,30.5-36.2
				c6.2-7.6,10.2-16.8,11.5-26.6C860.1,766.9,861.5,752.5,863.1,738.5z"/>
			<path class="st2" d="M793,662l-4.4,1.8l-0.4-0.8c2.6-2,5.4-3.8,7.7-6c2.1-2.1,3.6-4.7,5.2-6.8c1.9-0.3,4-0.1,5.4-0.9
				c5.4-3.4,11.6-3.7,17.6-4.5c3.9-0.7,7.8,1.4,9.4,5c1.5,3,2.7,6.2,4,9.3c1.1,3,2.4,5.9,3.9,8.7c4.3,7.2,6.3,14.9,5.3,23
				c-2.8,22.5-2.6,45.3-7.8,67.5c-3.3,14.3-7.4,28.5-11.5,42.7c-1.1,3.7-2.9,7.1-5.3,10.1c-4.5,5.7-11.4,5.4-14.8-0.9
				c-2.1-4.1-3.3-8.7-3.6-13.3c-0.6-6.9-0.1-13.8-0.1-20.8c0-1.9-0.1-3.8-0.4-5.6c-0.4-2.5-2.1-3.8-4.8-3.4
				c-3.8,0.5-7.6,1.4-11.4,1.9c-6.5,0.8-13,2-19.6,2c-9.9,0-17.8-4.2-23.9-11.5c-14.4-17.2-11.1-38-1.7-51.9
				c2.2-3.3,5.8-5.9,9.2-8.2c4.1-2.6,8.4-5,12.8-7.2C777.1,685.5,786.3,675,793,662z M805.7,656.4c-1.3,3.6-2,7-3.6,10
				c-6.4,12-15,22.5-27.4,29.9c-5.7,3.4-11.8,6.3-17.3,10c-3.4,2.3-7.2,5-9,8.3c-7.4,13.2-7.7,26.5,2,39.2c4.1,5.7,10.9,9,18,8.6
				c4.5-0.1,9-1.1,13.5-1.6c5.8-0.7,11.7-1.8,17.5-2c6.9-0.2,11,3.2,12.3,9.5c0.6,3.3,0.9,6.6,0.9,10c0.1,6.7-0.1,13.4,0.2,20.1
				c0.1,2.3,1,4.5,1.8,8c0.7-0.9,1.4-1.8,2.1-2.7c0.7-1.3,1.4-2.6,1.9-4c6.9-22.2,13.3-44.4,15.1-67.5c0.9-11.7,1.8-23.4,2.4-35.1
				c0.3-5.8,1-11.8-1.6-17.4c-3.3-7.1-6.7-14.2-10.3-21.2c-0.8-1.5-2.1-2.6-3.7-3C815.5,654.7,810.5,653.9,805.7,656.4L805.7,656.4z
				"/>
			<path class="st2" d="M808,691.7l-2.9-0.3c-0.1-0.2-0.1-0.4-0.2-0.6c0.1-3,6.7-10.4,10.1-11.2c4.3-1.1,7,0.4,10.8,4.7
				c5.6,6.2,7.6,13.1,6.4,21c-1,6.2-1.4,12.5-2.5,18.7c-0.5,2.5-1.7,4.8-3.4,6.6c-4,4.5-8.5,8.7-12.7,13.1
				c-3.8,3.9-8.1,6.6-14.2,6.3c-7.7-0.4-16.8-8.3-17.6-15.3c-0.3-3.1,1.6-5,3.8-7C796.5,717.7,802.7,705.3,808,691.7z M791.5,734.4
				c5,8.4,8.3,9.1,16,3.7c4.1-2.9,8.4-5.7,12.4-8.8c1.5-1.1,3.3-2.7,3.5-4.3c1.3-7.8,2.5-15.7,3.2-23.6c0.5-5.9-3.8-11-10.9-13.7
				C812.8,705.6,803.8,720.8,791.5,734.4L791.5,734.4z"/>
		</g>
	</g>
</g>
</svg>
