<svg xmlns="http://www.w3.org/2000/svg" viewBox="0 0 1737.19 1469.34"><defs><style>.cls-1{fill:#dfac7b;}.cls-2{opacity:0.51;}.cls-3{fill:#7a4417;}</style></defs><title>logiconwBG</title><g id="Layer_2" data-name="Layer 2"><g id="Layer_1-2" data-name="Layer 1"><rect class="cls-1" x="677.65" y="94.94" width="1059.54" height="1342.76"/><g class="cls-2"><path class="cls-3" d="M-6282.91,815.73c1.21,3.66,2.65,7,3.35,10.42a65.19,65.19,0,0,1,1.68,13.58c-.08,6.91-3.59,10.67-10.78,12.88a5.65,5.65,0,0,1-1.31.35c-10.22.69-18.78,5.73-28,9-7.64,2.75-15.22,5.61-23.67,5.39-4.42-.12-5.59,3.25-6.73,6.08s-1.59,6.1-2.28,9.18c-2.46,11.06-4.89,22.12-7.45,33.74,3.51,1.14,6.67,2.13,9.79,3.2,8.73,3,10.5,9.37,3.17,14.67-8.37,6.05-17.72,11-26.68,16.31-4.43,2.66-10.16,3.62-12.55,8.93-.52,1.15-3,1.92-4.68,2.2-20.53,3.41-39.45,11.36-59,17.48-8.85,2.76-15.36,6.33-17.22,15.33-.54,2.58-2.32,5-3.9,7.3-5.58,8.1-11.92,15.77-15.88,24.76a17.89,17.89,0,0,1-3.51,4.62c-4.76,5.07-7.85,4.89-12.69-1-7.44,3.72-14.85,7.7-22.53,11.2a34.73,34.73,0,0,0-14.09,11.39,204.67,204.67,0,0,1-14.32,16.8,28.55,28.55,0,0,1-12.55,8.4,6.45,6.45,0,0,0-3.69,3.86c-1.29,4.84-4.41,7.41-9.51,8.83-3.2.89-6,2.89-9.08,4.3-7,3.21-14.15,4.56-22,1.24-2,1.55-3.94,3.25-6.06,4.75-7.85,5.57-15.46,3.48-18.74-5.17-.89-2.36-1.52-4.81-2.36-7.5-7.27-.46-14.54-.59-21.71-1.45-11.94-1.43-23.8-3.42-35.73-5-2.33-.3-5.19-.31-7.14.67-21,10.57-43.79,15.11-67.17,17.77-16.25,1.85-32.58,3-48.82,4.94a25.06,25.06,0,0,0-11.24,4c-10.38,7.48-20.44,15.36-30.28,23.44-3,2.43-5.1,5.85-7.13,9.08-4,6.39-12.7,10.34-20.32,8a75.91,75.91,0,0,1-15.3-6.71,37,37,0,0,0-18-4.82,297.78,297.78,0,0,1-29.85-2.3,40.49,40.49,0,0,1-24.17-12,34.43,34.43,0,0,0-3.17-2.51c-2.86,2.78-5.71,5.21-8.09,8-3.54,4.11-8.39,6.36-13.28,8.55-5.49,2.46-10.62,1.51-15.26-2a7.2,7.2,0,0,1-1.5-1.27c-6.13-8.37-15.87-12.86-24.07-19-5.84-4.38-11.84-8.62-15.3-15-1.2-2.21-3-3-5.48-2.88a17,17,0,0,0-4.06.19c-14.91,4.45-29.78,9-45.17,13.65.67,3.53,1.27,6.55,1.8,9.59,1.46,8.35-3.55,12.43-12.34,9.9a51.15,51.15,0,0,1-8.79-3.42c-8.58-4.31-17-8.87-25.61-13.18a14.33,14.33,0,0,0-6.17-1.79,8.77,8.77,0,0,1-7.08-3.1c-11.89-13.16-26.61-23.46-40.8-34.29-4.9-3.75-9.34-9-15-10.66-5.32-1.58-12,.62-18,1.14a20.84,20.84,0,0,1-2.73.11c-11.09-.55-22.16-1.67-33.28-.43a16.31,16.31,0,0,1-3.4-.24c-8.54-.9-10.25-3.28-7.47-11-9.4-5.26-18.86-10.63-28.43-15.83-1.47-.8-3.44-.91-5.21-1.15-9.46-1.24-19-2.26-28.38-3.69-5.17-.78-10.28-2.22-14.12-5.81-1.94-1.82-4-1.78-6.23-1.07-4.56,1.44-8.29.47-11.83-2.61-2.28-2-5.26-3.27-8-4.82-7.24-4.15-12.92-9.32-13.47-17.79-2.95-1-5.81-1.69-8.47-2.82-8-3.38-9.67-10.14-4.15-16.43,2-2.25,4.26-4.27,6.4-6.4-4.1-7.77-8.39-15.15-11.94-22.83-3.9-8.48-7.26-17.17-10.56-25.87-.94-2.49-1.94-4.47-4.53-5.9-18-10-32.43-23.57-45.3-38.7-11.65-13.69-23.8-27-33.77-41.88-2.12-3.15-6.1-5.86-9.89-7.31-11.31-4.36-22.87-8.25-34.52-11.79-4.43-1.34-9.37-1.59-14.09-1.68-8.38-.16-16-4.52-17.95-12a53.78,53.78,0,0,1-1.42-15.55c.23-6.33-1.5-11.77-4.81-17.31a214.44,214.44,0,0,1-12.41-24.41,34.21,34.21,0,0,1-.85-25.29,38.3,38.3,0,0,0,.89-3.94c-4.1-.88-7.79-1.86-11.55-2.42-5.34-.79-9.76-3.32-14.14-5.94-5.6-3.35-7.45-8.22-6.27-14.17a4.22,4.22,0,0,1,.32-1.22c5.2-9.84,3.91-20.8,6.39-31.09a104.9,104.9,0,0,1,5.29-16.13c1.81-4.34,2-6.6-1.54-10.11-2-2-4.31-3.73-6.52-5.54-9.52-7.79-19.05-15.56-29.1-23.76-2.8,2.25-5.26,4.3-7.82,6.25-7.19,5.49-13.23,3.64-15.59-4.75a16.32,16.32,0,0,1-.7-3.7c-.41-9.63-.82-19.26-1.08-28.9-.1-3.67,1.22-7.35-1.88-10.77-1-1.06-.53-3.71.1-5.35,8-21.14,10.15-43.37,14.59-65.18a5.78,5.78,0,0,0-1.87-5.67,78.56,78.56,0,0,1-17.21-26.19c-.67-1.71-2.26-3.09-3.31-4.69-2.68-4.11-5.81-8.06-7.82-12.44-2.75-6-.64-8.64,7.28-9.73.15-6.74-.09-13.61.55-20.42a38,38,0,0,0-4.67-22.39c-3.52-6.52-6-13.57-8.32-20.56a20.52,20.52,0,0,1-.76-9.89,6.22,6.22,0,0,0-2.33-6.65c-3.42-2.82-4-6.2-3.24-10.27.68-3.48.59-7.09.81-10.64.45-7.2,2.63-13.62,9.77-17.84a79.86,79.86,0,0,1-1.51-8.73c-.51-7.69,4.2-11.88,12.5-11.1,3.35.32,6.63,1.16,10.17,1.8,1.25-1.66,2.47-3.15,3.53-4.72a246.82,246.82,0,0,1,31.36-38c1.31-1.26,2.67-3.15,2.68-4.76.14-24.49,9.21-46.86,19.26-68.95,5.36-11.78,11.64-23.19,17-35,1.67-3.71,2.7-8.25,2.1-12.16-1.89-12.43-4.58-24.76-7.24-37.07a18.19,18.19,0,0,0-3.55-7.41,16.47,16.47,0,0,1,3.8-23.61,81.9,81.9,0,0,1,11.53-6.67,31.59,31.59,0,0,0,13.91-12.43,201.64,201.64,0,0,1,15.85-21.18,41.53,41.53,0,0,1,24.92-14.4,25.51,25.51,0,0,0,3.51-1.21c-1.18-3.55-2-7-3.44-10.22-2-4.66-1.89-9.45-1.59-14.24.39-6.05,3.74-10.2,10.13-12.09a6.18,6.18,0,0,1,1.28-.42c11.38-.77,20.75-6.79,31.18-10a112.36,112.36,0,0,1,18.4-4.25c6.2-.83,8.39-1.7,9.83-7.42,2.15-8.57,4-17.21,5.91-25.83,1.17-5.29,2.22-10.6,3.39-16.24-4-1.26-7.41-2.21-10.74-3.45-7.21-2.67-8.56-8-3.29-13.35a31,31,0,0,1,6.29-4.8q12.7-7.35,25.63-14.39c3.1-1.68,6.44-2.72,8-6.32.56-1.31,3.18-2.34,5-2.67,23.63-4.22,45.48-13.31,67.92-20.78,2.8-.94,4.52-2.25,5.46-5a77.5,77.5,0,0,1,15.7-26.28c1.4-1.57,2-3.7,3.12-5.51,2.42-4,4.49-8.28,7.46-11.92,4.31-5.27,7.74-5,12.9.86,5.18-2.62,10.33-5.64,15.84-8,10.21-4.26,18.42-10.28,24.31-19.27a75.08,75.08,0,0,1,11.68-13.08,37.55,37.55,0,0,1,10.42-6.84c2.76-1.22,4.5-2.45,5.15-5.17.95-4,3.5-6.42,8-7.73,3.84-1.13,7.29-3.38,11-5,8.18-3.63,12.79-3.83,21.33-.95,2.09-1.62,4.22-3.49,6.58-5.08,7.41-5,14.7-3,17.94,5,1,2.52,1.73,5.16,2.71,8.16,2.32.16,4.55.38,6.78.44a282.28,282.28,0,0,1,51.39,6,10.58,10.58,0,0,0,6.39-.78c19.92-10,41.54-14.57,63.79-17.29,17.14-2.1,34.16-5,51.54-5.28a22.63,22.63,0,0,0,11.86-4.2c10.55-7.61,20.69-15.73,30.77-23.89a23.44,23.44,0,0,0,6-7.5c3.73-7.56,14.25-11.87,23-8.68a79.76,79.76,0,0,1,13.3,6.29c5.38,3.19,11,4.43,17.37,4.58,9.75.23,19.53,1,29.2,2.21a42.16,42.16,0,0,1,25.45,12.38c.75.77,1.62,1.42,2.87,2.5,2.7-2.63,5.51-5,7.82-7.7,3.36-3.93,7.91-6.25,12.55-8.44,6.11-2.88,11.87-2.27,17,2a5.56,5.56,0,0,1,1,.87c6,8.14,15.49,12.63,23.55,18.6,6,4.48,12,8.92,15.89,15.37,1.86,3.11,5,3.77,10.21,2.33,8.91-2.51,17.77-5.21,26.62-7.92,5.79-1.77,11.53-3.7,17.7-5.68-.72-3.68-1.43-6.91-2-10.18-1.15-7.11,3.08-10.86,10.74-9.42a29.2,29.2,0,0,1,7,2.31q12.71,6.09,25.26,12.45c3.9,2,7.2,5,12.36,4.4,1.51-.16,3.66,1.58,4.91,2.93,15.68,16.86,35.4,29.51,53.54,43.8,2.14,1.69,4.14,1.93,6.85,1.42a92.85,92.85,0,0,1,31.9-.68c2.6.42,5.4-.22,8.1-.29,4.31-.12,8.67-.61,12.91-.14,8.43.92,9.89,3.31,7.39,11.12,9.22,5.18,18.47,10.52,27.9,15.56,2,1.09,4.74,1.24,7.18,1.58,9.22,1.27,18.48,2.31,27.68,3.69a27.89,27.89,0,0,1,13.52,5.62,6.45,6.45,0,0,0,4.8,1.08c5.64-1.47,10.12-.22,14.29,3.5,2.08,1.85,5,2.89,7.47,4.38,6.73,4,12.05,9,12.6,17.25,2.55.81,5.13,1.51,7.61,2.44,9,3.42,10.93,10.78,4.39,17.55-1.79,1.86-4.21,3.2-6.36,4.79,1.62,3,2.67,5,3.82,7a241,241,0,0,1,19.55,42.82c.63,1.85,1.81,4.1,3.48,5,20.53,11.33,36.27,27.22,50.41,44.6,9.68,11.9,18.94,24.1,28.69,36a25.42,25.42,0,0,0,9.1,7.33c13.85,5.85,28,11.15,43,14a28.25,28.25,0,0,0,6.09.42c10.28-.37,17.64,4.45,19.63,13.78a59,59,0,0,1,.85,14.37,28.2,28.2,0,0,0,4.22,15.56,251,251,0,0,1,13.43,26.73c3.79,8.91,2.76,18.14-.81,27.57,4,.92,7.62,2.13,11.38,2.55,5.45.62,9.8,3.24,14.23,5.76,5.91,3.38,7.93,8.39,6.63,14.61a4.94,4.94,0,0,1-.34,1.21c-5,9.65-3.86,20.38-6.27,30.48a100.37,100.37,0,0,1-5.16,16.17c-2.15,5-2.3,7.24,1.95,11.09,3.57,3.23,7.4,6.23,11.15,9.28,7.82,6.37,15.68,12.71,23.86,19.34,3.1-2.45,5.75-4.68,8.56-6.73,6.4-4.66,12.16-3,14.5,4.32a25,25,0,0,1,1.21,6.79c.3,10.26.37,20.52.68,30.77a10.16,10.16,0,0,0,1.45,5.18,7.22,7.22,0,0,1,.59,7.2c-6.63,16.88-9,34.59-12.24,52.14-.91,5-3.29,10.26-2.16,14.79s5.88,8.16,9,12.24a43,43,0,0,1,3.61,5.33c4.51,8.18,8.37,16.68,14.69,23.93a16.35,16.35,0,0,1,2.38,4.51c2.94,6.87,1.45,9.33-6.88,10.88-.29,10.13-.7,20.37-.77,30.6,0,2,1.19,4,2,5.92,3.22,7.38,6.72,14.66,9.73,22.12,1.33,3.29,2.49,6.92,2.39,10.36-.16,5.08-.47,9.68,4.27,13.52,1.28,1,1.11,3.9,1.09,5.92,0,3.34-.64,6.68-.72,10-.19,8.07-2.09,15.39-9.83,20.16.54,3.38,1.38,6.46,1.45,9.55.18,7.13-5.12,11.34-12.8,10.28-3.12-.42-6.17-1.34-9.86-2.17-1.29,1.82-2.65,3.69-3.95,5.59-9,13.15-18.92,25.68-30.62,36.93-2,1.9-3.17,3.81-3.22,6.58-.29,16.75-4.29,32.84-10.92,48.37-7.82,18.32-15,36.89-25.14,54.32a19.55,19.55,0,0,0-2,12.15c1.91,12.43,4.59,24.76,7.25,37.07a23,23,0,0,0,3.56,7.42c5.45,8.23,4.45,16.93-3.47,23.09A69.48,69.48,0,0,1-6225.4,767,30.74,30.74,0,0,0-6238,778.07a274.61,274.61,0,0,1-17.48,23.18c-6,7.16-14.31,11.55-24,13.47C-6280.53,814.93-6281.54,815.33-6282.91,815.73ZM-6711.58-91.58l-20.73-6.89c-1.73,9.09-3.27,17.18-4.87,25.61l10.89,3.51c5.24-7.93,10.05-15.19,14.85-22.46-2.29,8.43-4.58,16.86-6.93,25.49l28.43,11.55c3.6-11.25,7.09-21.68,9.19-32.76-8.1-1.21-15.45-2.34-22.81-3.38C-6706.2-91.28-6708.87-91.4-6711.58-91.58ZM-6852.26,867c-1.37,6.38-1.37,6.38.15,9.3a11,11,0,0,0-.19-9.22c.63.64,1.62,1.2,1.82,1.94a58.93,58.93,0,0,1,1,6c4.28-.05,6.18-1.69,6.6-5.26.89-7.68,2-15.33,3.1-23.1,1.09,8.06-.35,16.17,2.37,24.23,3.25-5.46,3.85-11.56,5.19-17.45,1.45-6.34,2.85-12.7,4.24-19.06,1.31-6,3.3-11.89,4.1-19-2.66,1.43-4.18,2.26-5.71,3.07C-6842,825-6854.79,830.85-6869.2,833c-11.14,1.67-22.25,3.52-33.37,5.31-1.1.17-2.19.42-3.58.7-3.23,13.23-6.44,26.39-9.75,40,7.46,1.39,14.37,2.46,21.14,4a33.51,33.51,0,0,0,16.76-.53c4.11-1.11,6.42-3,7.84-6.78a59.35,59.35,0,0,1,16.78-24.22l-7.71,26,1.39.6a28.34,28.34,0,0,0,2.58-3.05C-6855.41,872.37-6853.84,869.62-6852.26,867ZM-6763.92,216c2.05-3.4,4-6.88,6.19-10.18,4.32-6.35,8.82-12.6,12.86-18.34l-33.43-30.25c-4.31,10.13-8.86,20.58-13.1,31.13a6.8,6.8,0,0,0,.64,5.22,61.13,61.13,0,0,0,21,21.86c2.19,1.39,4,1.15,6.07.35-1.2,3.08,1.38,4.08,3.5,5.21,17.57,9.38,31.81,22.26,45,36.22,13,13.7,22.07,29.18,25.55,47.2A70,70,0,0,0-6678,331.73c8.67,12.4,12.76,26.28,13.88,40.94.6,7.94.7,16,2,23.8q5.93,35.38,12.7,70.64c2.68,13.87,5.05,27.68,3.12,41.82a9,9,0,0,0,.45,2.51c12.45,1.72,24.57,4.14,37.12,5.12.71-2.89,1.33-5.1,1.78-7.35,3.33-16.75,2.11-33.37-1.9-49.89a196.39,196.39,0,0,1-3.89-70.58c1.24-10.18,1.75-20.45,2.36-30.7.56-9.46-2.17-18.16-7.33-26.38a112.08,112.08,0,0,1-12.8-29.68,136.36,136.36,0,0,0-7.3-18.87c-4.08-9.08-9.21-17.8-12.72-27.06-5.39-14.22-15.29-24-30.33-29.57-1.26-.47-2.47-1.07-3.73-1.56a169.7,169.7,0,0,1-53.6-32.93,45.16,45.16,0,0,0-4.36-3.11c-4.53,6.1-8.66,11.86-13,17.46C-6758.17,209.69-6761.12,212.81-6763.92,216Zm205.13,239.13.16.14c.57-2.44,1.31-4.86,1.67-7.33,1.22-8.51,2-17.09,3.52-25.56a77.38,77.38,0,0,0-.23-29.37c-1.83-9-1.22-17.88-.26-26.91,1.37-12.7,2-25.47,2.79-38.21.61-9.83.94-19.67,1.49-29.51.3-5.43.83-10.86,1.16-16.3a9.41,9.41,0,0,0-3.21-7.91,31.82,31.82,0,0,1-5.51-7.83q-8.49-15.37-16.69-30.9c-3.52-6.62-9.08-11.31-15.54-15.5-9.09-5.92-18.14-12-26.57-18.66a122.76,122.76,0,0,0-32.15-18.71,123.41,123.41,0,0,1-31.66-18.31c-8.66-6.78-17.81-13-26.8-19.44a33.89,33.89,0,0,0-4.25-2.18c-7.09,10.44-13.92,20.49-20.71,30.5,1,1.07,1.54,1.73,2.17,2.32,15.62,14.59,32.69,27.35,53.47,35.29,21.43,8.18,34.93,22.72,41.58,43.05,2,6,4.89,11.73,7.24,17.62,3,7.46,6.49,14.81,8.53,22.48a129.93,129.93,0,0,0,14.75,35c4.56,7.42,7.34,15.47,7.07,24-.4,12.76-1.08,25.54-2.4,38.25-2,19.12-1.62,38.06,2.73,56.9,3.8,16.38,8.36,32.69,7.41,49.66-.4,7.06-1.23,14.1-1.91,21.77l10.37,1.41-.05.68-11.68.66c-.42,2.34-.76,4.29-1.2,6.77,10.74.16,20.72,2.13,31.44,1.23-.24-3.84-.34-7.16-.68-10.46-1.26-12.32-2.53-24.62.17-36.94,1.58-7.19,2.84-14.43,4-21.68C-6558.21,459.25-6558.69,457.18-6558.79,455.16Zm-623.62,78.19,1.2-4.33c-1.21-.13-2.66-.73-3.57-.32q-15.9,7.2-31.62,14.72c-.72.34-1,1.53-2,3.35,2.57-.46,4.09-.48,5.35-1,8.26-3.46,16.45-7.07,24.7-10.55,2-.84,4.12-1.38,6.18-2.05a38.23,38.23,0,0,1-5.19,3.73c-7,3.48-14.12,6.76-21.17,10.17-2.13,1-4.17,2.22-6.26,3.34,6.1,12.15,14.44,21.47,27.54,26.59,5,2,9.93,4.21,15,6a102.08,102.08,0,0,1,45.67,31.81c2.75,3.34,5.58,6.63,8.22,10a109.1,109.1,0,0,0,32.92,28.88c16.32,9.21,30.45,20.5,42,34.54,6.41,7.8,14.89,12.71,24.94,15.69,25.32,7.51,50.64,15,75.23,24.47a52.51,52.51,0,0,0,30.16,2.23c6.2-1.32,12.38-2.73,18.59-4,29.89-6.19,57.53-16.94,82.3-33.77,7.32-5,15.07-9.4,22.73-13.93a212,212,0,0,0,44.14-34.45c7.75-8,15.62-15.82,23.39-23.76a73.29,73.29,0,0,1,37.33-20.86,100.73,100.73,0,0,0,59.45-37.57c4.14-5.33,7.42-10.94,8.79-17.83a35.46,35.46,0,0,0-5-.21c-20.1,2.18-40.2,4.34-60.28,6.74a19.22,19.22,0,0,0-7.36,3,54.83,54.83,0,0,0-18.83,19.57c-3.34,5.72-6.23,11.66-9.67,17.32-10.5,17.31-26.37,28-47.57,31.63a194.87,194.87,0,0,1-19.65,2,44.63,44.63,0,0,0-22.67,7.83,149.31,149.31,0,0,1-13.37,8.7,110.24,110.24,0,0,0-23.37,17.23c-3.18,3-6.43,5.94-9.7,8.86a64.13,64.13,0,0,1-35,15.72c-24.76,3.29-49.55,6.42-74.31,9.68-21.06,2.77-38.73-2.41-53.76-16.9-16-15.45-33.33-29.73-44.8-48.76-4.81-8-12.16-14.17-21-18.5a82.59,82.59,0,0,1-32.22-27.4,44,44,0,0,0-23.68-17.2c-16.4-5.12-29.49-13.86-37.76-28.15-.1-.18-.25-.35-.34-.54C-7177.91,532.57-7180.12,532.85-7182.41,533.35Zm48-30.26a5.53,5.53,0,0,0,1.68-6.17c-3-10.76-5.39-21.65-8.64-32.33-5.44-17.87-3.94-35.14,3.37-52.33,6.31-14.82,12.15-29.81,17.9-44.82,5.62-14.69,9.48-29.79,9.75-45.45.13-7.74-.56-15.49-.58-23.24,0-17.79,7.46-27.05,25.91-32.38a45.76,45.76,0,0,1,4.6-1.21c9.58-1.72,19.21-3.22,28.75-5.11,29.81-5.87,53.18-20.06,68.13-45.05,2.08-3.49,4.28-6.93,6.63-10.26,14.15-20.06,33.66-34,58.11-41.72,10.39-3.27,20.9-3,30.14,4.24a35.33,35.33,0,0,0,10.78,5.2c8,2.59,13.86,7.18,17,14.4,3.6,8.21,9.4,14.76,16.89,20.17a45.85,45.85,0,0,1,13.1,15.12c1.76,3.16,3.47,6.36,5.42,9.43,1.79,2.82,3.74,5.62,7.42,6.93a12.21,12.21,0,0,0,1.77-2.32q5.55-14.81,11-29.67a3.29,3.29,0,0,0,0-2.45c-3.23-6-6.59-12-10.14-18.45l-3.07,4.32c1.32-10.56,1.31-10.76-3.93-20.46a48.88,48.88,0,0,0-4.34-7.12c-9.4-11.9-20-22.11-36.92-24.91-6.56-1.08-12.78-4.21-19-6.75-15.63-6.39-31.3-8.12-47.57-1.9A181.76,181.76,0,0,0-6981,158c-13.27,10.86-26.17,22.1-39.12,33.29q-35.37,30.56-82.42,41.27c-10.6,2.4-21.15,5-31.7,7.55-5.55,1.36-9.82,4.19-12.2,9.23-7.95,16.84-12.25,34.24-9,52.65a128.87,128.87,0,0,1-4.09,62.21c-3.12,9.84-6,19.78-8.35,29.79q-4.85,20.57-8.7,41.31a136.5,136.5,0,0,0-2.12,20.55c-.29,9.21.21,18.44.16,27.66,0,6.29-.5,12.57-.68,18.85-.16,6.09,2.64,10.83,8.09,14.78,6.11-2.33,12.16-4.68,18.26-6.94,3.55-1.31,7.17-2.45,10.75-3.67-2.19,1.38-4.3,2.9-6.6,4.13-6.44,3.45-13,6.77-19.59,10.22,1.26,1.77,2.31,3.12,3.22,4.55,7.37,11.66,17.49,20,31.76,24.23,15.39,4.57,26.61,14.19,34.88,26.81a52.63,52.63,0,0,0,20.91,18.46,76.46,76.46,0,0,1,31,27.72c8,12.65,18.14,23.52,29.84,33.31,6.06,5.07,11.78,10.48,17.79,15.6A30.33,30.33,0,0,0-6977.2,679c5-.24,10-.35,14.95-.92,19.85-2.29,39.62-5.52,59.54-6.89,19.61-1.34,35.33-8.17,48-21.94a94.81,94.81,0,0,1,24-18.44,44.24,44.24,0,0,0,8.64-6.1c12.1-11.24,26.46-17.3,43.8-17.72,15-.37,27.95-5.57,38.11-15.88a133.57,133.57,0,0,0,10.4-12.42c4.87-6.32,9.53-12.77,14.26-19.17a28.73,28.73,0,0,0,1.43-2.61c-7.12,1.11-13.55,2.48-20.07,3s-13.1.37-19.65.34c-5.17,0-10.4-.8-15.51-.35-7.44.66-14.78,2.28-22.21,3.21a52.83,52.83,0,0,0-23.28,8.31c-3.68,2.47-7.13,5.26-11,7.49-6.52,3.78-13,7.85-20,10.66-9,3.6-16.7,8.46-23,15.27-2.95,3.18-5.9,6.38-8.61,9.75-6.87,8.54-15.91,13.81-27.41,14.79-12.92,1.1-24.63,5.57-36.45,10a255.7,255.7,0,0,1-25.63,8.53c-22.59,5.78-41.61.33-57-16.18a64.88,64.88,0,0,1-17.44-37.52c-.93-7.7-1.66-15.42-2.32-23.14-.83-9.6-6.28-15.73-15.87-19.35a132.33,132.33,0,0,1-19-8.57c-12-6.87-23.9-13.72-37-18.74-7.86-3-12.56-8.78-14.65-16.36a14.37,14.37,0,0,0-1.45-4.16C-7132,503.31-7133.44,503.34-7134.42,503.09Zm582.1-522.39c1-2.66-1.52-3.27-3.11-4.1-8.7-4.52-17.16-9.59-26.3-13.19A254,254,0,0,1-6635.5-66q-10.56-7.45-21.08-14.94a28.63,28.63,0,0,0-17.76-5.62c-3.09,11.47-6.13,22.77-9.23,34.24,1.2.68,2.11,1.25,3.08,1.73,13.24,6.49,26.69,12.64,39.67,19.55a177.28,177.28,0,0,1,24,15.27C-6602.65-5-6586,.85-6568.6,6.88l16.38-26.34c-1,2.75-1.81,5.58-3,8.25-3,6.7-6.24,13.33-9.41,20.07,1.51.92,2.46,1.47,3.39,2.06,19.69,12.45,39.6,24.62,59,37.42,26.95,17.76,43,42.77,53.85,71a92.67,92.67,0,0,0,4.72,11.1,72.79,72.79,0,0,1,7.87,22c1.19,6.68,3.95,12.82,6.95,19a278.62,278.62,0,0,1,12.43,28.54,195.1,195.1,0,0,0,20.05,41.19c4.43,6.83,8.62,13.81,12.68,20.83,5.91,10.22,10.71,20.92,12.85,32.35,2.77,14.86,5.05,29.8,7.19,44.75a553.76,553.76,0,0,1,5,64.56c.32,12.37.49,24.69-2.34,36.92-2.24,9.72-1.93,19.59-.41,29.4,1.84,11.83,4,23.66,2.89,35.65-2,21.29-3.71,42.63-6.72,63.8-2.69,18.94-10.48,36.42-22.65,52-6.08,7.8-12.68,15.26-19.05,22.88a69,69,0,0,0-4.53,5.51c-5.1,7.59-11.92,13.67-19,19.64a103.67,103.67,0,0,0-11.22,11.74c-7.81,9-15,18.48-23.25,27.1a202.9,202.9,0,0,0-26.71,34.08c-3.91,6.38-8,12.69-12.1,19a128.82,128.82,0,0,1-35.82,36.7c-4.77,3.22-9.34,6.69-13.94,10.12-27.66,20.63-57.22,38.68-88.05,55a82.22,82.22,0,0,1-14.83,6.31c-14.52,4.35-27.13,11.54-39.09,20.12-7.69,5.52-15.66,11-24.32,15q-31.09,14.34-63,27.13a136.94,136.94,0,0,1-53.95,9.32,39.5,39.5,0,0,0-4.71.49l-3.49,20.49c6.77-1.3,12.46-3,18.25-3.37,17.52-1,33.82-6.23,50.19-11.36,12.29-3.85,24.7-7.24,37.72-8.42,14.54-1.32,28.76-3.79,42.11-9.73,12.72-5.66,25.52-11.2,36.74-19.2,17.61-12.55,37.09-21.92,57.59-29.67,5.89-2.23,11.71-4.64,17.71-6.59A41.84,41.84,0,0,0-6564.77,860c7.69-9.34,15.2-19.05,24.39-27,22.49-19.55,43.75-40.39,68.71-57.44a87.53,87.53,0,0,0,20.28-19.42c13-17.09,27.56-32.81,45.63-45.59a43.79,43.79,0,0,0,13.86-16.13c5.31-10.44,10.92-20.76,15.65-31.41a129.73,129.73,0,0,0,7.06-21.59c2.52-10.23,4.8-20.51,9.67-30.05a104.44,104.44,0,0,0,9.56-28.1c4.12-21.54,10.22-42.52,20.39-62.39a27.87,27.87,0,0,0,2.61-7.12c3.55-18,5.4-36.09,3.43-54.42-1.47-13.75-3.29-27.53-1.6-41.39,1.53-12.49,2.95-25,4.89-37.44,1.3-8.31.75-16.08-3.09-23.9-6.36-13-12-26.24-15.46-40.21-3.69-14.91-7.7-29.75-11.33-44.67a212.21,212.21,0,0,1-4.12-21c-2-14.65-5.82-28.73-12.79-42.16a166.17,166.17,0,0,1-17-52.16,44.52,44.52,0,0,0-8.6-20.31c-5.55-7.42-11.26-14.73-16.81-22.16a133.59,133.59,0,0,0-22.67-23.38c-6.95-5.69-14.05-11.55-19.48-18.4A177.73,177.73,0,0,0-6483,41.58a210.36,210.36,0,0,1-39.28-39.13c-6.84-9-16.43-15-25.82-21.25C-6549.09-19.48-6550.89-19.16-6552.32-19.3Zm-296.35,1069.76c8.54-1.49,16.38-2.71,24.15-4.22q80.12-15.62,160.2-31.37c17.11-3.39,33.93-8.49,51.2-10.62a146.94,146.94,0,0,0,35.18-9.14c7.76-3,15.67-5.67,23.52-8.46,1.27-.44,2.6-.72,3.88-1.14,3.58-1.16,7.6-1.73,10.64-3.63,12-7.53,24.25-14.94,35.52-23.38,22.79-17.06,45-34.74,67.43-52.21a12.59,12.59,0,0,0,3.55-3.74c7.69-14.65,19.69-26.15,32.22-37.16a131.23,131.23,0,0,0,30.65-39c10.75-20.93,24.33-40.25,39.75-58.53a277.55,277.55,0,0,0,16.87-22.11,87.79,87.79,0,0,0,8.32-15.74c4-9.57,7.46-19.35,11.15-29,26.24-68.8,52.25-137.65,73.77-207.87,3-9.66,6.14-19.35,10.47-28.53a75.54,75.54,0,0,0,6.1-18.51c.73-3.92,1-7.91,1.66-11.85,1.33-8.29,1.75-16.85,4.45-24.76a40.16,40.16,0,0,0,1.88-17.84c-1.59-14.38-3.14-28.79-5.66-43-4.07-22.94-8.84-45.78-13.53-68.63-.65-3.2-2.41-6.24-3.88-9.26-3.54-7.24-7.66-14.26-10.69-21.67-2.87-7-4.82-14.41-6.88-21.7-3.71-13.07-8.77-25.56-17.15-36.77a345.56,345.56,0,0,1-40.93-70.9c-6.91-16.09-16.73-30.36-29.17-43.59-59.46-63.25-118.44-126.87-182.23-186.53a69.93,69.93,0,0,1-10.86-12.09c-4.76-7.18-11.38-12.43-18.42-17.45-9-6.43-18.84-12.14-26.55-19.69-7.85-7.7-17.69-11.41-27.31-15.92a91.78,91.78,0,0,0-9.36-3.82q-48.63-16.56-97.32-33a21.19,21.19,0,0,0-7.39-.75,121.06,121.06,0,0,1-31.77-3.28c-4.64-1.06-9.4-1.78-13.9-3.18-20.26-6.31-41-6.67-62.1-5.55a360,360,0,0,1-40.23-.2c-17.25-1-34.4-3.3-51.64-4.59a85.44,85.44,0,0,0-20.35.48c-39.17,6.55-78.32,13.21-117.35,20.43-49.29,9.12-98.6,18.18-147.29,29.85a324.18,324.18,0,0,1-36.7,6.94,98.21,98.21,0,0,0-23,5.45c-10.54,3.94-21.13,7.76-31.71,11.61-1.47.53-3,.86-4.53,1.32-3.16,1-6.69,1.44-9.42,3.06-9.17,5.44-18.53,10.77-27,17.11-25.92,19.48-51.45,39.41-77.09,59.21a12.51,12.51,0,0,0-3.45,3.82c-7.5,14.24-19.15,25.47-31.36,36.19a134.56,134.56,0,0,0-31.5,39.94,295.85,295.85,0,0,1-39,57.45c-2.68,3.12-5.21,6.35-7.79,9.55-9.27,11.52-17.14,23.66-21.34,37.66-2,6.65-4.89,13.07-7.38,19.6-27,70.54-53.61,141.21-75.55,213.28a157,157,0,0,1-9.2,24.27,68.92,68.92,0,0,0-5.89,17.93c-.75,3.92-1,7.91-1.66,11.84-1.33,8.3-1.68,16.89-4.45,24.76a42.33,42.33,0,0,0-1.79,19.73c2,16.65,4.2,33.3,7.07,49.84,2.91,16.75,6.94,33.34,10,50.06,1.62,8.73,3.28,17.18,9,24.69,2.83,3.69,4.53,8.23,6.13,12.57,2.76,7.53,5.47,15.12,7.47,22.85a126.73,126.73,0,0,0,21.82,45.07c14.2,18.84,25.44,39.16,34.83,60.4a268.78,268.78,0,0,0,12.36,24.5,91.27,91.27,0,0,0,10.63,14.52c6.55,7.51,13.59,14.67,20.4,22,54.39,58.43,109,116.63,167.69,171.52,4.94,4.61,9.85,9.45,13.62,14.87,4.68,6.71,10.81,11.78,17.46,16.57q13.45,9.68,26.79,19.49c1.07.78,2,1.71,3,2.54,2.68,2.16,5,5,8.13,6.34,13.1,5.82,26.15,11.88,39.72,16.65,27.62,9.7,55.56,18.64,83.4,27.83a16.5,16.5,0,0,0,6,1c16-1,31.22,2.23,46.41,6.09,4.82,1.23,9.7,2.26,14.55,3.42a104.49,104.49,0,0,0,32.48,2.91c32.4-2.56,64.57-.66,96.7,3.43,8.92,1.14,18,1,27.54,1.47,3.16-11.87,6.1-22.93,9.15-34.42-4.24,0-7.4,0-10.55,0-15.24.24-30.49.79-45.73.67a109.81,109.81,0,0,1-37.28-6.83c-8.42-3.11-17.14-5.61-25.86-8-18.31-5-37.26-5.38-56.13-6.11-33.47-1.29-64.44-9.34-92.53-26.73-16.22-10-33.45-18.69-50-28.27-8.46-4.89-17.08-9.81-24.53-15.87a291.56,291.56,0,0,0-54.78-35.13,106.28,106.28,0,0,1-25.71-17.5,206.69,206.69,0,0,0-34.32-25.79,83.26,83.26,0,0,1-15.34-12.39,190.84,190.84,0,0,1-28.1-36.27,37.92,37.92,0,0,0-9.17-9.92c-13.51-10.92-27.16-21.71-40.1-33.19-15.84-14-27.85-30.94-39.59-47.95-1.41-2.05-3-4-4.49-6.05-6.29,3.16-11.79,6.09-17.47,8.72a19.87,19.87,0,0,1-7.11,1.83c-2.94.16-4.12-1.91-2.56-4.24a30,30,0,0,1,4.39-4.79c4.87-4.63,9.81-9.21,14.73-13.81-2-3.37-3.63-6.34-5.42-9.25-7.79-12.71-13.2-26.08-15.27-40.71-2.89-20.34-10.08-39.51-20.67-57.58-2.37-4.06-4.64-8.18-6.94-12.27-15.28-27.18-23-55.78-20.8-86.64,1.28-17.76.9-35.61,1.56-53.41.3-8.15.41-16.44,2.14-24.39A272.09,272.09,0,0,0-7566.8,349a84.34,84.34,0,0,1,3.47-26.75,181.11,181.11,0,0,0,7.26-41.49c.36-6.39,2.23-12.85,4.4-19,5.09-14.39,12.29-27.93,20.55-41a28.6,28.6,0,0,0,3.36-8.74c3.93-16.79,6.82-33.82,11.67-50.36,9-30.63,25.95-58,43.25-85.15a105.1,105.1,0,0,1,30.12-31.34c2.75-1.85,5.23-4,7.84-6.07,17.41-13.63,30.23-30.65,42.11-48.37,18.76-28,43.6-49.61,76.21-63.76,15.81-6.86,30.69-15.53,46.2-23,9.85-4.75,19.76-9.7,30.22-13a305.59,305.59,0,0,0,58.53-25.38,115.17,115.17,0,0,1,29.89-12.07,224.77,224.77,0,0,0,41.39-14.45,93,93,0,0,1,21.29-6.45,229.45,229.45,0,0,1,46.83-4,36,36,0,0,0,13.24-2.29c23.11-8.38,46.59-15.79,71.24-19.21a497.94,497.94,0,0,1,92.64-3.66,96.37,96.37,0,0,1,27.24,5.49c8.28,2.91,16.65,5.65,25.12,8,17.79,5,36.17,6.25,54.65,6.69,37.06.88,71.25,9.72,101.93,29.66,13.72,8.92,28.83,16,43,24.31,9.77,5.72,19.74,11.4,28.46,18.33a294,294,0,0,0,52,33.28c10,5,19.38,10.93,27.42,18.52a204.26,204.26,0,0,0,33.8,25.39,86.83,86.83,0,0,1,15.82,12.83,192.16,192.16,0,0,1,28,36.3,30.12,30.12,0,0,0,8.25,9c15.72,11.47,31,23.46,44.43,37.19,24.45,24.92,43.3,53.31,59.9,83,4.72,8.44,7.12,17.59,8.8,27,1.61,9.08,3.75,18.1,6.24,27,4.29,15.34,12.4,29.23,20.41,43.11,16.13,28,24.6,57.47,22.18,89.48-1.3,17.12-.9,34.34-1.55,51.51-.34,8.78-.36,17.71-2.2,26.27a277.17,277.17,0,0,0-6.24,66.87,83.28,83.28,0,0,1-3.35,26.13,180.12,180.12,0,0,0-7.32,41.49c-.33,6.39-2.14,12.86-4.3,19-5.09,14.38-12.3,27.93-20.49,41a30.81,30.81,0,0,0-3.57,9.31c-3.61,15.56-6.32,31.33-10.61,46.73-8.92,32-26.48,60.5-44.47,88.73a111.92,111.92,0,0,1-30.16,31.31,165.59,165.59,0,0,0-39.92,40.19c-3.59,5.1-7.18,10.2-10.7,15.35-18.52,27-42.75,48.09-74.4,62-16.4,7.2-31.89,16.14-48,23.95-9.24,4.48-18.54,9.18-28.38,12.22a302.48,302.48,0,0,0-59.8,25.81A112.44,112.44,0,0,1-6682,977.91a214,214,0,0,0-42,14.7,75.61,75.61,0,0,1-16,5.31c-17.14,3.73-34.62,4.79-52.19,5a41.43,41.43,0,0,0-11.24,1.73c-13.38,4.06-26.66,8.43-40,12.71-1.66.54-3.28,1.19-5.25,1.92ZM-6702.92,131c1.93,1.63,3.55,3.08,5.26,4.42,8.14,6.4,16.49,12.58,24.41,19.19a114.78,114.78,0,0,0,32.16,18.7,112.88,112.88,0,0,1,25.83,13.94c11.94,8.72,24.05,17.24,36.24,25.67,5.9,4.09,11,8.7,14.64,14.69s7.9,11.79,11.35,17.92c9.09,16.16,15.55,32.88,14.53,51.64-.66,12.11.42,24.29.53,36.45.07,8.58.28,17.19-.42,25.73-1,12.36-1.85,24.57.86,36.92,1.94,8.85,1.33,17.94-.5,26.89-3.12,15.23-5.39,30.65-9.39,45.68-5.3,19.94-4.89,39.85-2.49,59.94.1.81.05,1.94.59,2.33,1.29.94,2,1.27,0,2.35-.84.46-1,2.2-1.19,3.4-2.38,16.39-4.49,32.83-7.19,49.18a50.34,50.34,0,0,1-5,14.85,184.54,184.54,0,0,1-12.7,20.81c-10.75,15.29-23.39,28.71-41.7,37-10.16,4.62-19.69,10.48-29.28,16.1a322.73,322.73,0,0,1-35.82,18.2,107.81,107.81,0,0,0-21.5,12,117.49,117.49,0,0,1-34.87,18.09c-17.42,5.52-34.67,11.51-52.17,16.78-13.81,4.16-26.15,10.48-38,18.14a154.23,154.23,0,0,1-24.33,12.51c-13.86,5.78-28,11-42.2,16.07a68.41,68.41,0,0,1-17.69,4.15,233.66,233.66,0,0,1-29.35.2c-18.8-1-36.82-4.47-53-14.42-9.23-5.69-19.29-10.28-29.17-15a334.72,334.72,0,0,1-36.24-20.06,118.93,118.93,0,0,0-22.69-11.31c-12-4.42-23-10-32.72-17.81-15-11.94-30.18-23.64-45-35.7a115.7,115.7,0,0,0-31.63-18.31,117.29,117.29,0,0,1-30.58-17.52,250.51,250.51,0,0,0-24.82-17.68c-10.94-6.62-19.76-14.64-25.57-25.51-2.16-4-5-7.76-7.52-11.52l-37,23.48c5.18,7.66,8.53,16.25,16.93,21.82,10.2,6.77,18.82,15.15,27.09,23.85A82,82,0,0,0-7242,675.89c15.62,5.56,29.83,13.38,44.25,21a37.15,37.15,0,0,1,13.88,11.87c5.78,8.54,13.44,15.29,22.41,20.85,7.36,4.55,14.9,8.86,22.36,13.29a73.62,73.62,0,0,0,26.66,9.17,89.89,89.89,0,0,1,31.1,10.76,107,107,0,0,0,12.84,5.79c9.08,3.68,17.39,8.24,23.21,16a37.25,37.25,0,0,0,4.1,4l2.43-1.78c1,1.82,1.45,4.23,3,5.36,8.43,6.05,17.09,11.83,25.78,17.57a39.42,39.42,0,0,0,7.2,3.53c9.82,3.89,20,7.13,29.47,11.61,18.3,8.65,37.83,8,57.42,7.73,3.1-.05,5-1.41,5.7-4.37,1.3-5.31,2.85-10.57,4.41-15.82a46.19,46.19,0,0,1,2-4.78c3.27,7.16-.58,13.92.15,20.68,8.93-2.2,17.35-4.77,26-6.29,18.57-3.26,35-10.34,49.28-21.7a20.82,20.82,0,0,1,5-3.27c5.08-2,6.49-6,7.28-10.53.41-2.34,1.09-4.64,1.65-7l.87.22c-.4,3.58-.8,7.17-1.21,10.9a9.24,9.24,0,0,0,2.19-.22c9.44-4.6,18.88-9.19,28.24-13.9,1.06-.53,1.68-1.8,2.48-2.75s1.53-1.83,2.81-3.39c2.64,5.69,7.52,4.78,11.72,3.9a124.7,124.7,0,0,0,20.16-5.6c20.41-8,39.78-17.4,54-34.05,4.36-5.09,11.09-8.54,17-12.45,5.33-3.55,11.06-6.59,16.46-10.06,7.55-4.87,15.39-8.95,24.86-9.55a9.64,9.64,0,0,0,3.95-.86,11.76,11.76,0,0,0,2.59-2.52c2.49-.34,4.9-.32,7-1,5.13-1.71,10.25-3.53,15.15-5.72,6.92-3.1,14-6.11,20.38-10,8.32-5.09,15.87-11.25,24.08-16.51,12.38-7.93,22.6-17.52,29.48-30a43.13,43.13,0,0,1,3.72-6c3.77-4.7,5.47-10,6.36-15.71a143.11,143.11,0,0,1,8-30.48,74.94,74.94,0,0,0,4.06-40.3c-2.48-14.82-2.67-29.67-2.13-44.53a38.67,38.67,0,0,1,3.78-15.77,80.32,80.32,0,0,0,8.89-30.13c1.54-18.65,2.52-37.12-5.22-55.19-2.76-6.43-2.8-13.91-3.65-20.95-.74-6-.78-12.11-1.28-18.15-.69-8.44-.65-16.75,3.43-24.64a39,39,0,0,0,1.95-5.72l-3.88-1.27c4.27-1.39,4.92-4.25,5-7.56.06-2.5.82-5,1-7.48.62-9.38,1.85-18.79,1.46-28.14-.4-9.8-2.5-19.54-3.66-29.32-1.32-11.17-4.2-21.84-10.59-31.57-2.7-4.12-5-8.48-7.87-12.5a36.2,36.2,0,0,0-7.27-8.15,255.65,255.65,0,0,1-30.53-26.93c-9-9.46-20.74-15.5-33.07-20.69-10.33-4.34-20.49-9-30.61-13.78-5.22-2.46-10.21-5.35-15.61-8.21l-9.58,13.7-1.1-.64,6.45-15.11c-9.63-15-22.71-25.94-38.13-35s-31.28-16.83-50.34-17.63c-3.58,8.62-7.13,17.15-10.87,26.13,15.11,5.46,26,15.68,38.1,24.74l11.46-15.61,1.2.7Zm-105.16,796.92c5.48-2,10-3.37,14.18-5.23q29.57-13,59-26.23a101.2,101.2,0,0,0,24.22-15.11c4.18-3.55,8.58-6.91,13.13-10.05,12.56-8.67,26.16-15,42.16-16.52a49.87,49.87,0,0,0,16.2-4.55c11.32-5.33,22.85-10.6,33.19-17.34,21.72-14.15,42.62-29.38,64.1-43.87a108.56,108.56,0,0,0,30.12-30.49c4.74-7.15,9-14.61,14-21.61,6.86-9.61,13.46-19.53,21.58-28.2A306.84,306.84,0,0,0-6448.9,675c3.67-5.2,8.59-9.68,13.14-14.31,3.21-3.26,7.37-5.84,10-9.4,5.36-7.17,12.44-12.74,18.84-19,9.57-9.29,18.61-19.22,21.9-32.07a263.39,263.39,0,0,0,6.38-32.08c1.83-14.35,2.5-28.82,3.83-43.23,1.45-15.72,1.55-31.26-2.32-46.87-4.49-18.12-4.14-36.17,4.68-53.53a29.67,29.67,0,0,0,2.9-11.58c.59-10.87,1.3-21.8.7-32.65-1.39-24.92-5.53-49.58-9.11-74.31-2.26-15.66-6.87-30.28-15.22-44-4-6.57-8.4-13-12.06-19.71-5.59-10.29-11.66-20.49-15.75-31.29a296.52,296.52,0,0,0-18.27-39.2c-3-5.33-4.61-11.3-6.64-17-1.83-5.16-3.3-10.43-5.05-15.62-1.82-5.38-4.22-10.62-5.62-16.09-4.79-18.62-13.3-35.15-29.86-47.43-6-4.47-11.85-9.21-18.18-13.28-15.86-10.2-31.92-20.13-48-30.07-4.71-2.92-9.66-5.53-14.56-8.17a41.63,41.63,0,0,0-4.88-1.86l-29.72,49.25c1.81.79,3,1.37,4.24,1.83a277,277,0,0,1,59.77,31.32c16.79,11.45,34.3,22.18,47.71,37.32a25.55,25.55,0,0,0,3,2.58,29.93,29.93,0,0,1,9.42,13.61c3.18,9,6.86,17.77,9.76,26.81,2.44,7.61,4.88,15.35,5.86,23.19A115.94,115.94,0,0,0-6447.11,253c4.24,7.3,6.51,15.58,9.58,23.46,2,5.09,3.85,10.22,5.68,15.36,1.42,4,3.54,7.91,3.91,12,1.14,12.72,2,25.48,2.2,38.24.16,14-.53,28.08-1,42.12-.67,18.27-2.68,36.41-8.57,54a85.67,85.67,0,0,0-2.47,47.78c3.71,15.83,4.95,31.88,4.83,48.1-.1,14.52-2,28.83-3.67,43.21-1.31,11.05-2.21,22.09-6.37,32.67a92.77,92.77,0,0,0-3.8,12.71,31.58,31.58,0,0,1-8.75,15.37c-5.85,5.87-11.59,11.84-17.13,18a142.79,142.79,0,0,1-26.94,23.07A93.09,93.09,0,0,0-6525.16,704a153.6,153.6,0,0,1-15.05,18.64c-6.87,7.21-14.84,13.46-20.8,21.53-2.86,3.86-7.39,6.8-11.52,9.72a113.84,113.84,0,0,1-13.67,8.3c-21.47,11-42.95,22-64.61,32.68a183.59,183.59,0,0,1-44.51,15.69,110.6,110.6,0,0,0-50.24,24A184.1,184.1,0,0,1-6784,859.54c-3.86,1.87-5.44,4.35-6.14,8.24-3.36,18.63-8,37-16.21,54.4A47,47,0,0,0-6808.08,927.91ZM-6671-103.81c.82.16,1.91.44,3,.58,10.27,1.3,18.76,5.74,26.71,11.74,10.91,8.23,22.31,15.91,33.51,23.81,5.6,4,11.19,7.92,16.88,11.76,4.57,3.08,9.15,6.2,14,8.93,16.31,9.21,32.91,18.13,46.4,30.82,12.73,12,25,24.37,37.13,36.89,6.12,6.33,12.57,12.12,20.39,16.56,10.64,6,18.91,14.25,26.45,23.35,5.35,6.47,11,13,17.71,18.2,18.11,13.86,31.39,31.4,45.34,48.46a59.2,59.2,0,0,1,13,30,102.84,102.84,0,0,0,14.73,40.9c1.7,2.72,3.18,5.56,4.74,8.36a95.33,95.33,0,0,1,10.87,30.3c2.39,13.65,5,27.24,9.34,40.54,3.43,10.41,5.85,21.1,9.14,31.56s6.94,20.79,10.73,31.09c2,5.34,4.62,10.48,6.88,15.74a37.09,37.09,0,0,1,2.92,20.34c-2.44,16.82-4.93,33.63-7.28,50.46-1.78,12.65-3.58,25.26-3.63,38.12-.06,14.87-1.08,29.83-5.68,44.22-5.32,16.67-11.46,33.12-16.76,49.8a89.79,89.79,0,0,0-4.32,20.88c-.8,11.92-4.12,23-9,34-3.48,7.7-6.9,15.66-8.44,23.82-4.17,22.21-14.52,42.25-24.27,62.53A51,51,0,0,1-6397.72,720a135.23,135.23,0,0,0-37.87,40,98,98,0,0,1-26,27.26,318.31,318.31,0,0,0-38,32.46c-5.42,5.37-11.22,10.43-17.14,15.34a205.63,205.63,0,0,0-27.17,27.32c-3.45,4.17-7,8.28-10.49,12.41-5,5.93-11.49,10-19.05,12.84q-34.44,12.87-68.8,26c-2.52,1-4.87,2.26-7.3,3.4-11.74,5.54-23.32,11.39-35.28,16.5a133.86,133.86,0,0,1-21.86,7q-21.14,5-42.56,8.93c-13.9,2.57-27.29,6.1-40,12.17-5.93,2.83-12.85,4.14-19.49,5.42-9.34,1.78-19,2.34-28.22,4.42-12.29,2.78-10.19,1.35-10.7,12.31-.29,6.21-.05,12.44-.05,19.27l13-2.68c22.62-4.71,45.09-10.17,67.9-13.89,16.23-2.65,31.93-5.94,47.14-12a131.93,131.93,0,0,1,30-8.05,122.19,122.19,0,0,0,35.94-11.33,297.54,297.54,0,0,1,49.08-18.8,174.56,174.56,0,0,0,42.6-18.14c11.88-7,23.69-14.17,36-20.47a160.8,160.8,0,0,0,55.79-46.35c7.94-10.48,15.47-21.23,23-32,12.53-17.8,27.76-33.17,47-45a90,90,0,0,0,27.57-25.83c7.89-11.52,15.34-23.29,22.81-35,13.59-21.37,22.23-44.47,27.88-68.59a36.29,36.29,0,0,0,.49-4.06l-1-.28-6.36,13.51c-.3-.73-.49-1-.44-1.11,8-26.86,15.66-53.81,27.34-79.59A94.14,94.14,0,0,0-6293.8,543a114.12,114.12,0,0,1,9.57-36.53,63.18,63.18,0,0,0,5.39-22c1.38-20.09,2.82-40.15,8.08-59.81,4.06-15.2,4.51-30.67,3.59-46.24-.63-10.67-1.31-21.37-1-32,.65-25.26-5.18-49.12-17-71.78-5.83-11.13-12-22.11-18.06-33.14-9.85-18-16.35-36.85-17.85-57-1-13-4.24-25.31-10.85-36.73-7.49-12.94-15.38-25.68-23.36-38.37-13-20.7-30.2-38.26-49.41-54.22a26.85,26.85,0,0,0-3.23-2l-.55.72,9.79,11.82a77.23,77.23,0,0,1-7.82-6.24c-18.74-17.14-37.14-34.59-53.29-53.9a114.18,114.18,0,0,0-26.34-23.55c-9.6-6.11-18.53-13.09-25.52-21.67-8.52-10.47-19.29-18.26-31.11-25.13a283.71,283.71,0,0,1-42.62-30.35A144.46,144.46,0,0,0-6615.2-115q-27-13.47-54-26.91a49.23,49.23,0,0,0-4.75-1.79C-6673-130.36-6672-117.47-6671-103.81ZM-7505.29,177.3c-7.36,27.88-15.26,55.18-27.09,81.35a93.1,93.1,0,0,0-7.88,29.78A114.65,114.65,0,0,1-7549.8,325a63.58,63.58,0,0,0-5.43,21.94c-1.42,19.87-2.7,39.74-7.93,59.19-4.14,15.4-4.67,31.06-3.77,46.85.64,11.3,1.26,22.62,1.07,33.93A141.11,141.11,0,0,0-7550,554.47c6,11.75,12.45,23.31,18.85,34.89,9.9,17.94,16.66,36.77,18.12,56.91a97.51,97.51,0,0,0,12.89,41.36c.8,1.43,1.85,2.74,2.89,4.27l32.27-21.68c-.69-11.17-4.74-21.24-10.07-31-1.75-3.18-3.45-6.39-5.35-9.49-7.82-12.76-12.17-26.49-14.79-40.91-2.13-11.75-5.3-23.35-8.31-34.94-2.64-10.18-5.47-20.34-8.65-30.38-3.43-10.84-7.21-21.6-11.13-32.3-2.18-5.94-5-11.68-7.49-17.54a34.41,34.41,0,0,1-2.13-18.56c2.43-17,4.94-34,7.37-51.08,1.77-12.45,3.42-24.86,3.54-37.5.11-11.48.72-23.25,3.6-34.34,5.09-19.51,11.84-38.67,18.38-57.84,2.68-7.87,4.74-15.74,5-24a62.26,62.26,0,0,1,6.19-26.26c6.6-13.25,10.71-27.09,13.79-41.32,3.37-15.53,11.64-29.48,17.81-44.1a70.21,70.21,0,0,1,25.74-31.08,98.62,98.62,0,0,0,28.29-29.51c10-16.1,23.19-29.46,39.31-40.48,2.13-1.46,4-3.18,6.06-4.79a82.29,82.29,0,0,1-4.32-7.77,3.36,3.36,0,0,1,.72-3.3c.63-.47,2.63-.07,3.52.55a67.47,67.47,0,0,1,5.52,4.56c9-7.86,17.23-15.41,25.89-22.51a296,296,0,0,0,45.34-46c5.78-7.35,13.54-12.18,22.77-15.37,11.28-3.89,22.42-8.15,33.55-12.41,8.4-3.21,16.72-6.61,25-10,6.61-2.74,13.27-5.44,19.68-8.55,17.32-8.4,34.48-17.13,53.73-21.36,12.61-2.77,25.22-5.58,37.93-7.91,15.44-2.84,30.4-6.53,44.63-13.17,7.11-3.32,15.61-4.24,23.57-5.86,10.19-2.06,20.76-2.91,30.67-5.77,13.73-4,27.44-7.54,41.79-8.82,3.62-.32,7.21-.94,10.8-1.48,19-2.87,37.5-2.79,55.52,4.77,10.85,4.56,22.58,6.29,34.54,6.69,8.64.29,17.29.68,25.88,1.54,12.79,1.28,24.72,5.51,36.55,9.9,14.79,5.49,30.32,8.37,46.08,11.89,4.4-13.46,9.57-26.17,9.52-40.38-2.46-.33-4.44-.72-6.44-.83-9.54-.53-19.08-1.17-28.63-1.44-26.46-.77-52-5.06-75.87-16.12a82.36,82.36,0,0,0-31.41-7.87c-16.81-.66-33.65-1-50.48-1.13-27.14-.23-53.34,4.84-79,12.54a35.27,35.27,0,0,0-3.54,1.48c.07.28.15.55.23.82l17.14-2.16a193.57,193.57,0,0,1-24.49,6.73c-18.63,3.84-37.23,8-56,10.94-16,2.54-31.66,5.42-46.43,12-10.9,4.86-22.74,7.39-34.73,8.87a77.84,77.84,0,0,0-21.46,6c-5.15,2.22-10.12,4.81-15.35,6.85-13.81,5.38-27.45,11.3-41.65,15.62a224.55,224.55,0,0,0-51.47,22.82c-10.06,6.11-20.31,12-30.83,17.43a156.2,156.2,0,0,0-52.93,43.73c-8,10.41-15.66,21.11-23.12,31.89-13.14,19-29.2,35.29-49.68,47.79a80.63,80.63,0,0,0-24.44,22.57c-8.34,12-16.28,24.23-24.14,36.49-14,21.88-22.85,45.58-28.66,70.31a19.59,19.59,0,0,0-.19,3.35l1,.24Zm753.42,322.38.68-2.24,33.48,4.89c0-16.66.3-32.57-.19-48.46-.15-4.66-1.93-9.53-4.06-13.85a68.1,68.1,0,0,1-7.23-24.73c-.58-6.9-1.6-13.78-1.72-20.68a52.19,52.19,0,0,0-11.89-32.82,98.72,98.72,0,0,1-16.1-29.67c-3.39-9.67-8.88-18.23-15.47-26.41a244.73,244.73,0,0,1-19.5-27.23c-6-10-13.56-18.23-24.48-23.81a52.75,52.75,0,0,1-23.5-23.76,45.68,45.68,0,0,0-9.82-13.44c-8.68-7.72-15.75-16.18-19.84-26.7-1.7-4.39-5.31-7-9.92-8.93a138.82,138.82,0,0,1-15.89-8.35c-3-1.81-5.93-2.87-9.57-2.13-5.55,1.12-11.11,2.66-16.72,2.87a20.65,20.65,0,0,0-10.05,3c-15.17,8.78-27.14,20.26-35.39,35q-6.39,11.44-13.39,22.62a85.86,85.86,0,0,1-29.87,28.84c-13.87,8.16-29.19,12.46-45.23,15.17-8.48,1.44-16.92,3.2-25.27,5.2-6.59,1.58-10.54,5.52-10.74,12.16-.08,2.72-.6,5.42-.78,8.14-1.69,25.24-6.59,49.89-16.07,73.69q-8.68,21.82-17.45,43.64a57.22,57.22,0,0,0-2.17,36.48c3.79,14.88,7.81,29.72,11.41,44.64,1.58,6.58,5.58,10.51,12.26,13.1a160.13,160.13,0,0,1,21.26,9.92c10.68,6.07,21.47,11.8,33.21,16,13,4.63,20.62,13.45,22.89,26.06,1.53,8.47,2.69,17,4,25.5,2.2,14.3,10.19,25.34,22.57,33.87a30.92,30.92,0,0,0,17.84,5.33c8.89.06,17.11-2.33,25.11-5.34,18.68-7,37.66-12.53,58.15-12.17a20.47,20.47,0,0,0,14.16-5.38q6.91-6.08,13.63-12.33c5.63-5.27,11.53-10.26,19.1-13,11-3.92,20.33-10.09,29.69-16.49,6.33-4.32,13.59-7.49,20.42-11.21a29.06,29.06,0,0,0,2.72-1.94l-20-4.67c0-.43.07-.86.11-1.28l47.7-.8c3.86-.07,7.94.54,11.53-.43a249.43,249.43,0,0,0,27-8.62c12.6-5,18.22-14.83,17-28.41C-6729.68,507.86-6741.6,505.68-6751.87,499.68Zm119.75-379.25c14,7.37,27,15,41.25,20.62,17.17,6.8,32.25,16.33,44.11,29.88,6.94,7.93,14.07,15.73,21.12,23.59a12.16,12.16,0,0,0,1.38,1.4c15.15,12,21,28.64,26.16,45.39,4.14,13.48,7.13,27.28,10,41.05a94.81,94.81,0,0,1,1.55,19.34,95.9,95.9,0,0,1-1.74,16.25c-1.26,7.21-2.49,14.49-4.7,21.47a38.7,38.7,0,0,0-2.19,14.16c.4,6.9.82,13.82.77,20.73-.05,7.84.83,15.51,3.93,22.83,5.74,13.57,7.12,27.61,6.21,42-1.1,17.42-2.57,34.71-10.68,50.91a21.14,21.14,0,0,0-1.82,9.18q0,17,.6,34c.2,5.64,1,11.26,1.48,16.89,1.8,20.77-7.85,39.19-14.28,58.25-1.95,5.78-4.37,11.43-6.78,17.06-1.82,4.28-3.24,8.93-6.11,12.55a264.44,264.44,0,0,1-21.42,24.4c-7.43,7.33-15.94,13.73-24,20.52-4.7,4-9.24,8.12-14.22,11.76-13.06,9.55-28.63,15-44.19,19.18-12.29,3.27-23.42,7.51-33.57,14.39a19.76,19.76,0,0,1-2.93,1.6,81.18,81.18,0,0,0-27.51,20.26,74.77,74.77,0,0,1-23.74,17.68c-4.84,2.32-9.56,4.87-14.42,7.14-14.25,6.66-28.74,12.69-45,14.06a21.68,21.68,0,0,0-4.14,1.15c-3,19.43-6,38.38-9.1,58.51,3.42-1.85,5.9-2.89,8-4.38,10.28-7.27,20.71-14.39,30.61-22.09a136.92,136.92,0,0,1,34.74-19.69c7.33-2.84,14.79-5.44,22.31-7.83a294,294,0,0,0,40.62-16.29c19.67-9.67,39.36-19.32,59.18-28.73,7.36-3.49,14.3-7.16,19.13-13.68,1.88-2.55,4.8-4.44,7.19-6.68,1.91-1.79,3.81-3.59,5.59-5.5q9.1-9.75,18.12-19.6c2.93-3.19,6.12-6.24,8.6-9.73,6.32-8.9,14.47-16.06,23.46-22.62a149.17,149.17,0,0,0,16.72-13.85c9.33-9.17,18.28-18.69,27.11-28.28a23.67,23.67,0,0,0,5.13-8.68c5.25-16.69,9.84-33.45,12.2-50.82,3.56-26.2,5.15-52.28-1.11-78.16-5.47-22.64-3.8-44.86.84-67.34,2.58-12.51,3.87-25.3,4.87-38,1.24-15.67,1.7-31.4,2.27-47.11.55-15.4,2.85-31-4.72-45.71-.57-1.1-.47-2.48-.86-3.68-.71-2.2-1.51-4.38-2.35-6.55q-4.14-10.62-8.35-21.24c-2.2-5.49-4.14-11.1-6.81-16.39a76.52,76.52,0,0,1-7.9-25.25,129.52,129.52,0,0,0-7.28-29.34c-3.52-9.52-7-19.07-10.59-28.55-1-2.53-2-5.33-3.93-7.22-8.24-8.1-16.14-16.68-25.44-23.65-19.21-14.41-38.62-28.7-60.81-39.3a225.6,225.6,0,0,0-28.37-11.49C-6615.93,94.2-6623.77,106.91-6632.12,120.43Zm-638.65,458.26c3.92,6.41,7.44,11.78,10.53,17.35,3.64,6.55,9.08,11.31,15.55,15.5,9.11,5.9,18.15,12,26.58,18.66A138.69,138.69,0,0,0-7186,649a139.77,139.77,0,0,1,24.18,12.8c19.53,13.39,38.59,27.34,57.69,41.25a110,110,0,0,0,26,13.63c7.52,2.86,15.21,6,21.59,10.55,15,10.63,31,19.81,47.3,28.64,7.05,3.82,13.7,8.27,20.51,12.46,4,2.44,7.92,4.92,11.89,7.37,3.53,2.18,7.06,3.28,11.53,1.87a19.57,19.57,0,0,1,8.76-.22c12.63,2.1,25.35,2.08,38.11,2.25a51.64,51.64,0,0,0,21.05-4.39c10.76-4.48,21.6-8.91,32.72-12.53A143.2,143.2,0,0,0-6832.25,747a152.15,152.15,0,0,1,24.74-13.15c22.75-9,45.82-17.39,68.84-25.86a83.31,83.31,0,0,0,23.32-12.82,87.92,87.92,0,0,1,25.63-14.18c13-4.6,25.21-10.6,37.34-16.85,10.9-5.62,22.24-10.54,33.38-15.78,4.45-2.09,9.06-4,13.25-6.45,1.88-1.11,3.07-3.35,4.27-5.24,1.82-2.87,3.13-6,5.07-8.79,7.26-10.39,15-20.5,21.87-31.08a36.58,36.58,0,0,0,4.8-13.55c2.43-14.05,4.31-28.19,6.36-42.29a32.81,32.81,0,0,0,0-4.47l-32.72,5.44c-3.09,7.71-5,15.2-8.92,21.71-12.88,21.58-31.28,37.95-56.38,47.28a179.9,179.9,0,0,1-20,6.24,51.24,51.24,0,0,0-24.8,13.69c-6.94,6.94-13.91,13.85-20.73,20.88C-6742,667.24-6758.77,681-6778.13,692c-14.15,8-28.21,16.17-42.36,24.19a193.11,193.11,0,0,1-45.25,18.89c-14,3.74-28.11,7-42.25,10.16a88,88,0,0,1-13.52,1.57c-13.6.91-26-3.27-38.2-8.07-19.24-7.59-38.3-15.55-57.62-22.93-15.08-5.75-27.81-14-37.78-26A99.3,99.3,0,0,0-7083,666.89a187,187,0,0,1-47.26-37.72,97.8,97.8,0,0,0-39.36-26.32c-9.69-3.6-19.25-7.55-28.69-11.69a58.15,58.15,0,0,1-26.61-22.76c-1.88-3-3.91-6-6-9.12ZM-7279,94.33c1.13-1.42,2-2.38,2.7-3.42,5.49-7.72,13.3-13.62,21.5-18.08,22.86-12.47,46.41-23.89,69.87-35.4a204.45,204.45,0,0,1,48.34-17A102.9,102.9,0,0,0-7091-1.14c23.44-19.47,50.5-33.47,79.57-44.43,4.84-1.82,9.52-4,14.39-5.76,6.55-2.35,13.13-4.66,19.83-6.56s13.65-3.24,20.45-4.94c5.58-1.39,11.1-2,16.84-.61,5.06,1.19,10.22,2.07,15.37,2.9,16,2.56,31.74,5.6,46.52,12,12.16,5.25,25,7.53,38.37,7.83a134.14,134.14,0,0,1,35.53,5.62,35.35,35.35,0,0,0,9.28,1.78c7.91.12,15.25,2.13,22.46,4.82,1.61.6,3.29,1.05,5.39,1.72,4.55-14.57,9-28.74,13.41-42.91-8.67-3.93-16.82-6.73-25.47-7.34-14.06-1-28.15-1.55-42.24-1.86-14.59-.32-29.21-.35-43.43-3.62-13.82-3.17-27.83-4.12-41.94-4.47a75.14,75.14,0,0,1-20.08-3.2c-4.95-1.51-10-3.13-15.14-3.63-8.91-.86-17.32-3.2-25.88-5.38-12.14-3.08-24.7-4.42-37.15-2.48a149,149,0,0,0-36.84,11.21c-18.7,8.18-37.32,16.52-55.94,24.85a114.9,114.9,0,0,0-26.53,16.44A187.19,187.19,0,0,1-7142.46-36c-10,6.43-20.9,11-33.26,12.16-9.67.9-18.46,4.26-27,8.44-37,18.2-68.85,43-101.34,67-3.25,2.4-5.7,5.72-8.2,8.28Zm-119.62,558.86c7.72,10.3,10.24,21.6,13,32.84a14.09,14.09,0,0,0,1.25,3.58c4.43,7.92,6,16.64,8.68,25.06,4.47,14,10.77,27.24,23.25,37,8.49,6.63,17,13.26,26,19.29,11.76,7.9,24.08,15.09,36,22.79,14.05,9,28.46,17.37,45.3,21.4a59.52,59.52,0,0,1,7,2.44c15.4,5.82,28.93,13.8,39.16,26.37a55.75,55.75,0,0,0,15.15,12.46c11.13,6.48,22.47,12.87,34.44,17.85,25.28,10.51,51,20.17,76.6,30a92.44,92.44,0,0,0,14.38,3.81c13.45,2.79,27.15,2.58,40.8,2.37a248.68,248.68,0,0,1,59.58,5.8,70.23,70.23,0,0,0,23.12,1.37l7.63-27.74c-14.61-5-28.59-9.91-42.73-14.44a43.16,43.16,0,0,0-14-2.41c-22.64.68-43.8-7-65.88-9.46-4.84-.53-9.55-2.7-14.12-4.53a132,132,0,0,1-14.61-6.79c-19.93-11-39.85-21.94-59.57-33.21-14-8-27.21-17-38.31-28.2-13.89-14-30.45-23.57-50-29.36-25.17-7.44-47.71-19.68-68.9-34-17-11.51-34.8-22.27-48.31-37.63a13.13,13.13,0,0,0-2-1.73c-5.8-4.44-9.21-10.14-11.47-16.74-3.94-11.57-8.38-23-12.86-35.17Zm-34.63,115c20.5,17.23,40.06,35.34,57.12,55.55a151.42,151.42,0,0,0,29.52,26.81,139,139,0,0,1,24.36,20.93,125.17,125.17,0,0,0,30.69,24.62,265.55,265.55,0,0,1,40.6,28.61,177.34,177.34,0,0,0,40.07,26c14.11,6.78,28.09,13.79,42,20.91a164.94,164.94,0,0,0,45.19,15.52c18.82,3.52,37.93,4.34,57,4.92,25.13.76,49.16,5.33,71.82,15.6a91.89,91.89,0,0,0,25.26,7.39c21.27,3,42.65,2.39,64,1.72a13.14,13.14,0,0,0,2.94-.89c2-10.36,4.05-20.73,6.22-31.81-5.36.51-9.62.88-13.88,1.32-11.94,1.27-23.66.59-34.84-3.82-17.22-6.81-35.21-9.57-53.88-9.6a113.6,113.6,0,0,1-39.29-7,326.88,326.88,0,0,0-47.47-13.67,179.86,179.86,0,0,1-18.45-4.52,273.62,273.62,0,0,0-57.91-11.37,57.73,57.73,0,0,1-31.27-12.7c-9.84-7.75-20.43-14.7-30.73-22q-9.21-6.5-18.58-12.8c-4.95-3.32-9.89-6.69-15.09-9.64-15.91-9-32.08-17.76-45.29-30.08-12.78-11.92-25.11-24.28-37.16-36.84a98.3,98.3,0,0,0-21.95-17.74,79.71,79.71,0,0,1-24-21.2c-6.83-9-15.22-16.59-23.93-24a180.65,180.65,0,0,1-20.06-19.62c-10.81-12.62-22.71-24.58-30-40.19l-28.77,17.22c16,28.53,36.67,52.56,63.55,72.09Zm112-696.74c-5,7.84-9,14.62-13.59,21.06-7.09,10-13.7,20.4-22.07,29.41A315.07,315.07,0,0,0-7385.55,157c-3.37,4.87-8,9-12.27,13.35-3.52,3.55-8,6.44-10.93,10.33-5,6.6-11.43,11.88-17.47,17.57-10.22,9.64-19.3,20.15-23.15,33.54-1.86,6.47-3.76,13-4.6,19.63-1.65,13.1-2.63,26.28-3.81,39.43-.95,10.65-1.75,21.32-2.68,32-1,11.89,2.34,23.29,4.41,34.85,2.87,16,2.64,31.63-4.56,46.9-2.4,5.08-3.33,10.86-4.17,16.42a76.81,76.81,0,0,0-.81,16.31c1.18,18,2.7,35.94,4.26,53.89.43,4.92,1.47,9.79,2.22,14.65a9.21,9.21,0,0,0,1.95-.17c15.15-6.25,30.24-12.62,45.46-18.72,3.26-1.31,3.53-3.43,3.59-6,.26-11.11.43-22.22.82-33.32.65-18.49,2.73-36.82,8.67-54.58a85.11,85.11,0,0,0,2.43-47.16,192.28,192.28,0,0,1-4.89-43.69,296.61,296.61,0,0,1,3.42-45.73c1.61-10.34,1.3-20.91,5.31-30.95A161.93,161.93,0,0,0-7387,208a30.24,30.24,0,0,1,7.89-13.72c4.63-4.62,9.2-9.3,13.54-14.15A198.48,198.48,0,0,1-7332,150.72a99.84,99.84,0,0,0,17.79-16.33c7.88-9.18,14.77-19.07,22.64-29.39Zm-5.94,541.6-31.21,16a27.22,27.22,0,0,0,.73,4.21c4.52,12.52,9,25,13.76,37.5a19.39,19.39,0,0,0,4.67,6.81c13.43,12.8,27.3,25.06,42.78,35.94,24.29,17.09,50.05,31.22,79.23,39.85a121,121,0,0,1,33.5,15.3c7.71,5.19,15,10.88,22.58,16.26,10.44,7.43,20.53,15.35,31.52,22,22.43,13.59,45.35,26.48,68.09,39.64,1.92,1.11,3.85,2.48,6,3,9.92,2.2,19.91,4.22,29.91,6.13,7.78,1.49,15.62,2.72,23.44,4.07,4.69.81,9.35,2.14,14.07,2.33,13.43.55,25.91,4.06,38.13,8.93a98.69,98.69,0,0,0,26.54,6.43c3.22-12,6.35-23.76,9.51-35.59a8.16,8.16,0,0,0-2.5-.53c-12.88,2.54-25.48-.16-37.85-2.53-12.2-2.34-24-6.35-36-9.68-6.75-1.88-13.6-3.53-20.15-5.89-16.6-6-30.33-16.38-42.9-27.44-7.92-7-15.82-13-25.82-16.8a49.56,49.56,0,0,1-7.73-4c-9.09-5.48-19.1-8.49-29.68-10.63a103.27,103.27,0,0,1-23.77-7.4c-10.27-4.88-19.86-11-29.55-16.88a100.8,100.8,0,0,1-26.6-23.27,24.13,24.13,0,0,0-7.3-6.49c-13.27-6.87-26.56-13.75-40.23-19.91-16.56-7.47-31.67-16.45-43.36-29.82-6.93-7.93-14.06-15.72-21.09-23.57a11.63,11.63,0,0,0-.91-1C-7316.77,629.67-7323.17,622.66-7327.24,613Zm389.37,314.41c-11.44-2-22.54-4.22-33.77-5.69-11.91-1.56-23.91-2.7-35.92-3.42-9.52-.56-19.11-.14-28.67-.28a141.2,141.2,0,0,1-50.43-9.71c-6.26-2.48-12.68-4.64-19-6.93a698.48,698.48,0,0,1-95-42.6,77.93,77.93,0,0,1-12.8-8.33,117.4,117.4,0,0,0-37.88-20.76,138.65,138.65,0,0,1-30.4-14.1c-17.76-11.33-35.61-22.58-52.9-34.51-7.59-5.22-14.33-11.66-20.68-18.19-14.36-14.73-23-32.5-30.39-50.85-1.18-2.94-2.06-6-3.64-8.79-5.14-9-8-18.64-10-28.59a41.26,41.26,0,0,0-7.57-16.41L-7449,682.38c2.78,4.8,4.89,9.22,7.72,13.2,5.24,7.36,11,14.42,16.36,21.68a136.46,136.46,0,0,0,23.59,24.29c6.79,5.53,13.72,11.27,19,18,9.81,12.59,21.87,23,34.43,33,11.21,9,22,18.28,30.32,29.69,9.33,12.81,21.71,22.55,35.67,30.63,9.42,5.45,19,10.94,29.14,15,20.24,8,38.64,18.64,56,30.92,5.6,4,11.26,7.84,16.72,12a37.82,37.82,0,0,0,19.06,7.65c18.06,2,36.08,4.27,53.47,9.66,10.76,3.34,21.82,5.88,32.62,9.15,13.37,4.06,26.69,8.31,39.88,12.85,10.29,3.53,20.67,6.39,31.66,7.25,5.21.41,10.37,1.33,15.57,1.8,16.67,1.51,32.58,5.73,48.07,11.41,15.1,5.54,30.28,3,45.5,1.24q3.56-18.42,6.73-34.87c-9.51-2.49-18.26-4.63-26.91-7.09a69.82,69.82,0,0,0-19.46-2.29l-4.27,6.11-.73-.29C-6938.56,931.29-6938.2,929.3-6937.87,927.42ZM-6771.29-13.9c-3.72-3.15-7.89-4.49-12.48-5.23-4.92-.8-9.75-2-14.62-3-3.09-.65-6.16-1.43-9.28-1.95-7.14-1.21-14.32-2.25-21.47-3.44-5.58-.93-11.1-2.55-16.72-2.88a115.17,115.17,0,0,1-34.34-7.48,128.9,128.9,0,0,0-18.69-5.85c-14.4-3.05-28.91-5.65-43.44-8.16a25.89,25.89,0,0,0-10.08.19c-17.81,4.22-35.92,7.62-52.53,15.36-2.22,1-4.64,1.72-7,2.59-24.62,9.23-47.75,20.92-67.43,37.49-18.19,15.33-39.19,25.64-62.38,32.64a276.09,276.09,0,0,0-43.16,17.15c-14,7-28.18,13.66-42.27,20.49-6,2.93-12,5.91-18.72,9.23l31.06,35.72c4.9-1.2,9.22-2.77,13.68-3.22,6.16-.62,11.24-3,16.2-6.12s10.13-6.43,15.52-9.1a75.48,75.48,0,0,0,23.22-17.23,83.86,83.86,0,0,1,27.38-20.45c5.48-2.56,10.82-5.37,16.31-7.89,13.71-6.31,27.86-11.24,43.31-12.72a30,30,0,0,0,11.42-3.78c13.2-7.39,26.15-15.16,39.21-22.77,2.88-1.68,5.86-3.21,8.71-4.94,17.6-10.74,38.33-12.11,58.09-16.33,7.5-1.61,15.17-2.58,22.79-3.65,4.48-.62,9.11-1.6,13.52-1.13,11.26,1.2,22.64,2.38,33.59,5,15,3.5,29.69,8,44.27,12.65a104,104,0,0,1,20,9.23c7.29,4.24,13.94,9.41,20.92,14.1a26.92,26.92,0,0,0,4,1.81C-6778.81,16.72-6775.1,1.63-6771.29-13.9Zm-576.08,561.31c0-7.47-.35-14.17.1-20.83.48-7.09,1.51-14.17,2.69-21.2A66.69,66.69,0,0,1-7341.1,492a31.26,31.26,0,0,0,2.21-13.53c-.38-7.11-.83-14.24-.8-21.35,0-7.85-.93-15.49-3.94-22.84a86.7,86.7,0,0,1-6.32-38.24c1-18.45,2-36.85,10.64-54.07a22.75,22.75,0,0,0,2-9.79c.07-11.11-.14-22.22-.52-33.32-.2-5.85-1-11.68-1.52-17.52-1.72-20.95,7.94-39.52,14.58-58.72,1.86-5.36,4-10.65,6.3-15.89,2.11-4.84,3.82-10,7-14.23,7.82-10.28,16-20.3,26.7-28.45,8.33-6.38,15.91-13.59,24-20.56-7.37-9.09-14.38-17.73-22-27.14-7,7.61-13.92,14.3-19.81,21.68-6.14,7.68-12.86,14.72-21.16,20.35a140.08,140.08,0,0,0-23.43,20.1c-7.31,7.76-14.85,15.34-22,23.22a24,24,0,0,0-5.23,8.64c-5.09,16.5-9.76,33-12.14,50.19-3.68,26.62-5.11,53.06,1,79.42a131.76,131.76,0,0,1,1.28,55.55c-1.81,9.28-4.33,18.51-5.17,27.87-1.53,17.11-2.07,34.31-2.92,51.47-.06,1.27.75,2.59,1.15,3.88.13.44.49,1.14.31,1.3-3.45,3-2.25,7.08-2.52,10.69-.51,6.89-.28,13.84-.82,20.73-.51,6.38-.19,12.47,2.83,18.41,1.52,3,1.89,6.47,3.06,9.63,2.47,6.66,5.13,13.26,7.91,20.41Zm-94.08,37.34c-2.91-4.87-5.46-9-7.92-13.28-7.25-12.47-13.05-25.5-14.85-39.59-1-8.14-4-15.94-4.06-24.25-.06-5-1.48-9.94-2.15-14.93a582.41,582.41,0,0,1-5-63.93c-.33-12.8-.57-25.54,2.38-38.18,2.22-9.52,1.91-19.18.35-28.78-2.09-12.86-4-25.75-2.78-38.8,1.68-18.16,3.3-36.34,5.4-54.46a117,117,0,0,1,10.26-35.73c7.39-16,18.16-29.9,30.24-43.08a87,87,0,0,0,7.18-8.37c5.11-7.31,11.6-13.4,18.64-19.1a49.62,49.62,0,0,0,9.26-9.16A295,295,0,0,1-7364,117.68c15.23-15.31,24.29-34.28,36.48-51.72l-20.13-20.35c-13.26,8.87-25.86,17.74-35.12,30-13,17.12-27.6,32.79-45.65,45.59a43.85,43.85,0,0,0-13.83,16.15c-5.12,10.05-10.57,20-15.09,30.26-3.23,7.33-5.21,15.12-7.66,22.74-3.15,9.82-5.51,19.91-9.51,29.42s-7.74,18.79-9.64,28.74c-4.12,21.54-10.27,42.51-20.39,62.39a27.8,27.8,0,0,0-2.61,7.13c-3.57,18-5.36,36.1-3.4,54.42,1.48,13.75,3.28,27.53,1.58,41.39-1.53,12.49-2.95,25-4.91,37.43-1.3,8.33-.62,16.08,3.18,23.89,6.34,13,12,26.25,15.44,40.23,3.63,14.7,7.61,29.33,11.19,44,1.74,7.15,3,14.4,4.31,21.62,1.27,6.74,2.43,13.5,3.76,20.88Zm698.09-686.07c-3.37-.93-5.94-1.69-8.55-2.35A373,373,0,0,1-6799-118.4c-11.59-4.63-23.83-6.73-36.38-7.87-16.31-1.48-32.75-3.2-48-9.11-16-6.22-32.2-8.4-49.33-5.85-12.55,1.87-25.55,2-37.71,5.14-17.11,4.35-34,8.77-51.71,11.06-11.35,1.46-22.36,5.49-33.39,8.74-13.88,4.09-27.75,7.94-42.37,9.36-8.55.82-17.28,1.94-25.37,4.46-18.61,5.78-36.19,13.81-51.9,24.8a237.54,237.54,0,0,1-52.12,27.18c-7.15,2.71-14.13,5.86-21.43,8.15A41.74,41.74,0,0,0-7270-27.45c-12.14,15.84-26.51,29.78-42.38,42.52-9.4,7.55-18.06,15.87-27.53,24.27l19.86,15.41c8.25-6.91,16-13.62,24-20,5-4,10.36-7.54,15.5-11.36,27.68-20.6,57.25-38.65,88.07-55a89.44,89.44,0,0,1,15.49-6.5c13.81-4.24,25.91-11,37.36-19.17,7.89-5.62,15.95-11.37,24.8-15.46,21.14-9.76,42.57-19,64.28-27.65,27.25-10.81,55.84-10.49,84.6-6.67,6.52.87,13,2.36,19.5,2.88,8.26.66,16,2.84,23.91,4.91a166,166,0,0,0,18.64,3.35c11.24,1.59,22.63,2.42,33.74,4.53,15.23,2.89,30.47,4.82,46,4.6,7.73-.12,15.48,0,23.22.17,16,.31,31.75,2.23,46.88,7.39a25.81,25.81,0,0,0,3.38.65Zm-52.16,146.4c-.79-1.82-1-4.42-2.54-5.52-8.79-6.31-17.84-12.3-26.88-18.29a32.88,32.88,0,0,0-6.05-2.85c-10.24-4-20.59-7.85-30.73-12.07a93.74,93.74,0,0,0-39-7.65c-3.64.1-7.3-.22-10.92.07-4.25.35-8.66.58-12.63,1.85-12.25,3.93-24.4,8.06-37.23,10.13A85.85,85.85,0,0,0-6999,26.48c-13.07,9.63-27.48,17.12-41.84,24.79a43.59,43.59,0,0,1-18.75,5.23,75.84,75.84,0,0,0-27,6.09q-9.85,4.32-19.64,8.76c-12.4,5.63-23.28,13-32,23.05-5.72,6.63-13.07,11.56-21.05,15.78a155.67,155.67,0,0,0-14.21,8.62c-8,5.42-16.56,9.54-26.67,10.38a44.92,44.92,0,0,0-6.32,1.53l16.47,27a33.57,33.57,0,0,0,3.36-1.58c11.75-7.25,24.32-13.07,37.1-18.62a103.53,103.53,0,0,0,20.11-11.67,110.43,110.43,0,0,1,31.82-16.73c18.88-6.1,37.68-12.41,56.65-18.25a122.59,122.59,0,0,0,34.22-16.62,114.36,114.36,0,0,1,26.69-13.79c13.54-4.87,27-10,40.32-15.32A58.26,58.26,0,0,1-6918,40.49c7.74,0,15.5-.54,23.21-.15,19.94,1,39,4.51,56.35,14.74,14.14,8.32,29.45,15,44.26,22.29.28.14.8-.13,1.78-.32,1.56-6.5,2.79-13.32,4.91-19.9,2-6.18.11-10.54-5.6-14ZM-6657.81,510a37.22,37.22,0,0,0,1.81-4.35,56.94,56.94,0,0,0,.53-25c-6.44-34.89-14-69.61-17.49-104.95-1.59-16-7.4-31.06-18.67-43.9a49.36,49.36,0,0,1-11.12-22.72c-3.14-14.84-11-27.34-21.61-38.66-13.65-14.54-28.73-27.4-47.21-36.71-10.64-5.37-20.24-12.09-27.59-21.2-.32-.4-1-.54-1.5-.79l-15,29c2.22,1.38,4.4,2.89,6.74,4.15a63.33,63.33,0,0,1,26.52,26.37,142.42,142.42,0,0,0,19.48,27.25c6.38,7.22,11.66,15.12,14.76,23.95A136.58,136.58,0,0,0-6727.86,360a45.11,45.11,0,0,1,9.37,25.91c.27,7.12.34,14.25.36,21.37,0,10.78,1.58,21.21,6.24,31.29a42.74,42.74,0,0,1,3.94,15.19c.81,14.43.84,28.9,1.17,43.35.05,2.25,0,4.49,0,7.11Zm-594.83-357.52c-4.26,2.89-7.93,5.73-11.95,8-18,10.34-32.05,23.86-41.5,41.52-2.54,4.76-4.92,9.36-5.76,14.6a149.66,149.66,0,0,1-8.09,31.11A74.85,74.85,0,0,0-7324,288c2.46,14.59,2.37,29.22,2.34,43.89,0,6-1.05,11.77-4.05,17a68.59,68.59,0,0,0-8.63,28.22c-1.72,19.06-2.91,37.94,5,56.43,2.75,6.44,2.84,13.91,3.7,20.95.74,6,.75,12.1,1.26,18.14.7,8.44.69,16.75-3.39,24.64-.71,1.38-.89,3-1.59,5.49l32.29-12.24c.54-7.35.79-14.46,1.64-21.5a104.1,104.1,0,0,0-1.09-33.77c-1.84-8.89-1.31-17.94.52-26.89,3.2-15.64,6.15-31.33,9.57-46.93s6-30.91,3.22-46.75c-2-11.34-.2-22.53,2-33.73a192.72,192.72,0,0,0,3.56-24.89c.71-12.21,3.67-23.56,11.25-33.76,2.05-2.75,3.37-6,5.46-8.7,5.51-7.15,10.93-14.4,17-21.12,4.89-5.39,10.71-10.07,16.33-15.24ZM-6811,156.2c2.78-12.47,5.4-23.64,7.64-34.88.29-1.46-1-3.58-2.22-4.84a38,38,0,0,0-16.55-9.68c-19.66-5.91-39.29-12-59.21-17.09-7.49-1.92-15.74-1.62-23.66-1.73a145.13,145.13,0,0,0-17.63,1.34c-2.48.28-4.3-1-6.31-1.38-2.48-.52-5.57,1.25-8.34,2.17-27,9-51.77,21.53-74,38.33-9.32,7.05-18.9,13.82-28.65,20.35-13.27,8.88-27.05,17-42.7,22.09-19.3,6.24-38.48,12.82-57.91,18.7-17.1,5.17-30.23,15.76-44.41,25.26l23.89,34.71a31.59,31.59,0,0,0,1.8-3.45c3.72-10.57,11.78-17.33,22.72-21.15a271.71,271.71,0,0,1,27.81-8.46c28.37-6.59,53.17-19.22,75.79-36,17-12.63,34.15-25.11,51.58-37.24,16.29-11.32,34.14-20.07,54.18-24.45a88.49,88.49,0,0,1,50.73,3.79c6.7,2.49,13.64,5,20.72,6,16.79,2.49,29.23,11,39.85,22.42C-6814.64,152.35-6813.37,153.69-6811,156.2Zm-436.07,317.4c3.6-13.29,6.85-25.91,10.46-38.44a88.39,88.39,0,0,0,1.66-43.57c-3.56-16.62-4.37-33.24-.4-49.89,7.31-30.62,9.89-61.69,10.79-92.94a109.51,109.51,0,0,1,1.66-15.61c1.41-8.06,5.63-14.49,13.82-18.37,3.37-1.59,6.55-3.52,10.56-5.7l-21.05-23.79c-6.74,3-13,5-14.15,12.36-.33,2.09-2.18,4.14-3.76,5.88-8.83,9.68-15.85,20.46-22.27,31.55a39.28,39.28,0,0,0-4.53,13c-2.08,12.4-3.2,24.94-5.43,37.31-1.77,9.79-2.65,19.47-1.4,29.36,1.2,9.57,2,19.16.45,28.82-3.23,20.5-6.17,41.05-9.33,61.56-1.42,9.14-3.31,18.35-1.3,27.49,3,13.6,2.49,27,0,40.58-.72,3.81-.79,7.72-1.24,12.49Zm55.28-15.29c-2-15.59,4.38-29.29,8.22-43.45,1.54-5.69,2.68-11.46,4.09-17.18,2.16-8.76,4.29-17.54,6.63-26.27,1.79-6.7,4.29-13.26,5.79-20,3.46-15.62,1.83-31.29-.59-46.88-2-12.78-2.08-25.46,1.6-38,.95-3.23,1.83-6.48,2.82-9.7.59-1.92.74-3.57-1.1-5.13-9.66-8.16-16.36-18.46-23.82-28.21-1.15-1.51-2.42-2.94-3.84-4.66-3.27,1.68-6.12,3.39-9.19,4.66-7.29,3-10.43,8.41-10.95,15.39s-1.16,13.79-1.3,20.69c-.56,26.63-1.94,53.18-8.21,79.3-4.5,18.76-4.37,37.3,1.45,55.89a69.25,69.25,0,0,1,1.07,36.72c-2.2,9.41-5,18.7-7.47,28.06-.67,2.53-1.17,5.11-2,8.57ZM-6796.1,91.59c-3.69-2.1-6.8-3.82-9.86-5.62q-22.72-13.34-45.44-26.71c-2.69-1.57-5.4-3.1-8.11-4.64a10.17,10.17,0,0,0-7.78-1,34.76,34.76,0,0,1-9.41.58c-12.25-.59-24.5-1.32-36.74-2.11-9.13-.58-17.41,1.53-25.61,5.26a241.54,241.54,0,0,1-28.29,10.89,142.2,142.2,0,0,0-35.54,17,135,135,0,0,1-23.62,12.44c-23.4,9.22-47.2,17.6-70.67,26.7a75.25,75.25,0,0,0-18.19,9.73,126.46,126.46,0,0,1-36.49,19.32,76.46,76.46,0,0,0-9.38,3.76c-7.53,3.68-15,7.54-22.44,11.34l4.17,7.68-1,.6-5.62-6.79-24.81,11.78c6.42,8,12.44,15.53,18.91,23.59,5.14-3.88,10.05-7.25,14.53-11a93.52,93.52,0,0,1,21.91-13.71c7.75-3.52,15.58-7,22.94-11.1a119.31,119.31,0,0,1,28.6-11.64A163.05,163.05,0,0,0-7060,139.77c14.64-8.88,29.49-17.47,43.77-26.82,26.07-17.07,55.22-27.17,86.15-33.52a36.67,36.67,0,0,1,16.89.2,18.94,18.94,0,0,0,5.33.12c10.21-.39,20.5-1.8,30.6-1.06,23.72,1.76,46.28,8.62,68.79,15.33,3.54,1,6.78,2.94,10.66,4.68C-6797.19,96.11-6796.71,94.13-6796.1,91.59Zm109.53-134.92L-6705,7c1.94,1.2,3.58,2.26,5.27,3.25,16.82,9.73,32.49,20.77,46.17,34.11a109.93,109.93,0,0,0,9.4,8.2A91.55,91.55,0,0,0-6610,68.87l32-48.83c-5.68-1.91-10.81-3.54-15.87-5.34-16.4-5.83-30.95-13.94-41.47-27.44a36.47,36.47,0,0,0-10.26-9.07c-12.31-7.09-25-13.65-37.53-20.38A22.67,22.67,0,0,0-6686.57-43.33ZM-6727.31,65c37.4,5.94,65.58,25.15,90.58,49.49q10.24-18,20.16-35.28c-.44-.58-.52-.83-.69-.9a28.8,28.8,0,0,0-3.1-1.27,130.18,130.18,0,0,1-39-20.26c-8.51-6.29-16.64-13-25.26-19.18-8-5.74-16.51-11-25.57-17C-6716,35.73-6721.47,49.86-6727.31,65Zm-706,515.84,39.65-16.34c-3.3-8.89-4.06-18-9-26a26.13,26.13,0,0,1-3.45-10.77c-1.1-10.83-1.64-21.7-2.4-32.56-.14-1.93-.27-3.87-.44-6.29l-48.47,21.85C-7456.55,536.53-7449.59,559.82-7433.36,580.84Zm248-57.76c-8.74-9.05-8.15-19.35-7.72-29.65.39-9.4.68-18.81.92-28.22a34.12,34.12,0,0,0-.7-5.17c-11.14,3.7-21.51,7.35-32,10.54-3.86,1.18-5.56,3.25-5.88,6.68-.92,10-2.56,19.93-2.53,29.89,0,11.32,6,21.14,11.52,31.62Zm460.64-680.69c-1.54,14.61-3,28.44-4.46,42.42a205.4,205.4,0,0,0,51.84,10.55c.73-13.94,3.28-27.29.65-40.75C-6692.26-152.12-6708.22-155.72-6724.71-157.61Zm-691.07,795.44c-5.12-16-10.71-30.9-20.48-44.39l-37.16,14.4c7.16,17.13,14.15,33.84,21.41,51.19Zm41.4-26.12c-1-13.74-8.27-24.65-14.94-36.68l-38,14.3c6.75,14.67,13.19,28.65,19.9,43.21Zm588.55,182.16c-1,0-1.5-.16-1.83,0-9.22,5-18.39,10-27.61,14.94-2.71,1.45-3.22,3.67-3.64,6.29-2.43,14.89-5,29.76-7.57,44.64-.36,2.12-.56,4.27-1,8,10.39-4.46,19.17-8.27,28-12,3-1.25,3.4-3.68,3.86-6.19,2.26-12.37,4.57-24.74,6.79-37.13C-6787.77,806.29-6786.85,800.11-6785.83,793.87Zm-13.44,74c-10,3.92-18.92,7.51-27.92,10.91-2.81,1.06-3.36,3-3.79,5.39-2.16,11.74-4.46,23.46-6.61,35.2-.86,4.66-1.46,9.36-2.29,14.81,3.51-.19,6.21-.05,8.77-.52,4.66-.86,9.2-2.35,13.88-3.07,5.1-.79,7.08-3.58,7.8-7.93,1.74-10.53,3.62-21,5.56-31.55C-6802.51,883.75-6801,876.4-6799.27,867.89Zm65.18-696.44c7.26-10.89,13.88-20.82,20.74-31.09-12.27-7.77-22.11-17.86-36.13-22.94-2.47,5.39-4.57,10-6.67,14.52l-1.11-.4,4.67-15.34-7.5-2.51c-2.71,6.64-5.06,12.74-7.68,18.73-1.24,2.84-.88,5.06,1.14,7.51C-6757.24,151.35-6745.63,160.75-6734.09,171.45Zm13.82-229.31c-4.76,17.27-8.83,33.61-10.94,50.44l20.08,11.16c6.32-17.09,12.35-33.4,18.5-50.06ZM-7278,561.72l39.55-16.24c-4.15-10.86-8-20.88-11.85-31.05a1.74,1.74,0,0,0-.94,0c-10.27,5.38-20.56,10.74-30.74,16.27a5.19,5.19,0,0,0-2.4,3.44c-.61,5.41-.89,10.85-1.22,16.28a7.41,7.41,0,0,0,3.08,6.66A47.81,47.81,0,0,1-7278,561.72ZM-7221,121.63c-9-13-16.56-25.88-26.87-37.22-11.12,3.64-15,13.86-23.82,19.54,4.3,5.49,8.17,10.36,11.95,15.28s7.37,9.79,10.79,14.34Zm301.89,769.23c-3.31,8.93-6.6,17.77-10.06,27.07,2.34.33,4.31.54,6.26.89,5.11.93,10.24,1.8,15.3,2.92,4,.88,7.81,2.33,11.8,3.1,3.44.67,7,.75,10.73,1.11l7.81-31.34C-6892,897.93-6904.79,891.38-6919.16,890.86ZM-7295.34,527.7c0-10.53,0-20.86-1-31.46-9.47,2.38-18.07,4.25-26.43,6.76-5,1.5-9,4.32-8.24,10.28.25,1.8-.55,3.71-.78,5.58-.89,7.43-1.75,14.86-2.76,23.44Zm-1.46,10.63-35.46,16.19c1.81,10.11,1.61,20.13,4.15,30.37l37.15-17.68C-7293,557.12-7294.86,548-7296.8,538.33ZM-7336.12,589c-2.52-10-5-19.77-7.66-30.18L-7377,571.08l14.3,33.41Zm53.24-65.62,32.31-11.24c.82-11.44,1.57-22,2.36-33.19-10.92,3.83-21.5,7.45-32,11.36a5,5,0,0,0-2.58,3.76C-7283,503.45-7282.88,512.84-7282.88,523.38Zm69.31-389.78L-7242,144.71l23.6,29.24,23.31-12.76Zm495.18,407.14c2.78-.27,3.91-.28,5-.49,9.32-1.78,18.64-3.63,28-5.41,8-1.53,18.38-9.56,22-17.49l-43.34-5.09C-6707.17,523-6710.2,532-6718.39,540.74ZM-6733.63,8l-9.43,50.74,9,4.39,17.54-45.59Zm-20.09,44.85c.73-2.88,1.43-5.06,1.83-7.28q3.39-18.84,6.64-37.69c1.24-7.26.6-8-8-10.52-3.38,17-6.76,34-10.22,51.43ZM-6798,180.33c4.3-11.51,8.09-21.51,11.72-31.57a5.59,5.59,0,0,0-.06-4.18c-1.55-2.86-3.6-5.49-6-9-4.8,9.42-9.19,17.86-13.35,26.4a5.18,5.18,0,0,0,.11,4.1C-6803.43,170.43-6801,174.65-6798,180.33Zm48.25-198.08,7.23,3.56,12-47.28-8.77-2.82Zm139.44,539.48-38.49-2.74-7.74,11.66,44.68-2.3C-6611.29,526.1-6610.87,524.3-6610.27,521.73ZM-6765.38,95.11c3-9.84,5.8-19,8.74-28.61l-9.52-3.69c-2.39,9.48-4.64,18.38-7,27.57ZM-6755,99.7a32.7,32.7,0,0,0,3.57,1.57,29.25,29.25,0,0,0,3.59.54c3.09-8.9,6.07-17.52,9.15-26.42l-7.87-3.08C-6749.45,81.59-6752.15,90.34-6755,99.7Zm-120.12,927.9-1-.11c-3.71,9.45-7.43,18.91-11.62,29.59l12.59-2.33Zm97.37-923c-5.76,11.11-5.72,11.57,1.67,19l5.54-14.82Zm-38.2,959,.15,1.57,32-2.45c-.06-.56-.11-1.12-.16-1.68ZM-7052.2-229.66c7.44-.41,14.89-.72,22.32-1.24,3.56-.25,7.09-.9,10.63-1.36A91.36,91.36,0,0,0-7052.2-229.66ZM-7391.84-103l1,.88,13.31-12.71-1.35-1.18C-7385.91-114-7387.12-107-7391.84-103Zm1147.93,737.9c-4.58,6.83-8.62,13.88-11,21.63C-6250.2,649.76-6246.08,642.74-6243.91,634.91Zm-604.5,373.61,18.38-5.24C-6841.63,1002.32-6846.31,1003.55-6848.41,1008.52Zm-317.94,44.8c-6.34-1.85-12.58-4.13-19.49-3.61C-7180.06,1053.92-7172.92,1052.43-7166.35,1053.32Zm974.7-756.56-1.32.52,5.25,16.39,1.84-.51C-6184.28,306.74-6190.21,302.36-6191.65,296.76ZM-6360.83,8c-1.66-6.42-8.48-15.41-13.75-18.4ZM-6665.9-222.32c-.11.48-.21,1-.31,1.45l18.59,4.24c-.77-1.73-1-2.91-1.39-3C-6654.62-220.61-6660.27-221.44-6665.9-222.32ZM-7473.09,823.76c1.82,6.63,8.42,15.27,13.75,18.41Zm887.8,256.26c5.77-1.39,4.73-6.35,7.16-10.26C-6586.64,1073.42-6586.89,1073.8-6585.29,1080Zm453-606.92c-.84,8.49-.59,8.88,6.1,9.9C-6125.21,478.15-6129.58,476.44-6132.33,473.1Zm-1514.15,44.2c-2.93,4.13-1.63,8.15,5.32,17Zm398-765.76c-6.11,1.58-5.09,6.3-7.31,10.29C-7247.49-242.06-7247.49-242.06-7248.5-248.46Zm-127.65,1260.83c4.71,3.68,8.54,1,13.29.25C-7370.85,1008.26-7370.85,1008.26-7376.15,1012.37Zm905.06-1193.61c7.41,4.65,8.22,4.66,12.85.25C-6462.42-184.63-6466.53-181.64-6471.09-181.24ZM-7707.57,348.05c-.06,5.13.54,6,6.1,9.48C-7701.19,350.23-7701.19,350.23-7707.57,348.05Zm141.72-273.7c2.55-4,.79-6.87,1.12-11.13l-6.19,6ZM-6914,1104.69l-1.57-1.2-8.94,4.77,8.31,2.37C-6915.4,1108.32-6914.72,1106.5-6914,1104.69ZM-7589.76,193.4l1.88.71,9.72-19.27-1.48-.63Zm19.16,563.08-1.25.95c.52,1.91,1,3.83,1.68,6.23l6.85-1.1C-7564.19,757.93-7569.06,759.23-7570.6,756.48ZM-6270.54,69.12l-.54,1.67,9.11,4.57c-.92-3.18-1.55-5.37-2.28-7.87ZM-6917.75-279c-1.07,2.66-3.05,4.4-.62,7.24l8.6-5.18Zm648.28,1047.05,6.14-5.35c-1.75-2.06-2.18-5-6.14-4.14Zm-186.31,178.09c.4.41.79.83,1.18,1.24,5.71-1.72,7-7.14,9.5-10ZM-6960.57-284.68c.3.41.61.82.92,1.22l9.49-4.56-.89-1.57C-6954.41-288.31-6958.65-288.65-6960.57-284.68Zm680.2,316.15c2.74,2.31,5.18,5.09,9.44,4.74C-6273.75,34.06-6275.42,30.21-6280.37,31.47Zm-592.49,1083.27c-4.66,1.65-8,2.68-10.23,5.66C-6879.54,1119.71-6875.37,1120.1-6872.86,1114.74Zm-798.39-779.41c-1.05,3.94-2.12,7.88.94,11.49Q-7670.79,341.08-7671.25,335.33Zm1509.38,149h-2q.53,5.85,1,11.68l.93-.06Zm-701.08,420c.34-2.58.64-4.81.92-7,.25-1.94.48-3.88.72-5.82h-1.64Zm-690.7-104.13c-2.72-2.45-5.16-5.22-10.56-5.36C-7560.47,797.88-7558.42,801.24-7553.65,800.19Zm-43.19-700c.61-3.11,1.92-6.29.06-9.39C-7598.5,93.89-7599.95,97-7596.84,100.18Zm366-320.41c.3.44.59.88.89,1.31l11.36-6.61-.81-1.2Zm764.87,74.17c.23-.44.47-.88.71-1.32l-10.68-5c-.24.44-.48.88-.71,1.32ZM-6238.49,741c4.15-5.36,4.13-7.06.48-9.72C-6238.18,734.73-6238.34,737.87-6238.49,741ZM-7358.83,983.68l.77-1.52-11.17-4.94-.6,1.18Zm124.18-430.45c-.24-.51-.49-1-.74-1.52l-9.4,4.19c.13.27.25.55.38.83Zm620.06,503.27.81,1.23,9.52-5.41-.83-1.27Zm-249.48-146.26h-.53v5.28h.53Zm-18.23,225c.14.37.29.74.44,1.11.84,0,1.85.27,2.47-.07s1-1.31,1.5-2l-.71-.63ZM-7613.41,87.17l2,.24V83.63l-1.19-.13Zm39,719.54,1.25-1.42-3.17-1.94-.87,1ZM-6257.33,28.59c-1-3.16-1-3.16-4-2.73ZM-6951-304c-2.74-1.28-4.28-1.19-5.57,2.06Zm730.32,1048.28-1.93-.28v3.8l1.22.13C-6221.15,746.72-6220.91,745.5-6220.68,744.29Z" transform="translate(7721.87 318.86)"/><path class="cls-3" d="M-6782.13,431.94c-2.78,20.57-5.52,41.14-8.35,61.7-.73,5.25-3.65,9.31-8.34,12.46-8.09,5.43-16,11.08-24,16.59a34.15,34.15,0,0,1-6.25,3.79c-10.08,4.1-17.87,10.77-24.65,18.49-13.42,15.29-29.84,26.8-49.28,35-10.12,4.25-19.59,9.83-29.74,14-7.61,3.14-15.64,6.18-23.8,7.28-20.16,2.71-30.6-4.68-36.76-18.35-8-17.78-15.32-35.8-22.89-53.74a57.54,57.54,0,0,1-2.31-6.57c-3.65-12.7-11.61-22.5-23.11-30.18-7.95-5.31-16-10.37-25.15-13.75-2.11-.77-4.18-1.66-6.2-2.62-6.58-3.14-9.68-8.15-8.8-14.94.68-5.2,2-10.32,2.58-15.52.8-7.69,2-15.46,1.52-23.11a196.38,196.38,0,0,1,5-58.08,100.91,100.91,0,0,1,16.24-35.73c6.31-8.81,14.71-14.18,26.42-14.42a32.47,32.47,0,0,0,21.5-8.34,195.33,195.33,0,0,0,16.93-16.34c8.91-10.07,17.3-20.52,25.82-30.88a168.59,168.59,0,0,0,22.12-35.31c4.66-9.9,11.93-17.68,20.55-24.66a9.34,9.34,0,0,1,9.57-1.38,23.67,23.67,0,0,1,11.94,9,12.49,12.49,0,0,1,1.9,3.33c3.72,13,13.68,21.77,23.51,31,12.29,11.47,23.73,23.72,35.25,35.87,7.23,7.63,10.38,17.09,12.57,26.83q1.32,5.85,2.53,11.71A55.7,55.7,0,0,0-6816.1,337,84.93,84.93,0,0,1-6801.82,368a195.1,195.1,0,0,0,13.58,38.15A60.57,60.57,0,0,1-6782.13,431.94Zm-135.6-225.74c-8.24,2.49-11.92,7.56-14.42,14.05a335.5,335.5,0,0,1-35.79,67.64,145.55,145.55,0,0,1-26.77,30c-9.76,8.22-20.79,13.48-34.23,13.65-6.66.09-11.64,2.86-15.9,7.36-4.9,5.18-7.81,11.28-10.24,17.61-6.29,16.37-8.62,33.33-9.17,50.6-.37,11.51-.82,23-1.81,34.5-.53,6.23-2.36,12.36-3.4,18.57-.83,5-.39,5.55,4.63,7.67,3.31,1.39,6.73,2.57,9.95,4.12,23.58,11.32,42.77,26.09,49.33,51.43a83.24,83.24,0,0,0,8.21,19.91,175.26,175.26,0,0,1,12.46,27.15,58.35,58.35,0,0,0,3.08,7c5.1,10,11.5,13.13,23.15,10.07,7.36-1.93,14.42-5,21.32-8.17,9.39-4.25,18.28-9.43,27.76-13.48a115.76,115.76,0,0,0,43-31.17c1.27-1.47,2.7-2.83,4.07-4.23a75.54,75.54,0,0,1,23.57-16.84c3.24-1.44,6.12-3.6,9.09-5.53,7.05-4.59,14.11-9.17,21-13.94,1.49-1,3.06-2.72,3.37-4.31,2.95-15.46,6-30.93,8.32-46.47,2.08-13.68.63-26.93-5.49-39.95-4.58-9.73-7.54-20.18-10.44-30.49-3-10.85-7-21.2-13.85-30.53a63,63,0,0,1-11.19-26.11c-.74-3.92-1.71-7.8-2.51-11.71a49.58,49.58,0,0,0-15-27c-6.05-5.67-11.64-11.77-17.35-17.74-4.81-5-9.06-10.59-14.33-15.16-9.8-8.49-17.79-17.84-21.68-29.92A13,13,0,0,0-6917.73,206.2Z" transform="translate(7721.87 318.86)"/><path class="cls-3" d="M-6558.79,455.16c-7.48,2.9-14.91,5.89-22.46,8.62-1,.38-2.6-.51-3.93-.82.74-.9,1.31-2.4,2.23-2.6,8.06-1.83,16.19-3.42,24.31-5.07Z" transform="translate(7721.87 318.86)"/><path class="cls-3" d="M-6845.55,429.88c-.45,11-.78,22.73-1.47,34.44-.63,10.69-4.51,20.53-10.85,29.43a216.79,216.79,0,0,1-43.87,45.4c-8.16,6.34-17.62,10.39-28.65,10.3s-19.18-4.61-24.63-13.31a36.07,36.07,0,0,1-5.73-17.91c-.2-4.82-.12-9.64-.28-14.46-.4-11.83-6.27-18-19-20.12-1.8-.3-3.58-.64-5.39-.86a31,31,0,0,1-19-9.09c-3.17-3.24-6.39-6.71-8.41-10.59-10.75-20.62-17.2-42.28-17.61-65.3-.12-7,2.75-12.89,9.15-16.63,21.07-12.3,36.92-29.74,53.87-46.08a117.11,117.11,0,0,0,29-43.64c.74-2,2-4,2-6,.06-6.07,4.83-9.59,8.42-13.61,3.32-3.72,9.81-3.95,14.38-1.17a59.37,59.37,0,0,1,4.81,3.53c5.31,4,10.78,7.55,18,8.34,5.28.57,9.06,3.74,11.69,7.91a38.54,38.54,0,0,1,3.58,6.77c6.62,17.6,14,35,17.38,53.49a230.44,230.44,0,0,0,8,30.49c3.09,9.34,4.92,18.67,4.59,28.42C-6845.72,416.15-6845.55,422.65-6845.55,429.88Zm-13.26-10.19c-.78-13.27-1.22-26-2.41-38.73-.74-7.91-2.83-15.69-3.95-23.58-2.9-20.58-11.92-39.43-19.19-58.79a22.52,22.52,0,0,0-1.5-2.82c-1.74-3.16-4.27-5.43-8.26-5.89-7.09-.81-12.7-4.3-18-8.32a31.75,31.75,0,0,0-5.42-3.78c-1.44-.67-4-1.26-4.92-.57-3.79,2.87-7.87,5.79-7.61,11.14a38.79,38.79,0,0,1-5.54,22.4c-5.1,8.36-10.4,16.79-16.93,24.21-9,10.23-19.2,19.56-28.91,29.26-9.12,9.11-18.7,17.76-30.31,24.23-5.21,2.9-7.29,7-7,12.59,1,19.52,6.83,37.92,15.29,55.67,5.08,10.66,13,18.15,26.7,18.46a3.1,3.1,0,0,1,.67.1c13.39,2.61,22,10.82,24,23.42.73,4.54.68,9.18.93,13.78.34,5.91,1.33,11.66,4.58,16.9,4.81,7.76,12,10.35,21.39,7.79a39,39,0,0,0,19.59-12c10.36-11.93,20.64-23.94,30.52-36.22a52.9,52.9,0,0,0,11.53-26.57C-6861.74,448-6860.35,433.63-6858.81,419.69Z" transform="translate(7721.87 318.86)"/><path class="cls-3" d="M-6928.89,343.19l-4.44,1.79c-.15-.25-.3-.5-.44-.75,2.59-2,5.44-3.75,7.72-6,2.12-2.09,3.64-4.7,5.19-6.77,1.9-.3,4-.1,5.38-.94,5.36-3.37,11.56-3.72,17.59-4.48a8.77,8.77,0,0,1,9.41,5c1.52,3,2.7,6.22,4,9.33a77.88,77.88,0,0,0,3.86,8.71c4.26,7.22,6.34,14.9,5.35,23-2.75,22.47-2.59,45.26-7.75,67.47-3.34,14.32-7.4,28.51-11.5,42.68a30.37,30.37,0,0,1-5.35,10.08c-4.45,5.67-11.43,5.37-14.79-.9a34.32,34.32,0,0,1-3.56-13.21c-.57-6.88-.11-13.83-.15-20.75a39.25,39.25,0,0,0-.38-5.63c-.36-2.48-2.05-3.76-4.75-3.38-3.82.53-7.57,1.43-11.4,1.91-6.5.83-13,2-19.57,2.05-9.92,0-17.83-4.17-23.93-11.45-14.42-17.21-11.12-38.05-1.7-51.9,2.21-3.25,5.76-5.9,9.17-8.23a129,129,0,0,1,12.82-7.19C-6944.8,366.59-6935.63,356.13-6928.89,343.19Zm12.72-5.68c-1.29,3.65-2,7-3.59,10-6.44,12-15,22.47-27.38,29.91-5.71,3.44-11.81,6.34-17.35,10-3.43,2.25-7.16,4.95-9,8.27-7.41,13.24-7.66,26.47,2,39.16a20.84,20.84,0,0,0,17.95,8.61c4.51-.12,9-1.08,13.49-1.63,5.84-.71,11.68-1.83,17.54-2,6.94-.16,11,3.19,12.34,9.5a53,53,0,0,1,.9,10c.15,6.7-.06,13.41.16,20.11.07,2.26,1,4.5,1.83,8a27.4,27.4,0,0,0,2.07-2.73,26.32,26.32,0,0,0,1.87-4c6.93-22.15,13.34-44.42,15.11-67.55.9-11.69,1.77-23.4,2.4-35.11.31-5.83,1-11.78-1.63-17.38-3.33-7.1-6.69-14.18-10.27-21.18a6,6,0,0,0-3.68-3C-6906.33,335.86-6911.38,335.05-6916.17,337.51Z" transform="translate(7721.87 318.86)"/><path class="cls-3" d="M-6913.9,372.88l-2.91-.34a2.12,2.12,0,0,1-.17-.58c.12-3,6.71-10.38,10.08-11.23,4.26-1.08,7,.42,10.84,4.71,5.55,6.21,7.61,13.09,6.36,21-1,6.2-1.4,12.48-2.54,18.66a14.59,14.59,0,0,1-3.41,6.63c-4,4.53-8.44,8.73-12.67,13.09-3.79,3.9-8.15,6.58-14.19,6.25-7.67-.42-16.78-8.34-17.57-15.34-.36-3.13,1.64-5,3.79-7C-6925.35,398.83-6919.16,386.39-6913.9,372.88Zm-16.48,42.64c5,8.4,8.31,9.12,16,3.73,4.15-2.92,8.42-5.7,12.45-8.76,1.49-1.13,3.26-2.73,3.54-4.32,1.34-7.83,2.5-15.72,3.18-23.62.52-5.94-3.75-11-10.89-13.74C-6909,386.74-6918.12,401.94-6930.38,415.52Z" transform="translate(7721.87 318.86)"/></g></g></g></svg>