<svg xmlns="http://www.w3.org/2000/svg" viewBox="0 0 1609.42 1469.34"><defs><style>.cls-1{opacity:0.51;}.cls-2{fill:#7a4417;}</style></defs><title>logicon</title><g id="Layer_2" data-name="Layer 2"><g id="Layer_1-2" data-name="Layer 1"><g class="cls-1"><path class="cls-2" d="M1439,1134.6c1.2,3.65,2.65,7,3.34,10.41a65.2,65.2,0,0,1,1.69,13.58c-.09,6.92-3.6,10.67-10.79,12.89a6,6,0,0,1-1.31.34c-10.21.69-18.77,5.73-28,9-7.65,2.75-15.23,5.62-23.67,5.39-4.43-.11-5.6,3.25-6.73,6.08s-1.6,6.1-2.28,9.18c-2.46,11.06-4.89,22.12-7.46,33.74,3.51,1.15,6.67,2.13,9.79,3.2,8.73,3,10.51,9.37,3.17,14.67-8.37,6-17.72,11-26.68,16.32-4.43,2.65-10.15,3.62-12.55,8.93-.52,1.14-3,1.91-4.67,2.19-20.54,3.41-39.45,11.36-59,17.48-8.84,2.76-15.35,6.33-17.22,15.33-.53,2.58-2.32,5-3.9,7.3-5.58,8.1-11.92,15.77-15.88,24.76a17.89,17.89,0,0,1-3.51,4.62c-4.75,5.07-7.84,4.89-12.69-1-7.43,3.72-14.85,7.7-22.52,11.2a34.69,34.69,0,0,0-14.1,11.39,200.83,200.83,0,0,1-14.32,16.8,28.43,28.43,0,0,1-12.55,8.4,6.43,6.43,0,0,0-3.68,3.86c-1.3,4.84-4.41,7.42-9.51,8.83-3.21.89-6,2.89-9.09,4.3-7,3.21-14.15,4.56-22,1.24-2,1.56-3.93,3.25-6,4.75-7.86,5.57-15.46,3.48-18.74-5.17-.9-2.36-1.52-4.8-2.36-7.5-7.27-.46-14.55-.59-21.72-1.45-11.94-1.43-23.8-3.42-35.73-5-2.32-.3-5.19-.31-7.13.67-21,10.57-43.8,15.11-67.18,17.77-16.24,1.85-32.58,3-48.81,4.94a25.06,25.06,0,0,0-11.24,4c-10.38,7.48-20.45,15.36-30.29,23.44-3,2.43-5.09,5.86-7.12,9.08-4,6.39-12.71,10.35-20.32,8.06a76.34,76.34,0,0,1-15.31-6.72,37,37,0,0,0-18-4.82,297.77,297.77,0,0,1-29.85-2.29,40.59,40.59,0,0,1-24.17-12,33.13,33.13,0,0,0-3.17-2.51c-2.85,2.78-5.7,5.21-8.09,8-3.53,4.11-8.39,6.36-13.28,8.55-5.48,2.46-10.62,1.51-15.26-2a7.46,7.46,0,0,1-1.5-1.27c-6.13-8.37-15.87-12.86-24.06-19-5.84-4.38-11.84-8.62-15.31-15-1.2-2.21-3-3-5.47-2.88a16.58,16.58,0,0,0-4.07.2c-14.9,4.44-29.77,9-45.16,13.64.66,3.53,1.26,6.56,1.8,9.59,1.45,8.35-3.56,12.43-12.35,9.9a51,51,0,0,1-8.78-3.42c-8.59-4.31-17-8.86-25.62-13.18a14.29,14.29,0,0,0-6.17-1.79,8.74,8.74,0,0,1-7.07-3.1c-11.9-13.16-26.62-23.46-40.8-34.29-4.91-3.75-9.34-9-15-10.66-5.32-1.58-12,.62-18,1.14a20.71,20.71,0,0,1-2.73.11c-11.08-.55-22.16-1.67-33.28-.43a16.31,16.31,0,0,1-3.4-.24c-8.53-.9-10.25-3.28-7.47-11.05-9.39-5.25-18.85-10.63-28.43-15.83-1.47-.8-3.44-.91-5.21-1.14-9.46-1.25-18.95-2.27-28.37-3.7-5.18-.78-10.28-2.22-14.12-5.81-1.95-1.82-4-1.78-6.23-1.07-4.57,1.44-8.29.47-11.84-2.61-2.27-2-5.26-3.27-8-4.82-7.25-4.15-12.93-9.32-13.47-17.78-2.95-1-5.81-1.7-8.48-2.83-8-3.37-9.67-10.14-4.15-16.43,2-2.25,4.26-4.27,6.4-6.39-4.09-7.77-8.39-15.16-11.93-22.84-3.91-8.47-7.26-17.17-10.56-25.87-.95-2.49-1.95-4.47-4.53-5.9-18-10-32.44-23.57-45.31-38.7-11.65-13.69-23.79-27-33.77-41.88-2.11-3.15-6.1-5.86-9.88-7.31-11.32-4.36-22.87-8.25-34.53-11.79-4.42-1.34-9.37-1.59-14.09-1.68-8.38-.16-16-4.52-17.95-12a54.1,54.1,0,0,1-1.42-15.55c.24-6.33-1.5-11.77-4.8-17.31a212,212,0,0,1-12.41-24.41,34.11,34.11,0,0,1-.85-25.29,38.52,38.52,0,0,0,.88-3.94c-4.1-.88-7.78-1.86-11.54-2.41-5.35-.8-9.77-3.33-14.15-5.95-5.6-3.35-7.44-8.22-6.27-14.17a4.57,4.57,0,0,1,.32-1.22c5.21-9.84,3.92-20.8,6.39-31.09a106.35,106.35,0,0,1,5.29-16.13c1.82-4.34,2-6.6-1.53-10.11-2-2-4.31-3.73-6.52-5.54C74,945.87,64.44,938.1,54.4,929.9c-2.81,2.25-5.27,4.3-7.82,6.25-7.2,5.49-13.23,3.64-15.59-4.75a16.32,16.32,0,0,1-.7-3.7c-.41-9.63-.82-19.26-1.08-28.9-.1-3.67,1.22-7.35-1.89-10.77-.95-1-.52-3.7.1-5.35,8-21.14,10.16-43.37,14.59-65.18a5.74,5.74,0,0,0-1.87-5.66,78.52,78.52,0,0,1-17.2-26.2c-.68-1.71-2.27-3.09-3.31-4.69-2.69-4.11-5.81-8.06-7.82-12.44-2.76-6-.64-8.64,7.28-9.73.14-6.73-.1-13.61.54-20.42A38,38,0,0,0,15,716c-3.52-6.52-6-13.57-8.33-20.56a20.52,20.52,0,0,1-.75-9.89,6.22,6.22,0,0,0-2.34-6.65c-3.41-2.82-4-6.2-3.24-10.27.68-3.48.59-7.09.81-10.64.45-7.2,2.64-13.62,9.77-17.84a82.51,82.51,0,0,1-1.5-8.72c-.52-7.7,4.19-11.88,12.49-11.1,3.35.31,6.64,1.15,10.18,1.79,1.24-1.66,2.46-3.14,3.53-4.71a245.2,245.2,0,0,1,31.36-38c1.3-1.27,2.67-3.16,2.67-4.77.14-24.49,9.21-46.86,19.27-68.95,5.35-11.77,11.63-23.19,17-35A22.78,22.78,0,0,0,108,458.53c-1.9-12.43-4.59-24.76-7.24-37.07a18.31,18.31,0,0,0-3.55-7.41,16.46,16.46,0,0,1,3.8-23.61,80.88,80.88,0,0,1,11.53-6.66,31.64,31.64,0,0,0,13.9-12.44,203,203,0,0,1,15.85-21.18,41.61,41.61,0,0,1,24.93-14.4,24.57,24.57,0,0,0,3.5-1.21c-1.17-3.55-2-7-3.44-10.22-2-4.66-1.89-9.45-1.58-14.24.39-6,3.74-10.2,10.12-12.09a7.35,7.35,0,0,1,1.28-.42c11.39-.76,20.76-6.79,31.19-10a112.25,112.25,0,0,1,18.39-4.25c6.2-.83,8.39-1.7,9.83-7.42,2.16-8.57,4-17.21,5.91-25.83,1.18-5.29,2.22-10.6,3.4-16.24-4-1.26-7.41-2.21-10.74-3.44-7.21-2.68-8.57-8-3.29-13.36a30.63,30.63,0,0,1,6.28-4.8q12.72-7.35,25.64-14.39c3.09-1.68,6.43-2.72,8-6.31.57-1.32,3.18-2.35,5-2.68,23.62-4.22,45.47-13.31,67.91-20.78,2.8-.94,4.52-2.25,5.46-5a77.37,77.37,0,0,1,15.71-26.28c1.39-1.57,2-3.7,3.12-5.51,2.41-4,4.49-8.28,7.46-11.92,4.3-5.27,7.73-5,12.89.86,5.18-2.62,10.33-5.64,15.84-7.94C415.27,108,423.48,102,429.38,93a74.28,74.28,0,0,1,11.68-13.08,37.62,37.62,0,0,1,10.42-6.84c2.75-1.21,4.5-2.45,5.14-5.17.95-4,3.51-6.42,8-7.73,3.85-1.13,7.29-3.38,11-5,8.18-3.63,12.79-3.83,21.33-1,2.09-1.62,4.22-3.49,6.58-5.08,7.42-5,14.7-3,17.94,5,1,2.52,1.73,5.16,2.72,8.16,2.31.16,4.54.38,6.77.44a283.27,283.27,0,0,1,51.4,6,10.67,10.67,0,0,0,6.39-.77c19.91-10.06,41.54-14.58,63.79-17.3,17.14-2.1,34.15-5,51.54-5.28a22.6,22.6,0,0,0,11.85-4.2c10.56-7.61,20.7-15.73,30.77-23.89a23.17,23.17,0,0,0,6.05-7.5c3.73-7.56,14.26-11.87,23-8.67A79.4,79.4,0,0,1,789,7.35c5.38,3.19,11,4.43,17.37,4.58a290.71,290.71,0,0,1,29.19,2.22A42.15,42.15,0,0,1,861,26.52c.75.77,1.63,1.43,2.88,2.5,2.7-2.63,5.5-5,7.82-7.7,3.36-3.93,7.9-6.25,12.55-8.44,6.11-2.88,11.87-2.27,17,2a5.86,5.86,0,0,1,1,.87c6.05,8.14,15.49,12.63,23.55,18.6,6,4.48,12,8.93,15.89,15.37,1.86,3.11,5.06,3.77,10.21,2.33,8.92-2.51,17.77-5.21,26.62-7.92,5.79-1.77,11.53-3.69,17.7-5.68-.71-3.67-1.43-6.91-2-10.18-1.14-7.11,3.08-10.86,10.74-9.42a29.06,29.06,0,0,1,7,2.31q12.72,6.09,25.26,12.46c3.91,2,7.2,5,12.36,4.39,1.51-.16,3.66,1.58,4.91,2.93,15.68,16.86,35.4,29.51,53.54,43.8,2.14,1.69,4.14,1.93,6.86,1.42a92.79,92.79,0,0,1,31.89-.68c2.61.42,5.4-.22,8.11-.29,4.3-.12,8.67-.61,12.91-.14,8.43.92,9.88,3.31,7.38,11.12,9.23,5.18,18.47,10.52,27.9,15.56,2,1.09,4.75,1.24,7.19,1.58,9.22,1.27,18.47,2.31,27.67,3.69a27.89,27.89,0,0,1,13.52,5.62,6.46,6.46,0,0,0,4.8,1.08c5.64-1.47,10.12-.22,14.29,3.5,2.08,1.85,5,2.89,7.47,4.38,6.73,4,12,9,12.61,17.25,2.54.81,5.12,1.51,7.6,2.44,9,3.42,10.93,10.78,4.4,17.55-1.79,1.86-4.21,3.2-6.37,4.79,1.62,3,2.67,5,3.83,7a241.73,241.73,0,0,1,19.55,42.82c.63,1.85,1.81,4.1,3.47,5,20.53,11.33,36.27,27.22,50.41,44.6,9.68,11.9,18.94,24.1,28.69,35.95a25.31,25.31,0,0,0,9.1,7.33c13.86,5.85,28,11.15,43,14a27.54,27.54,0,0,0,6.09.42c10.27-.37,17.63,4.45,19.63,13.78a59.53,59.53,0,0,1,.84,14.37c-.2,5.65,1.35,10.54,4.23,15.56a254.82,254.82,0,0,1,13.43,26.73c3.79,8.91,2.76,18.14-.82,27.57,4,.92,7.63,2.13,11.38,2.56,5.45.61,9.81,3.23,14.23,5.75,5.92,3.38,7.93,8.39,6.63,14.61a4.94,4.94,0,0,1-.34,1.21c-5,9.66-3.86,20.38-6.27,30.48a99.38,99.38,0,0,1-5.16,16.17c-2.14,5-2.29,7.25,2,11.09,3.57,3.23,7.39,6.23,11.14,9.28,7.83,6.37,15.68,12.71,23.87,19.34,3.1-2.45,5.74-4.68,8.55-6.73,6.4-4.66,12.16-3,14.5,4.32a24.61,24.61,0,0,1,1.21,6.79c.31,10.26.37,20.52.68,30.78a10.22,10.22,0,0,0,1.46,5.18,7.19,7.19,0,0,1,.58,7.19c-6.63,16.88-9,34.59-12.24,52.14-.9,5-3.29,10.26-2.15,14.79s5.87,8.16,9,12.24a43.86,43.86,0,0,1,3.62,5.33c4.5,8.18,8.37,16.68,14.69,23.93a16.62,16.62,0,0,1,2.38,4.51c2.93,6.87,1.45,9.33-6.89,10.88-.28,10.13-.69,20.37-.76,30.6,0,2,1.19,4,2,5.92,3.23,7.38,6.72,14.66,9.73,22.12,1.34,3.29,2.5,6.92,2.39,10.36-.16,5.09-.47,9.69,4.27,13.52,1.29,1,1.12,3.9,1.1,5.92,0,3.34-.65,6.68-.73,10-.19,8.07-2.09,15.39-9.83,20.17.54,3.37,1.38,6.45,1.46,9.55.17,7.12-5.12,11.33-12.8,10.28-3.13-.43-6.17-1.35-9.87-2.18-1.29,1.82-2.65,3.69-4,5.59-9,13.15-18.92,25.68-30.62,36.93-2,1.9-3.17,3.81-3.22,6.59-.29,16.74-4.29,32.84-10.92,48.36-7.82,18.32-15,36.89-25.14,54.32a19.55,19.55,0,0,0-2,12.15c1.91,12.43,4.59,24.76,7.25,37.07a23,23,0,0,0,3.57,7.42c5.44,8.23,4.45,16.93-3.48,23.09a68.81,68.81,0,0,1-12.61,7.42,30.87,30.87,0,0,0-12.57,11.09,272.49,272.49,0,0,1-17.48,23.18c-6,7.16-14.3,11.55-24,13.48C1441.35,1133.79,1440.34,1134.19,1439,1134.6ZM1010.3,227.28l-20.74-6.89c-1.72,9.09-3.26,17.18-4.86,25.61l10.88,3.51c5.24-7.93,10-15.19,14.86-22.46-2.3,8.43-4.59,16.86-6.94,25.49l28.43,11.55c3.61-11.25,7.09-21.68,9.19-32.76-8.1-1.2-15.44-2.34-22.81-3.38C1015.68,227.58,1013,227.46,1010.3,227.28ZM869.62,1185.81c-1.38,6.38-1.38,6.38.14,9.3a11,11,0,0,0-.19-9.22c.63.64,1.63,1.2,1.83,1.94a58.92,58.92,0,0,1,1,6c4.28,0,6.18-1.69,6.6-5.26.89-7.68,2-15.33,3.11-23.09,1.09,8-.36,16.16,2.36,24.22,3.25-5.46,3.86-11.56,5.2-17.45q2.16-9.51,4.23-19.06c1.31-6,3.3-11.89,4.1-19l-5.71,3.08c-12.44,6.62-25.21,12.48-39.62,14.64-11.14,1.66-22.24,3.52-33.36,5.3-1.1.17-2.19.42-3.59.7-3.22,13.23-6.43,26.39-9.75,40,7.46,1.4,14.37,2.46,21.15,4a33.59,33.59,0,0,0,16.75-.54c4.11-1.11,6.42-3,7.84-6.78a59.55,59.55,0,0,1,16.78-24.22l-7.71,26,1.4.59a30.42,30.42,0,0,0,2.57-3C866.46,1191.23,868,1188.48,869.62,1185.81ZM958,534.9c2.06-3.4,4-6.89,6.2-10.18,4.31-6.36,8.82-12.61,12.85-18.35l-33.43-30.25c-4.3,10.13-8.85,20.58-13.09,31.13a6.75,6.75,0,0,0,.64,5.22,61.12,61.12,0,0,0,21,21.87c2.19,1.38,4,1.14,6.07.34-1.19,3.08,1.39,4.08,3.5,5.21,17.58,9.38,31.81,22.26,45,36.22,13,13.7,22.08,29.18,25.55,47.2a70.08,70.08,0,0,0,11.58,27.28c8.68,12.4,12.77,26.28,13.88,40.94.61,7.94.7,16,2,23.8q5.93,35.38,12.71,70.64c2.67,13.87,5,27.68,3.12,41.82a8.34,8.34,0,0,0,.45,2.51c12.45,1.72,24.57,4.14,37.12,5.12.7-2.89,1.33-5.1,1.77-7.35,3.34-16.75,2.11-33.37-1.89-49.89a196.39,196.39,0,0,1-3.89-70.58c1.24-10.18,1.74-20.45,2.35-30.7.57-9.46-2.16-18.16-7.32-26.38a111.61,111.61,0,0,1-12.8-29.68,136.41,136.41,0,0,0-7.31-18.87c-4.08-9.08-9.21-17.8-12.72-27.05-5.38-14.22-15.28-24-30.32-29.58-1.27-.47-2.48-1.07-3.73-1.56a169.57,169.57,0,0,1-53.61-32.93,46.21,46.21,0,0,0-4.35-3.11c-4.54,6.1-8.67,11.86-13,17.46C963.7,528.55,960.75,531.67,958,534.9ZM1163.08,774l.16.14c.57-2.44,1.32-4.86,1.67-7.33,1.22-8.51,2-17.08,3.52-25.56a77.38,77.38,0,0,0-.22-29.37C1166.37,703,1167,694,1168,685c1.36-12.7,2-25.47,2.78-38.21.61-9.83.94-19.67,1.49-29.5.3-5.44.83-10.87,1.17-16.31a9.42,9.42,0,0,0-3.22-7.91,31.59,31.59,0,0,1-5.5-7.83q-8.51-15.37-16.7-30.9c-3.51-6.62-9.08-11.3-15.53-15.5-9.1-5.92-18.14-12-26.57-18.66a122.92,122.92,0,0,0-32.15-18.71,123.18,123.18,0,0,1-31.67-18.31c-8.65-6.78-17.81-13-26.79-19.44a34.14,34.14,0,0,0-4.26-2.17L990.29,492c1,1.07,1.54,1.74,2.17,2.32,15.63,14.59,32.69,27.35,53.47,35.29,21.44,8.19,34.93,22.72,41.58,43.05,2,6,4.89,11.73,7.24,17.62,3,7.46,6.49,14.81,8.54,22.49a129.84,129.84,0,0,0,14.74,35c4.57,7.42,7.35,15.47,7.08,24-.41,12.76-1.09,25.54-2.41,38.25-2,19.12-1.62,38.06,2.74,56.9,3.79,16.38,8.35,32.69,7.4,49.66-.4,7.06-1.22,14.1-1.91,21.77l10.38,1.41,0,.68-11.69.66c-.41,2.34-.76,4.29-1.19,6.77,10.73.16,20.72,2.14,31.44,1.23-.25-3.84-.35-7.16-.68-10.46-1.27-12.32-2.53-24.61.17-36.94,1.57-7.19,2.84-14.43,4-21.68C1163.66,778.11,1163.19,776,1163.08,774ZM539.46,852.21l1.2-4.33c-1.2-.13-2.66-.73-3.57-.32q-15.9,7.2-31.62,14.72c-.72.34-1,1.53-2,3.35,2.58-.46,4.09-.48,5.36-1,8.26-3.46,16.44-7.07,24.69-10.55,2-.84,4.12-1.38,6.19-2.05a39,39,0,0,1-5.2,3.73c-7,3.49-14.12,6.76-21.17,10.17-2.13,1-4.17,2.22-6.25,3.34,6.1,12.16,14.43,21.47,27.53,26.59,5,2,9.93,4.21,15,6a102,102,0,0,1,45.67,31.81c2.76,3.34,5.59,6.63,8.22,10a109.22,109.22,0,0,0,32.92,28.88c16.33,9.21,30.45,20.5,42,34.54,6.41,7.8,14.89,12.71,24.94,15.69,25.32,7.51,50.65,15,75.24,24.47a52.39,52.39,0,0,0,30.15,2.23c6.2-1.32,12.38-2.73,18.59-4,29.89-6.19,57.54-16.94,82.31-33.77,7.31-5,15.07-9.4,22.73-13.93a211.35,211.35,0,0,0,44.13-34.45c7.76-8,15.62-15.82,23.4-23.76a73.25,73.25,0,0,1,37.33-20.86,100.7,100.7,0,0,0,59.44-37.57c4.14-5.33,7.43-10.94,8.79-17.83a33.81,33.81,0,0,0-5-.2c-20.1,2.17-40.21,4.33-60.28,6.73a19.2,19.2,0,0,0-7.37,3A54.8,54.8,0,0,0,1014,892.44c-3.34,5.72-6.24,11.66-9.67,17.32-10.51,17.31-26.38,28-47.57,31.63a192.21,192.21,0,0,1-19.66,2,44.56,44.56,0,0,0-22.66,7.83,150.91,150.91,0,0,1-13.38,8.7,110.24,110.24,0,0,0-23.37,17.23c-3.18,3-6.42,5.94-9.7,8.86a64.1,64.1,0,0,1-35,15.72c-24.76,3.29-49.54,6.42-74.31,9.68-21.06,2.77-38.73-2.41-53.76-16.9-16-15.45-33.32-29.73-44.8-48.76-4.81-8-12.16-14.17-21-18.5A82.45,82.45,0,0,1,607,899.85a44,44,0,0,0-23.69-17.2c-16.39-5.12-29.48-13.86-37.75-28.14a6.37,6.37,0,0,1-.35-.55C544,851.44,541.75,851.71,539.46,852.21Zm48-30.26a5.52,5.52,0,0,0,1.68-6.17c-3-10.76-5.38-21.65-8.63-32.32-5.45-17.88-3.94-35.15,3.37-52.33,6.3-14.83,12.15-29.82,17.89-44.83,5.62-14.69,9.48-29.79,9.75-45.45.14-7.74-.56-15.49-.58-23.24,0-17.79,7.46-27.05,25.92-32.38a45.58,45.58,0,0,1,4.59-1.21c9.58-1.72,19.21-3.22,28.76-5.1,29.8-5.88,53.18-20.07,68.12-45.06,2.09-3.49,4.28-6.93,6.64-10.26,14.15-20.05,33.65-34,58.1-41.72,10.4-3.27,20.91-2.94,30.14,4.25A35.54,35.54,0,0,0,844,491.32c8,2.59,13.87,7.18,17,14.4,3.61,8.21,9.41,14.76,16.89,20.17A45.74,45.74,0,0,1,891,541c1.77,3.16,3.47,6.36,5.42,9.43,1.8,2.82,3.74,5.62,7.42,6.93a11.42,11.42,0,0,0,1.77-2.32q5.57-14.81,11-29.67a3.29,3.29,0,0,0,0-2.45c-3.24-6-6.59-12-10.15-18.45l-3.07,4.32c1.33-10.56,1.31-10.76-3.93-20.45a48.63,48.63,0,0,0-4.33-7.12c-9.41-11.91-20-22.12-36.93-24.92-6.56-1.08-12.78-4.21-19-6.75-15.62-6.39-31.29-8.12-47.57-1.9a181.76,181.76,0,0,0-50.73,29.17c-13.26,10.86-26.17,22.1-39.11,33.29q-35.38,30.55-82.42,41.27c-10.6,2.41-21.16,5-31.71,7.56-5.54,1.35-9.82,4.18-12.2,9.22-7.95,16.84-12.25,34.25-9,52.66a128.71,128.71,0,0,1-4.09,62.2c-3.12,9.84-6,19.78-8.34,29.79q-4.86,20.56-8.7,41.31a135.23,135.23,0,0,0-2.13,20.56c-.29,9.21.22,18.43.16,27.65,0,6.29-.5,12.57-.67,18.85-.17,6.09,2.63,10.84,8.09,14.78,6.1-2.33,12.16-4.68,18.26-6.94,3.54-1.31,7.16-2.45,10.75-3.67-2.2,1.39-4.31,2.9-6.6,4.13-6.45,3.45-13,6.78-19.6,10.22,1.26,1.77,2.32,3.12,3.22,4.55,7.37,11.66,17.5,20,31.76,24.24,15.39,4.56,26.61,14.18,34.89,26.8a52.5,52.5,0,0,0,20.91,18.46,76.37,76.37,0,0,1,30.94,27.72c8,12.65,18.15,23.52,29.84,33.31,6.06,5.07,11.78,10.48,17.79,15.6a30.33,30.33,0,0,0,21.78,7.47c5-.24,10-.35,15-.92,19.85-2.29,39.61-5.52,59.53-6.89,19.61-1.34,35.34-8.17,48-21.94a94.81,94.81,0,0,1,24-18.44,44.17,44.17,0,0,0,8.63-6.1c12.1-11.24,26.47-17.3,43.8-17.72,15-.37,27.95-5.57,38.12-15.88a135,135,0,0,0,10.39-12.42c4.87-6.32,9.54-12.77,14.26-19.17a24.47,24.47,0,0,0,1.43-2.61c-7.11,1.11-13.55,2.48-20.06,3s-13.1.37-19.66.34c-5.17,0-10.39-.81-15.5-.36-7.45.66-14.79,2.28-22.22,3.21a52.92,52.92,0,0,0-23.28,8.31c-3.68,2.47-7.12,5.26-11,7.49-6.52,3.78-13,7.85-20,10.66-9,3.6-16.69,8.46-23,15.27-3,3.18-5.91,6.38-8.61,9.75a38.15,38.15,0,0,1-27.41,14.79c-12.93,1.1-24.63,5.57-36.45,10A255.7,255.7,0,0,1,755,966.77c-22.6,5.79-41.61.33-57-16.18a64.93,64.93,0,0,1-17.43-37.52c-.93-7.7-1.66-15.42-2.33-23.14-.82-9.6-6.27-15.73-15.86-19.35a130.26,130.26,0,0,1-19-8.57c-12-6.87-23.91-13.72-37-18.74-7.85-3-12.55-8.78-14.64-16.36a14.6,14.6,0,0,0-1.45-4.15C589.91,822.17,588.43,822.2,587.45,822Zm582.1-522.39c1-2.66-1.51-3.26-3.11-4.09-8.69-4.53-17.16-9.6-26.3-13.2a254,254,0,0,1-53.77-29.42q-10.55-7.46-21.08-14.94a28.58,28.58,0,0,0-17.75-5.62l-9.23,34.24c1.2.68,2.11,1.25,3.08,1.73,13.24,6.49,26.69,12.64,39.66,19.55a175.76,175.76,0,0,1,24,15.28c14.12,10.77,30.72,16.62,48.17,22.66,5.58-9,11-17.67,16.39-26.35-1,2.76-1.82,5.58-3,8.25-3,6.7-6.23,13.33-9.41,20.07,1.52.92,2.47,1.47,3.39,2.06,19.69,12.45,39.6,24.63,59,37.42,27,17.76,43,42.77,53.85,71a94.32,94.32,0,0,0,4.72,11.1,72.52,72.52,0,0,1,7.87,22c1.19,6.68,4,12.82,7,19a276.51,276.51,0,0,1,12.44,28.54,194.62,194.62,0,0,0,20,41.19c4.43,6.83,8.61,13.81,12.67,20.84,5.91,10.22,10.72,20.91,12.85,32.34,2.77,14.86,5,29.8,7.2,44.76a553.4,553.4,0,0,1,5,64.55c.32,12.37.5,24.69-2.33,36.92-2.25,9.72-1.94,19.59-.41,29.4,1.84,11.83,4,23.66,2.88,35.65-2,21.29-3.71,42.63-6.71,63.81-2.69,18.94-10.48,36.41-22.65,52-6.09,7.8-12.69,15.27-19.06,22.88a71.18,71.18,0,0,0-4.53,5.51c-5.09,7.59-11.91,13.68-19,19.65a104.5,104.5,0,0,0-11.22,11.73c-7.8,9-15,18.48-23.24,27.1a201.88,201.88,0,0,0-26.71,34.08c-3.92,6.38-8,12.69-12.11,19a128.69,128.69,0,0,1-35.82,36.7c-4.77,3.22-9.34,6.69-13.94,10.12-27.65,20.63-57.22,38.68-88,55a83,83,0,0,1-14.83,6.32c-14.52,4.34-27.14,11.53-39.1,20.12-7.68,5.51-15.65,11-24.32,15q-31.1,14.33-63,27.12a136.94,136.94,0,0,1-54,9.32,39.29,39.29,0,0,0-4.71.49c-1.17,6.87-2.29,13.39-3.5,20.49,6.78-1.29,12.47-3,18.26-3.37,17.52-1,33.81-6.23,50.19-11.36,12.28-3.84,24.7-7.23,37.72-8.42,14.54-1.31,28.75-3.78,42.11-9.73,12.72-5.66,25.52-11.2,36.73-19.2,17.61-12.55,37.1-21.92,57.59-29.67,5.89-2.23,11.72-4.63,17.71-6.59a41.77,41.77,0,0,0,19.86-13.67c7.7-9.34,15.21-19,24.4-27,22.48-19.55,43.74-40.38,68.71-57.44a87.69,87.69,0,0,0,20.27-19.42c13-17.09,27.56-32.81,45.64-45.59A43.89,43.89,0,0,0,1330,1013.2c5.3-10.44,10.91-20.76,15.64-31.41a129.73,129.73,0,0,0,7.06-21.59c2.53-10.23,4.8-20.51,9.68-30.05a104.79,104.79,0,0,0,9.56-28.1c4.12-21.54,10.22-42.52,20.38-62.39a27.9,27.9,0,0,0,2.62-7.12c3.54-18,5.39-36.09,3.43-54.42-1.48-13.75-3.3-27.53-1.6-41.39,1.53-12.49,3-25,4.88-37.43,1.3-8.32.75-16.09-3.08-23.9-6.37-13-12-26.25-15.47-40.22-3.69-14.91-7.69-29.75-11.32-44.66a213,213,0,0,1-4.13-21c-2-14.65-5.82-28.73-12.78-42.16a166.19,166.19,0,0,1-17-52.16,44.44,44.44,0,0,0-8.6-20.3c-5.55-7.43-11.26-14.74-16.8-22.17a133.65,133.65,0,0,0-22.68-23.38c-6.94-5.69-14-11.55-19.48-18.4a178,178,0,0,0-31.36-30.5,210.36,210.36,0,0,1-39.28-39.13c-6.85-8.95-16.43-15-25.83-21.25C1172.78,299.39,1171,299.7,1169.55,299.56ZM873.2,1369.32c8.55-1.49,16.38-2.71,24.15-4.22q80.11-15.61,160.2-31.37c17.12-3.39,33.94-8.48,51.21-10.62a146.86,146.86,0,0,0,35.17-9.14c7.77-3,15.67-5.67,23.53-8.45,1.26-.45,2.59-.73,3.88-1.15,3.58-1.16,7.6-1.73,10.64-3.63,12-7.53,24.24-14.94,35.52-23.38,22.78-17.06,45-34.74,67.43-52.21a12.85,12.85,0,0,0,3.55-3.74c7.68-14.65,19.68-26.14,32.22-37.16a131.4,131.4,0,0,0,30.65-39c10.74-20.93,24.32-40.25,39.74-58.52a277.14,277.14,0,0,0,16.87-22.12,87.79,87.79,0,0,0,8.32-15.74c4-9.57,7.46-19.34,11.16-29,26.24-68.79,52.25-137.65,73.77-207.87,3-9.66,6.13-19.35,10.46-28.52a75.75,75.75,0,0,0,6.1-18.52c.74-3.92,1-7.91,1.66-11.85,1.33-8.29,1.75-16.85,4.45-24.76a40.16,40.16,0,0,0,1.88-17.84c-1.59-14.38-3.13-28.79-5.66-43-4.07-22.94-8.84-45.78-13.52-68.63-.66-3.2-2.42-6.24-3.89-9.25-3.53-7.24-7.66-14.27-10.68-21.68-2.88-7-4.82-14.41-6.89-21.7-3.7-13.07-8.77-25.56-17.15-36.77a345.76,345.76,0,0,1-40.93-70.9c-6.91-16.09-16.73-30.36-29.16-43.59-59.46-63.25-118.45-126.87-182.24-186.53a70.76,70.76,0,0,1-10.86-12.09c-4.76-7.18-11.37-12.42-18.41-17.45-9-6.43-18.85-12.14-26.55-19.69-7.86-7.7-17.69-11.41-27.32-15.92a87.75,87.75,0,0,0-9.36-3.81q-48.63-16.58-97.32-33a21.13,21.13,0,0,0-7.38-.75,120.67,120.67,0,0,1-31.78-3.28c-4.64-1-9.39-1.78-13.9-3.18-20.26-6.31-41-6.67-62.1-5.55a360,360,0,0,1-40.23-.2c-17.24-1-34.4-3.3-51.63-4.59a85.94,85.94,0,0,0-20.35.48c-39.17,6.55-78.33,13.21-117.36,20.43C631.8,119,582.5,128,533.81,139.69a324.36,324.36,0,0,1-36.71,6.94,98.21,98.21,0,0,0-23,5.45C463.6,156,453,159.85,442.43,163.69c-1.47.53-3,.86-4.52,1.32-3.17,1-6.7,1.44-9.42,3.06-9.18,5.45-18.54,10.77-27,17.11-25.92,19.48-51.45,39.41-77.09,59.21a12.64,12.64,0,0,0-3.45,3.82c-7.5,14.24-19.14,25.47-31.35,36.19a134.4,134.4,0,0,0-31.5,39.94,296.75,296.75,0,0,1-39,57.45c-2.68,3.12-5.21,6.36-7.79,9.55C202,402.86,194.15,415,190,429c-2,6.64-4.89,13.07-7.38,19.59-27,70.55-53.6,141.21-75.54,213.28a156.06,156.06,0,0,1-9.21,24.27,68.89,68.89,0,0,0-5.88,17.93c-.76,3.92-1,7.91-1.67,11.85-1.32,8.29-1.67,16.88-4.44,24.75A42.33,42.33,0,0,0,84,760.41c2,16.65,4.21,33.3,7.08,49.84,2.9,16.75,6.94,33.34,10,50.06,1.62,8.73,3.28,17.19,9,24.69,2.83,3.69,4.52,8.23,6.12,12.57a239.89,239.89,0,0,1,7.47,22.85,126.75,126.75,0,0,0,21.83,45.07c14.19,18.84,25.43,39.16,34.83,60.4a268.69,268.69,0,0,0,12.35,24.5,91.89,91.89,0,0,0,10.63,14.52c6.56,7.51,13.59,14.67,20.41,22,54.38,58.43,109,116.63,167.69,171.52,4.93,4.61,9.84,9.45,13.61,14.87,4.68,6.71,10.81,11.78,17.46,16.57q13.46,9.69,26.8,19.49c1.06.78,2,1.71,3,2.54,2.68,2.16,5,5,8.14,6.34,13.1,5.82,26.15,11.88,39.72,16.65,27.62,9.7,55.56,18.64,83.39,27.83a16.6,16.6,0,0,0,6,1c15.95-1,31.22,2.22,46.41,6.08,4.82,1.23,9.7,2.26,14.54,3.42a104.19,104.19,0,0,0,32.48,2.91c32.41-2.56,64.57-.65,96.7,3.43,8.92,1.14,18,1,27.55,1.47,3.15-11.87,6.09-22.93,9.15-34.42-4.25,0-7.4,0-10.55,0-15.25.24-30.5.79-45.74.67a109.8,109.8,0,0,1-37.27-6.83c-8.43-3.11-17.15-5.61-25.86-8-18.31-5-37.27-5.38-56.14-6.11-33.47-1.29-64.43-9.34-92.53-26.73-16.22-10-33.44-18.69-50-28.27-8.46-4.89-17.08-9.81-24.53-15.86A291.53,291.53,0,0,0,419,1220.35a106.14,106.14,0,0,1-25.72-17.5A206.27,206.27,0,0,0,359,1177.06a83.59,83.59,0,0,1-15.34-12.39,190.38,190.38,0,0,1-28.09-36.27,38.26,38.26,0,0,0-9.17-9.92c-13.51-10.92-27.17-21.71-40.1-33.19-15.84-14-27.86-30.94-39.59-48-1.41-2-3-4-4.5-6-6.28,3.16-11.79,6.09-17.47,8.72a20,20,0,0,1-7.1,1.84c-2.94.15-4.13-1.92-2.56-4.25a30.78,30.78,0,0,1,4.38-4.78c4.87-4.64,9.81-9.22,14.73-13.82-2-3.37-3.63-6.34-5.41-9.25C201,997,195.57,983.67,193.5,969c-2.88-20.34-10.08-39.51-20.66-57.58-2.38-4.06-4.64-8.18-6.94-12.27-15.29-27.18-23-55.78-20.8-86.64,1.27-17.76.9-35.61,1.55-53.41.3-8.15.41-16.44,2.14-24.38a272.22,272.22,0,0,0,6.29-66.87,84.33,84.33,0,0,1,3.46-26.75,180.58,180.58,0,0,0,7.27-41.49c.36-6.39,2.22-12.84,4.39-19,5.1-14.39,12.3-27.93,20.56-41a28.58,28.58,0,0,0,3.35-8.74c3.93-16.78,6.82-33.82,11.67-50.36,9-30.63,26-58,43.26-85.15a105.07,105.07,0,0,1,30.11-31.34c2.75-1.84,5.24-4,7.84-6.07,17.42-13.63,30.23-30.65,42.12-48.37,18.76-28,43.6-49.61,76.2-63.75,15.82-6.87,30.69-15.54,46.2-23,9.85-4.75,19.76-9.7,30.22-13a305.32,305.32,0,0,0,58.53-25.38,115.32,115.32,0,0,1,29.89-12.07A223.78,223.78,0,0,0,611.54,158a93.08,93.08,0,0,1,21.3-6.45,229.33,229.33,0,0,1,46.83-4,36,36,0,0,0,13.23-2.29c23.11-8.38,46.6-15.79,71.25-19.21a497.91,497.91,0,0,1,92.64-3.66A96.37,96.37,0,0,1,884,127.87c8.28,2.91,16.66,5.65,25.13,8,17.79,5,36.16,6.25,54.65,6.69,37.05.88,71.24,9.72,101.93,29.66,13.72,8.92,28.82,16,43,24.31,9.77,5.72,19.74,11.4,28.47,18.33a293.89,293.89,0,0,0,52,33.28,112.23,112.23,0,0,1,27.43,18.52,203.76,203.76,0,0,0,33.79,25.39,86.56,86.56,0,0,1,15.83,12.83,191.44,191.44,0,0,1,28,36.31,30.33,30.33,0,0,0,8.25,9c15.72,11.47,31,23.46,44.43,37.19,24.45,24.93,43.3,53.31,59.91,83,4.72,8.44,7.12,17.59,8.79,27,1.62,9.08,3.76,18.11,6.25,27,4.28,15.34,12.39,29.23,20.4,43.12,16.14,28,24.61,57.46,22.18,89.47-1.29,17.12-.89,34.34-1.55,51.51-.33,8.78-.35,17.72-2.19,26.27a277.18,277.18,0,0,0-6.25,66.87,83,83,0,0,1-3.35,26.13,179.57,179.57,0,0,0-7.31,41.49c-.34,6.39-2.14,12.86-4.31,19-5.08,14.39-12.29,27.93-20.48,41.05a30.83,30.83,0,0,0-3.58,9.31c-3.61,15.57-6.31,31.33-10.6,46.73-8.93,32-26.48,60.5-44.48,88.73a111.64,111.64,0,0,1-30.16,31.31,166,166,0,0,0-39.92,40.19c-3.59,5.1-7.18,10.21-10.7,15.35-18.52,27-42.75,48.1-74.39,62-16.4,7.19-31.89,16.13-48,23.94-9.23,4.49-18.53,9.18-28.37,12.22a302.81,302.81,0,0,0-59.8,25.81,112.51,112.51,0,0,1-29.26,11.84,213.71,213.71,0,0,0-42,14.7,75.32,75.32,0,0,1-16,5.31c-17.13,3.73-34.61,4.79-52.18,5a41.31,41.31,0,0,0-11.24,1.73c-13.39,4.07-26.67,8.44-40,12.71-1.66.54-3.27,1.2-5.25,1.92ZM1019,449.86c1.92,1.62,3.54,3.07,5.25,4.41,8.14,6.4,16.49,12.58,24.42,19.19a114.78,114.78,0,0,0,32.16,18.7,113.3,113.3,0,0,1,25.83,13.94c11.93,8.72,24.05,17.24,36.23,25.67,5.91,4.09,11,8.7,14.65,14.69s7.89,11.79,11.34,17.92c9.1,16.16,15.55,32.88,14.53,51.64-.66,12.11.43,24.3.53,36.45.07,8.58.29,17.19-.41,25.73-1,12.36-1.86,24.57.85,36.92,1.94,8.86,1.33,17.94-.5,26.89-3.12,15.23-5.39,30.65-9.39,45.69-5.3,19.93-4.89,39.84-2.49,59.93.1.81.06,1.94.59,2.33,1.3.94,2,1.28,0,2.35-.83.46-1,2.2-1.18,3.4-2.39,16.39-4.5,32.83-7.19,49.18a50.36,50.36,0,0,1-5,14.85,182.22,182.22,0,0,1-12.7,20.81c-10.74,15.29-23.39,28.71-41.69,37-10.17,4.62-19.69,10.48-29.29,16.1a321.86,321.86,0,0,1-35.82,18.2,107.28,107.28,0,0,0-21.49,12A117.87,117.87,0,0,1,983.27,1042c-17.42,5.52-34.66,11.51-52.17,16.79-13.81,4.15-26.15,10.47-38,18.13a154.77,154.77,0,0,1-24.34,12.51c-13.86,5.78-28,11-42.2,16.08a68.8,68.8,0,0,1-17.69,4.14,233.51,233.51,0,0,1-29.34.2c-18.81-1-36.83-4.47-53-14.42-9.23-5.69-19.29-10.28-29.18-15a336.62,336.62,0,0,1-36.24-20.06A118.35,118.35,0,0,0,638.46,1049c-12-4.41-23-10-32.72-17.81-15-11.93-30.18-23.63-45-35.7a115.9,115.9,0,0,0-31.62-18.31,117.35,117.35,0,0,1-30.59-17.52A250.51,250.51,0,0,0,473.68,942c-10.94-6.62-19.76-14.64-25.57-25.51-2.16-4-5-7.76-7.51-11.52l-37,23.48c5.17,7.67,8.52,16.25,16.93,21.82,10.19,6.77,18.81,15.15,27.08,23.85a82,82,0,0,0,32.26,20.63c15.62,5.56,29.84,13.38,44.25,21A37.25,37.25,0,0,1,538,1027.58c5.78,8.54,13.45,15.29,22.41,20.85,7.36,4.56,14.91,8.87,22.37,13.29a73.32,73.32,0,0,0,26.65,9.17,89.82,89.82,0,0,1,31.1,10.76,107.7,107.7,0,0,0,12.84,5.79c9.09,3.68,17.4,8.24,23.21,16a38.15,38.15,0,0,0,4.1,4l2.44-1.78c1,1.82,1.44,4.23,3,5.36,8.43,6,17.09,11.83,25.78,17.57a39.33,39.33,0,0,0,7.19,3.53c9.82,3.89,20,7.13,29.47,11.61,18.3,8.65,37.84,8,57.42,7.74,3.11,0,5-1.41,5.7-4.38,1.31-5.31,2.86-10.57,4.42-15.82a42.2,42.2,0,0,1,2-4.78c3.27,7.16-.59,13.92.15,20.68,8.92-2.19,17.35-4.77,26-6.29,18.57-3.26,35-10.34,49.27-21.7a21.18,21.18,0,0,1,5-3.26c5.08-2.05,6.49-6,7.28-10.54.41-2.34,1.1-4.64,1.66-7l.87.22c-.4,3.59-.8,7.17-1.22,10.91a9.72,9.72,0,0,0,2.2-.23c9.43-4.6,18.87-9.18,28.24-13.9,1.05-.53,1.67-1.8,2.48-2.75s1.52-1.83,2.81-3.38c2.63,5.69,7.51,4.77,11.72,3.89a123.85,123.85,0,0,0,20.15-5.6c20.42-8,39.78-17.4,54-34,4.36-5.1,11.09-8.55,17-12.46,5.33-3.55,11.07-6.59,16.46-10.06,7.55-4.87,15.39-9,24.86-9.55a9.6,9.6,0,0,0,4-.86,11.54,11.54,0,0,0,2.59-2.52c2.5-.34,4.91-.32,7-1,5.12-1.71,10.24-3.52,15.14-5.72,6.93-3.1,14-6.11,20.38-10,8.33-5.09,15.87-11.25,24.09-16.51,12.37-7.93,22.59-17.52,29.48-30a40.26,40.26,0,0,1,3.72-6c3.77-4.71,5.47-10,6.36-15.72a142.49,142.49,0,0,1,8-30.48,74.84,74.84,0,0,0,4.06-40.3c-2.47-14.82-2.66-29.67-2.13-44.53a38.53,38.53,0,0,1,3.79-15.77,80.31,80.31,0,0,0,8.88-30.13c1.54-18.64,2.53-37.12-5.22-55.19-2.75-6.43-2.79-13.91-3.65-21-.73-6-.78-12.11-1.27-18.15-.69-8.44-.65-16.75,3.42-24.64a39,39,0,0,0,1.95-5.72l-3.88-1.27c4.27-1.39,4.92-4.25,5-7.56.06-2.5.81-5,1-7.48.62-9.38,1.85-18.79,1.47-28.14-.41-9.8-2.51-19.54-3.66-29.32-1.32-11.17-4.21-21.84-10.59-31.57-2.71-4.12-5-8.47-7.87-12.5a36.71,36.71,0,0,0-7.28-8.15,256.43,256.43,0,0,1-30.53-26.93c-9-9.46-20.74-15.5-33.07-20.69-10.33-4.34-20.48-9-30.6-13.78-5.23-2.46-10.21-5.35-15.61-8.21-3.35,4.79-6.47,9.24-9.58,13.7l-1.11-.64c2.23-5.21,4.45-10.43,6.45-15.11-9.63-15-22.71-25.94-38.13-35s-31.28-16.83-50.34-17.63l-10.86,26.12c15.1,5.46,26,15.68,38.1,24.74l11.45-15.61,1.21.7C1025.78,438.5,1022.42,444.09,1019,449.86ZM913.79,1246.77c5.49-2,10-3.37,14.18-5.22q29.56-13,59-26.23a101.44,101.44,0,0,0,24.22-15.12c4.18-3.54,8.58-6.9,13.12-10,12.56-8.68,26.17-15,42.16-16.53a50.16,50.16,0,0,0,16.21-4.54c11.32-5.34,22.84-10.61,33.18-17.35,21.73-14.15,42.62-29.38,64.1-43.87a108.56,108.56,0,0,0,30.12-30.49c4.75-7.15,9-14.61,14-21.61,6.86-9.61,13.46-19.53,21.59-28.2A308,308,0,0,0,1273,993.9c3.66-5.2,8.58-9.68,13.14-14.31,3.2-3.26,7.36-5.84,10-9.4,5.36-7.17,12.44-12.73,18.85-19,9.56-9.29,18.6-19.22,21.9-32.07a263.36,263.36,0,0,0,6.37-32.08c1.83-14.35,2.5-28.82,3.83-43.23,1.45-15.72,1.55-31.26-2.32-46.87-4.49-18.11-4.14-36.16,4.68-53.53a29.49,29.49,0,0,0,2.9-11.57c.59-10.88,1.31-21.81.7-32.66-1.38-24.92-5.53-49.58-9.11-74.31-2.26-15.66-6.86-30.28-15.21-44-4-6.58-8.41-13-12.07-19.72-5.58-10.29-11.66-20.48-15.75-31.29a297.74,297.74,0,0,0-18.26-39.2c-3-5.33-4.61-11.3-6.65-17-1.82-5.16-3.3-10.43-5-15.62-1.82-5.38-4.22-10.62-5.62-16.09-4.78-18.61-13.3-35.15-29.86-47.43-6-4.47-11.84-9.21-18.17-13.27-15.86-10.2-31.92-20.14-48-30.08-4.72-2.91-9.66-5.53-14.57-8.17a39.14,39.14,0,0,0-4.87-1.85l-29.73,49.24c1.81.79,3,1.37,4.25,1.83a277.11,277.11,0,0,1,59.76,31.32c16.8,11.46,34.3,22.18,47.72,37.32a24,24,0,0,0,3,2.58,30,30,0,0,1,9.41,13.61c3.18,9,6.87,17.77,9.76,26.81,2.44,7.61,4.89,15.35,5.86,23.19a115.94,115.94,0,0,0,14.87,44.74c4.25,7.3,6.52,15.59,9.59,23.46,2,5.09,3.84,10.22,5.68,15.36,1.41,4,3.54,7.91,3.9,12,1.14,12.72,2.06,25.48,2.2,38.24.16,14-.52,28.08-1,42.12-.67,18.27-2.67,36.41-8.56,54a85.58,85.58,0,0,0-2.48,47.78c3.72,15.84,5,31.88,4.84,48.1-.11,14.52-2,28.83-3.68,43.21-1.31,11.05-2.2,22.09-6.36,32.67a90.05,90.05,0,0,0-3.8,12.71,31.59,31.59,0,0,1-8.76,15.38c-5.84,5.86-11.58,11.83-17.12,17.94a142.43,142.43,0,0,1-26.94,23.07,93,93,0,0,0-25.51,25.06,154.56,154.56,0,0,1-15,18.64c-6.87,7.22-14.85,13.46-20.81,21.53-2.85,3.87-7.39,6.8-11.52,9.72a113.72,113.72,0,0,1-13.66,8.3c-21.47,11-43,22-64.62,32.68a183.51,183.51,0,0,1-44.5,15.69,110.68,110.68,0,0,0-50.25,24,183.58,183.58,0,0,1-38.41,25c-3.86,1.87-5.43,4.35-6.13,8.24-3.36,18.64-8,37-16.22,54.41A50.64,50.64,0,0,0,913.79,1246.77ZM1050.85,215.05c.82.16,1.9.44,3,.58,10.26,1.3,18.76,5.74,26.71,11.74,10.91,8.23,22.3,15.91,33.5,23.81,5.6,3.95,11.19,7.92,16.88,11.76,4.58,3.08,9.16,6.2,14,8.93,16.31,9.21,32.9,18.13,46.39,30.82,12.74,12,25,24.37,37.14,36.89,6.11,6.33,12.56,12.12,20.38,16.56,10.64,6.05,18.92,14.25,26.45,23.35,5.35,6.47,11,13,17.71,18.2,18.12,13.86,31.39,31.4,45.34,48.46a59.11,59.11,0,0,1,13,30,103,103,0,0,0,14.74,40.9c1.69,2.72,3.17,5.56,4.73,8.36a95.35,95.35,0,0,1,10.88,30.3c2.38,13.65,5,27.25,9.34,40.54,3.42,10.41,5.85,21.1,9.13,31.56s7,20.79,10.73,31.09c2,5.35,4.62,10.48,6.89,15.74a37.08,37.08,0,0,1,2.91,20.34c-2.44,16.82-4.92,33.63-7.28,50.46-1.77,12.65-3.58,25.26-3.63,38.12-.06,14.87-1.08,29.83-5.67,44.22-5.33,16.67-11.47,33.13-16.77,49.81a89.58,89.58,0,0,0-4.31,20.87c-.81,11.92-4.12,23-9.06,34-3.47,7.7-6.9,15.67-8.43,23.82-4.17,22.21-14.52,42.25-24.28,62.54a51,51,0,0,1-17.15,20.08,135.28,135.28,0,0,0-37.87,40,97.84,97.84,0,0,1-26,27.25,319.09,319.09,0,0,0-38,32.46c-5.42,5.37-11.22,10.43-17.13,15.34a205.71,205.71,0,0,0-27.18,27.32c-3.44,4.18-7,8.28-10.48,12.41a44.86,44.86,0,0,1-19,12.84q-34.46,12.87-68.81,26c-2.51,1-4.87,2.26-7.3,3.4-11.74,5.54-23.32,11.39-35.27,16.5a134.48,134.48,0,0,1-21.86,7q-21.15,5-42.57,8.93c-13.9,2.57-27.28,6.1-40,12.17-5.93,2.83-12.86,4.15-19.5,5.42-9.33,1.78-19,2.34-28.21,4.43-12.3,2.78-10.19,1.34-10.71,12.31-.29,6.2-.05,12.43-.05,19.26l13-2.68c22.62-4.71,45.09-10.17,67.9-13.89,16.24-2.65,31.93-5.94,47.14-12a132.21,132.21,0,0,1,30-8,122.1,122.1,0,0,0,35.94-11.33,298.78,298.78,0,0,1,49.08-18.8,174.79,174.79,0,0,0,42.61-18.14c11.87-7,23.69-14.17,36-20.47a160.69,160.69,0,0,0,55.79-46.35c8-10.48,15.48-21.23,23-32,12.53-17.8,27.76-33.17,47-45a90.17,90.17,0,0,0,27.58-25.84c7.89-11.52,15.33-23.29,22.81-35,13.59-21.37,22.22-44.47,27.87-68.59a34.18,34.18,0,0,0,.49-4l-1-.29c-2.07,4.38-4.14,8.77-6.37,13.51-.3-.73-.48-1-.44-1.11,8-26.86,15.66-53.81,27.34-79.59a94.14,94.14,0,0,0,8.11-30.38,114.38,114.38,0,0,1,9.57-36.53,63,63,0,0,0,5.4-22c1.38-20.09,2.82-40.15,8.07-59.81,4.06-15.2,4.52-30.66,3.59-46.24-.63-10.67-1.31-21.37-1-32,.64-25.26-5.19-49.12-17.05-71.78-5.82-11.13-12-22.11-18-33.14-9.86-18-16.35-36.85-17.86-57-1-12.95-4.24-25.31-10.85-36.73-7.48-12.93-15.37-25.68-23.36-38.37-13-20.7-30.2-38.26-49.4-54.22a27,27,0,0,0-3.24-2l-.54.73,9.78,11.81a79.75,79.75,0,0,1-7.82-6.23c-18.74-17.15-37.14-34.6-53.28-53.91a114.23,114.23,0,0,0-26.35-23.55c-9.6-6.11-18.53-13.09-25.51-21.67-8.53-10.47-19.3-18.26-31.11-25.13a283.86,283.86,0,0,1-42.62-30.34,144.64,144.64,0,0,0-29.73-19.95q-27-13.47-54-26.91a50,50,0,0,0-4.74-1.79C1048.89,188.5,1049.84,201.39,1050.85,215.05ZM216.58,496.16c-7.36,27.88-15.26,55.18-27.08,81.35a92.83,92.83,0,0,0-7.88,29.79,114.41,114.41,0,0,1-9.55,36.53,63.81,63.81,0,0,0-5.43,21.94c-1.41,19.87-2.7,39.74-7.93,59.19-4.14,15.4-4.66,31.07-3.77,46.85.65,11.3,1.26,22.62,1.08,33.93a141,141,0,0,0,15.87,67.59c6,11.75,12.46,23.31,18.85,34.89,9.91,17.94,16.66,36.77,18.12,56.91a97.51,97.51,0,0,0,12.89,41.36c.81,1.43,1.85,2.74,2.89,4.27l32.27-21.68c-.69-11.16-4.73-21.24-10.07-31-1.75-3.18-3.45-6.39-5.34-9.49-7.82-12.76-12.18-26.49-14.79-40.91-2.13-11.75-5.3-23.34-8.31-34.94-2.65-10.18-5.48-20.33-8.66-30.38-3.43-10.84-7.2-21.6-11.13-32.3-2.18-5.94-5-11.68-7.49-17.54A34.41,34.41,0,0,1,189,774c2.44-17,4.95-34,7.37-51.08,1.78-12.45,3.43-24.86,3.55-37.5.1-11.48.71-23.25,3.6-34.34,5.08-19.51,11.84-38.67,18.37-57.84,2.68-7.87,4.74-15.74,5-24A62.4,62.4,0,0,1,233.05,543c6.61-13.25,10.71-27.08,13.8-41.32,3.36-15.53,11.63-29.48,17.8-44.1a70.27,70.27,0,0,1,25.74-31.08A98.38,98.38,0,0,0,318.68,397c10-16.1,23.19-29.46,39.31-40.48,2.13-1.46,4-3.18,6.07-4.79a81.32,81.32,0,0,1-4.33-7.77,3.39,3.39,0,0,1,.72-3.3c.64-.47,2.63-.07,3.53.56a69.09,69.09,0,0,1,5.52,4.55c9-7.86,17.22-15.41,25.88-22.51a296,296,0,0,0,45.34-46c5.79-7.35,13.54-12.18,22.78-15.37,11.28-3.89,22.41-8.15,33.54-12.41,8.4-3.21,16.72-6.61,25-10,6.62-2.74,13.28-5.44,19.69-8.55,17.32-8.4,34.47-17.13,53.73-21.36,12.6-2.77,25.22-5.58,37.92-7.91,15.45-2.84,30.41-6.53,44.63-13.17,7.11-3.32,15.61-4.24,23.57-5.85,10.2-2.07,20.77-2.92,30.67-5.77,13.73-4,27.44-7.55,41.8-8.83,3.62-.32,7.2-.94,10.8-1.48,19-2.87,37.49-2.79,55.52,4.78,10.84,4.55,22.58,6.28,34.53,6.68,8.64.29,17.3.68,25.89,1.54,12.78,1.28,24.72,5.52,36.55,9.9,14.79,5.49,30.32,8.37,46.08,11.89,4.4-13.46,9.57-26.17,9.51-40.38-2.45-.33-4.43-.72-6.43-.83-9.54-.53-19.08-1.16-28.64-1.44-26.45-.77-52-5.06-75.86-16.11a82.28,82.28,0,0,0-31.41-7.88c-16.82-.66-33.66-1-50.49-1.13-27.14-.23-53.34,4.84-79,12.54a35.44,35.44,0,0,0-3.55,1.48l.23.83q8.57-1.1,17.14-2.16A194.75,194.75,0,0,1,710.44,153c-18.63,3.84-37.22,7.95-56,10.94-16,2.54-31.66,5.42-46.42,12-10.9,4.86-22.75,7.39-34.74,8.87a77.54,77.54,0,0,0-21.45,6c-5.15,2.21-10.13,4.81-15.36,6.84C522.65,203,509,208.88,494.8,213.2A224.74,224.74,0,0,0,443.33,236c-10.06,6.11-20.31,12-30.82,17.43a156.11,156.11,0,0,0-52.93,43.73c-8.05,10.41-15.66,21.11-23.13,31.89-13.14,19-29.19,35.29-49.67,47.79a80.42,80.42,0,0,0-24.44,22.58c-8.35,12-16.28,24.22-24.14,36.48-14,21.88-22.85,45.58-28.67,70.31a18.62,18.62,0,0,0-.18,3.35l1,.24ZM970,818.54c.22-.75.45-1.49.67-2.24l33.48,4.89c0-16.65.31-32.57-.19-48.46-.14-4.66-1.93-9.53-4.06-13.85a68.29,68.29,0,0,1-7.23-24.73c-.58-6.9-1.6-13.78-1.71-20.68a52.21,52.21,0,0,0-11.9-32.81A99.11,99.11,0,0,1,963,651c-3.39-9.67-8.87-18.23-15.47-26.41A246.86,246.86,0,0,1,928,597.35c-6-10-13.55-18.24-24.48-23.82A52.68,52.68,0,0,1,880,549.77a46,46,0,0,0-9.82-13.44c-8.68-7.72-15.76-16.18-19.84-26.7-1.71-4.39-5.32-7-9.93-8.93a138.68,138.68,0,0,1-15.88-8.35c-3-1.81-5.94-2.87-9.58-2.13-5.54,1.12-11.11,2.66-16.72,2.87a20.61,20.61,0,0,0-10,3c-15.17,8.78-27.15,20.26-35.39,35q-6.41,11.45-13.39,22.62a86,86,0,0,1-29.88,28.84c-13.86,8.16-29.19,12.47-45.22,15.18-8.49,1.43-16.92,3.19-25.28,5.19-6.58,1.58-10.54,5.52-10.73,12.16-.08,2.72-.61,5.42-.79,8.14-1.68,25.24-6.58,49.89-16.06,73.69q-8.7,21.83-17.46,43.64a57.3,57.3,0,0,0-2.17,36.48c3.8,14.88,7.81,29.72,11.41,44.64,1.59,6.59,5.59,10.51,12.26,13.1a161.53,161.53,0,0,1,21.27,9.92c10.67,6.07,21.47,11.8,33.21,16,13,4.62,20.62,13.45,22.89,26,1.52,8.47,2.69,17,4,25.5,2.21,14.3,10.19,25.34,22.58,33.87a30.9,30.9,0,0,0,17.84,5.33c8.88.06,17.1-2.33,25.1-5.34,18.68-7,37.67-12.52,58.15-12.17a20.5,20.5,0,0,0,14.17-5.38q6.91-6.06,13.63-12.33c5.63-5.26,11.53-10.26,19.1-13,11-3.92,20.33-10.09,29.69-16.49,6.33-4.32,13.59-7.49,20.42-11.2.81-.45,1.5-1.07,2.72-1.94l-20-4.68c0-.43.08-.85.11-1.28q23.85-.4,47.7-.8c3.86-.07,8,.54,11.53-.43a246,246,0,0,0,27-8.62c12.59-5,18.22-14.83,17-28.41C992.2,826.72,980.27,824.54,970,818.54ZM1089.76,439.3c14,7.36,27,15,41.25,20.62,17.16,6.79,32.25,16.32,44.1,29.87,7,7.93,14.07,15.73,21.13,23.59a11.33,11.33,0,0,0,1.37,1.4c15.16,12,21,28.64,26.17,45.39,4.14,13.48,7.12,27.28,10,41.05a94.15,94.15,0,0,1,1.55,19.35,95.66,95.66,0,0,1-1.73,16.24c-1.26,7.21-2.49,14.49-4.71,21.47a38.9,38.9,0,0,0-2.18,14.16c.4,6.91.82,13.82.77,20.73,0,7.84.83,15.51,3.92,22.83,5.75,13.57,7.12,27.62,6.21,42-1.09,17.42-2.57,34.71-10.67,50.91a20.86,20.86,0,0,0-1.82,9.18c0,11.32.2,22.64.59,33.95.2,5.64,1,11.26,1.49,16.89,1.79,20.77-7.86,39.19-14.29,58.25-1.94,5.78-4.37,11.43-6.77,17.06-1.83,4.28-3.25,8.93-6.12,12.56a265.53,265.53,0,0,1-21.41,24.39c-7.43,7.33-15.95,13.74-24,20.52-4.7,4-9.24,8.12-14.22,11.76-13.06,9.55-28.63,15-44.18,19.18-12.29,3.27-23.42,7.51-33.57,14.39a19.86,19.86,0,0,1-2.94,1.6,81,81,0,0,0-27.5,20.26,74.84,74.84,0,0,1-23.74,17.68c-4.84,2.33-9.56,4.87-14.43,7.14-14.25,6.66-28.74,12.69-45,14.06a21.57,21.57,0,0,0-4.13,1.15c-3,19.43-6,38.38-9.11,58.51,3.43-1.85,5.91-2.89,8-4.38,10.28-7.27,20.7-14.39,30.6-22.09a137.4,137.4,0,0,1,34.74-19.69c7.33-2.84,14.79-5.44,22.31-7.83a293.62,293.62,0,0,0,40.63-16.29c19.67-9.67,39.35-19.32,59.17-28.72,7.37-3.5,14.31-7.17,19.13-13.69,1.89-2.55,4.8-4.44,7.2-6.68,1.9-1.79,3.81-3.59,5.58-5.49q9.12-9.77,18.12-19.6c2.93-3.2,6.13-6.25,8.6-9.73,6.33-8.91,14.48-16.07,23.47-22.63a149.06,149.06,0,0,0,16.71-13.85c9.34-9.17,18.28-18.69,27.12-28.28a24,24,0,0,0,5.13-8.68c5.24-16.69,9.83-33.45,12.19-50.82,3.56-26.2,5.15-52.28-1.1-78.16-5.47-22.64-3.8-44.86.83-67.34,2.58-12.51,3.87-25.3,4.88-38,1.24-15.67,1.7-31.39,2.26-47.11.55-15.4,2.86-31-4.72-45.71-.56-1.1-.47-2.48-.86-3.68-.71-2.2-1.51-4.38-2.35-6.55-2.76-7.08-5.52-14.17-8.35-21.24-2.19-5.49-4.14-11.09-6.8-16.39a76.31,76.31,0,0,1-7.91-25.25,129.65,129.65,0,0,0-7.28-29.34c-3.51-9.52-7-19.07-10.59-28.54-1-2.54-2-5.34-3.92-7.22-8.25-8.11-16.15-16.69-25.44-23.66-19.22-14.41-38.63-28.7-60.82-39.3A225,225,0,0,0,1114,400ZM451.1,897.55c3.92,6.42,7.44,11.78,10.54,17.35,3.64,6.55,9.08,11.31,15.55,15.5,9.11,5.9,18.14,12,26.58,18.66a138.13,138.13,0,0,0,32.1,18.81,140.13,140.13,0,0,1,24.18,12.8c19.52,13.39,38.58,27.35,57.68,41.25a109.35,109.35,0,0,0,26,13.63c7.51,2.86,15.2,6,21.59,10.55,15,10.63,31,19.81,47.3,28.64,7,3.82,13.69,8.27,20.51,12.46,4,2.44,7.92,4.93,11.89,7.37,3.53,2.18,7.06,3.28,11.52,1.87a19.76,19.76,0,0,1,8.77-.22c12.62,2.1,25.35,2.08,38.1,2.26a51.62,51.62,0,0,0,21-4.4c10.76-4.48,21.6-8.91,32.72-12.53a143.27,143.27,0,0,0,32.48-15.74,152.1,152.1,0,0,1,24.74-13.15c22.74-9,45.82-17.39,68.83-25.86a83.37,83.37,0,0,0,23.33-12.82,87.86,87.86,0,0,1,25.62-14.18c13-4.6,25.21-10.6,37.34-16.85,10.91-5.62,22.24-10.54,33.38-15.78,4.46-2.09,9.07-4,13.26-6.45,1.87-1.11,3.07-3.35,4.26-5.24,1.82-2.87,3.14-6,5.08-8.79,7.25-10.39,15-20.5,21.87-31.08a36.39,36.39,0,0,0,4.79-13.55c2.43-14,4.32-28.18,6.36-42.29a32.81,32.81,0,0,0,0-4.47l-32.71,5.44c-3.1,7.71-5,15.2-8.92,21.71C1104,904,1085.6,920.4,1060.5,929.73a179.09,179.09,0,0,1-20,6.24,51.23,51.23,0,0,0-24.81,13.69c-6.94,6.94-13.9,13.85-20.73,20.89-15.11,15.56-31.84,29.33-51.21,40.3-14.15,8-28.21,16.17-42.35,24.19a193.19,193.19,0,0,1-45.26,18.89c-14,3.74-28.11,7-42.24,10.16a88.15,88.15,0,0,1-13.52,1.57c-13.61.91-26-3.27-38.21-8.07-19.23-7.59-38.29-15.55-57.62-22.93-15.08-5.75-27.81-14-37.77-26a99.58,99.58,0,0,0-27.92-22.88A186.61,186.61,0,0,1,591.59,948a97.75,97.75,0,0,0-39.36-26.31c-9.7-3.61-19.26-7.56-28.69-11.7a58.15,58.15,0,0,1-26.61-22.76c-1.89-3-3.92-6-6-9.12Zm-8.25-484.36c1.12-1.41,2-2.38,2.69-3.41,5.49-7.73,13.31-13.63,21.5-18.09,22.87-12.47,46.41-23.89,69.87-35.4a204.52,204.52,0,0,1,48.35-17,102.86,102.86,0,0,0,45.6-21.61c23.45-19.47,50.51-33.47,79.58-44.43,4.84-1.82,9.52-4,14.39-5.76,6.54-2.35,13.12-4.66,19.83-6.56s13.65-3.24,20.45-4.94c5.58-1.39,11.1-1.95,16.83-.6,5.06,1.18,10.22,2.06,15.37,2.89,16,2.56,31.74,5.6,46.52,12,12.16,5.25,25,7.53,38.37,7.83a134.14,134.14,0,0,1,35.53,5.62,35,35,0,0,0,9.29,1.78c7.91.13,15.24,2.13,22.46,4.82,1.61.6,3.28,1.06,5.38,1.72,4.55-14.57,9-28.74,13.41-42.91-8.66-3.93-16.82-6.73-25.47-7.34-14-1-28.15-1.55-42.24-1.86-14.58-.32-29.21-.35-43.43-3.62-13.81-3.17-27.83-4.12-41.93-4.47a75.08,75.08,0,0,1-20.08-3.2c-5-1.51-10-3.13-15.14-3.63-8.91-.86-17.33-3.2-25.88-5.38-12.14-3.08-24.71-4.42-37.16-2.48a149.24,149.24,0,0,0-36.84,11.21c-18.69,8.18-37.31,16.52-55.93,24.86a114.44,114.44,0,0,0-26.53,16.43,186.86,186.86,0,0,1-18.23,13.21c-10,6.43-20.9,11-33.26,12.17-9.67.89-18.46,4.25-27,8.43-37,18.2-68.85,43-101.33,67-3.26,2.4-5.71,5.72-8.2,8.28ZM323.23,972.05c7.71,10.3,10.24,21.6,13,32.84a14.12,14.12,0,0,0,1.26,3.58c4.42,7.92,6,16.64,8.67,25.06,4.47,14,10.78,27.24,23.25,37,8.49,6.64,17,13.26,26,19.29,11.77,7.9,24.08,15.1,36,22.79,14,9.05,28.45,17.37,45.29,21.4a58.29,58.29,0,0,1,7,2.44c15.4,5.82,28.93,13.8,39.16,26.37A56.12,56.12,0,0,0,538,1175.28c11.14,6.47,22.48,12.86,34.44,17.84,25.28,10.51,51,20.17,76.6,30a92.56,92.56,0,0,0,14.39,3.81c13.44,2.79,27.15,2.58,40.8,2.37a248.6,248.6,0,0,1,59.57,5.8,70.54,70.54,0,0,0,23.13,1.38c2.61-9.5,5.15-18.77,7.62-27.75-14.6-5-28.58-9.91-42.72-14.43a43,43,0,0,0-14-2.42c-22.64.69-43.79-7-65.87-9.46-4.84-.53-9.55-2.7-14.12-4.53a133,133,0,0,1-14.62-6.79c-19.92-11-39.84-21.94-59.57-33.21-14-8-27.21-17-38.31-28.2-13.88-14-30.45-23.57-50-29.36-25.17-7.43-47.71-19.68-68.9-34-17-11.51-34.79-22.27-48.31-37.63a12.66,12.66,0,0,0-2-1.73c-5.8-4.44-9.21-10.14-11.46-16.74-3.94-11.57-8.38-23-12.86-35.16Zm-34.64,115c20.51,17.23,40.07,35.34,57.13,55.55a151.13,151.13,0,0,0,29.52,26.81,139.35,139.35,0,0,1,24.36,20.93,124.8,124.8,0,0,0,30.69,24.62,265.41,265.41,0,0,1,40.6,28.62A177.36,177.36,0,0,0,511,1269.48c14.11,6.78,28.1,13.79,42,20.91a165,165,0,0,0,45.2,15.52c18.82,3.52,37.93,4.34,57,4.92,25.13.76,49.17,5.33,71.82,15.6a91.64,91.64,0,0,0,25.26,7.39c21.27,3,42.66,2.39,64,1.72a13,13,0,0,0,2.94-.89c2-10.36,4.06-20.73,6.22-31.8-5.35.5-9.62.87-13.87,1.32-12,1.26-23.67.58-34.85-3.83-17.21-6.8-35.21-9.56-53.87-9.6a113.7,113.7,0,0,1-39.3-7A326.75,326.75,0,0,0,636.11,1270a178.59,178.59,0,0,1-18.45-4.52,273.75,273.75,0,0,0-57.91-11.37,57.76,57.76,0,0,1-31.28-12.7c-9.84-7.75-20.42-14.7-30.72-22q-9.22-6.49-18.59-12.8c-5-3.32-9.88-6.69-15.09-9.64-15.9-9-32.08-17.76-45.28-30.08-12.79-11.92-25.12-24.28-37.16-36.84a98.13,98.13,0,0,0-22-17.74,79.54,79.54,0,0,1-24-21.2c-6.83-9-15.23-16.59-23.94-24a182.4,182.4,0,0,1-20.06-19.62c-10.8-12.62-22.71-24.58-30-40.19l-28.77,17.22c16,28.53,36.68,52.56,63.55,72.09Zm112-696.74c-5,7.84-9,14.62-13.6,21.06-7.08,10-13.7,20.4-22.07,29.41a316.19,316.19,0,0,0-28.59,35.16c-3.37,4.87-8,9-12.27,13.35-3.52,3.56-8,6.44-10.93,10.33-5,6.6-11.43,11.88-17.46,17.57-10.23,9.64-19.3,20.15-23.15,33.54-1.86,6.47-3.76,13-4.6,19.63-1.66,13.11-2.64,26.28-3.81,39.43-1,10.65-1.75,21.32-2.69,32-1,11.9,2.35,23.3,4.42,34.85,2.86,16,2.63,31.63-4.57,46.9-2.39,5.08-3.32,10.86-4.16,16.42a75.52,75.52,0,0,0-.81,16.31c1.18,18,2.69,35.94,4.25,53.89.43,4.92,1.47,9.8,2.22,14.65a8.67,8.67,0,0,0,2-.17c15.14-6.25,30.24-12.62,45.46-18.72,3.26-1.31,3.53-3.43,3.59-6,.26-11.11.42-22.22.81-33.32.65-18.49,2.73-36.82,8.68-54.57a85.15,85.15,0,0,0,2.42-47.17,192.85,192.85,0,0,1-4.89-43.69,297.86,297.86,0,0,1,3.42-45.73c1.61-10.34,1.31-20.91,5.32-31,2.27-5.68,3.72-11.65,5.33-17.53a30.33,30.33,0,0,1,7.9-13.73c4.62-4.62,9.2-9.3,13.53-14.15a198.87,198.87,0,0,1,33.53-29.42,99.9,99.9,0,0,0,17.8-16.33c7.87-9.18,14.77-19.07,22.63-29.38Zm-5.95,541.6-31.21,16a27.22,27.22,0,0,0,.73,4.21c4.53,12.52,9,25.06,13.77,37.5a19.26,19.26,0,0,0,4.67,6.81c13.42,12.81,27.29,25.06,42.77,35.95,24.29,17.08,50.06,31.21,79.24,39.84a121.14,121.14,0,0,1,33.5,15.3c7.71,5.19,15,10.89,22.57,16.26,10.44,7.43,20.53,15.35,31.52,22,22.43,13.59,45.35,26.49,68.09,39.64,1.92,1.11,3.86,2.48,6,2.95,9.93,2.21,19.91,4.22,29.91,6.13,7.78,1.49,15.62,2.73,23.44,4.07,4.69.81,9.36,2.14,14.08,2.33,13.42.56,25.9,4.06,38.12,8.93a98.69,98.69,0,0,0,26.54,6.43c3.22-12,6.35-23.75,9.52-35.58-1.24-.29-1.93-.66-2.5-.54-12.88,2.54-25.49-.16-37.86-2.53-12.19-2.34-24-6.35-36-9.68-6.74-1.88-13.6-3.52-20.14-5.89-16.61-6-30.33-16.38-42.91-27.44-7.92-6.95-15.82-12.95-25.81-16.8a49.66,49.66,0,0,1-7.74-4c-9.09-5.48-19.09-8.49-29.68-10.63a103.19,103.19,0,0,1-23.76-7.4c-10.28-4.88-19.86-11-29.56-16.88a100.6,100.6,0,0,1-26.59-23.27,24.36,24.36,0,0,0-7.3-6.49c-13.27-6.87-26.56-13.75-40.23-19.91-16.56-7.46-31.67-16.45-43.37-29.82-6.93-7.93-14-15.72-21.09-23.57a11.5,11.5,0,0,0-.9-1C405.1,948.53,398.7,941.52,394.63,931.87ZM784,1246.29c-11.44-2-22.55-4.23-33.78-5.7-11.91-1.56-23.91-2.7-35.91-3.41-9.53-.57-19.12-.15-28.67-.29a141.51,141.51,0,0,1-50.44-9.7c-6.26-2.49-12.67-4.65-19-6.94a699.15,699.15,0,0,1-95-42.6,77.2,77.2,0,0,1-12.79-8.33,117.4,117.4,0,0,0-37.88-20.76,139.08,139.08,0,0,1-30.4-14.09c-17.77-11.34-35.62-22.59-52.91-34.51-7.58-5.23-14.32-11.67-20.68-18.2-14.36-14.73-23-32.49-30.38-50.85-1.19-2.94-2.07-6-3.64-8.79-5.14-9-8-18.64-10-28.59a41.16,41.16,0,0,0-7.57-16.4l-42.14,24.11c2.78,4.8,4.89,9.22,7.73,13.2,5.23,7.36,10.95,14.42,16.35,21.68a136.52,136.52,0,0,0,23.6,24.29c6.79,5.53,13.71,11.27,18.95,18,9.81,12.59,21.88,23,34.44,33,11.21,8.95,22,18.28,30.32,29.69,9.32,12.81,21.7,22.55,35.67,30.63,9.41,5.45,19,10.94,29.13,15,20.24,8,38.65,18.64,56,30.92,5.6,4,11.25,7.84,16.71,12a37.85,37.85,0,0,0,19.07,7.65c18.06,2,36.08,4.27,53.46,9.66,10.77,3.34,21.83,5.88,32.62,9.15,13.38,4.06,26.69,8.31,39.89,12.85,10.28,3.53,20.66,6.39,31.65,7.26,5.21.4,10.37,1.32,15.57,1.79,16.68,1.51,32.58,5.73,48.07,11.41,15.11,5.54,30.29,3,45.5,1.24q3.55-18.42,6.73-34.87c-9.5-2.49-18.26-4.62-26.9-7.09a69.85,69.85,0,0,0-19.47-2.29l-4.26,6.11-.74-.29C783.32,1250.15,783.67,1248.16,784,1246.29ZM950.59,305c-3.72-3.15-7.9-4.49-12.49-5.23-4.91-.79-9.75-2-14.61-3-3.1-.65-6.17-1.42-9.29-1.95-7.14-1.2-14.32-2.25-21.46-3.44-5.59-.93-11.11-2.55-16.73-2.87A115.49,115.49,0,0,1,841.67,281,128.13,128.13,0,0,0,823,275.1c-14.4-3-28.91-5.65-43.43-8.15a25.75,25.75,0,0,0-10.09.18c-17.81,4.22-35.92,7.62-52.52,15.36-2.23,1-4.64,1.72-7,2.59-24.62,9.23-47.75,20.92-67.43,37.5-18.19,15.32-39.18,25.63-62.38,32.63A277.47,277.47,0,0,0,537,372.36c-14,6.95-28.18,13.66-42.26,20.5-6,2.92-12,5.9-18.72,9.22l31.05,35.72c4.91-1.2,9.23-2.77,13.68-3.22,6.16-.62,11.24-3,16.2-6.12s10.14-6.43,15.53-9.1a75.56,75.56,0,0,0,23.21-17.23,84.07,84.07,0,0,1,27.38-20.45c5.48-2.56,10.82-5.37,16.31-7.89,13.71-6.31,27.87-11.24,43.31-12.71a30.11,30.11,0,0,0,11.42-3.79c13.2-7.39,26.16-15.16,39.21-22.77,2.88-1.68,5.87-3.21,8.71-4.94,17.61-10.74,38.34-12.11,58.09-16.33,7.5-1.61,15.17-2.58,22.8-3.65,4.47-.62,9.11-1.6,13.51-1.13,11.26,1.2,22.64,2.38,33.6,4.95,15,3.5,29.69,7.95,44.27,12.66a103.63,103.63,0,0,1,20,9.22c7.28,4.24,13.93,9.41,20.92,14.1a26.46,26.46,0,0,0,4,1.81C943.07,335.58,946.77,320.49,950.59,305ZM374.51,866.27c0-7.47-.36-14.17.09-20.83.48-7.09,1.52-14.17,2.69-21.2a66.71,66.71,0,0,1,3.49-13.38A31.4,31.4,0,0,0,383,797.33c-.39-7.11-.84-14.24-.81-21.35,0-7.85-.92-15.49-3.93-22.84a86.56,86.56,0,0,1-6.32-38.24c1-18.45,2-36.85,10.63-54.07a22.72,22.72,0,0,0,2-9.79c.07-11.1-.13-22.22-.52-33.32-.2-5.85-1-11.68-1.51-17.52-1.73-21,7.94-39.52,14.58-58.71,1.85-5.37,4-10.66,6.29-15.89,2.11-4.85,3.83-10,7-14.24,7.81-10.28,16-20.3,26.69-28.45,8.34-6.37,15.92-13.59,24-20.56l-22-27.14c-7,7.61-13.93,14.31-19.82,21.68-6.13,7.69-12.85,14.72-21.16,20.35a140.87,140.87,0,0,0-23.42,20.1c-7.32,7.76-14.85,15.34-22,23.22a24.16,24.16,0,0,0-5.23,8.64c-5.08,16.51-9.76,33-12.13,50.19-3.68,26.62-5.12,53.06,1,79.42a131.64,131.64,0,0,1,1.28,55.56c-1.8,9.27-4.33,18.5-5.17,27.86-1.52,17.11-2.07,34.31-2.91,51.47-.07,1.28.75,2.59,1.14,3.88.14.44.49,1.14.31,1.3-3.44,3-2.24,7.08-2.51,10.69-.52,6.89-.29,13.84-.83,20.73-.5,6.38-.18,12.47,2.84,18.41,1.52,3,1.88,6.47,3.05,9.63,2.47,6.66,5.13,13.26,7.92,20.41Zm-94.08,37.34c-2.92-4.87-5.47-9.05-7.92-13.28-7.25-12.47-13.05-25.5-14.85-39.58-1.05-8.14-4-16-4.07-24.26-.05-5-1.47-9.94-2.15-14.93a587.37,587.37,0,0,1-5-63.93c-.32-12.8-.57-25.53,2.38-38.18,2.22-9.52,1.92-19.18.36-28.77-2.1-12.87-4-25.76-2.79-38.8,1.69-18.17,3.3-36.34,5.41-54.47A116.69,116.69,0,0,1,262,551.68c7.4-16,18.17-29.9,30.24-43.08a85.81,85.81,0,0,0,7.18-8.37c5.12-7.31,11.6-13.4,18.65-19.1a50.23,50.23,0,0,0,9.26-9.16,295.7,295.7,0,0,1,30.51-35.43c15.24-15.3,24.3-34.28,36.48-51.72l-20.13-20.35c-13.26,8.87-25.86,17.74-35.12,30-13,17.11-27.6,32.78-45.65,45.58a43.94,43.94,0,0,0-13.83,16.15c-5.12,10.05-10.56,20-15.09,30.26-3.22,7.33-5.21,15.13-7.65,22.74-3.16,9.82-5.52,19.91-9.52,29.43s-7.74,18.78-9.64,28.73c-4.12,21.54-10.26,42.51-20.39,62.39a28.18,28.18,0,0,0-2.61,7.13c-3.57,18-5.36,36.1-3.39,54.42,1.47,13.76,3.27,27.53,1.57,41.39-1.53,12.49-2.95,25-4.9,37.43-1.31,8.33-.63,16.08,3.18,23.89,6.33,13,12,26.25,15.43,40.23,3.63,14.7,7.62,29.33,11.19,44,1.74,7.14,2.95,14.39,4.31,21.61,1.28,6.74,2.44,13.5,3.76,20.88ZM978.52,217.54c-3.37-.93-5.95-1.69-8.56-2.35a371.39,371.39,0,0,1-47.12-14.73c-11.59-4.63-23.82-6.73-36.38-7.87-16.31-1.48-32.74-3.2-48-9.11-16-6.22-32.2-8.4-49.34-5.85-12.55,1.88-25.55,2.05-37.7,5.14-17.11,4.35-34,8.77-51.72,11.06-11.35,1.47-22.35,5.49-33.38,8.74-13.89,4.1-27.76,7.94-42.38,9.36-8.54.83-17.28,1.95-25.37,4.46-18.61,5.79-36.18,13.81-51.9,24.8a237.24,237.24,0,0,1-52.11,27.18c-7.15,2.71-14.13,5.86-21.43,8.15a41.77,41.77,0,0,0-21.32,14.89c-12.13,15.84-26.51,29.78-42.38,42.52-9.4,7.55-18.06,15.88-27.53,24.27l19.86,15.41c8.25-6.91,16-13.61,24-20.05,5-4,10.36-7.54,15.49-11.36,27.68-20.6,57.25-38.65,88.07-55a90.56,90.56,0,0,1,15.49-6.5c13.81-4.23,25.91-11,37.36-19.17,7.9-5.62,16-11.36,24.81-15.45,21.13-9.77,42.56-19,64.28-27.66,27.24-10.81,55.84-10.49,84.59-6.67,6.52.87,13,2.36,19.51,2.88,8.25.66,16,2.84,23.9,4.91A165.77,165.77,0,0,0,818,222.91c11.23,1.59,22.62,2.42,33.73,4.53,15.23,2.89,30.47,4.82,46,4.6,7.74-.11,15.48,0,23.22.17,16,.31,31.76,2.23,46.88,7.39a26.14,26.14,0,0,0,3.38.65Zm-52.16,146.4c-.79-1.81-1-4.42-2.55-5.52-8.78-6.3-17.83-12.3-26.88-18.29a33.1,33.1,0,0,0-6-2.85c-10.24-4-20.59-7.85-30.74-12.07a93.74,93.74,0,0,0-39-7.65c-3.63.1-7.3-.22-10.91.08-4.25.34-8.67.57-12.64,1.84-12.24,3.93-24.39,8.06-37.23,10.13a85.9,85.9,0,0,0-37.52,15.73C709.76,355,695.35,362.46,681,370.13a43.55,43.55,0,0,1-18.74,5.23,75.74,75.74,0,0,0-27,6.1q-9.86,4.31-19.64,8.75c-12.4,5.63-23.28,13-32,23.05-5.72,6.63-13.08,11.56-21,15.79a154.86,154.86,0,0,0-14.22,8.61c-8,5.42-16.55,9.54-26.67,10.38a44.92,44.92,0,0,0-6.32,1.53l16.47,27a33.88,33.88,0,0,0,3.37-1.58c11.75-7.25,24.31-13.06,37.09-18.62a104.38,104.38,0,0,0,20.12-11.66A110.41,110.41,0,0,1,624.25,428c18.88-6.1,37.68-12.4,56.65-18.25a122.79,122.79,0,0,0,34.23-16.62,114,114,0,0,1,26.69-13.79c13.54-4.87,27-10,40.31-15.32a58.27,58.27,0,0,1,21.75-4.66c7.73,0,15.49-.54,23.2-.15,19.94,1,39,4.51,56.36,14.74,14.13,8.32,29.45,14.95,44.26,22.29.28.14.8-.13,1.78-.32,1.56-6.5,2.78-13.32,4.9-19.9,2-6.18.12-10.54-5.59-14Zm137.7,464.89a36.3,36.3,0,0,0,1.81-4.36,56.94,56.94,0,0,0,.53-25c-6.44-34.89-14-69.61-17.49-105-1.59-16-7.39-31.06-18.67-43.9a49.34,49.34,0,0,1-11.11-22.72c-3.14-14.83-11-27.34-21.62-38.66-13.64-14.54-28.73-27.4-47.2-36.71-10.65-5.37-20.25-12.09-27.6-21.2-.31-.4-1-.54-1.5-.79-5,9.76-10,19.29-15,29,2.23,1.38,4.41,2.89,6.75,4.15a63.3,63.3,0,0,1,26.51,26.37A142.47,142.47,0,0,0,959,617.36c6.38,7.23,11.65,15.13,14.75,23.95A136.58,136.58,0,0,0,994,678.84a45.13,45.13,0,0,1,9.38,25.91c.26,7.12.33,14.25.36,21.37,0,10.79,1.58,21.21,6.23,31.3a42.63,42.63,0,0,1,3.94,15.18c.81,14.43.85,28.9,1.17,43.35,0,2.25,0,4.49,0,7.11ZM469.24,471.3c-4.27,2.9-7.94,5.73-11.95,8-18,10.34-32.05,23.86-41.5,41.52-2.55,4.76-4.93,9.36-5.77,14.6a148.42,148.42,0,0,1-8.09,31.11,74.76,74.76,0,0,0-4.1,40.28c2.45,14.6,2.37,29.22,2.33,43.89,0,6-1,11.77-4.05,17A68.42,68.42,0,0,0,387.49,696c-1.73,19-2.91,37.93,5,56.43,2.76,6.43,2.84,13.9,3.71,20.94.73,6,.75,12.1,1.25,18.14.7,8.44.7,16.75-3.38,24.64-.72,1.38-.89,3-1.6,5.49l32.3-12.23c.54-7.36.79-14.47,1.63-21.51a103.82,103.82,0,0,0-1.09-33.77c-1.84-8.89-1.3-17.94.53-26.89,3.19-15.64,6.14-31.33,9.57-46.92s6-30.92,3.22-46.76c-2-11.34-.21-22.53,1.95-33.73A189.4,189.4,0,0,0,444.13,575c.72-12.22,3.67-23.57,11.26-33.77,2.05-2.75,3.36-6,5.45-8.7,5.52-7.15,10.94-14.4,17-21.12,4.88-5.39,10.71-10.06,16.32-15.24Zm441.61,3.76c2.79-12.47,5.41-23.64,7.64-34.88.3-1.46-1-3.58-2.22-4.84a37.93,37.93,0,0,0-16.54-9.68c-19.67-5.91-39.3-12-59.22-17.09-7.49-1.92-15.74-1.62-23.66-1.73a142.85,142.85,0,0,0-17.62,1.35c-2.49.27-4.3-1-6.31-1.39-2.48-.51-5.58,1.25-8.35,2.17-27,9-51.76,21.53-74,38.34-9.31,7-18.9,13.81-28.65,20.34-13.27,8.89-27,17-42.69,22.09-19.31,6.24-38.49,12.82-57.92,18.7-17.1,5.17-30.23,15.76-44.41,25.26l23.9,34.71a32.49,32.49,0,0,0,1.8-3.45c3.71-10.57,11.77-17.33,22.71-21.15a273.64,273.64,0,0,1,27.82-8.46c28.36-6.58,53.17-19.22,75.78-36,17-12.63,34.15-25.11,51.59-37.23,16.29-11.33,34.14-20.08,54.17-24.46a88.48,88.48,0,0,1,50.73,3.79c6.71,2.5,13.65,5,20.73,6,16.78,2.49,29.22,10.95,39.84,22.42C907.23,471.21,908.51,472.55,910.85,475.06ZM474.78,792.46c3.6-13.29,6.85-25.91,10.46-38.44a88.24,88.24,0,0,0,1.66-43.56c-3.56-16.63-4.37-33.25-.39-49.9,7.31-30.62,9.88-61.69,10.79-92.93A109.49,109.49,0,0,1,499,552c1.41-8.06,5.62-14.48,13.82-18.36,3.36-1.6,6.54-3.53,10.55-5.71l-21-23.79c-6.74,3-13,5-14.16,12.36-.33,2.09-2.17,4.14-3.76,5.88-8.83,9.68-15.85,20.46-22.26,31.56a39.32,39.32,0,0,0-4.54,13c-2.08,12.4-3.19,24.94-5.43,37.31-1.77,9.79-2.64,19.47-1.4,29.36,1.21,9.57,2,19.16.45,28.82C448,682.92,445,703.47,441.86,724c-1.41,9.14-3.31,18.35-1.3,27.49,3,13.6,2.49,27-.05,40.58-.71,3.81-.79,7.72-1.24,12.49Zm55.28-15.29c-2-15.59,4.38-29.29,8.22-43.45,1.54-5.69,2.69-11.46,4.09-17.17,2.16-8.77,4.29-17.55,6.63-26.28,1.8-6.7,4.29-13.26,5.79-20,3.46-15.62,1.83-31.29-.59-46.88-2-12.78-2.07-25.46,1.61-38,.94-3.23,1.83-6.48,2.82-9.7.59-1.92.74-3.57-1.11-5.13-9.66-8.16-16.36-18.46-23.81-28.21-1.15-1.51-2.43-2.94-3.85-4.65-3.27,1.67-6.12,3.38-9.18,4.65-7.29,3-10.43,8.41-11,15.39s-1.15,13.79-1.3,20.69c-.56,26.63-1.94,53.18-8.2,79.3-4.5,18.76-4.38,37.3,1.44,55.89a69.05,69.05,0,0,1,1.07,36.72c-2.19,9.41-5,18.7-7.47,28.06-.67,2.54-1.17,5.11-1.95,8.58ZM925.78,410.45c-3.7-2.1-6.81-3.82-9.87-5.62q-22.73-13.33-45.44-26.71c-2.68-1.57-5.4-3.1-8.11-4.64a10.15,10.15,0,0,0-7.77-1,35.19,35.19,0,0,1-9.41.59c-12.26-.6-24.51-1.33-36.75-2.11-9.13-.59-17.41,1.53-25.6,5.25a240.46,240.46,0,0,1-28.29,10.89,142.45,142.45,0,0,0-35.55,17,134.89,134.89,0,0,1-23.61,12.44c-23.41,9.22-47.21,17.6-70.68,26.7A75.44,75.44,0,0,0,606.51,453,126.46,126.46,0,0,1,570,472.32a77.1,77.1,0,0,0-9.38,3.76c-7.53,3.68-14.95,7.54-22.44,11.34l4.17,7.69-1,.59-5.63-6.79L510.92,500.7l18.91,23.58c5.15-3.88,10-7.25,14.54-11a93.25,93.25,0,0,1,21.9-13.71c7.75-3.51,15.58-7,22.94-11.1a119.48,119.48,0,0,1,28.6-11.64,163.12,163.12,0,0,0,44.06-18.16c14.63-8.88,29.48-17.47,43.76-26.82,26.08-17.07,55.23-27.17,86.15-33.52a36.66,36.66,0,0,1,16.89.2,19,19,0,0,0,5.34.12c10.2-.39,20.49-1.8,30.59-1.05,23.73,1.75,46.29,8.61,68.8,15.32,3.53,1.05,6.77,2.94,10.66,4.68C924.68,415,925.16,413,925.78,410.45Zm109.53-134.92c-6.19,16.91-12.25,33.47-18.4,50.29,1.94,1.2,3.58,2.27,5.28,3.25,16.81,9.73,32.48,20.77,46.16,34.11a106.88,106.88,0,0,0,9.41,8.2,91.58,91.58,0,0,0,34.13,16.35L1144,338.9c-5.69-1.9-10.81-3.54-15.87-5.33-16.4-5.83-30.95-13.95-41.47-27.45a36.6,36.6,0,0,0-10.26-9.07c-12.31-7.09-25-13.65-37.53-20.38A23.8,23.8,0,0,0,1035.31,275.53ZM994.56,383.87c37.41,5.93,65.58,25.15,90.58,49.48q10.26-18,20.17-35.28c-.44-.58-.53-.82-.7-.9a29.43,29.43,0,0,0-3.09-1.26,130.48,130.48,0,0,1-39-20.27c-8.5-6.29-16.64-13-25.25-19.17-8-5.75-16.52-11-25.57-17C1005.86,354.59,1000.41,368.72,994.56,383.87Zm-706,515.84,39.66-16.35c-3.3-8.89-4.07-18-9-26a26.14,26.14,0,0,1-3.46-10.77c-1.1-10.83-1.64-21.7-2.4-32.56-.13-1.93-.27-3.86-.43-6.29l-48.47,21.85C265.33,855.39,272.28,878.68,288.51,899.71Zm248-57.77c-8.74-9.05-8.16-19.35-7.73-29.65.4-9.4.68-18.81.93-28.22a35.44,35.44,0,0,0-.7-5.17c-11.14,3.7-21.52,7.35-32,10.55-3.87,1.17-5.57,3.24-5.88,6.67-.93,10-2.56,19.93-2.54,29.89,0,11.32,6,21.14,11.52,31.62ZM997.16,161.25c-1.53,14.61-3,28.44-4.45,42.42a205.33,205.33,0,0,0,51.83,10.55c.73-13.94,3.29-27.29.65-40.75C1029.61,166.74,1013.66,163.14,997.16,161.25ZM306.09,956.69c-5.12-16-10.71-30.89-20.48-44.39l-37.16,14.4,21.42,51.19Zm41.4-26.12c-1-13.74-8.27-24.65-14.94-36.68l-38,14.3,19.9,43.21ZM936,1112.73c-.95,0-1.5-.16-1.83,0-9.21,5-18.38,10-27.61,14.94-2.71,1.45-3.21,3.68-3.64,6.29-2.42,14.89-5,29.76-7.56,44.64-.36,2.13-.56,4.28-1,8,10.39-4.46,19.17-8.27,28-12,3-1.25,3.39-3.68,3.85-6.19,2.26-12.37,4.57-24.74,6.79-37.13C934.1,1125.15,935,1119,936,1112.73Zm-13.43,74c-10,3.92-18.92,7.51-27.93,10.91-2.81,1.06-3.35,3-3.79,5.39-2.15,11.75-4.46,23.46-6.61,35.21-.85,4.65-1.45,9.35-2.29,14.8,3.52-.18,6.21,0,8.77-.52,4.67-.86,9.2-2.35,13.89-3.07,5.1-.79,7.08-3.58,7.8-7.93q2.61-15.8,5.55-31.55C919.36,1202.61,920.91,1195.26,922.61,1186.75Zm65.17-696.44,20.74-31.09c-12.27-7.76-22.1-17.86-36.12-22.94l-6.68,14.52-1.1-.4,4.67-15.34-7.51-2.51c-2.7,6.65-5,12.74-7.67,18.73-1.24,2.84-.88,5.06,1.13,7.51C964.63,470.21,976.24,479.61,987.78,490.31ZM1001.61,261c-4.77,17.27-8.83,33.61-11,50.44l20.09,11.16c6.31-17.09,12.34-33.4,18.5-50.06ZM443.91,880.58l39.54-16.23c-4.14-10.87-8-20.89-11.85-31.06a1.71,1.71,0,0,0-.93,0c-10.28,5.38-20.57,10.74-30.74,16.27a5.17,5.17,0,0,0-2.41,3.44c-.61,5.41-.89,10.85-1.21,16.29a7.42,7.42,0,0,0,3.07,6.65A50.23,50.23,0,0,1,443.91,880.58Zm56.92-440.09c-9-13-16.57-25.88-26.87-37.22-11.13,3.64-15,13.86-23.82,19.55,4.29,5.48,8.16,10.35,11.94,15.27s7.38,9.79,10.79,14.34Zm301.89,769.23c-3.32,8.93-6.61,17.77-10.06,27.07,2.33.33,4.31.54,6.25.89,5.11.93,10.24,1.8,15.3,2.92,4,.88,7.81,2.33,11.8,3.11,3.44.66,7,.74,10.74,1.1l7.8-31.34C829.84,1216.79,817.08,1210.24,802.72,1209.72ZM426.54,846.57c0-10.54,0-20.86-1-31.47-9.48,2.38-18.07,4.25-26.43,6.76-5,1.5-9.05,4.32-8.24,10.28.24,1.8-.56,3.71-.78,5.58-.9,7.43-1.76,14.86-2.77,23.44Zm-1.47,10.62-35.46,16.19c1.81,10.11,1.61,20.13,4.15,30.37l37.15-17.68C428.87,876,427,866.82,425.07,857.19Zm-39.31,50.67c-2.53-10-5-19.77-7.67-30.18l-33.22,12.26c4.92,11.48,9.53,22.27,14.3,33.41ZM439,842.24,471.31,831c.81-11.44,1.56-22,2.36-33.19-10.92,3.83-21.51,7.45-32,11.36a4.94,4.94,0,0,0-2.58,3.76C438.89,822.31,439,831.7,439,842.24Zm69.3-389.78-28.42,11.11,23.6,29.24,23.32-12.76C520.45,470.59,514.56,461.79,508.3,452.46ZM1003.48,859.6c2.79-.26,3.91-.28,5-.49,9.33-1.78,18.64-3.62,28-5.41,8-1.52,18.38-9.56,22-17.49l-43.35-5.08C1014.71,841.83,1011.68,850.87,1003.48,859.6ZM988.25,326.89l-9.43,50.74,8.95,4.39,17.54-45.59Zm-20.1,44.85c.73-2.88,1.43-5.06,1.83-7.28q3.39-18.84,6.65-37.69c1.23-7.26.59-8-8-10.52-3.39,17-6.76,34-10.22,51.43ZM923.91,499.19c4.3-11.51,8.09-21.51,11.72-31.57a5.59,5.59,0,0,0-.06-4.18c-1.54-2.86-3.59-5.49-6-9-4.8,9.42-9.18,17.87-13.35,26.4a5.22,5.22,0,0,0,.11,4.1C918.44,489.29,920.86,493.51,923.91,499.19Zm48.26-198.08,7.22,3.56,12-47.28-8.77-2.82C979,270.45,975.62,285.67,972.17,301.11Zm139.44,539.48-38.5-2.74-7.74,11.66,44.68-2.3ZM956.49,414c3-9.84,5.8-19,8.74-28.61l-9.51-3.69c-2.4,9.48-4.64,18.38-7,27.57Zm10.35,4.59a32.7,32.7,0,0,0,3.57,1.57,27.35,27.35,0,0,0,3.6.54l9.14-26.41-7.87-3.09C972.43,400.45,969.73,409.2,966.84,418.56Zm-120.11,927.9-1-.11c-3.72,9.45-7.43,18.91-11.63,29.59l12.6-2.33Zm97.37-923c-5.77,11.11-5.73,11.57,1.66,19,1.91-5.09,3.7-9.89,5.55-14.82Zm-38.2,959,.15,1.57,32-2.45c0-.56-.11-1.12-.16-1.68ZM669.68,89.2c7.44-.4,14.89-.72,22.32-1.24,3.56-.25,7.08-.9,10.63-1.36A91.32,91.32,0,0,0,669.68,89.2ZM330,215.87l1,.89L344.35,204,343,202.86C336,204.83,334.75,211.89,330,215.87ZM1478,953.78c-4.58,6.82-8.63,13.87-11,21.62C1471.67,968.62,1475.79,961.6,1478,953.78Zm-604.51,373.6,18.39-5.24C880.24,1321.18,875.56,1322.41,873.46,1327.38Zm-317.94,44.8c-6.33-1.85-12.57-4.13-19.48-3.61C541.81,1372.78,549,1371.29,555.52,1372.18Zm974.7-756.56-1.32.52,5.25,16.39L1536,632C1537.59,625.6,1531.67,621.22,1530.22,615.62ZM1361,326.86c-1.65-6.42-8.47-15.41-13.75-18.4Q1354.18,317.65,1361,326.86ZM1056,96.54c-.1.49-.2,1-.31,1.45l18.6,4.25c-.78-1.74-1-2.92-1.4-3C1067.25,98.25,1061.61,97.42,1056,96.54ZM248.78,1142.63c1.83,6.62,8.42,15.26,13.76,18.4Zm887.81,256.25c5.76-1.39,4.72-6.35,7.15-10.26C1135.23,1392.28,1135,1392.66,1136.59,1398.88Zm453-606.92c-.84,8.5-.59,8.88,6.1,9.9C1596.66,797,1592.3,795.31,1589.54,792ZM75.4,836.16c-2.93,4.13-1.63,8.16,5.31,17C79,847.71,77.3,842.26,75.4,836.16Zm398-765.76c-6.12,1.58-5.09,6.3-7.32,10.29C474.38,76.8,474.38,76.8,473.38,70.4ZM345.72,1331.23c4.72,3.68,8.55,1,13.3.25C351,1327.12,351,1327.12,345.72,1331.23ZM1250.78,137.62c7.41,4.66,8.23,4.66,12.85.25C1259.45,134.24,1255.35,137.22,1250.78,137.62ZM14.31,666.91c-.06,5.13.53,6,6.09,9.48C20.68,669.09,20.68,669.09,14.31,666.91ZM156,393.21c2.55-4,.79-6.87,1.12-11.13l-6.18,6ZM807.83,1423.55l-1.58-1.19-8.93,4.76,8.3,2.37C806.48,1427.18,807.15,1425.36,807.83,1423.55ZM132.11,512.26,134,513l9.71-19.27-1.48-.63Zm19.17,563.08-1.25,1c.51,1.92,1,3.83,1.67,6.23l6.86-1.1C157.69,1076.8,152.82,1078.09,151.28,1075.34ZM1451.33,388l-.54,1.68,9.12,4.56c-.92-3.18-1.56-5.36-2.29-7.87ZM804.12,39.89c-1.07,2.67-3,4.4-.62,7.24L812.1,42Zm648.29,1047.05,6.13-5.35c-1.74-2.06-2.18-5-6.13-4.14ZM1266.1,1265c.39.42.78.83,1.18,1.24,5.71-1.72,7-7.14,9.49-10ZM761.3,34.18l.92,1.22,9.49-4.56c-.29-.53-.59-1.05-.88-1.57C767.46,30.55,763.23,30.21,761.3,34.18Zm680.21,316.15c2.73,2.32,5.17,5.1,9.43,4.74C1448.13,352.92,1446.45,349.08,1441.51,350.33ZM849,1433.6c-4.66,1.65-8,2.68-10.23,5.66C842.33,1438.57,846.51,1439,849,1433.6ZM50.62,654.19c-1,3.94-2.11,7.89.94,11.5Q51.1,659.93,50.62,654.19ZM1560,803.2h-2l1,11.67.94-.06Zm-701.09,420c.34-2.58.64-4.81.93-7,.25-1.94.48-3.88.71-5.82h-1.64ZM168.23,1119.05c-2.72-2.45-5.17-5.21-10.57-5.36C161.4,1116.74,163.46,1120.1,168.23,1119.05ZM125,419c.6-3.1,1.91-6.29.06-9.39C123.37,412.75,121.92,415.83,125,419Zm366-320.41.89,1.31,11.36-6.61-.81-1.19Zm764.87,74.17c.24-.44.48-.88.71-1.32l-10.68-5c-.23.44-.47.88-.71,1.32Zm227.44,887.06c4.15-5.36,4.14-7.06.49-9.72C1483.69,1053.59,1483.54,1056.73,1483.38,1059.86ZM363.05,1302.54c.25-.51.51-1,.77-1.52l-11.17-4.94-.6,1.18ZM487.23,872.09l-.75-1.52-9.39,4.19c.12.27.25.55.37.83Zm620.05,503.27.81,1.23,9.53-5.41-.84-1.27ZM857.8,1229.1h-.53v5.29h.53Zm-18.23,225.05.44,1.11c.84,0,1.85.27,2.47-.07s1-1.31,1.51-2l-.71-.62ZM108.46,406l2,.24V402.5l-1.2-.14Zm39,719.54,1.26-1.42-3.18-1.94-.87,1ZM1464.54,347.45c-1-3.16-1-3.16-4-2.73ZM770.88,14.87c-2.75-1.28-4.29-1.19-5.57,2.06ZM1501.2,1063.15l-1.93-.28v3.81l1.22.12C1500.72,1065.58,1501,1064.37,1501.2,1063.15Z"/><path class="cls-2" d="M939.74,750.8c-2.77,20.57-5.51,41.14-8.35,61.7-.72,5.25-3.65,9.31-8.34,12.46-8.08,5.43-16,11.08-24,16.59a34.5,34.5,0,0,1-6.26,3.8c-10.07,4.1-17.86,10.77-24.64,18.49-13.43,15.28-29.85,26.8-49.28,34.95-10.13,4.26-19.6,9.84-29.75,14-7.6,3.14-15.64,6.18-23.79,7.28-20.17,2.71-30.61-4.68-36.76-18.35-8-17.77-15.33-35.8-22.9-53.74a57.48,57.48,0,0,1-2.3-6.57c-3.66-12.7-11.62-22.5-23.11-30.18-8-5.3-16-10.37-25.16-13.75-2.11-.77-4.18-1.66-6.19-2.62-6.58-3.14-9.68-8.15-8.8-14.94.67-5.2,2-10.32,2.58-15.52.8-7.69,2-15.46,1.51-23.11a196.38,196.38,0,0,1,5-58.08,100.91,100.91,0,0,1,16.24-35.73c6.31-8.81,14.71-14.18,26.42-14.41a32.57,32.57,0,0,0,21.51-8.35,193.73,193.73,0,0,0,16.92-16.34c8.91-10.07,17.31-20.52,25.82-30.88a168.59,168.59,0,0,0,22.12-35.31c4.67-9.9,11.94-17.68,20.55-24.66a9.35,9.35,0,0,1,9.57-1.38,23.73,23.73,0,0,1,11.94,9,12.49,12.49,0,0,1,1.9,3.33c3.72,13,13.68,21.77,23.51,31,12.29,11.47,23.73,23.72,35.25,35.87,7.23,7.63,10.38,17.1,12.58,26.83Q894.8,628,896,633.88a55.42,55.42,0,0,0,9.76,21.94,85.06,85.06,0,0,1,14.28,31.06A195.3,195.3,0,0,0,933.63,725,60.35,60.35,0,0,1,939.74,750.8ZM804.14,525.06c-8.23,2.49-11.92,7.56-14.42,14.05a335,335,0,0,1-35.78,67.64,145.84,145.84,0,0,1-26.77,30c-9.76,8.22-20.79,13.49-34.24,13.66-6.65.08-11.63,2.85-15.9,7.35-4.9,5.18-7.81,11.28-10.24,17.61-6.29,16.37-8.62,33.34-9.17,50.6-.36,11.51-.82,23-1.8,34.5-.54,6.23-2.37,12.36-3.4,18.57-.84,5-.39,5.55,4.63,7.67,3.3,1.39,6.73,2.57,10,4.12,23.57,11.32,42.77,26.09,49.32,51.43a83.65,83.65,0,0,0,8.21,19.91A174.76,174.76,0,0,1,737,889.33a61,61,0,0,0,3.09,7c5.09,10,11.5,13.12,23.14,10.07,7.36-1.93,14.42-5,21.33-8.18,9.38-4.25,18.28-9.43,27.75-13.48a115.65,115.65,0,0,0,43-31.17c1.27-1.47,2.7-2.83,4.07-4.23A75.54,75.54,0,0,1,883,832.48c3.25-1.44,6.13-3.6,9.09-5.53,7-4.59,14.12-9.17,21-13.94,1.48-1,3.06-2.72,3.36-4.31,2.95-15.46,6-30.92,8.32-46.47,2.08-13.67.64-26.93-5.49-40-4.57-9.73-7.54-20.18-10.43-30.49-3.05-10.85-7-21.2-13.86-30.53a63,63,0,0,1-11.18-26.11c-.74-3.92-1.71-7.8-2.52-11.71a49.57,49.57,0,0,0-15-27c-6.06-5.67-11.64-11.77-17.35-17.74-4.81-5-9.06-10.59-14.33-15.16-9.8-8.48-17.79-17.84-21.69-29.92A12.93,12.93,0,0,0,804.14,525.06Z"/><path class="cls-2" d="M1163.08,774c-7.47,2.91-14.91,5.89-22.46,8.63-1,.37-2.6-.52-3.92-.83.73-.9,1.31-2.39,2.22-2.6,8.07-1.82,16.19-3.42,24.31-5.07Z"/><path class="cls-2" d="M876.33,748.74c-.46,11-.78,22.73-1.47,34.44-.64,10.69-4.51,20.53-10.86,29.43A216.79,216.79,0,0,1,820.13,858c-8.16,6.34-17.62,10.39-28.64,10.3s-19.18-4.61-24.64-13.3a36.23,36.23,0,0,1-5.73-17.92c-.19-4.81-.11-9.64-.28-14.45-.39-11.84-6.26-18-19-20.13-1.79-.3-3.58-.64-5.38-.86a31.11,31.11,0,0,1-19-9.08c-3.17-3.25-6.38-6.72-8.41-10.6-10.75-20.61-17.2-42.28-17.6-65.3-.13-7,2.74-12.89,9.14-16.63,21.08-12.3,36.92-29.74,53.87-46.08a117.13,117.13,0,0,0,29-43.64c.74-2,2-4,2-6,.06-6.07,4.83-9.59,8.43-13.61,3.32-3.72,9.8-4,14.38-1.16a56.8,56.8,0,0,1,4.8,3.52c5.31,4,10.79,7.55,18,8.34,5.29.57,9.07,3.74,11.7,7.91a38.49,38.49,0,0,1,3.57,6.77c6.62,17.6,14,35,17.39,53.49a228.91,228.91,0,0,0,8,30.49c3.09,9.34,4.91,18.67,4.59,28.42C876.15,735,876.33,741.51,876.33,748.74Zm-13.27-10.19c-.78-13.26-1.21-26-2.4-38.73-.74-7.9-2.84-15.69-3.95-23.58-2.91-20.58-11.93-39.43-19.19-58.79a21.8,21.8,0,0,0-1.51-2.81c-1.74-3.17-4.27-5.44-8.26-5.89-7.09-.82-12.7-4.31-18-8.33a31.75,31.75,0,0,0-5.42-3.78c-1.44-.67-4-1.25-4.92-.57-3.78,2.87-7.86,5.79-7.6,11.14a38.87,38.87,0,0,1-5.54,22.4c-5.11,8.36-10.41,16.79-16.93,24.21-9,10.24-19.21,19.57-28.92,29.26-9.12,9.12-18.7,17.76-30.3,24.23-5.22,2.9-7.3,7-7,12.59,1,19.52,6.83,37.92,15.28,55.67,5.08,10.67,13,18.15,26.7,18.46a3.19,3.19,0,0,1,.68.1c13.39,2.61,22,10.82,24,23.43.73,4.53.67,9.17.93,13.77.33,5.91,1.32,11.66,4.57,16.9,4.82,7.76,12.06,10.35,21.4,7.79a39,39,0,0,0,19.58-12c10.37-11.94,20.65-24,30.53-36.23a52.88,52.88,0,0,0,11.52-26.57C860.14,766.88,861.53,752.5,863.06,738.55Z"/><path class="cls-2" d="M793,662.05l-4.44,1.79-.44-.75c2.6-2,5.44-3.75,7.72-6,2.12-2.09,3.64-4.7,5.2-6.77,1.9-.3,4-.09,5.37-.94,5.36-3.37,11.56-3.72,17.6-4.47a8.74,8.74,0,0,1,9.4,5c1.52,3,2.71,6.22,4.05,9.33a76.15,76.15,0,0,0,3.87,8.71c4.26,7.22,6.33,14.91,5.34,23-2.75,22.48-2.59,45.26-7.75,67.47-3.33,14.32-7.4,28.51-11.5,42.68a30.53,30.53,0,0,1-5.34,10.08c-4.46,5.67-11.44,5.37-14.8-.89A34.37,34.37,0,0,1,803.7,797c-.57-6.88-.11-13.83-.14-20.75a40.75,40.75,0,0,0-.38-5.63c-.37-2.48-2.06-3.76-4.76-3.38-3.81.53-7.57,1.43-11.39,1.92-6.51.83-13,2-19.58,2-9.91,0-17.82-4.18-23.92-11.46-14.43-17.21-11.12-38-1.71-51.89,2.21-3.25,5.76-5.91,9.17-8.24a129,129,0,0,1,12.82-7.19C777.07,685.45,786.25,675,793,662.05Zm12.73-5.67c-1.29,3.64-2,7-3.6,10-6.43,12-15,22.47-27.38,29.91-5.7,3.44-11.8,6.35-17.35,10-3.43,2.25-7.15,4.95-9,8.27-7.41,13.24-7.65,26.47,2,39.16a20.85,20.85,0,0,0,18,8.61c4.51-.12,9-1.08,13.49-1.63,5.85-.71,11.69-1.83,17.55-2,6.93-.16,11,3.19,12.34,9.5a53.8,53.8,0,0,1,.9,10c.14,6.71-.06,13.41.15,20.11.08,2.26,1,4.5,1.83,8a27.51,27.51,0,0,0,2.08-2.73,26.27,26.27,0,0,0,1.86-4c6.93-22.15,13.35-44.41,15.12-67.54.89-11.7,1.76-23.41,2.39-35.12.32-5.83,1-11.78-1.63-17.38-3.33-7.09-6.69-14.18-10.27-21.18a5.9,5.9,0,0,0-3.68-3C815.55,654.72,810.5,653.91,805.71,656.38Z"/><path class="cls-2" d="M808,691.74l-2.9-.34a1.82,1.82,0,0,1-.17-.58c.11-3,6.7-10.38,10.07-11.23,4.26-1.08,7,.42,10.84,4.71,5.56,6.21,7.62,13.09,6.36,21-1,6.2-1.4,12.49-2.54,18.66a14.62,14.62,0,0,1-3.4,6.63c-4,4.53-8.45,8.73-12.68,13.09-3.79,3.9-8.14,6.58-14.18,6.25-7.67-.42-16.78-8.34-17.58-15.34-.35-3.13,1.64-5,3.8-7C796.53,717.69,802.72,705.25,808,691.74Zm-16.48,42.64c5,8.4,8.31,9.12,16,3.73,4.14-2.92,8.41-5.7,12.44-8.75,1.5-1.14,3.27-2.74,3.54-4.33,1.34-7.83,2.5-15.71,3.19-23.62.51-5.94-3.75-11-10.9-13.74C812.84,705.6,803.76,720.8,791.49,734.38Z"/></g></g></g></svg>