<svg id="Layer_1" data-name="Layer 1" xmlns="http://www.w3.org/2000/svg" viewBox="0 0 1515.56 469.29"><defs><style>.cls-1{font-size:248px;font-family:PlantagenetCherokee, Plantagenet Cherokee;letter-spacing:0.12em;}.cls-1,.cls-2{fill:#7a4417;}</style></defs><title>loggelogga-slogan</title><text class="cls-1" transform="translate(536.08 246.18)">LOGGE</text><path class="cls-2" d="M429.18,362.37a32.36,32.36,0,0,1,1,3.33,22.74,22.74,0,0,1,.5,4.34c0,2.21-1.06,3.41-3.17,4.11a1.43,1.43,0,0,1-.39.11c-3,.22-5.52,1.84-8.23,2.89-2.25.88-4.48,1.8-7,1.73-1.3,0-1.65,1-2,1.94a20.43,20.43,0,0,0-.67,2.93c-.72,3.53-1.44,7.06-2.19,10.78,1,.36,2,.68,2.88,1,2.57.95,3.09,3,.93,4.68-2.46,1.94-5.21,3.5-7.84,5.21-1.31.85-3,1.16-3.7,2.86-.15.36-.87.61-1.37.7-6,1.09-11.6,3.62-17.36,5.58-2.6.88-4.51,2-5.06,4.9a7.34,7.34,0,0,1-1.15,2.33c-1.64,2.58-3.5,5-4.67,7.91a5.66,5.66,0,0,1-1,1.47c-1.4,1.62-2.31,1.56-3.73-.33-2.19,1.18-4.37,2.46-6.63,3.57a10.46,10.46,0,0,0-4.14,3.64,63.71,63.71,0,0,1-4.21,5.37,8.44,8.44,0,0,1-3.69,2.68,2,2,0,0,0-1.09,1.23,3.64,3.64,0,0,1-2.79,2.82,18.69,18.69,0,0,0-2.67,1.37,7.08,7.08,0,0,1-6.48.4c-.58.5-1.16,1-1.78,1.52-2.31,1.78-4.55,1.11-5.51-1.65-.27-.76-.45-1.54-.7-2.4-2.14-.14-4.28-.19-6.38-.46-3.52-.46-7-1.09-10.51-1.59a3.62,3.62,0,0,0-2.1.22c-6.17,3.37-12.88,4.82-19.75,5.67-4.78.59-9.58,1-14.36,1.58a7,7,0,0,0-3.3,1.29c-3.06,2.39-6,4.91-8.91,7.49a11.3,11.3,0,0,0-2.09,2.9,5.33,5.33,0,0,1-6,2.57,21.13,21.13,0,0,1-4.5-2.15,10.28,10.28,0,0,0-5.29-1.54,78,78,0,0,1-8.78-.73,11.64,11.64,0,0,1-7.11-3.83,11.26,11.26,0,0,0-.93-.81c-.84.89-1.68,1.67-2.38,2.55a10.44,10.44,0,0,1-3.91,2.74,3.91,3.91,0,0,1-4.48-.65,1.93,1.93,0,0,1-.44-.41c-1.81-2.67-4.67-4.1-7.08-6.06-1.72-1.4-3.48-2.76-4.5-4.79a1.53,1.53,0,0,0-1.61-.92,4.34,4.34,0,0,0-1.2.06c-4.38,1.42-8.75,2.87-13.28,4.36.2,1.12.37,2.09.53,3.06.43,2.67-1.05,4-3.63,3.16a14.68,14.68,0,0,1-2.58-1.09c-2.53-1.38-5-2.83-7.53-4.21a4,4,0,0,0-1.82-.57,2.52,2.52,0,0,1-2.08-1c-3.5-4.21-7.83-7.49-12-11-1.44-1.19-2.74-2.86-4.41-3.4s-3.52.2-5.3.36a5.43,5.43,0,0,1-.8,0,56.16,56.16,0,0,0-9.79-.14,4.86,4.86,0,0,1-1-.07c-2.51-.29-3-1-2.2-3.53-2.76-1.68-5.54-3.4-8.36-5.06a4.25,4.25,0,0,0-1.53-.37c-2.78-.39-5.57-.72-8.34-1.17a7.18,7.18,0,0,1-4.15-1.86,1.59,1.59,0,0,0-1.84-.34,3.17,3.17,0,0,1-3.48-.84,14.56,14.56,0,0,0-2.34-1.54c-2.13-1.32-3.8-3-4-5.68-.87-.31-1.71-.54-2.49-.9-2.34-1.08-2.85-3.24-1.22-5.24.58-.72,1.25-1.37,1.88-2.05-1.2-2.48-2.47-4.84-3.51-7.29-1.15-2.71-2.13-5.49-3.11-8.26A3.1,3.1,0,0,0,90,396.07,49.63,49.63,0,0,1,76.7,383.71a148.75,148.75,0,0,1-9.93-13.37A6.52,6.52,0,0,0,63.86,368q-5-2.08-10.15-3.76a14.35,14.35,0,0,0-4.14-.54,5.28,5.28,0,0,1-5.28-3.82,18.37,18.37,0,0,1-.42-5,10.35,10.35,0,0,0-1.41-5.53,69.87,69.87,0,0,1-3.65-7.79,11.75,11.75,0,0,1-.25-8.08c.11-.37.16-.76.26-1.26-1.21-.28-2.29-.59-3.4-.77a10.8,10.8,0,0,1-4.16-1.9,4.09,4.09,0,0,1-1.84-4.52,1.49,1.49,0,0,1,.09-.39c1.53-3.15,1.16-6.65,1.88-9.93A35.66,35.66,0,0,1,33,309.58c.53-1.38.58-2.1-.45-3.22a24.69,24.69,0,0,0-1.92-1.77L22,297c-.82.72-1.55,1.37-2.3,2-2.11,1.76-3.89,1.17-4.58-1.51a6.06,6.06,0,0,1-.21-1.19c-.12-3.07-.24-6.15-.32-9.22,0-1.18.36-2.35-.55-3.45-.28-.33-.15-1.18,0-1.71,2.36-6.74,3-13.85,4.29-20.81a1.93,1.93,0,0,0-.55-1.81,25.33,25.33,0,0,1-5.06-8.37,10.32,10.32,0,0,0-1-1.5,32.2,32.2,0,0,1-2.3-4c-.81-1.91-.19-2.76,2.14-3.11,0-2.15,0-4.34.16-6.52a13.07,13.07,0,0,0-1.37-7.15A43,43,0,0,1,8,222.11,7,7,0,0,1,7.76,219a2.11,2.11,0,0,0-.69-2.13,3.23,3.23,0,0,1-1-3.28,29.41,29.41,0,0,0,.24-3.4c.13-2.3.77-4.35,2.87-5.69a26,26,0,0,1-.44-2.79c-.15-2.46,1.23-3.8,3.67-3.55,1,.1,1.95.37,3,.58.37-.53.73-1,1-1.51a78.19,78.19,0,0,1,9.22-12.13,2.56,2.56,0,0,0,.79-1.52c0-7.83,2.71-15,5.66-22,1.58-3.76,3.43-7.4,5-11.17a7.89,7.89,0,0,0,.62-3.88c-.56-4-1.35-7.91-2.13-11.84a6.08,6.08,0,0,0-1-2.37,5.55,5.55,0,0,1,1.11-7.54,23.92,23.92,0,0,1,3.4-2.13,9.58,9.58,0,0,0,4.08-4,64.9,64.9,0,0,1,4.66-6.76,12,12,0,0,1,7.33-4.6,7,7,0,0,0,1-.39c-.35-1.13-.6-2.23-1-3.26A10.37,10.37,0,0,1,54.74,99a4,4,0,0,1,3-3.86,1.66,1.66,0,0,1,.37-.14c3.35-.24,6.1-2.16,9.17-3.2a31.74,31.74,0,0,1,5.41-1.36c1.82-.26,2.47-.54,2.89-2.37.64-2.73,1.18-5.49,1.74-8.24.35-1.69.65-3.39,1-5.19-1.17-.4-2.18-.71-3.16-1.1-2.12-.85-2.52-2.57-1-4.27A9.36,9.36,0,0,1,76,67.78q3.74-2.34,7.54-4.6c.91-.53,1.89-.86,2.34-2,.17-.42.94-.75,1.48-.86,7-1.35,13.38-4.25,20-6.63a2.31,2.31,0,0,0,1.6-1.59,25.22,25.22,0,0,1,4.62-8.4,11.27,11.27,0,0,0,.92-1.76,32.33,32.33,0,0,1,2.19-3.8c1.27-1.69,2.28-1.6,3.79.27,1.53-.84,3-1.8,4.66-2.54a15.4,15.4,0,0,0,7.15-6.15,23.26,23.26,0,0,1,3.44-4.18,11.05,11.05,0,0,1,3.06-2.19,2.26,2.26,0,0,0,1.51-1.65,3.13,3.13,0,0,1,2.34-2.47,25.51,25.51,0,0,0,3.23-1.6,6.72,6.72,0,0,1,6.28-.3c.61-.52,1.24-1.12,1.93-1.62,2.18-1.6,4.32-1,5.28,1.58.3.8.5,1.65.79,2.61.69.05,1.34.12,2,.14a76.21,76.21,0,0,1,15.11,1.91,3,3,0,0,0,1.88-.25C185,18.48,191.36,17,197.9,16.16c5-.67,10-1.58,15.15-1.68a6.36,6.36,0,0,0,3.49-1.34c3.1-2.44,6.09-5,9.05-7.63a7.52,7.52,0,0,0,1.78-2.4A5.47,5.47,0,0,1,234.13.34a22.55,22.55,0,0,1,3.91,2,9.49,9.49,0,0,0,5.11,1.46,77.31,77.31,0,0,1,8.59.71,12,12,0,0,1,7.48,4c.22.25.48.46.85.8.79-.84,1.62-1.59,2.3-2.46a10.34,10.34,0,0,1,3.69-2.7,4.12,4.12,0,0,1,5,.65,1.92,1.92,0,0,1,.29.28c1.78,2.6,4.55,4,6.92,5.94A17.08,17.08,0,0,1,283,15.89c.55,1,1.49,1.2,3,.74,2.62-.8,5.22-1.66,7.83-2.52,1.7-.57,3.39-1.19,5.2-1.82-.21-1.17-.42-2.21-.58-3.25-.33-2.27.91-3.47,3.16-3a8,8,0,0,1,2.07.74q3.74,1.94,7.43,4c1.15.63,2.12,1.58,3.64,1.4.44-.05,1.07.51,1.44.94,4.61,5.38,10.41,9.42,15.74,14a2.14,2.14,0,0,0,2,.45,25.08,25.08,0,0,1,9.38-.22,11.91,11.91,0,0,0,2.38-.09,25.41,25.41,0,0,1,3.8,0c2.48.3,2.91,1.06,2.17,3.56,2.71,1.65,5.43,3.36,8.2,5a6.16,6.16,0,0,0,2.12.51c2.71.4,5.43.74,8.14,1.18a7.9,7.9,0,0,1,4,1.79,1.77,1.77,0,0,0,1.41.35,4,4,0,0,1,4.21,1.12A13.57,13.57,0,0,0,381.88,42c2,1.29,3.54,2.87,3.71,5.51.75.26,1.51.49,2.23.78,2.66,1.09,3.22,3.45,1.3,5.61a15.56,15.56,0,0,1-1.87,1.53c.47.95.78,1.61,1.12,2.24a80,80,0,0,1,5.75,13.68,3,3,0,0,0,1,1.6c6,3.62,10.67,8.7,14.83,14.25,2.84,3.8,5.56,7.69,8.43,11.48a7.59,7.59,0,0,0,2.68,2.34,58.35,58.35,0,0,0,12.65,4.46,7.17,7.17,0,0,0,1.79.13c3-.11,5.19,1.43,5.77,4.41a20,20,0,0,1,.25,4.58,9.64,9.64,0,0,0,1.24,5,82.44,82.44,0,0,1,4,8.54,12.31,12.31,0,0,1-.24,8.81,28.48,28.48,0,0,0,3.35.81A10.47,10.47,0,0,1,454,139.6a4.13,4.13,0,0,1,1.94,4.67,1.18,1.18,0,0,1-.1.38c-1.48,3.09-1.13,6.51-1.84,9.74a32.86,32.86,0,0,1-1.52,5.16c-.63,1.61-.67,2.32.58,3.55,1.05,1,2.17,2,3.28,3l7,6.18c.92-.79,1.69-1.5,2.52-2.15,1.88-1.49,3.57-1,4.26,1.37a8.5,8.5,0,0,1,.36,2.18c.09,3.27.11,6.55.2,9.82a3.5,3.5,0,0,0,.43,1.66,2.51,2.51,0,0,1,.17,2.3c-1.95,5.39-2.66,11-3.6,16.65-.27,1.58-1,3.27-.63,4.72s1.72,2.61,2.63,3.91a15.13,15.13,0,0,1,1.07,1.7,41.77,41.77,0,0,0,4.32,7.65,5.33,5.33,0,0,1,.69,1.44c.87,2.19.43,3-2,3.47-.08,3.24-.2,6.51-.22,9.78a5.45,5.45,0,0,0,.59,1.89c1,2.35,2,4.68,2.87,7.06a9.14,9.14,0,0,1,.7,3.31c-.05,1.62-.14,3.09,1.25,4.32.38.33.33,1.24.33,1.89,0,1.07-.19,2.13-.22,3.2-.05,2.58-.61,4.92-2.89,6.44a25.09,25.09,0,0,1,.43,3,3,3,0,0,1-3.76,3.28c-.92-.13-1.82-.43-2.91-.69-.37.58-.77,1.18-1.16,1.78a73.74,73.74,0,0,1-9,11.8,3,3,0,0,0-1,2.1,43.81,43.81,0,0,1-3.21,15.45c-2.3,5.85-4.4,11.78-7.39,17.35a6.69,6.69,0,0,0-.6,3.88c.56,4,1.35,7.91,2.13,11.84a7.48,7.48,0,0,0,1.05,2.37c1.6,2.63,1.31,5.41-1,7.37a20,20,0,0,1-3.71,2.37,9.42,9.42,0,0,0-3.7,3.55,87.2,87.2,0,0,1-5.14,7.4,11.78,11.78,0,0,1-7.06,4.3C429.88,362.12,429.58,362.24,429.18,362.37ZM303.12,72.59l-6.1-2.2c-.5,2.9-1,5.49-1.43,8.18l3.2,1.12c1.55-2.53,3-4.85,4.37-7.17-.67,2.69-1.35,5.38-2,8.14l8.36,3.69a95.36,95.36,0,0,0,2.71-10.46c-2.39-.39-4.55-.75-6.71-1.08C304.7,72.69,303.92,72.65,303.12,72.59ZM261.75,378.73c-.4,2-.4,2,0,3a3.78,3.78,0,0,0-.05-2.94c.18.2.48.38.53.62a17.26,17.26,0,0,1,.3,1.91c1.26,0,1.82-.54,1.94-1.68.26-2.45.6-4.9.91-7.38.32,2.58-.1,5.17.7,7.74a19.71,19.71,0,0,0,1.53-5.57q.63-3,1.24-6.09a58.35,58.35,0,0,0,1.21-6.08l-1.68,1a34.34,34.34,0,0,1-11.65,4.68c-3.28.53-6.54,1.12-9.81,1.69-.33.06-.65.14-1.06.23-1,4.22-1.89,8.43-2.86,12.77,2.19.45,4.22.79,6.21,1.29a9.17,9.17,0,0,0,4.93-.17,3.09,3.09,0,0,0,2.31-2.17,19.05,19.05,0,0,1,4.93-7.73c-.75,2.77-1.51,5.53-2.27,8.3l.41.19a7.71,7.71,0,0,0,.76-1C260.82,380.46,261.28,379.58,261.75,378.73Zm26-207.89c.6-1.09,1.16-2.2,1.82-3.25,1.27-2,2.59-4,3.78-5.86l-9.83-9.66c-1.27,3.23-2.6,6.57-3.85,9.94a2.29,2.29,0,0,0,.19,1.67,19,19,0,0,0,6.18,7,1.65,1.65,0,0,0,1.78.11c-.35,1,.41,1.3,1,1.66,5.17,3,9.35,7.11,13.24,11.57a31.08,31.08,0,0,1,7.52,15.08,23.38,23.38,0,0,0,3.4,8.71,27.11,27.11,0,0,1,4.08,13.08c.18,2.53.21,5.09.59,7.6q1.75,11.29,3.74,22.56c.79,4.43,1.48,8.84.92,13.35a3.3,3.3,0,0,0,.13.81c3.66.55,7.23,1.32,10.92,1.63.2-.92.39-1.63.52-2.34a39.64,39.64,0,0,0-.56-15.94A68,68,0,0,1,332.19,226c.36-3.25.51-6.53.69-9.81a14.83,14.83,0,0,0-2.16-8.42,37.74,37.74,0,0,1-3.76-9.48,45.09,45.09,0,0,0-2.15-6c-1.2-2.9-2.71-5.68-3.74-8.64a14.93,14.93,0,0,0-8.92-9.45c-.37-.15-.72-.34-1.09-.49a49.48,49.48,0,0,1-15.77-10.52,12.17,12.17,0,0,0-1.28-1c-1.33,2-2.55,3.79-3.83,5.58C289.42,168.81,288.55,169.81,287.73,170.84Zm60.32,76.37.05,0c.16-.78.38-1.56.49-2.34.36-2.72.59-5.46,1-8.17a26.63,26.63,0,0,0-.06-9.38,30.15,30.15,0,0,1-.08-8.59c.4-4.06.59-8.14.82-12.21.18-3.14.28-6.28.44-9.42.09-1.74.24-3.47.34-5.21a3.11,3.11,0,0,0-.95-2.52,10.35,10.35,0,0,1-1.61-2.51q-2.5-4.91-4.91-9.86a13.35,13.35,0,0,0-4.57-5c-2.68-1.88-5.34-3.82-7.82-6a35.4,35.4,0,0,0-9.45-6,35.71,35.71,0,0,1-9.31-5.85c-2.55-2.16-5.24-4.16-7.88-6.21a10,10,0,0,0-1.25-.69c-2.09,3.33-4.09,6.54-6.09,9.74.29.34.45.55.64.74,4.59,4.66,9.61,8.73,15.72,11.27a20.48,20.48,0,0,1,12.23,13.75c.57,1.92,1.44,3.75,2.13,5.63a69.43,69.43,0,0,1,2.51,7.18,43.43,43.43,0,0,0,4.33,11.18,14.7,14.7,0,0,1,2.08,7.67c-.12,4.08-.32,8.16-.7,12.22A59.26,59.26,0,0,0,337,245c1.12,5.23,2.46,10.44,2.18,15.86-.12,2.26-.36,4.51-.56,6.95l3,.45,0,.22-3.43.21c-.13.75-.23,1.37-.36,2.16,3.16.06,6.1.69,9.25.4-.07-1.23-.1-2.29-.2-3.34-.37-3.94-.74-7.87.05-11.8.46-2.3.84-4.61,1.18-6.93A9.67,9.67,0,0,0,348.05,247.21Zm-183.39,25,.36-1.39c-.36,0-.79-.23-1.05-.1q-4.68,2.3-9.3,4.7c-.21.11-.29.49-.6,1.07a8.52,8.52,0,0,0,1.57-.32c2.43-1.11,4.84-2.26,7.27-3.37.58-.27,1.21-.44,1.81-.66a10.07,10.07,0,0,1-1.52,1.19c-2.06,1.12-4.16,2.17-6.23,3.25-.62.33-1.22.71-1.84,1.07,1.79,3.88,4.25,6.86,8.1,8.49,1.48.63,2.92,1.35,4.42,1.92a30.16,30.16,0,0,1,13.43,10.16c.81,1.06,1.64,2.11,2.41,3.21a33.23,33.23,0,0,0,9.68,9.22,44.17,44.17,0,0,1,12.35,11,14.39,14.39,0,0,0,7.34,5c7.44,2.4,14.89,4.8,22.12,7.82a14.33,14.33,0,0,0,8.87.71c1.82-.42,3.64-.87,5.47-1.28a63.76,63.76,0,0,0,24.2-10.79c2.15-1.59,4.43-3,6.68-4.45a63,63,0,0,0,13-11c2.28-2.54,4.6-5.06,6.88-7.59a21.19,21.19,0,0,1,11-6.66,29.48,29.48,0,0,0,17.48-12,14,14,0,0,0,2.59-5.7,9.64,9.64,0,0,0-1.47-.06c-5.91.69-11.82,1.38-17.72,2.15a5.48,5.48,0,0,0-2.17,1,17.1,17.1,0,0,0-5.54,6.25c-1,1.83-1.83,3.73-2.84,5.54a19.48,19.48,0,0,1-14,10.1,52.93,52.93,0,0,1-5.78.64,12.37,12.37,0,0,0-6.66,2.5,46.49,46.49,0,0,1-3.93,2.78,32.37,32.37,0,0,0-6.88,5.5c-.93,1-1.89,1.9-2.85,2.83a18.16,18.16,0,0,1-10.29,5C243.71,321,236.42,322,229.14,323a17.13,17.13,0,0,1-15.81-5.4c-4.71-4.93-9.8-9.49-13.17-15.57a15,15,0,0,0-6.17-5.91,24.93,24.93,0,0,1-9.48-8.75,13,13,0,0,0-7-5.49,18.73,18.73,0,0,1-11.1-9,1,1,0,0,1-.1-.18C166,271.94,165.34,272,164.66,272.19Zm14.12-9.67a1.88,1.88,0,0,0,.49-2c-.87-3.44-1.58-6.91-2.54-10.32a25.6,25.6,0,0,1,1-16.72c1.86-4.73,3.57-9.52,5.26-14.32a45.59,45.59,0,0,0,2.87-14.51c0-2.47-.16-5-.17-7.42,0-5.69,2.2-8.64,7.62-10.35a12.91,12.91,0,0,1,1.35-.38c2.82-.55,5.65-1,8.46-1.63,8.76-1.88,15.64-6.41,20-14.39.61-1.12,1.26-2.21,2-3.28a32.42,32.42,0,0,1,17.09-13.32c3.06-1,6.15-.94,8.86,1.35a10,10,0,0,0,3.17,1.66,7.88,7.88,0,0,1,5,4.6,15.52,15.52,0,0,0,5,6.44,14.45,14.45,0,0,1,3.85,4.83c.52,1,1,2,1.6,3a4.52,4.52,0,0,0,2.18,2.22,3.64,3.64,0,0,0,.52-.74q1.64-4.74,3.23-9.48a1.16,1.16,0,0,0,0-.78c-1-1.93-1.94-3.84-3-5.9-.35.54-.57.87-.9,1.39.39-3.38.38-3.44-1.16-6.54a14.82,14.82,0,0,0-1.27-2.27c-2.77-3.8-5.87-7.07-10.86-8a25.05,25.05,0,0,1-5.58-2.16c-4.6-2-9.21-2.59-14-.6a52.58,52.58,0,0,0-14.92,9.31c-3.9,3.47-7.7,7.06-11.5,10.64a53.75,53.75,0,0,1-24.24,13.18c-3.12.76-6.22,1.59-9.32,2.41a5.07,5.07,0,0,0-3.59,2.95c-2.34,5.38-3.6,10.93-2.65,16.81a44.65,44.65,0,0,1-1.2,19.87c-.92,3.14-1.76,6.32-2.46,9.52-1,4.37-1.8,8.78-2.56,13.19a46.53,46.53,0,0,0-.62,6.56c-.09,3,.06,5.89.05,8.84,0,2-.15,4-.2,6A5.54,5.54,0,0,0,168,267c1.79-.75,3.57-1.5,5.37-2.22,1-.42,2.1-.78,3.16-1.17-.65.44-1.27.93-1.94,1.32-1.9,1.1-3.82,2.16-5.77,3.26.37.57.69,1,.95,1.45a16.31,16.31,0,0,0,9.34,7.75A18.52,18.52,0,0,1,189.35,286a16,16,0,0,0,6.15,5.89,23.27,23.27,0,0,1,9.1,8.86,44.41,44.41,0,0,0,8.77,10.63c1.79,1.62,3.47,3.35,5.23,5A8.51,8.51,0,0,0,225,318.7c1.47-.07,2.94-.11,4.4-.29,5.83-.73,11.65-1.76,17.5-2.2a19.36,19.36,0,0,0,14.11-7,28.09,28.09,0,0,1,7.07-5.89,13.3,13.3,0,0,0,2.54-1.95,18.15,18.15,0,0,1,12.88-5.66,15.1,15.1,0,0,0,11.2-5.07,41,41,0,0,0,3.06-4c1.43-2,2.8-4.07,4.19-6.12a6.16,6.16,0,0,0,.42-.83c-2.09.35-4,.79-5.9,1s-3.85.12-5.78.11c-1.52,0-3.05-.26-4.56-.12-2.19.22-4.34.73-6.53,1a14.71,14.71,0,0,0-6.84,2.65c-1.09.79-2.1,1.68-3.23,2.39a44.91,44.91,0,0,1-5.88,3.41,18.22,18.22,0,0,0-6.77,4.88c-.87,1-1.73,2-2.53,3.11a11,11,0,0,1-8.06,4.72c-3.8.36-7.24,1.78-10.72,3.19a70.5,70.5,0,0,1-7.53,2.72c-6.65,1.85-12.24.11-16.77-5.16a21.55,21.55,0,0,1-5.13-12c-.27-2.46-.49-4.92-.68-7.39a6.83,6.83,0,0,0-4.67-6.18,36.84,36.84,0,0,1-5.57-2.73,75.75,75.75,0,0,0-10.88-6,7.24,7.24,0,0,1-4.31-5.22,4.82,4.82,0,0,0-.43-1.33C179.5,262.59,179.06,262.6,178.78,262.52ZM350,95.68c.3-.85-.44-1.05-.91-1.31a79.62,79.62,0,0,0-7.74-4.22,73.31,73.31,0,0,1-15.81-9.39L319.29,76a8,8,0,0,0-5.22-1.79c-.91,3.66-1.8,7.27-2.71,10.94.35.21.62.4.9.55,3.9,2.07,7.85,4,11.67,6.24A52,52,0,0,1,331,96.8c4.15,3.44,9,5.31,14.16,7.24,1.65-2.87,3.23-5.64,4.82-8.42-.29.88-.53,1.79-.89,2.64-.89,2.14-1.83,4.26-2.76,6.41.44.29.72.47,1,.66,5.79,4,11.65,7.86,17.36,12,7.93,5.67,12.63,13.66,15.83,22.67a33.76,33.76,0,0,0,1.39,3.54,24.62,24.62,0,0,1,2.32,7,24.52,24.52,0,0,0,2,6,94.28,94.28,0,0,1,3.66,9.12,64.14,64.14,0,0,0,5.89,13.15c1.31,2.19,2.54,4.41,3.73,6.66a34.5,34.5,0,0,1,3.78,10.33c.81,4.74,1.49,9.52,2.12,14.29a194.64,194.64,0,0,1,1.48,20.62,50.64,50.64,0,0,1-.69,11.79,26.69,26.69,0,0,0-.12,9.39c.54,3.78,1.19,7.56.85,11.39-.6,6.8-1.09,13.61-2,20.38a36.29,36.29,0,0,1-6.66,16.61c-1.79,2.49-3.73,4.88-5.6,7.31a20.3,20.3,0,0,0-1.33,1.76,30.34,30.34,0,0,1-5.59,6.27,32.79,32.79,0,0,0-3.3,3.75c-2.3,2.87-4.41,5.9-6.84,8.65a64.45,64.45,0,0,0-7.85,10.89c-1.15,2-2.35,4.05-3.56,6.06a39.73,39.73,0,0,1-10.53,11.72c-1.41,1-2.75,2.14-4.1,3.23a197.07,197.07,0,0,1-25.89,17.57,24.6,24.6,0,0,1-4.36,2,37.41,37.41,0,0,0-11.5,6.42,44.62,44.62,0,0,1-7.15,4.79q-9.15,4.58-18.54,8.66a37.44,37.44,0,0,1-15.87,3,10.27,10.27,0,0,0-1.38.16c-.34,2.19-.67,4.27-1,6.54a42.16,42.16,0,0,1,5.37-1.08c5.15-.32,9.94-2,14.76-3.62a49.07,49.07,0,0,1,11.09-2.69,36.06,36.06,0,0,0,12.39-3.11,59.88,59.88,0,0,0,10.8-6.13A72.23,72.23,0,0,1,335.24,383c1.74-.71,3.45-1.48,5.21-2.11a12.27,12.27,0,0,0,5.84-4.36,68.57,68.57,0,0,1,7.18-8.64c6.61-6.24,12.86-12.9,20.2-18.34a26.63,26.63,0,0,0,6-6.21,65.4,65.4,0,0,1,13.42-14.56,13.69,13.69,0,0,0,4.08-5.15c1.56-3.33,3.21-6.63,4.6-10a44.44,44.44,0,0,0,2.07-6.89,46.92,46.92,0,0,1,2.85-9.6,35.49,35.49,0,0,0,2.81-9,77.91,77.91,0,0,1,6-19.92,10.21,10.21,0,0,0,.77-2.28,62.55,62.55,0,0,0,1-17.38c-.43-4.39-1-8.79-.47-13.22.45-4,.87-8,1.44-12a13.28,13.28,0,0,0-.91-7.64,68.29,68.29,0,0,1-4.55-12.84c-1.08-4.76-2.26-9.5-3.33-14.27-.49-2.21-.92-4.45-1.21-6.71a43.72,43.72,0,0,0-3.76-13.46,56.37,56.37,0,0,1-5-16.66,14.92,14.92,0,0,0-2.53-6.49c-1.63-2.37-3.31-4.7-4.94-7.07a41.19,41.19,0,0,0-6.67-7.47,39.3,39.3,0,0,1-5.73-5.88,54.58,54.58,0,0,0-9.22-9.74,64.62,64.62,0,0,1-11.55-12.5c-2-2.86-4.83-4.79-7.6-6.78C350.9,95.62,350.37,95.72,350,95.68ZM262.81,437.34c2.51-.47,4.81-.86,7.1-1.35q23.55-5,47.11-10c5-1.09,10-2.71,15.05-3.4a40.22,40.22,0,0,0,10.35-2.92c2.28-1,4.61-1.8,6.92-2.7.37-.14.76-.23,1.14-.36a13.45,13.45,0,0,0,3.13-1.16c3.54-2.41,7.13-4.77,10.44-7.47,6.7-5.45,13.24-11.09,19.83-16.67a4,4,0,0,0,1-1.2c2.26-4.68,5.79-8.35,9.48-11.87a41.48,41.48,0,0,0,9-12.44A99.93,99.93,0,0,1,415.1,347.1c1.76-2.27,3.43-4.64,5-7.07a28.88,28.88,0,0,0,2.45-5c1.18-3.05,2.19-6.17,3.28-9.27,7.71-22,15.36-44,21.69-66.39a72.28,72.28,0,0,1,3.08-9.11,25.47,25.47,0,0,0,1.79-5.91c.22-1.25.31-2.53.49-3.79a50.48,50.48,0,0,1,1.31-7.9,13.77,13.77,0,0,0,.55-5.7c-.47-4.59-.92-9.2-1.66-13.75-1.2-7.33-2.6-14.62-4-21.92a13.63,13.63,0,0,0-1.14-2.95c-1-2.32-2.25-4.56-3.14-6.93a68,68,0,0,1-2-6.93,36.76,36.76,0,0,0-5-11.74,113.32,113.32,0,0,1-12-22.65,48.46,48.46,0,0,0-8.57-13.92c-17.49-20.2-34.84-40.52-53.59-59.57a22.18,22.18,0,0,1-3.2-3.86,21.12,21.12,0,0,0-5.41-5.58c-2.65-2.05-5.54-3.87-7.81-6.29s-5.2-3.64-8-5.08a26.79,26.79,0,0,0-2.75-1.22Q322,39.24,307.69,34a5.68,5.68,0,0,0-2.18-.24,32.69,32.69,0,0,1-9.34-1.05c-1.36-.34-2.76-.57-4.09-1-5.95-2-12.06-2.14-18.26-1.78A97.28,97.28,0,0,1,262,29.87c-5.07-.33-10.11-1.05-15.18-1.47a23.09,23.09,0,0,0-6,.16c-11.52,2.09-23,4.21-34.51,6.52-14.49,2.91-29,5.81-43.31,9.53a86.76,86.76,0,0,1-10.79,2.22,27.32,27.32,0,0,0-6.76,1.74c-3.09,1.26-6.21,2.48-9.32,3.71-.43.17-.89.28-1.33.42a12,12,0,0,0-2.77,1,87,87,0,0,0-7.93,5.46c-7.62,6.23-15.13,12.59-22.67,18.91a3.93,3.93,0,0,0-1,1.22c-2.21,4.55-5.63,8.14-9.22,11.56a42.62,42.62,0,0,0-9.27,12.76,95.36,95.36,0,0,1-11.48,18.35c-.79,1-1.53,2-2.29,3a36.72,36.72,0,0,0-6.28,12c-.58,2.12-1.43,4.17-2.17,6.26C51.78,165.81,44,188.38,37.5,211.39a52.41,52.41,0,0,1-2.71,7.76,23.42,23.42,0,0,0-1.73,5.72c-.22,1.25-.3,2.53-.49,3.79-.39,2.65-.49,5.39-1.3,7.9a14.47,14.47,0,0,0-.53,6.3c.59,5.32,1.23,10.64,2.08,15.92s2,10.65,3,16c.47,2.79,1,5.49,2.66,7.89a15.46,15.46,0,0,1,1.8,4c.81,2.41,1.61,4.83,2.2,7.3a42.09,42.09,0,0,0,6.41,14.39,99.39,99.39,0,0,1,10.25,19.3c1.08,2.66,2.29,5.28,3.63,7.82a28.81,28.81,0,0,0,3.13,4.64c1.92,2.4,4,4.68,6,7,16,18.66,32.06,37.25,49.31,54.78a30.6,30.6,0,0,1,4,4.75A21.72,21.72,0,0,0,130.3,412l7.88,6.23c.31.25.58.55.88.81a12.21,12.21,0,0,0,2.39,2c3.85,1.87,7.69,3.8,11.68,5.32,8.12,3.1,16.34,6,24.53,8.89a4.6,4.6,0,0,0,1.75.32c4.69-.31,9.18.71,13.65,1.94,1.42.39,2.85.72,4.27,1.09a28.33,28.33,0,0,0,9.56.93,127,127,0,0,1,28.43,1.1c2.63.36,5.31.32,8.1.47.93-3.79,1.8-7.33,2.69-11-1.25,0-2.17,0-3.1,0-4.48.07-9,.25-13.45.21a30,30,0,0,1-11-2.18c-2.48-1-5-1.79-7.6-2.55-5.39-1.59-11-1.72-16.51-1.95a51.34,51.34,0,0,1-27.21-8.54c-4.77-3.2-9.84-6-14.71-9a54.51,54.51,0,0,1-7.21-5.06,85.79,85.79,0,0,0-16.11-11.23,31.06,31.06,0,0,1-7.56-5.59,61.91,61.91,0,0,0-10.09-8.23,24.64,24.64,0,0,1-4.51-4,60.57,60.57,0,0,1-8.27-11.58,11.57,11.57,0,0,0-2.69-3.17c-4-3.49-8-6.94-11.79-10.6-4.66-4.49-8.2-9.88-11.65-15.32-.41-.65-.87-1.28-1.32-1.93-1.85,1-3.47,1.95-5.14,2.78a5.28,5.28,0,0,1-2.08.59c-.87.05-1.22-.61-.76-1.35a9.87,9.87,0,0,1,1.29-1.53c1.43-1.48,2.89-2.95,4.33-4.41-.58-1.08-1.06-2-1.59-3a35.62,35.62,0,0,1-4.49-13,53.1,53.1,0,0,0-6.08-18.39c-.7-1.3-1.36-2.61-2-3.92a51.77,51.77,0,0,1-6.12-27.67c.38-5.67.27-11.38.46-17.06a48.16,48.16,0,0,1,.63-7.79,93.93,93.93,0,0,0,1.85-21.35,29.16,29.16,0,0,1,1-8.55,62.29,62.29,0,0,0,2.13-13.25,24,24,0,0,1,1.3-6.06,67.84,67.84,0,0,1,6-13.1,9.67,9.67,0,0,0,1-2.79c1.15-5.36,2-10.8,3.43-16.09,2.64-9.78,7.63-18.52,12.72-27.19a32.43,32.43,0,0,1,8.86-10c.8-.59,1.54-1.29,2.3-1.94,5.12-4.35,8.89-9.79,12.39-15.45a52,52,0,0,1,22.4-20.36c4.66-2.19,9-5,13.59-7.35A64,64,0,0,1,147.69,67a86.45,86.45,0,0,0,17.21-8.11,32.55,32.55,0,0,1,8.79-3.85,62.85,62.85,0,0,0,12.17-4.62,25.83,25.83,0,0,1,6.26-2.06,62.39,62.39,0,0,1,13.77-1.27,9.83,9.83,0,0,0,3.9-.73,96.27,96.27,0,0,1,21-6.13A134.13,134.13,0,0,1,258,39.09a26.08,26.08,0,0,1,8,1.75c2.43.93,4.89,1.81,7.39,2.57a59.66,59.66,0,0,0,16.07,2.13c10.89.29,20.95,3.11,30,9.48,4,2.85,8.48,5.11,12.66,7.76a70.89,70.89,0,0,1,8.37,5.86,86.26,86.26,0,0,0,15.3,10.63,32.89,32.89,0,0,1,8.06,5.91,61,61,0,0,0,9.94,8.11,25.89,25.89,0,0,1,4.65,4.1A60.54,60.54,0,0,1,386.65,109a9.36,9.36,0,0,0,2.43,2.88,105.76,105.76,0,0,1,13.06,11.88c7.19,8,12.73,17,17.62,26.52a28.78,28.78,0,0,1,2.58,8.61c.48,2.9,1.11,5.79,1.84,8.63,1.26,4.9,3.64,9.34,6,13.77,4.74,8.94,7.24,18.36,6.52,28.58-.38,5.47-.26,11-.45,16.45a53.14,53.14,0,0,1-.65,8.39,95.74,95.74,0,0,0-1.83,21.36,29.2,29.2,0,0,1-1,8.35,61.6,61.6,0,0,0-2.15,13.24,23.54,23.54,0,0,1-1.27,6.07,69.07,69.07,0,0,1-6,13.11,10.26,10.26,0,0,0-1,3c-1.06,5-1.86,10-3.12,14.92-2.63,10.22-7.79,19.32-13.08,28.34a34.61,34.61,0,0,1-8.87,10,51.13,51.13,0,0,0-11.74,12.84c-1.05,1.63-2.11,3.26-3.14,4.9a52,52,0,0,1-21.88,19.8c-4.82,2.29-9.38,5.15-14.11,7.64a57.58,57.58,0,0,1-8.35,3.91,84.89,84.89,0,0,0-17.58,8.24,31.7,31.7,0,0,1-8.61,3.78,59.74,59.74,0,0,0-12.35,4.7,21.1,21.1,0,0,1-4.7,1.69,71.26,71.26,0,0,1-15.35,1.61,11.52,11.52,0,0,0-3.3.55c-3.94,1.3-7.85,2.7-11.76,4.06-.49.18-1,.39-1.54.62Zm42.86-293.66c.56.52,1,1,1.54,1.41,2.4,2,4.85,4,7.18,6.13a33.42,33.42,0,0,0,9.46,6,32.63,32.63,0,0,1,7.6,4.45c3.51,2.79,7.07,5.51,10.65,8.2a15.21,15.21,0,0,1,4.31,4.69c1.08,1.93,2.32,3.77,3.33,5.73,2.68,5.16,4.58,10.5,4.28,16.49-.2,3.87.12,7.76.15,11.64,0,2.74.09,5.49-.12,8.22a42.35,42.35,0,0,0,.25,11.79,22.39,22.39,0,0,1-.15,8.59c-.91,4.86-1.58,9.79-2.76,14.59-1.56,6.37-1.44,12.73-.73,19.14,0,.26,0,.62.17.75.38.3.58.4,0,.75-.25.14-.3.7-.35,1.08-.7,5.24-1.33,10.49-2.12,15.71a16.85,16.85,0,0,1-1.48,4.74,58.57,58.57,0,0,1-3.73,6.65c-3.16,4.88-6.88,9.17-12.26,11.83a96.49,96.49,0,0,0-8.62,5.14,93,93,0,0,1-10.53,5.82,30.35,30.35,0,0,0-6.32,3.83,33.77,33.77,0,0,1-10.26,5.77c-5.12,1.77-10.19,3.68-15.34,5.36a42.37,42.37,0,0,0-11.17,5.79,43.89,43.89,0,0,1-7.15,4c-4.08,1.85-8.24,3.52-12.41,5.13a18.67,18.67,0,0,1-5.21,1.33,63.72,63.72,0,0,1-8.63.06c-5.53-.32-10.82-1.42-15.57-4.6a90,90,0,0,0-8.58-4.8,96.72,96.72,0,0,1-10.66-6.4,34.18,34.18,0,0,0-6.67-3.62,33.41,33.41,0,0,1-9.63-5.69c-4.4-3.81-8.87-7.54-13.24-11.4a33.38,33.38,0,0,0-9.3-5.84,34.39,34.39,0,0,1-9-5.6,74.86,74.86,0,0,0-7.3-5.65,20.49,20.49,0,0,1-7.52-8.15c-.63-1.29-1.48-2.47-2.21-3.68l-10.89,7.51c1.52,2.44,2.51,5.18,5,7a49.11,49.11,0,0,1,8,7.62,24,24,0,0,0,9.48,6.59,97.36,97.36,0,0,1,13,6.69,11.31,11.31,0,0,1,4.09,3.8,22,22,0,0,0,6.59,6.65c2.16,1.46,4.38,2.84,6.57,4.25a20.59,20.59,0,0,0,7.84,2.93,24.87,24.87,0,0,1,9.15,3.44,29.87,29.87,0,0,0,3.77,1.84,15.36,15.36,0,0,1,6.83,5.1,11.19,11.19,0,0,0,1.2,1.29l.72-.57c.29.58.42,1.35.88,1.71,2.48,1.93,5,3.78,7.58,5.61a11.35,11.35,0,0,0,2.12,1.13c2.89,1.24,5.88,2.28,8.67,3.71,5.38,2.76,11.12,2.57,16.88,2.47a1.58,1.58,0,0,0,1.68-1.4c.38-1.69.84-3.37,1.3-5.05a15.05,15.05,0,0,1,.59-1.53c1,2.29-.17,4.45.05,6.61,2.62-.7,5.1-1.53,7.64-2a30.4,30.4,0,0,0,14.49-6.93,6,6,0,0,1,1.47-1c1.49-.66,1.91-1.93,2.14-3.37.12-.75.32-1.48.49-2.22l.25.07c-.12,1.14-.23,2.29-.35,3.48a2.47,2.47,0,0,0,.64-.07c2.77-1.47,5.55-2.93,8.3-4.44.32-.17.5-.58.73-.88l.83-1.08c.77,1.82,2.21,1.52,3.45,1.24a34.26,34.26,0,0,0,5.92-1.78c6-2.57,11.7-5.56,15.89-10.88,1.29-1.63,3.27-2.73,5-4s3.26-2.1,4.84-3.21a14.53,14.53,0,0,1,7.32-3.05,2.78,2.78,0,0,0,1.16-.27,3.65,3.65,0,0,0,.76-.81,10.93,10.93,0,0,0,2.07-.33,44.16,44.16,0,0,0,4.45-1.82,50.51,50.51,0,0,0,6-3.2c2.45-1.62,4.67-3.59,7.09-5.27a26.22,26.22,0,0,0,8.67-9.57,13.39,13.39,0,0,1,1.09-1.92,10.74,10.74,0,0,0,1.87-5,48.87,48.87,0,0,1,2.35-9.74,25.88,25.88,0,0,0,1.2-12.87,76,76,0,0,1-.63-14.22,13.07,13.07,0,0,1,1.11-5,27.35,27.35,0,0,0,2.62-9.63c.45-5.95.74-11.85-1.54-17.63-.81-2-.82-4.44-1.07-6.69-.22-1.92-.23-3.86-.38-5.79a15.13,15.13,0,0,1,1-7.87,13.35,13.35,0,0,0,.57-1.83l-1.14-.4a2.2,2.2,0,0,0,1.47-2.42c0-.8.24-1.59.29-2.39.18-3,.54-6,.43-9s-.74-6.24-1.08-9.36a23.89,23.89,0,0,0-3.11-10.08c-.8-1.32-1.47-2.71-2.31-4a11.74,11.74,0,0,0-2.14-2.6,77.64,77.64,0,0,1-9-8.6c-2.66-3-6.1-4.95-9.73-6.61-3-1.39-6-2.89-9-4.4-1.53-.78-3-1.71-4.59-2.62l-2.81,4.37-.33-.2,1.9-4.83a33.51,33.51,0,0,0-11.21-11.19c-4.56-2.91-9.2-5.37-14.81-5.63l-3.19,8.35c4.44,1.74,7.64,5,11.2,7.9l3.37-5,.35.23C307.67,140.05,306.69,141.84,305.67,143.68ZM274.74,398.2c1.62-.64,2.93-1.07,4.17-1.67q8.7-4.14,17.35-8.37a29.67,29.67,0,0,0,7.13-4.83,49.22,49.22,0,0,1,3.85-3.21,24.88,24.88,0,0,1,12.4-5.28,13.82,13.82,0,0,0,4.77-1.45,78.65,78.65,0,0,0,9.76-5.54c6.39-4.52,12.53-9.38,18.85-14a33.45,33.45,0,0,0,8.85-9.74c1.4-2.28,2.64-4.67,4.11-6.9a85.31,85.31,0,0,1,6.35-9,98.91,98.91,0,0,0,8-10.75,37.06,37.06,0,0,1,3.86-4.57,33.33,33.33,0,0,0,2.95-3,52.19,52.19,0,0,1,5.54-6.06c2.81-3,5.47-6.14,6.44-10.24A91.85,91.85,0,0,0,401,283.32c.53-4.58.73-9.2,1.12-13.81a47.9,47.9,0,0,0-.68-15c-1.32-5.79-1.22-11.56,1.37-17.1a10,10,0,0,0,.86-3.7,103.73,103.73,0,0,0,.2-10.43c-.4-8-1.62-15.83-2.67-23.73a38.63,38.63,0,0,0-4.48-14.05c-1.18-2.1-2.47-4.14-3.55-6.29a86.86,86.86,0,0,1-4.63-10,98.07,98.07,0,0,0-5.37-12.52,36.27,36.27,0,0,1-1.95-5.44c-.54-1.65-1-3.33-1.49-5s-1.24-3.39-1.65-5.14c-1.41-5.94-3.91-11.22-8.78-15.15-1.77-1.42-3.49-2.94-5.35-4.24-4.66-3.25-9.38-6.43-14.11-9.6-1.38-.93-2.84-1.77-4.28-2.61a11,11,0,0,0-1.43-.59l-8.74,15.72c.53.26.88.44,1.24.59a79.18,79.18,0,0,1,17.58,10c4.94,3.66,10.08,7.09,14,11.92a7.7,7.7,0,0,0,.88.83,9.66,9.66,0,0,1,2.77,4.34c.93,2.86,2,5.68,2.87,8.56a45.71,45.71,0,0,1,1.72,7.41,39.31,39.31,0,0,0,4.37,14.29,54.68,54.68,0,0,1,2.82,7.49c.58,1.63,1.13,3.27,1.67,4.91a17.58,17.58,0,0,1,1.15,3.82c.33,4.07.6,8.14.64,12.22.05,4.48-.15,9-.3,13.45a65.62,65.62,0,0,1-2.52,17.23,29.62,29.62,0,0,0-.73,15.26A69.5,69.5,0,0,1,385,272.38a132.91,132.91,0,0,1-1.08,13.8c-.38,3.53-.64,7.05-1.87,10.43a33.41,33.41,0,0,0-1.12,4.06,10.27,10.27,0,0,1-2.57,4.91c-1.72,1.87-3.41,3.78-5,5.73a42.57,42.57,0,0,1-7.92,7.37,28.74,28.74,0,0,0-7.5,8,47.69,47.69,0,0,1-4.43,6c-2,2.3-4.36,4.3-6.11,6.87a15.06,15.06,0,0,1-3.39,3.11,33.61,33.61,0,0,1-4,2.65c-6.31,3.52-12.63,7-19,10.44a51.34,51.34,0,0,1-13.09,5,31.52,31.52,0,0,0-14.77,7.68,54.4,54.4,0,0,1-11.3,8A3.18,3.18,0,0,0,280,379a73.72,73.72,0,0,1-4.77,17.37A16.63,16.63,0,0,0,274.74,398.2ZM315.05,68.69c.24,0,.56.14.88.18a15.51,15.51,0,0,1,7.85,3.75c3.21,2.63,6.56,5.08,9.86,7.6,1.65,1.27,3.29,2.53,5,3.76,1.35,1,2.69,2,4.11,2.85,4.8,2.94,9.68,5.79,13.65,9.85,3.74,3.82,7.36,7.78,10.92,11.78a27.19,27.19,0,0,0,6,5.29,29.33,29.33,0,0,1,7.78,7.45,34.84,34.84,0,0,0,5.21,5.82c5.32,4.42,9.23,10,13.33,15.47a19.68,19.68,0,0,1,3.83,9.59,34.59,34.59,0,0,0,4.34,13.06c.49.87.93,1.78,1.39,2.67a32.43,32.43,0,0,1,3.2,9.68,99.06,99.06,0,0,0,2.74,12.95c1,3.32,1.72,6.74,2.69,10.08s2,6.64,3.15,9.93c.58,1.7,1.36,3.34,2,5a12.78,12.78,0,0,1,.86,6.5c-.72,5.37-1.45,10.74-2.15,16.12a97,97,0,0,0-1.06,12.17,50.56,50.56,0,0,1-1.67,14.12c-1.57,5.33-3.37,10.58-4.93,15.91a30.57,30.57,0,0,0-1.27,6.67,33.54,33.54,0,0,1-2.66,10.85,36.59,36.59,0,0,0-2.48,7.61c-1.23,7.09-4.27,13.5-7.14,20a16.17,16.17,0,0,1-5,6.42,41.86,41.86,0,0,0-11.14,12.77,30.48,30.48,0,0,1-7.64,8.71,94.59,94.59,0,0,0-11.18,10.37c-1.6,1.71-3.3,3.33-5,4.9a62.25,62.25,0,0,0-8,8.72c-1,1.34-2.06,2.65-3.09,4a13.31,13.31,0,0,1-5.6,4.1q-10.12,4.11-20.23,8.29c-.74.3-1.44.72-2.15,1.08-3.45,1.77-6.86,3.64-10.37,5.27a37.38,37.38,0,0,1-6.43,2.24q-6.22,1.59-12.52,2.85A43.81,43.81,0,0,0,280.28,409a22.64,22.64,0,0,1-5.73,1.73c-2.74.57-5.58.75-8.3,1.41-3.61.89-3,.43-3.14,3.93-.09,2,0,4,0,6.16l3.81-.86c6.65-1.5,13.26-3.25,20-4.43a61.2,61.2,0,0,0,13.86-3.84,37.26,37.26,0,0,1,8.83-2.57,33.94,33.94,0,0,0,10.57-3.61,83.56,83.56,0,0,1,14.43-6,49.34,49.34,0,0,0,12.53-5.79c3.49-2.24,7-4.53,10.59-6.54a48.33,48.33,0,0,0,16.4-14.8c2.34-3.35,4.55-6.78,6.77-10.21a48.72,48.72,0,0,1,13.83-14.37,27.73,27.73,0,0,0,8.11-8.25c2.32-3.68,4.51-7.44,6.71-11.2a73.63,73.63,0,0,0,8.19-21.9c.09-.42.1-.86.15-1.3l-.29-.09-1.87,4.32c-.09-.24-.14-.31-.13-.36,2.35-8.58,4.6-17.18,8-25.42a32.08,32.08,0,0,0,2.38-9.7,39.22,39.22,0,0,1,2.82-11.67,21.67,21.67,0,0,0,1.59-7c.4-6.41.82-12.82,2.37-19.1a50.15,50.15,0,0,0,1.06-14.77c-.19-3.41-.39-6.82-.31-10.23a49.38,49.38,0,0,0-5-22.93C426.78,186,425,182.5,423.18,179a47.29,47.29,0,0,1-5.25-18.21A28.83,28.83,0,0,0,414.74,149c-2.2-4.13-4.52-8.2-6.87-12.25a72.49,72.49,0,0,0-14.53-17.32,7.89,7.89,0,0,0-.95-.64l-.16.24,2.88,3.77a22.53,22.53,0,0,1-2.3-2,175,175,0,0,1-15.67-17.22,34.78,34.78,0,0,0-7.75-7.52,31.68,31.68,0,0,1-7.5-6.92,33.27,33.27,0,0,0-9.15-8,83.47,83.47,0,0,1-12.53-9.69,42.42,42.42,0,0,0-8.75-6.37q-7.93-4.3-15.89-8.59a14.46,14.46,0,0,0-1.39-.58C314.47,60.2,314.75,64.32,315.05,68.69ZM69.72,158.47c-2.17,8.9-4.49,17.62-8,26A31.77,31.77,0,0,0,59.43,194a39.12,39.12,0,0,1-2.8,11.67,21.74,21.74,0,0,0-1.6,7c-.42,6.34-.79,12.69-2.33,18.9a50.84,50.84,0,0,0-1.11,15c.19,3.6.37,7.22.32,10.83a48.28,48.28,0,0,0,4.66,21.59c1.77,3.75,3.67,7.44,5.55,11.14a46.91,46.91,0,0,1,5.33,18.18,33,33,0,0,0,3.79,13.21,15,15,0,0,0,.85,1.36l9.49-6.92a25,25,0,0,0-3-9.89c-.51-1-1-2-1.57-3a39.31,39.31,0,0,1-4.35-13.06c-.62-3.75-1.56-7.46-2.44-11.16-.78-3.26-1.61-6.5-2.55-9.71-1-3.46-2.11-6.89-3.27-10.31-.64-1.9-1.47-3.73-2.2-5.6a12,12,0,0,1-.63-5.93c.72-5.44,1.46-10.88,2.17-16.32a97.63,97.63,0,0,0,1-12,49,49,0,0,1,1.06-11c1.5-6.23,3.48-12.35,5.4-18.47a28,28,0,0,0,1.47-7.66,21.28,21.28,0,0,1,1.82-8.38,59.31,59.31,0,0,0,4.06-13.2c1-5,3.42-9.42,5.23-14.09a22.11,22.11,0,0,1,7.57-9.92,30.58,30.58,0,0,0,8.32-9.43,41.74,41.74,0,0,1,11.56-12.93c.63-.46,1.19-1,1.78-1.52-.49-.94-1-1.69-1.27-2.49a1.14,1.14,0,0,1,.21-1c.19-.15.78,0,1,.18a19.25,19.25,0,0,1,1.62,1.45c2.65-2.51,5.07-4.92,7.62-7.19a92,92,0,0,0,13.33-14.69,14.06,14.06,0,0,1,6.69-4.91c3.32-1.24,6.6-2.61,9.87-4,2.47-1,4.92-2.11,7.36-3.2,1.94-.88,3.9-1.74,5.79-2.73,5.09-2.69,10.13-5.47,15.8-6.82,3.7-.89,7.41-1.79,11.15-2.53a50.38,50.38,0,0,0,13.12-4.21c2.09-1.06,4.59-1.35,6.93-1.87,3-.66,6.11-.93,9-1.84a60.5,60.5,0,0,1,12.29-2.82c1.07-.1,2.12-.3,3.18-.47,5.57-.92,11-.89,16.33,1.52a26.49,26.49,0,0,0,10.15,2.14c2.54.09,5.09.22,7.61.49a40.87,40.87,0,0,1,10.75,3.16c4.35,1.75,8.92,2.67,13.55,3.8,1.3-4.3,2.82-8.36,2.8-12.9-.72-.1-1.3-.23-1.89-.26-2.81-.17-5.61-.37-8.42-.46-7.78-.25-15.29-1.62-22.31-5.15A22.85,22.85,0,0,0,256.16,43c-4.94-.21-9.89-.31-14.84-.36a72.68,72.68,0,0,0-23.24,4,9.72,9.72,0,0,0-1,.47l.06.27,5.05-.69a53.11,53.11,0,0,1-7.21,2.14c-5.47,1.23-10.94,2.54-16.47,3.5-4.7.81-9.31,1.73-13.65,3.83A33.51,33.51,0,0,1,174.6,59a21.32,21.32,0,0,0-6.31,1.9c-1.51.71-3,1.53-4.51,2.19-4.06,1.71-8.07,3.6-12.25,5a63.81,63.81,0,0,0-15.13,7.29c-3,2-6,3.84-9.07,5.57a46.86,46.86,0,0,0-15.56,14c-2.37,3.32-4.61,6.74-6.8,10.18a50.56,50.56,0,0,1-14.61,15.27,24.43,24.43,0,0,0-7.19,7.2c-2.45,3.83-4.79,7.74-7.1,11.66a74.89,74.89,0,0,0-8.43,22.45,6.39,6.39,0,0,0,0,1.07l.28.08C68.49,161.38,69.1,159.92,69.72,158.47Zm221.55,103c.07-.24.13-.48.2-.71l9.85,1.56c0-5.32.09-10.4-.06-15.48a12,12,0,0,0-1.19-4.42,23.25,23.25,0,0,1-2.13-7.9c-.17-2.2-.47-4.4-.5-6.61a17.58,17.58,0,0,0-3.5-10.48,32.62,32.62,0,0,1-4.74-9.47,29.21,29.21,0,0,0-4.54-8.44,78.26,78.26,0,0,1-5.74-8.7,18.51,18.51,0,0,0-7.2-7.6,16.33,16.33,0,0,1-6.91-7.59,14.53,14.53,0,0,0-2.89-4.29,22.31,22.31,0,0,1-5.83-8.53,5,5,0,0,0-2.92-2.85,40.76,40.76,0,0,1-4.67-2.67,3.48,3.48,0,0,0-2.81-.68,29.16,29.16,0,0,1-4.92.92,5.69,5.69,0,0,0-3,1,28.33,28.33,0,0,0-10.4,11.18q-1.89,3.66-3.94,7.23a26.37,26.37,0,0,1-8.79,9.21,36.32,36.32,0,0,1-13.29,4.84c-2.5.46-5,1-7.44,1.66a3.82,3.82,0,0,0-3.15,3.89c0,.86-.18,1.73-.24,2.59a82.29,82.29,0,0,1-4.72,23.54q-2.55,7-5.13,13.94a19.81,19.81,0,0,0-.64,11.65c1.12,4.75,2.3,9.49,3.35,14.26a5.56,5.56,0,0,0,3.61,4.18,45.25,45.25,0,0,1,6.25,3.17,59.3,59.3,0,0,0,9.77,5.1,10.19,10.19,0,0,1,6.73,8.32c.45,2.71.79,5.43,1.18,8.15a16,16,0,0,0,6.64,10.82,8.6,8.6,0,0,0,5.24,1.7,19.12,19.12,0,0,0,7.39-1.71c5.49-2.24,11.07-4,17.1-3.89a5.77,5.77,0,0,0,4.16-1.71q2-1.95,4-3.94a16.46,16.46,0,0,1,5.62-4.14,38.45,38.45,0,0,0,8.73-5.27,67.84,67.84,0,0,1,6-3.58,9,9,0,0,0,.8-.62l-5.89-1.49,0-.41,14-.26a13.17,13.17,0,0,0,3.39-.13,69.16,69.16,0,0,0,8-2.76c3.7-1.59,5.36-4.73,5-9.07C297.8,264,294.29,263.35,291.27,261.43Zm35.22-121.12a120.68,120.68,0,0,0,12.13,6.58,33,33,0,0,1,13,9.54c2,2.54,4.14,5,6.21,7.54a4.18,4.18,0,0,0,.4.44c4.46,3.83,6.19,9.15,7.7,14.5,1.22,4.31,2.09,8.71,2.94,13.11a32.74,32.74,0,0,1,.46,6.18,34.82,34.82,0,0,1-.51,5.19,56.69,56.69,0,0,1-1.39,6.86,13.37,13.37,0,0,0-.64,4.52c.12,2.2.24,4.41.23,6.62a19.42,19.42,0,0,0,1.15,7.29A31.43,31.43,0,0,1,370,242.1c-.33,5.56-.76,11.08-3.14,16.26a7.1,7.1,0,0,0-.54,2.93q0,5.43.18,10.84c.06,1.8.29,3.6.43,5.4.53,6.63-2.31,12.51-4.2,18.6-.57,1.85-1.28,3.65-2,5.45a17.53,17.53,0,0,1-1.8,4,81.42,81.42,0,0,1-6.29,7.79c-2.19,2.34-4.69,4.39-7.06,6.56-1.39,1.26-2.72,2.59-4.19,3.75-3.84,3.05-8.41,4.8-13,6.13a30.43,30.43,0,0,0-9.87,4.59,5.78,5.78,0,0,1-.86.52,24,24,0,0,0-8.09,6.46,22.1,22.1,0,0,1-7,5.65c-1.43.75-2.81,1.56-4.25,2.28-4.19,2.13-8.45,4.05-13.22,4.49a6.12,6.12,0,0,0-1.21.37c-.89,6.21-1.76,12.26-2.68,18.69a25.92,25.92,0,0,0,2.36-1.4c3-2.32,6.09-4.6,9-7.06a39.51,39.51,0,0,1,10.21-6.28c2.16-.91,4.35-1.74,6.56-2.51a82.25,82.25,0,0,0,11.95-5.2c5.78-3.09,11.57-6.17,17.4-9.17a14.13,14.13,0,0,0,5.63-4.37,17,17,0,0,1,2.11-2.14c.56-.57,1.12-1.14,1.64-1.75q2.69-3.12,5.33-6.26a31,31,0,0,0,2.53-3.11,30.93,30.93,0,0,1,6.9-7.22,45,45,0,0,0,4.92-4.43c2.74-2.93,5.37-6,8-9a7.81,7.81,0,0,0,1.51-2.77,106.43,106.43,0,0,0,3.59-16.24c1-8.36,1.51-16.69-.33-25-1.61-7.23-1.12-14.33.25-21.51a105,105,0,0,0,1.43-12.14c.36-5,.5-10,.67-15s.84-9.9-1.39-14.6a7.36,7.36,0,0,1-.25-1.17c-.21-.71-.45-1.4-.7-2.09-.81-2.27-1.62-4.53-2.45-6.79-.65-1.75-1.22-3.54-2-5.23a26,26,0,0,1-2.33-8.07,43.61,43.61,0,0,0-2.14-9.37c-1-3-2-6.09-3.11-9.12a6.57,6.57,0,0,0-1.16-2.3,78.52,78.52,0,0,0-7.48-7.56c-5.65-4.6-11.35-9.16-17.88-12.55a64.73,64.73,0,0,0-8.34-3.67ZM138.68,286.67c1.15,2,2.19,3.76,3.1,5.54a13.73,13.73,0,0,0,4.57,5,98.3,98.3,0,0,1,7.82,6,40,40,0,0,0,9.44,6,40.06,40.06,0,0,1,7.11,4.08c5.74,4.28,11.34,8.74,17,13.18a31.25,31.25,0,0,0,7.64,4.35,27.5,27.5,0,0,1,6.34,3.37,137.21,137.21,0,0,0,13.91,9.15c2.08,1.22,4,2.64,6,4l3.49,2.35a3.57,3.57,0,0,0,3.39.6,5.35,5.35,0,0,1,2.58-.07,68.8,68.8,0,0,0,11.2.72,14.23,14.23,0,0,0,6.19-1.4c3.17-1.44,6.36-2.85,9.63-4a40.9,40.9,0,0,0,9.55-5,43.16,43.16,0,0,1,7.27-4.2c6.69-2.89,13.48-5.56,20.24-8.26a23.86,23.86,0,0,0,6.86-4.1,25.42,25.42,0,0,1,7.54-4.53,85.16,85.16,0,0,0,11-5.38c3.21-1.79,6.54-3.36,9.81-5,1.31-.67,2.67-1.27,3.9-2.06a4.88,4.88,0,0,0,1.26-1.67c.53-.92.92-1.92,1.49-2.81,2.13-3.32,4.41-6.55,6.43-9.93a12.41,12.41,0,0,0,1.41-4.32c.71-4.49,1.27-9,1.87-13.51a11.17,11.17,0,0,0,0-1.43l-9.62,1.74a52.37,52.37,0,0,1-2.62,6.93,32.56,32.56,0,0,1-16.59,15.1,48.45,48.45,0,0,1-5.88,2,14.76,14.76,0,0,0-7.3,4.37c-2,2.21-4.08,4.42-6.09,6.67a68.15,68.15,0,0,1-15.06,12.87c-4.16,2.56-8.3,5.17-12.46,7.73a54.44,54.44,0,0,1-13.3,6c-4.11,1.2-8.27,2.23-12.43,3.25a25.05,25.05,0,0,1-4,.5c-4,.29-7.65-1.05-11.24-2.58-5.65-2.42-11.26-5-16.94-7.32a26.18,26.18,0,0,1-11.11-8.32,30,30,0,0,0-8.21-7.31,56,56,0,0,1-13.9-12,28.75,28.75,0,0,0-11.57-8.41c-2.85-1.15-5.66-2.41-8.44-3.73a17.57,17.57,0,0,1-7.82-7.27c-.56-1-1.16-1.91-1.77-2.91ZM136.25,132c.33-.45.58-.76.8-1.09a19,19,0,0,1,6.32-5.78c6.72-4,13.64-7.63,20.54-11.31a56.94,56.94,0,0,1,14.22-5.41,29.32,29.32,0,0,0,13.41-6.9,79.07,79.07,0,0,1,23.4-14.19c1.43-.59,2.8-1.29,4.23-1.84C221.1,84.7,223,84,225,83.35s4-1,6-1.58a9.55,9.55,0,0,1,4.95-.19c1.49.38,3,.66,4.52.92a53.35,53.35,0,0,1,13.68,3.83,27.6,27.6,0,0,0,11.28,2.5,36.44,36.44,0,0,1,10.45,1.8,9.62,9.62,0,0,0,2.73.56,18.56,18.56,0,0,1,6.61,1.54c.47.2,1,.34,1.58.55l3.94-13.7a20.27,20.27,0,0,0-7.49-2.34c-4.13-.32-8.28-.5-12.42-.6-4.29-.1-8.59-.11-12.77-1.16a57,57,0,0,0-12.33-1.42,20.49,20.49,0,0,1-5.91-1,21.11,21.11,0,0,0-4.45-1.15,48.16,48.16,0,0,1-7.61-1.72,25.12,25.12,0,0,0-10.93-.8A41.75,41.75,0,0,0,206,72.94q-8.25,3.93-16.45,7.94a33.89,33.89,0,0,0-7.8,5.25,55.85,55.85,0,0,1-5.36,4.22,20.53,20.53,0,0,1-9.78,3.89,21.39,21.39,0,0,0-7.93,2.69c-10.88,5.81-20.24,13.74-29.8,21.4a21.81,21.81,0,0,0-2.41,2.64ZM101.08,310.46c2.27,3.29,3,6.9,3.81,10.49a4.91,4.91,0,0,0,.37,1.14c1.3,2.53,1.76,5.32,2.55,8,1.32,4.46,3.17,8.7,6.84,11.81,2.49,2.12,5,4.24,7.65,6.16,3.46,2.52,7.08,4.82,10.59,7.28,4.13,2.89,8.37,5.55,13.32,6.84a16.16,16.16,0,0,1,2.07.77,26.24,26.24,0,0,1,11.51,8.43,17.16,17.16,0,0,0,4.46,4,85.38,85.38,0,0,0,10.12,5.7c7.44,3.35,15,6.44,22.53,9.57a25.61,25.61,0,0,0,4.23,1.22,50.25,50.25,0,0,0,12,.75,67.55,67.55,0,0,1,17.52,1.86,19.32,19.32,0,0,0,6.8.44q1.14-4.56,2.24-8.86c-4.3-1.59-8.41-3.17-12.56-4.61a11.86,11.86,0,0,0-4.13-.78c-6.65.22-12.88-2.24-19.37-3a15.63,15.63,0,0,1-4.15-1.44,38.46,38.46,0,0,1-4.3-2.17c-5.86-3.5-11.72-7-17.52-10.61a52.41,52.41,0,0,1-11.26-9A33.13,33.13,0,0,0,151.69,345a71.18,71.18,0,0,1-20.26-10.87c-5-3.67-10.23-7.11-14.21-12a3.42,3.42,0,0,0-.58-.56,10.82,10.82,0,0,1-3.37-5.34c-1.16-3.7-2.47-7.35-3.78-11.23ZM90.89,347.18a143.06,143.06,0,0,1,16.8,17.74,46,46,0,0,0,8.68,8.56,42,42,0,0,1,7.16,6.68,37.4,37.4,0,0,0,9,7.87,77.88,77.88,0,0,1,11.94,9.14,52.39,52.39,0,0,0,11.78,8.29c4.15,2.16,8.26,4.4,12.35,6.67a46,46,0,0,0,13.29,5,100.52,100.52,0,0,0,16.77,1.57,50.79,50.79,0,0,1,21.12,5,25.59,25.59,0,0,0,7.43,2.37c6.26.95,12.54.76,18.83.55a3.8,3.8,0,0,0,.87-.29c.59-3.31,1.19-6.62,1.83-10.16-1.58.16-2.83.28-4.08.42a19.71,19.71,0,0,1-10.25-1.22,39.81,39.81,0,0,0-15.84-3.06A31.21,31.21,0,0,1,207,410a89.64,89.64,0,0,0-14-4.37,50.27,50.27,0,0,1-5.42-1.44,75.29,75.29,0,0,0-17-3.64,16.22,16.22,0,0,1-9.2-4.05c-2.89-2.48-6-4.7-9-7-1.81-1.38-3.63-2.75-5.47-4.09-1.45-1.06-2.91-2.14-4.44-3.08-4.67-2.88-9.43-5.67-13.31-9.6S121.79,365,118.25,361a29.57,29.57,0,0,0-6.46-5.67,24,24,0,0,1-7-6.77,48.31,48.31,0,0,0-7-7.67,55.49,55.49,0,0,1-5.9-6.27c-3.18-4-6.68-7.85-8.82-12.83l-8.46,5.5a69,69,0,0,0,18.68,23Zm32.93-222.53c-1.48,2.5-2.65,4.67-4,6.72a87.59,87.59,0,0,1-6.49,9.4,98.86,98.86,0,0,0-8.4,11.23,33,33,0,0,1-3.61,4.26,35.58,35.58,0,0,0-3.21,3.3A47.17,47.17,0,0,1,93,165.17c-3,3.08-5.68,6.44-6.81,10.71a45.5,45.5,0,0,0-1.35,6.27c-.49,4.19-.78,8.4-1.12,12.6-.28,3.4-.52,6.8-.79,10.21-.31,3.8.69,7.44,1.3,11.13.84,5.1.77,10.1-1.35,15a20.52,20.52,0,0,0-1.22,5.24,26.72,26.72,0,0,0-.24,5.21c.35,5.74.79,11.48,1.25,17.21.13,1.57.43,3.13.66,4.68a2.73,2.73,0,0,0,.57-.05c4.45-2,8.89-4,13.37-6,1-.42,1-1.1,1.05-1.92.08-3.55.13-7.1.24-10.64a66.25,66.25,0,0,1,2.56-17.43,29.53,29.53,0,0,0,.71-15.07,66.6,66.6,0,0,1-1.44-13.95,101.9,101.9,0,0,1,1-14.61c.47-3.3.38-6.68,1.56-9.88a56.65,56.65,0,0,0,1.57-5.6,9.88,9.88,0,0,1,2.32-4.39c1.36-1.47,2.7-3,4-4.52a60.05,60.05,0,0,1,9.86-9.39,30.39,30.39,0,0,0,5.23-5.22c2.32-2.93,4.35-6.09,6.66-9.38Zm-1.75,173-9.17,5.11a9.51,9.51,0,0,0,.21,1.34c1.33,4,2.65,8,4,12a6.38,6.38,0,0,0,1.37,2.18,113.23,113.23,0,0,0,12.58,11.48c7.14,5.45,14.72,10,23.3,12.72a34.37,34.37,0,0,1,9.85,4.89c2.27,1.66,4.42,3.48,6.64,5.19,3.07,2.37,6,4.91,9.27,7,6.6,4.34,13.34,8.46,20,12.66a6.43,6.43,0,0,0,1.76,1c2.92.7,5.86,1.34,8.8,1.95,2.29.48,4.59.87,6.89,1.3a29.75,29.75,0,0,0,4.14.75A31.33,31.33,0,0,1,233,380a26.92,26.92,0,0,0,7.81,2.05c.94-3.84,1.87-7.58,2.8-11.36-.37-.09-.57-.21-.74-.17-3.79.81-7.49,0-11.13-.81s-7.06-2-10.58-3.09c-2-.6-4-1.13-5.92-1.88-4.89-1.92-8.92-5.24-12.62-8.77a25,25,0,0,0-7.59-5.36,14.61,14.61,0,0,1-2.28-1.28A25.44,25.44,0,0,0,184,346a28.68,28.68,0,0,1-7-2.37,96.48,96.48,0,0,1-8.69-5.39,30.36,30.36,0,0,1-7.82-7.43,7.43,7.43,0,0,0-2.15-2.07c-3.9-2.2-7.81-4.4-11.83-6.36-4.87-2.39-9.31-5.26-12.75-9.53-2-2.53-4.14-5-6.21-7.52a2.51,2.51,0,0,0-.26-.31A19.56,19.56,0,0,1,122.07,297.63ZM236.58,398.05c-3.37-.63-6.63-1.35-9.94-1.82-3.5-.5-7-.86-10.56-1.09-2.8-.18-5.62-.05-8.43-.09a38.81,38.81,0,0,1-14.83-3.1c-1.84-.8-3.73-1.49-5.59-2.22a196.89,196.89,0,0,1-27.93-13.61,22.62,22.62,0,0,1-3.77-2.65,33.38,33.38,0,0,0-11.14-6.63,39.22,39.22,0,0,1-8.93-4.51c-5.23-3.62-10.48-7.21-15.56-11a43.35,43.35,0,0,1-6.08-5.81c-4.23-4.71-6.77-10.38-8.94-16.24a24.3,24.3,0,0,0-1.07-2.81,31.57,31.57,0,0,1-2.94-9.13,13.74,13.74,0,0,0-2.22-5.24l-12.39,7.7c.81,1.54,1.44,3,2.27,4.22,1.54,2.35,3.22,4.6,4.81,6.92a42.28,42.28,0,0,0,6.94,7.76,36.46,36.46,0,0,1,5.57,5.75A62,62,0,0,0,116,355a48.89,48.89,0,0,1,8.91,9.49,34.12,34.12,0,0,0,10.49,9.78A64.27,64.27,0,0,0,144,379a78,78,0,0,1,16.48,9.88c1.64,1.26,3.31,2.5,4.91,3.82a10.71,10.71,0,0,0,5.61,2.44,78.09,78.09,0,0,1,15.72,3.08c3.17,1.07,6.42,1.88,9.59,2.93q5.91,1.93,11.73,4.1a35.31,35.31,0,0,0,9.31,2.32c1.53.13,3,.42,4.58.57A51.68,51.68,0,0,1,236,411.8c4.44,1.77,8.9,1,13.38.39q1-5.88,2-11.14c-2.8-.79-5.37-1.47-7.92-2.26a18.81,18.81,0,0,0-5.72-.73L236.49,400l-.22-.09C236.37,399.28,236.48,398.65,236.58,398.05Zm49-300.65a6.93,6.93,0,0,0-3.67-1.67c-1.44-.25-2.87-.64-4.3-1-.91-.21-1.81-.45-2.73-.62-2.1-.39-4.21-.72-6.31-1.1a44.31,44.31,0,0,0-4.92-.92,31.65,31.65,0,0,1-10.1-2.39A36.25,36.25,0,0,0,248,87.86c-4.24-1-8.5-1.8-12.77-2.6a7.08,7.08,0,0,0-3,.06c-5.24,1.34-10.56,2.43-15.45,4.9-.65.33-1.36.55-2,.83A65.31,65.31,0,0,0,195,103a49.51,49.51,0,0,1-18.34,10.42,77.49,77.49,0,0,0-12.7,5.48c-4.12,2.22-8.28,4.36-12.43,6.54l-5.5,2.95,9.13,11.41a27.35,27.35,0,0,1,4-1,10.47,10.47,0,0,0,4.77-2,53.25,53.25,0,0,1,4.56-2.91,22.37,22.37,0,0,0,6.83-5.51,25.22,25.22,0,0,1,8.05-6.53c1.61-.81,3.18-1.71,4.8-2.52a37,37,0,0,1,12.74-4.06,8.36,8.36,0,0,0,3.35-1.21c3.89-2.36,7.69-4.84,11.53-7.27.85-.54,1.73-1,2.56-1.58,5.18-3.43,11.28-3.86,17.09-5.21,2.2-.52,4.46-.83,6.7-1.17a15.38,15.38,0,0,1,4-.36A74.2,74.2,0,0,1,256,100.1c4.4,1.12,8.73,2.54,13,4a28.89,28.89,0,0,1,5.88,3c2.15,1.36,4.1,3,6.15,4.5a7.2,7.2,0,0,0,1.18.58ZM116.16,276.67c0-2.38-.11-4.52,0-6.65s.45-4.52.8-6.77a22.31,22.31,0,0,1,1-4.27,10.82,10.82,0,0,0,.65-4.32c-.11-2.28-.25-4.55-.24-6.82a20.31,20.31,0,0,0-1.15-7.3,29.7,29.7,0,0,1-1.86-12.21c.3-5.89.6-11.77,3.12-17.27a7.71,7.71,0,0,0,.58-3.13c0-3.54,0-7.09-.15-10.64-.06-1.87-.31-3.73-.45-5.59-.5-6.7,2.34-12.63,4.29-18.76.55-1.71,1.18-3.4,1.85-5.07a22.6,22.6,0,0,1,2.06-4.55,45.3,45.3,0,0,1,7.85-9.09c2.46-2,4.68-4.33,7.06-6.56L135.13,139c-2.07,2.43-4.1,4.57-5.83,6.93a29.49,29.49,0,0,1-6.22,6.49,42.79,42.79,0,0,0-6.89,6.42c-2.15,2.48-4.37,4.9-6.47,7.42a7.9,7.9,0,0,0-1.53,2.76,108.93,108.93,0,0,0-3.57,16c-1.09,8.5-1.51,16.95.29,25.36a45.53,45.53,0,0,1,.37,17.75c-.53,3-1.27,5.91-1.52,8.9-.45,5.46-.61,11-.85,16.44a4.57,4.57,0,0,0,.33,1.24c0,.14.15.36.09.41-1,1-.66,2.26-.74,3.41-.15,2.21-.08,4.43-.24,6.63a11.5,11.5,0,0,0,.83,5.88,27.89,27.89,0,0,1,.9,3.07c.73,2.13,1.51,4.24,2.33,6.52ZM88.49,288.6c-.86-1.55-1.61-2.89-2.33-4.24a35.76,35.76,0,0,1-4.37-12.64c-.3-2.6-1.17-5.1-1.19-7.75A43.28,43.28,0,0,0,80,259.2a202.1,202.1,0,0,1-1.48-20.42,52.45,52.45,0,0,1,.7-12.19,25.35,25.35,0,0,0,.11-9.19A52.57,52.57,0,0,1,78.48,205c.49-5.8,1-11.61,1.59-17.4a39.77,39.77,0,0,1,3-11.41A55.1,55.1,0,0,1,92,162.44a28.43,28.43,0,0,0,2.11-2.67,29.2,29.2,0,0,1,5.48-6.1,15.08,15.08,0,0,0,2.72-2.93,92.3,92.3,0,0,1,9-11.31c4.48-4.89,7.14-11,10.73-16.52l-5.92-6.5c-3.9,2.83-7.61,5.66-10.33,9.57a64.76,64.76,0,0,1-13.43,14.56,13.67,13.67,0,0,0-4.06,5.16c-1.51,3.21-3.11,6.38-4.44,9.66-.95,2.34-1.53,4.83-2.25,7.26-.93,3.14-1.62,6.36-2.8,9.4a49.49,49.49,0,0,0-2.84,9.18,78.29,78.29,0,0,1-6,19.92,9.43,9.43,0,0,0-.77,2.28,62.17,62.17,0,0,0-1,17.38c.44,4.4,1,8.79.47,13.22-.45,4-.87,8-1.45,12a13.34,13.34,0,0,0,.94,7.63,69.22,69.22,0,0,1,4.54,12.84c1.07,4.7,2.24,9.37,3.29,14.07.51,2.28.87,4.6,1.27,6.91.37,2.15.71,4.31,1.1,6.67ZM293.78,69.48c-1-.3-1.75-.54-2.52-.75A103.28,103.28,0,0,1,277.4,64a35.62,35.62,0,0,0-10.7-2.51c-4.79-.47-9.62-1-14.1-2.91a25.82,25.82,0,0,0-14.51-1.87c-3.69.6-7.51.66-11.09,1.64a119.29,119.29,0,0,1-15.2,3.54c-3.34.46-6.58,1.75-9.82,2.79a61.83,61.83,0,0,1-12.46,3,34.75,34.75,0,0,0-7.46,1.42A53.05,53.05,0,0,0,166.8,77a67.87,67.87,0,0,1-15.33,8.68c-2.1.87-4.15,1.87-6.3,2.61a12.27,12.27,0,0,0-6.27,4.75,76.79,76.79,0,0,1-12.46,13.58c-2.77,2.41-5.31,5.07-8.1,7.76l5.84,4.92c2.43-2.21,4.71-4.35,7.07-6.41,1.46-1.27,3.05-2.4,4.56-3.62a196.45,196.45,0,0,1,25.9-17.56,24.89,24.89,0,0,1,4.55-2.08,37.21,37.21,0,0,0,11-6.12,46,46,0,0,1,7.29-4.94c6.22-3.12,12.52-6.08,18.9-8.83,8-3.46,16.42-3.35,24.88-2.13,1.92.27,3.81.75,5.74.92a37.58,37.58,0,0,1,7,1.56,43.85,43.85,0,0,0,5.48,1.07c3.3.51,6.65.78,9.92,1.45A62.33,62.33,0,0,0,270,74.11c2.27,0,4.55,0,6.83,0a41.76,41.76,0,0,1,13.78,2.37,8.38,8.38,0,0,0,1,.2C292.35,74.31,293,72,293.78,69.48Zm-15.34,46.76c-.23-.58-.3-1.42-.75-1.76-2.58-2-5.25-3.93-7.91-5.85a9.85,9.85,0,0,0-1.77-.91c-3-1.29-6.06-2.5-9-3.85a25.74,25.74,0,0,0-11.48-2.45c-1.07,0-2.14-.06-3.21,0a15.29,15.29,0,0,0-3.71.59,70.55,70.55,0,0,1-10.95,3.23,24.31,24.31,0,0,0-11,5,98.3,98.3,0,0,1-12.31,7.91,11.94,11.94,0,0,1-5.51,1.67,21,21,0,0,0-7.94,2q-2.9,1.38-5.77,2.8a26.79,26.79,0,0,0-9.4,7.36,21.14,21.14,0,0,1-6.19,5,45,45,0,0,0-4.18,2.75,15.56,15.56,0,0,1-7.85,3.32,12,12,0,0,0-1.85.49l4.84,8.63a11,11,0,0,0,1-.51,84,84,0,0,1,10.91-6,30.29,30.29,0,0,0,5.91-3.72,31.69,31.69,0,0,1,9.36-5.34c5.55-1.95,11.08-4,16.66-5.84a34.76,34.76,0,0,0,10.06-5.3,32.58,32.58,0,0,1,7.85-4.41c4-1.55,7.93-3.19,11.85-4.89a16,16,0,0,1,6.4-1.49c2.27,0,4.56-.17,6.82,0,5.87.33,11.46,1.44,16.58,4.71,4.15,2.66,8.66,4.78,13,7.12.08,0,.24,0,.52-.1.46-2.08.82-4.26,1.45-6.36a3.57,3.57,0,0,0-1.65-4.46Zm40.49,148.48a11.64,11.64,0,0,0,.53-1.4,19.64,19.64,0,0,0,.16-8c-1.89-11.15-4.11-22.24-5.14-33.52a25.68,25.68,0,0,0-5.49-14,16.22,16.22,0,0,1-3.27-7.25,26.61,26.61,0,0,0-6.36-12.35,50.59,50.59,0,0,0-13.88-11.72,24.64,24.64,0,0,1-8.11-6.77c-.1-.13-.3-.18-.45-.26-1.48,3.12-2.93,6.16-4.4,9.28.65.44,1.29.92,2,1.32a19.52,19.52,0,0,1,7.8,8.42,44.89,44.89,0,0,0,5.73,8.71,23.8,23.8,0,0,1,4.33,7.65,45.21,45.21,0,0,0,6,12,15.22,15.22,0,0,1,2.76,8.28c.08,2.27.1,4.55.1,6.82a25.25,25.25,0,0,0,1.84,10,14.77,14.77,0,0,1,1.16,4.85c.23,4.61.25,9.23.34,13.84,0,.72,0,1.44,0,2.27ZM144,150.53c-1.25.92-2.33,1.83-3.51,2.56a32.23,32.23,0,0,0-12.21,13.27A16,16,0,0,0,126.6,171a50.59,50.59,0,0,1-2.38,9.93A25.88,25.88,0,0,0,123,193.82a88.82,88.82,0,0,1,.69,14,11.57,11.57,0,0,1-1.19,5.44,23.35,23.35,0,0,0-2.54,9c-.5,6.09-.85,12.12,1.47,18,.81,2.05.84,4.44,1.09,6.69.22,1.92.22,3.86.37,5.79a15,15,0,0,1-1,7.87,10.87,10.87,0,0,0-.46,1.75l9.49-3.9c.16-2.35.24-4.62.48-6.87a35.84,35.84,0,0,0-.32-10.79,22.94,22.94,0,0,1,.16-8.58c.94-5,1.8-10,2.81-15s1.76-9.88.95-14.94a32.26,32.26,0,0,1,.57-10.77,64.8,64.8,0,0,0,1-8,20.4,20.4,0,0,1,3.31-10.78c.6-.88,1-1.91,1.61-2.78,1.62-2.28,3.21-4.6,5-6.75,1.44-1.72,3.15-3.21,4.8-4.86C149,155.9,146.59,153.31,144,150.53Zm129.87,1.2c.82-4,1.59-7.55,2.24-11.14a2.21,2.21,0,0,0-.65-1.55,11,11,0,0,0-4.86-3.09c-5.79-1.89-11.56-3.83-17.42-5.46a27.68,27.68,0,0,0-6.95-.55,37.71,37.71,0,0,0-5.19.43,4.93,4.93,0,0,1-1.85-.44c-.73-.17-1.64.4-2.46.69A73.39,73.39,0,0,0,215,142.86c-2.74,2.25-5.56,4.42-8.42,6.5A49.63,49.63,0,0,1,194,156.42c-5.67,2-11.32,4.09-17,6-5,1.65-8.89,5-13.06,8.07,2.38,3.74,4.65,7.34,7,11.08a10.06,10.06,0,0,0,.53-1.1,10.5,10.5,0,0,1,6.68-6.75,76.05,76.05,0,0,1,8.18-2.71,57.62,57.62,0,0,0,22.28-11.5q7.5-6.06,15.17-11.9a43,43,0,0,1,15.93-7.81A24.17,24.17,0,0,1,254.63,141a28.24,28.24,0,0,0,6.1,1.92c4.93.8,8.59,3.5,11.71,7.16C272.81,150.5,273.19,150.93,273.88,151.73ZM145.64,253.1c1.06-4.24,2-8.27,3.08-12.28a30.57,30.57,0,0,0,.49-13.91,38.57,38.57,0,0,1-.12-15.94,156.53,156.53,0,0,0,3.17-29.68,39.61,39.61,0,0,1,.49-5,7.54,7.54,0,0,1,4.07-5.87c1-.51,1.92-1.13,3.1-1.82l-6.19-7.6c-2,1-3.82,1.59-4.16,3.95a4.28,4.28,0,0,1-1.11,1.87,57.79,57.79,0,0,0-6.54,10.08,13.19,13.19,0,0,0-1.34,4.15c-.61,4-.94,8-1.59,11.92a33.47,33.47,0,0,0-.42,9.37,35.49,35.49,0,0,1,.14,9.21c-1,6.55-1.82,13.11-2.75,19.66-.41,2.92-1,5.86-.38,8.78a34.86,34.86,0,0,1,0,13c-.21,1.22-.24,2.47-.37,4Zm16.26-4.88c-.6-5,1.29-9.36,2.42-13.88.45-1.82.79-3.66,1.2-5.48.63-2.81,1.26-5.61,1.95-8.4.53-2.14,1.26-4.23,1.7-6.39,1-5,.54-10-.17-15a30,30,0,0,1,.47-12.15c.28-1,.54-2.07.83-3.1a1.4,1.4,0,0,0-.33-1.63c-2.84-2.61-4.81-5.9-7-9-.34-.48-.71-.94-1.13-1.49-1,.53-1.8,1.08-2.7,1.49a5.31,5.31,0,0,0-3.22,4.91c-.16,2.2-.34,4.41-.38,6.61-.17,8.5-.57,17-2.42,25.33a35.64,35.64,0,0,0,.43,17.85,24,24,0,0,1,.31,11.73c-.64,3-1.46,6-2.19,9-.2.81-.35,1.63-.58,2.74ZM278.27,131.09c-1.09-.67-2-1.22-2.9-1.79L262,120.77c-.79-.51-1.59-1-2.38-1.49a2.81,2.81,0,0,0-2.29-.32,9.47,9.47,0,0,1-2.77.19c-3.6-.19-7.2-.42-10.8-.67a14.35,14.35,0,0,0-7.53,1.67,66.45,66.45,0,0,1-8.32,3.48,40.46,40.46,0,0,0-10.45,5.44,39.28,39.28,0,0,1-7,4c-6.88,2.94-13.88,5.62-20.78,8.52a22.14,22.14,0,0,0-5.35,3.11,36,36,0,0,1-10.73,6.17,23.25,23.25,0,0,0-2.76,1.2c-2.21,1.18-4.4,2.41-6.6,3.62.5,1,.86,1.73,1.23,2.46l-.3.19-1.65-2.17-7.3,3.77,5.56,7.53c1.52-1.24,3-2.32,4.28-3.53a27.44,27.44,0,0,1,6.44-4.38c2.28-1.12,4.58-2.22,6.74-3.54a33.61,33.61,0,0,1,8.41-3.72,45.77,45.77,0,0,0,13-5.8c4.3-2.84,8.67-5.58,12.87-8.56,7.67-5.46,16.24-8.68,25.33-10.71a10,10,0,0,1,5,.06,5.14,5.14,0,0,0,1.57,0c3-.12,6-.58,9-.34,7,.57,13.61,2.76,20.23,4.9a25.72,25.72,0,0,1,3.13,1.49C277.94,132.54,278.08,131.91,278.27,131.09ZM310.48,88l-5.41,16.06c.57.39,1.05.73,1.55,1A68.8,68.8,0,0,1,320.19,116a31.11,31.11,0,0,0,2.77,2.62,26,26,0,0,0,10,5.23l9.42-15.6c-1.67-.61-3.18-1.13-4.66-1.7-4.83-1.87-9.11-4.46-12.2-8.77a11.11,11.11,0,0,0-3-2.9c-3.62-2.26-7.34-4.36-11-6.51A7.45,7.45,0,0,0,310.48,88Zm-12,34.6c11,1.9,19.29,8,26.64,15.81l5.93-11.27c-.13-.19-.15-.27-.21-.29a7.25,7.25,0,0,0-.9-.4A37.37,37.37,0,0,1,318.48,120c-2.5-2-4.89-4.16-7.43-6.13-2.36-1.84-4.85-3.51-7.52-5.42C301.82,113.25,300.21,117.77,298.49,122.6ZM90.87,287.35l11.66-5.22c-1-2.84-1.2-5.73-2.65-8.3a8.85,8.85,0,0,1-1-3.43c-.33-3.46-.49-6.93-.71-10.4L98,258l-14.25,7C84.05,273.2,86.1,280.64,90.87,287.35ZM163.8,268.9c-2.57-2.89-2.4-6.18-2.27-9.47.12-3,.2-6,.27-9a11.8,11.8,0,0,0-.21-1.65c-3.27,1.18-6.32,2.35-9.42,3.37a2.21,2.21,0,0,0-1.73,2.13c-.27,3.18-.75,6.37-.74,9.55,0,3.61,1.76,6.75,3.38,10.1ZM299.26,51.5c-.45,4.67-.88,9.09-1.31,13.55a56.15,56.15,0,0,0,15.24,3.37c.22-4.45,1-8.72.19-13A46.25,46.25,0,0,0,299.26,51.5ZM96,305.55c-1.51-5.09-3.15-9.86-6-14.17L79.09,296c2.1,5.47,4.16,10.8,6.29,16.35Zm12.17-8.34c-.29-4.39-2.43-7.87-4.39-11.71l-11.18,4.56,5.85,13.8Zm173.08,58.18c-.29,0-.45-.05-.54,0-2.71,1.58-5.41,3.19-8.12,4.77a2.37,2.37,0,0,0-1.07,2c-.72,4.75-1.49,9.5-2.23,14.26-.1.67-.16,1.36-.3,2.55,3.05-1.43,5.64-2.64,8.23-3.83.87-.4,1-1.18,1.13-2,.67-3.95,1.35-7.9,2-11.86C280.71,359.36,281,357.38,281.29,355.39Zm-4,23.64c-2.94,1.26-5.56,2.4-8.21,3.49-.82.34-1,1-1.11,1.72-.64,3.75-1.31,7.49-1.95,11.24-.25,1.49-.42,3-.67,4.73A20.48,20.48,0,0,0,268,400c1.37-.27,2.71-.75,4.08-1a2.59,2.59,0,0,0,2.3-2.53c.51-3.36,1.06-6.72,1.63-10.07C276.38,384.1,276.84,381.75,277.33,379ZM296.5,156.6l6.1-9.93c-3.61-2.48-6.5-5.7-10.62-7.33L290,144l-.32-.13c.44-1.58.89-3.17,1.37-4.9l-2.21-.8c-.79,2.12-1.48,4.07-2.25,6a2.2,2.2,0,0,0,.33,2.4C289.69,150.18,293.11,153.18,296.5,156.6Zm4.07-73.24a120.52,120.52,0,0,0-3.22,16.11l5.9,3.57,5.44-16Zm-164,197.89,11.63-5.19-3.48-9.92a.45.45,0,0,0-.28,0c-3,1.72-6,3.43-9,5.2a1.64,1.64,0,0,0-.7,1.09c-.18,1.73-.26,3.47-.36,5.2a2.45,2.45,0,0,0,.9,2.13A12.83,12.83,0,0,1,136.56,281.25ZM153.3,140.69c-2.64-4.17-4.87-8.27-7.9-11.89-3.27,1.16-4.41,4.43-7,6.24,1.26,1.75,2.4,3.31,3.51,4.88s2.17,3.13,3.17,4.58Zm88.78,245.68c-1,2.85-1.94,5.67-3,8.64.69.11,1.27.18,1.84.29,1.5.3,3,.57,4.5.93,1.17.28,2.29.75,3.47,1a30.79,30.79,0,0,0,3.16.36c.78-3.42,1.5-6.58,2.29-10C250.05,388.63,246.3,386.53,242.08,386.37Zm-110.62-116c0-3.36,0-6.66-.31-10.05-2.79.76-5.31,1.36-7.77,2.16-1.48.48-2.66,1.38-2.42,3.29a8.6,8.6,0,0,1-.23,1.78c-.27,2.37-.52,4.74-.82,7.48Zm-.43,3.39L120.6,279c.53,3.22.47,6.42,1.22,9.7L132.74,283C132.14,279.78,131.6,276.85,131,273.77ZM119.46,290c-.74-3.18-1.47-6.32-2.25-9.64l-9.77,3.92c1.45,3.66,2.8,7.11,4.21,10.67Zm15.66-21,9.5-3.59c.24-3.65.46-7,.7-10.6-3.22,1.22-6.33,2.38-9.41,3.63a1.57,1.57,0,0,0-.75,1.2C135.09,262.64,135.12,265.63,135.12,269ZM155.5,144.51l-8.36,3.55c2.43,3.26,4.64,6.23,6.94,9.34l6.86-4.08Zm145.62,130c.82-.08,1.15-.08,1.46-.15l8.23-1.73a10.66,10.66,0,0,0,6.48-5.59l-12.75-1.62A13.71,13.71,0,0,1,301.12,274.54ZM296.64,104.4c-.95,5.52-1.85,10.82-2.78,16.21l2.64,1.4,5.16-14.56Zm-5.91,14.33c.21-.92.42-1.62.54-2.33.66-4,1.32-8,2-12,.36-2.31.17-2.57-2.36-3.35-1,5.44-2,10.86-3,16.42Zm-13,40.71c1.26-3.68,2.38-6.88,3.44-10.09a1.9,1.9,0,0,0,0-1.33c-.46-.92-1.06-1.76-1.76-2.88-1.41,3-2.7,5.71-3.93,8.44a1.82,1.82,0,0,0,0,1.3C276.11,156.27,276.82,157.62,277.72,159.44Zm14.19-63.27L294,97.31c1.2-5.13,2.34-10,3.52-15.1l-2.58-.9C293.93,86.38,292.92,91.24,291.91,96.17Zm41,172.3-11.32-.87c-.75,1.24-1.43,2.35-2.27,3.72l13.14-.73C332.61,269.87,332.73,269.3,332.91,268.47ZM287.3,132.22c.88-3.15,1.7-6.07,2.57-9.14l-2.8-1.18c-.7,3-1.36,5.87-2.05,8.81C285.73,131.17,286.38,131.61,287.3,132.22Zm3,1.46a7.7,7.7,0,0,0,1.05.5,7.22,7.22,0,0,0,1.06.18c.91-2.85,1.78-5.6,2.69-8.44l-2.32-1ZM255,430l-.28,0c-1.1,3-2.19,6-3.42,9.45l3.7-.75Zm28.63-294.78c-1.69,3.55-1.68,3.7.49,6.07l1.63-4.73ZM272.42,441.55c0,.17,0,.33,0,.5l9.42-.78c0-.18,0-.36-.05-.54ZM203,28.49c2.18-.13,4.37-.23,6.56-.4,1-.08,2.08-.28,3.13-.43A24.77,24.77,0,0,0,203,28.49ZM103.08,69l.29.28,3.92-4.06-.4-.38C104.82,65.42,104.47,67.67,103.08,69ZM440.65,304.62a27.42,27.42,0,0,0-3.24,6.91A23.73,23.73,0,0,0,440.65,304.62ZM262.88,424l5.41-1.67C264.88,422,263.5,422.36,262.88,424Zm-93.49,14.31a14.82,14.82,0,0,0-5.73-1.16C165.35,438.45,167.46,438,169.39,438.26ZM456,196.62l-.38.17c.51,1.74,1,3.49,1.54,5.23l.54-.16C458.18,199.81,456.44,198.41,456,196.62ZM406.26,104.4a11.5,11.5,0,0,0-4-5.88ZM316.55,30.84l-.09.46,5.47,1.35c-.23-.55-.29-.93-.41-.95C319.87,31.38,318.21,31.11,316.55,30.84ZM79.18,364.94a11.72,11.72,0,0,0,4,5.88Zm261.08,81.84c1.69-.44,1.39-2,2.1-3.27C339.86,444.68,339.79,444.8,340.26,446.78Zm133.2-193.84c-.25,2.71-.18,2.84,1.79,3.16C475.55,254.55,474.27,254,473.46,252.94ZM28.2,267.06c-.86,1.32-.48,2.6,1.56,5.43Zm117-244.58c-1.8.51-1.5,2-2.15,3.29C145.53,24.53,145.53,24.53,145.23,22.48Zm-37.54,402.7c1.39,1.17,2.51.32,3.91.08C109.25,423.86,109.25,423.86,107.69,425.18ZM373.84,44c2.18,1.49,2.42,1.49,3.78.08C376.39,42.87,375.18,43.83,373.84,44ZM10.23,213c0,1.64.16,1.92,1.8,3C12.11,213.7,12.11,213.7,10.23,213Zm41.68-87.41c.75-1.27.23-2.2.33-3.56L50.42,124ZM243.58,454.66l-.46-.38-2.63,1.52,2.44.76Zm-198.7-291,.55.23q1.43-3.09,2.86-6.16l-.44-.2Zm5.63,179.84-.37.3c.16.61.31,1.23.5,2l2-.35C52.4,343.91,51,344.33,50.51,343.45ZM432.82,123.92c-.06.17-.11.35-.16.53l2.68,1.46c-.27-1-.46-1.71-.68-2.52ZM242.49,12.74c-.31.85-.89,1.41-.18,2.31l2.53-1.65ZM433.13,347.15l1.8-1.7c-.51-.66-.64-1.6-1.8-1.33ZM378.34,404l.35.4c1.68-.55,2.06-2.28,2.79-3.19ZM229.9,10.92l.27.39L233,9.85c-.09-.17-.17-.34-.26-.5C231.71,9.76,230.47,9.65,229.9,10.92Zm200,101c.81.74,1.53,1.63,2.78,1.51C431.87,112.72,431.38,111.49,429.92,111.89Zm-174.23,346c-1.37.53-2.35.86-3,1.81C253.73,459.46,255,459.58,255.69,457.87ZM20.91,208.94c-.3,1.26-.62,2.52.28,3.67Zm443.86,47.59h-.57l.3,3.73.27,0ZM258.61,390.67c.1-.83.19-1.54.27-2.25l.21-1.86h-.48ZM55.5,357.41a4.25,4.25,0,0,0-3.11-1.71C53.49,356.67,54.09,357.74,55.5,357.41ZM42.8,133.84c.17-1,.56-2,0-3C42.31,131.83,41.88,132.81,42.8,133.84ZM150.43,31.5l.27.42L154,29.81l-.24-.38ZM375.36,55.19l.21-.42-3.14-1.59-.21.42Zm66.88,283.32c1.22-1.72,1.22-2.26.14-3.11C442.33,336.5,442.28,337.5,442.24,338.51ZM112.79,416l.22-.48L109.73,414l-.18.38ZM149.3,278.54l-.21-.49-2.77,1.34c0,.08.07.17.11.26ZM331.64,439.27l.24.39,2.8-1.72-.25-.41Zm-73.36-46.71h-.16v1.69h.16Zm-5.36,71.88c0,.11.08.23.13.35.24,0,.54.09.72,0s.3-.42.45-.64l-.21-.2Zm-215-334.76.58.08v-1.21l-.35,0ZM49.4,359.49l.37-.45-.94-.62c-.08.1-.17.2-.25.31ZM436.7,111c-.28-1-.28-1-1.19-.87ZM232.72,4.75c-.81-.41-1.26-.38-1.64.66Zm214.76,334.8-.57-.08v1.21l.36,0Z"/><path class="cls-2" d="M282.37,239.8q-1.22,9.85-2.45,19.7a5.68,5.68,0,0,1-2.46,4c-2.37,1.74-4.7,3.54-7.06,5.3a9.9,9.9,0,0,1-1.84,1.21,19.65,19.65,0,0,0-7.25,5.91,39.09,39.09,0,0,1-14.49,11.16c-3,1.36-5.76,3.14-8.75,4.48a26.74,26.74,0,0,1-7,2.33c-5.93.87-9-1.49-10.81-5.86-2.35-5.68-4.51-11.44-6.74-17.16a19.7,19.7,0,0,1-.67-2.1,17.05,17.05,0,0,0-6.8-9.64,34.56,34.56,0,0,0-7.4-4.39,20,20,0,0,1-1.82-.84,4.43,4.43,0,0,1-2.59-4.77c.2-1.66.6-3.3.76-5a48.11,48.11,0,0,0,.45-7.38,68,68,0,0,1,1.46-18.55,33.55,33.55,0,0,1,4.78-11.41,9.14,9.14,0,0,1,7.77-4.6,9.17,9.17,0,0,0,6.32-2.67,61.34,61.34,0,0,0,5-5.22c2.62-3.21,5.09-6.55,7.59-9.86a55.12,55.12,0,0,0,6.51-11.28,22.26,22.26,0,0,1,6-7.87,2.54,2.54,0,0,1,2.81-.44,7,7,0,0,1,3.51,2.87,3.86,3.86,0,0,1,.56,1.06c1.1,4.15,4,6.95,6.92,9.89,3.61,3.66,7,7.57,10.36,11.46,2.13,2.43,3.06,5.45,3.7,8.56.26,1.25.51,2.49.75,3.74a18.57,18.57,0,0,0,2.86,7,28.1,28.1,0,0,1,4.2,9.92,65.78,65.78,0,0,0,4,12.18A20.76,20.76,0,0,1,282.37,239.8ZM242.5,167.7a6.41,6.41,0,0,0-4.24,4.48,110.76,110.76,0,0,1-10.53,21.61,45.28,45.28,0,0,1-7.87,9.58,14.86,14.86,0,0,1-10.07,4.36,6.11,6.11,0,0,0-4.67,2.35,16.76,16.76,0,0,0-3,5.63,52.46,52.46,0,0,0-2.7,16.16c-.11,3.67-.24,7.35-.53,11-.16,2-.7,4-1,5.93-.25,1.59-.11,1.77,1.36,2.45,1,.44,2,.82,2.93,1.31,6.93,3.62,12.58,8.34,14.5,16.43a28,28,0,0,0,2.42,6.36,58.34,58.34,0,0,1,3.66,8.67,20.44,20.44,0,0,0,.91,2.23c1.5,3.18,3.38,4.19,6.8,3.21a37.33,37.33,0,0,0,6.28-2.61c2.75-1.35,5.37-3,8.16-4.3a34.32,34.32,0,0,0,12.65-10c.38-.47.8-.9,1.2-1.35a22.45,22.45,0,0,1,6.93-5.38,19.54,19.54,0,0,0,2.67-1.76c2.08-1.47,4.16-2.93,6.19-4.46a2.53,2.53,0,0,0,1-1.37c.87-4.94,1.75-9.88,2.44-14.84a23.17,23.17,0,0,0-1.61-12.76,65.57,65.57,0,0,1-3.07-9.74,30.44,30.44,0,0,0-4.07-9.75,21,21,0,0,1-3.29-8.34c-.22-1.25-.51-2.49-.74-3.74a16.32,16.32,0,0,0-4.41-8.62c-1.79-1.81-3.43-3.75-5.11-5.66-1.41-1.61-2.66-3.38-4.21-4.84a21.59,21.59,0,0,1-6.38-9.56A4,4,0,0,0,242.5,167.7Z"/><path class="cls-2" d="M348.05,247.21c-2.2.93-4.39,1.88-6.61,2.76-.3.12-.76-.17-1.15-.27.22-.28.39-.76.66-.83,2.37-.58,4.76-1.09,7.14-1.62Z"/><path class="cls-2" d="M263.72,239.14c-.13,3.51-.22,7.26-.43,11a18.78,18.78,0,0,1-3.19,9.4A67,67,0,0,1,247.2,274a12.71,12.71,0,0,1-8.42,3.29,8,8,0,0,1-7.25-4.25,12.18,12.18,0,0,1-1.68-5.72c-.06-1.54,0-3.08-.08-4.62-.12-3.78-1.85-5.76-5.59-6.43-.53-.09-1.05-.2-1.58-.27a8.79,8.79,0,0,1-5.58-2.91,14.78,14.78,0,0,1-2.48-3.38,49.49,49.49,0,0,1-5.17-20.85,5.81,5.81,0,0,1,2.69-5.32c6.19-3.93,10.85-9.5,15.84-14.71a37.9,37.9,0,0,0,8.52-13.94A6.58,6.58,0,0,0,237,193c0-1.94,1.42-3.06,2.48-4.35a3.26,3.26,0,0,1,4.23-.37c.5.33.94.75,1.41,1.13a10.12,10.12,0,0,0,5.29,2.66,4.66,4.66,0,0,1,3.44,2.53,12.67,12.67,0,0,1,1,2.16c2,5.62,4.11,11.17,5.11,17.08a77.66,77.66,0,0,0,2.37,9.74,28.09,28.09,0,0,1,1.35,9.08C263.67,234.75,263.72,236.83,263.72,239.14Zm-3.9-3.26c-.23-4.23-.35-8.31-.7-12.37-.22-2.52-.84-5-1.16-7.53-.86-6.57-3.51-12.59-5.65-18.77a6.82,6.82,0,0,0-.44-.9,3.09,3.09,0,0,0-2.43-1.88,10.49,10.49,0,0,1-5.3-2.66,8.74,8.74,0,0,0-1.6-1.21c-.42-.22-1.18-.4-1.45-.18-1.11.91-2.31,1.84-2.23,3.55a13.31,13.31,0,0,1-1.63,7.16,54.77,54.77,0,0,1-5,7.73c-2.64,3.27-5.65,6.25-8.5,9.35a41.61,41.61,0,0,1-8.91,7.73,4.05,4.05,0,0,0-2.06,4,50.23,50.23,0,0,0,4.49,17.78c1.5,3.4,3.83,5.79,7.85,5.89a1.2,1.2,0,0,1,.2,0,8.52,8.52,0,0,1,7.07,7.49c.21,1.44.19,2.93.27,4.39a11.92,11.92,0,0,0,1.34,5.4,5,5,0,0,0,6.3,2.49,11.43,11.43,0,0,0,5.76-3.84c3-3.81,6.07-7.64,9-11.56a17.68,17.68,0,0,0,3.39-8.49C259,244.93,259.37,240.34,259.82,235.88Z"/><path class="cls-2" d="M239.22,211.45l-1.31.57-.13-.24a24.64,24.64,0,0,0,2.27-1.91,18.81,18.81,0,0,0,1.53-2.17,4.2,4.2,0,0,0,1.58-.3c1.58-1.07,3.4-1.18,5.17-1.43a2.55,2.55,0,0,1,2.77,1.59c.45,1,.79,2,1.19,3a25,25,0,0,0,1.14,2.78,12.33,12.33,0,0,1,1.57,7.35c-.81,7.18-.76,14.46-2.28,21.55-1,4.57-2.18,9.11-3.38,13.63a10.25,10.25,0,0,1-1.57,3.22c-1.31,1.81-3.37,1.72-4.36-.29a11.64,11.64,0,0,1-1-4.22c-.17-2.19,0-4.41,0-6.62a15.4,15.4,0,0,0-.12-1.8,1.12,1.12,0,0,0-1.39-1.08c-1.13.17-2.23.45-3.36.61a43.09,43.09,0,0,1-5.75.66,8.61,8.61,0,0,1-7-3.66,14.42,14.42,0,0,1-.5-16.58,10.56,10.56,0,0,1,2.7-2.63,38.67,38.67,0,0,1,3.77-2.3A21.31,21.31,0,0,0,239.22,211.45Zm3.74-1.81a24.67,24.67,0,0,1-1.06,3.18,23.32,23.32,0,0,1-8.05,9.55c-1.68,1.1-3.47,2-5.1,3.19a8.25,8.25,0,0,0-2.65,2.64c-2.18,4.23-2.25,8.45.59,12.51a6,6,0,0,0,5.27,2.75,38.2,38.2,0,0,0,4-.53,50.41,50.41,0,0,1,5.16-.62,3.32,3.32,0,0,1,3.63,3,19,19,0,0,1,.26,3.19c.05,2.15,0,4.29.05,6.43a16,16,0,0,0,.54,2.56,9.3,9.3,0,0,0,.61-.87,9.61,9.61,0,0,0,.55-1.29c2-7.08,3.92-14.19,4.44-21.58.26-3.73.52-7.47.71-11.21.09-1.86.29-3.76-.48-5.55-1-2.27-2-4.53-3-6.77a1.81,1.81,0,0,0-1.09-.95C245.85,209.11,244.37,208.85,243,209.64Z"/><path class="cls-2" d="M243.62,220.93l-.85-.11a.61.61,0,0,1-.05-.18c0-1,2-3.32,3-3.59,1.25-.34,2.06.14,3.19,1.51a8.19,8.19,0,0,1,1.87,6.71c-.29,2-.41,4-.75,6a4.74,4.74,0,0,1-1,2.11c-1.18,1.45-2.48,2.79-3.73,4.18a5,5,0,0,1-4.17,2,6.33,6.33,0,0,1-5.16-4.9A2.62,2.62,0,0,1,237,232.4C240.26,229.22,242.08,225.25,243.62,220.93Zm-4.84,13.62c1.46,2.69,2.44,2.92,4.69,1.19,1.22-.93,2.48-1.82,3.67-2.79a2.8,2.8,0,0,0,1-1.38c.39-2.51.73-5,.93-7.55.15-1.9-1.1-3.52-3.2-4.39A30.17,30.17,0,0,1,238.78,234.55Z"/><path class="cls-2" d="M586.58,290.23c14.39,0,22.61,6.74,22.57,17.6-.07,13.8-11.47,22.28-24.33,22.28a20,20,0,0,1-5-.62l-5.23-1.36-3.2,16.71c-1.83,9.49-1.46,10.26,7.66,11.47l-.23,1.52h-28.7l.38-1.52c7.88-1.11,8.47-2,10.31-11.47L569,302.61c1.73-9,1.25-9.62-7-10.86l.31-1.52Zm-11.65,35.89a21.8,21.8,0,0,0,6.91.84c8.26,0,16-7.58,16-21.13,0-8.84-3.89-13.42-11.14-13.42-4.25,0-5.63,1-6.5,5.71Z"/><path class="cls-2" d="M612.29,322.87c5.56-6.8,10.87-10.1,14.16-10.1s3.49,4.38,1.36,14.37l-.79,3.39c4.58-9,11.21-17.76,15.75-17.76a4.53,4.53,0,0,1,4.46,4.7c0,2.54-2.61,6.06-4.17,7-.79.48-1.27.73-1.79.07-1.35-1.42-3.62-3.18-4.83-3.18-2.51,0-6.23,7-7.8,10.29-3.1,6.46-4.89,16-6.86,25.32a53.12,53.12,0,0,0-9,2l-.52-.63c2.56-10.63,5.63-24.54,7-31.47,1.11-5.6,1-6.93.14-6.93-1.45,0-4.09,2.27-6.11,4.17Z"/><path class="cls-2" d="M659.06,359.08c-5,0-11.11-2.87-11.11-14.67,0-9.41,3.87-19.73,11.27-25.8,4-3.35,10-5.84,14.35-5.84,5.38,0,7.74,3.64,7.74,7.51,0,9.09-13.81,13.73-23.52,16a39.94,39.94,0,0,0-.25,4.14c0,6.48,1.91,12.53,7.92,12.53,3.88,0,8.29-2.09,13-7.13l.83,1.36C672,356.19,664.44,359.08,659.06,359.08Zm-.92-25.17c11.71-2,14.81-7.69,14.81-12.75,0-2.91-1.56-5-4.36-5C664.72,316.14,660,320,658.14,333.91Z"/><path class="cls-2" d="M749.71,312.77c3.58,0,6.16,2.18,3.32,14.93-1.64,6.87-3.06,13.42-4.58,20.54-.66,2.69-.38,3.8.55,3.8s3.31-1.27,6.32-4.56l.8,1.28c-5.57,7.33-11.41,10.32-14.62,10.32s-4.17-2.44-2.33-10.14c1.78-7.85,3.4-14.83,5.17-22.35,1.21-5.63.87-7.58-1.46-7.58-3.47,0-10.33,6.95-14.73,14.29-2.68,4.55-2.93,7-3.77,10.06-1,4.38-2.24,9.62-3,13.68a46.31,46.31,0,0,0-9.18,1.94l-.59-.52c2.36-9.82,4.89-20.39,6.77-28.9,1.7-7.91,1.73-10.55-.84-10.55-3.68,0-10.29,6.65-14.76,14.1-2.69,4.58-3,7.17-3.84,10.25-1,4.38-2.11,9.62-2.91,13.68a57.58,57.58,0,0,0-9,1.94l-.55-.59c2.53-11.15,5.24-22.22,7.81-33.87.76-3.47.58-4.68-.52-4.68-1.28,0-3.59,1.72-6,4.17l-.84-1.24c4.79-5.93,9.8-10,13.62-10,3.38,0,4.44,3.47,2.42,12.93l-1.36,5.64c8-11.87,16.81-18.57,22.6-18.57,3.5,0,6.34,1.74,3.22,16.05l-.77,3.39C734.8,319.39,744.2,312.77,749.71,312.77Z"/><path class="cls-2" d="M781.83,348.66c-5.56,7.33-11.54,10.42-14.74,10.42s-4-3.12-2.06-10.85c2.36-9.74,3.89-16,5.65-23.71.77-3.47.77-4.75-.33-4.75s-3.63,1.86-6.12,4.34l-.86-1.38c4.64-5.32,11.43-10,15.09-10,3.31,0,3.23,3.47,1.26,12.16-1.84,7.81-3.68,15.56-5.49,23.31-.65,2.69-.21,3.63.62,3.63s3.21-1.23,6.19-4.49ZM784.55,296c0,3.36-2.25,6.29-5.35,6.29-2.69,0-4.38-1.91-4.38-4.76s2-6.25,5.66-6.25C783.28,291.27,784.55,293.51,784.55,296Z"/><path class="cls-2" d="M832.67,348.53c-5.32,7.2-11.37,10.55-14.54,10.55-2.83,0-4.17-2.44-2.43-10.14.66-3.17,1.21-5.77,1.95-9.05-5,7.33-10.48,13-14.61,16-2.52,1.9-5.26,3.23-7.73,3.23-3.55,0-6.77-2.15-4-14.4,1.43-6.49,3.37-13.86,4.83-20.16.76-3.47.76-4.81-.34-4.81s-3.73,1.78-6.22,4.37l-.83-1.28c4.61-5.58,10.86-10,14.68-10,3.21,0,3.65,3.47,1.71,12.09-1.66,7.2-3.48,14.13-4.89,20.64-1.14,5.24.34,6.78,1.64,6.78,3.45,0,7.89-4.92,12-10.73a35.81,35.81,0,0,0,6-12.51c1-4.22,1.94-8.56,3.05-13.53,3-.87,6-1.8,9-2.74h.77c-2.43,10.44-5.82,24.87-7.78,35.47-.55,2.69-.34,4,.52,4,1,0,3.41-1.54,6.39-4.93Z"/><path class="cls-2" d="M903.32,312.77c3.58,0,6.16,2.18,3.32,14.93-1.64,6.87-3.06,13.42-4.59,20.54-.65,2.69-.38,3.8.56,3.8s3.31-1.27,6.32-4.56l.79,1.28c-5.56,7.33-11.4,10.32-14.61,10.32s-4.17-2.44-2.33-10.14c1.78-7.85,3.4-14.83,5.17-22.35,1.21-5.63.87-7.58-1.47-7.58-3.46,0-10.32,6.95-14.72,14.29-2.69,4.55-2.93,7-3.77,10.06-1,4.38-2.24,9.62-3,13.68a46.31,46.31,0,0,0-9.18,1.94l-.59-.52c2.36-9.82,4.89-20.39,6.77-28.9,1.7-7.91,1.73-10.55-.84-10.55-3.68,0-10.29,6.65-14.77,14.1-2.68,4.58-3,7.17-3.83,10.25-1,4.38-2.11,9.62-2.91,13.68a57.58,57.58,0,0,0-9,1.94l-.55-.59c2.53-11.15,5.24-22.22,7.81-33.87.76-3.47.58-4.68-.52-4.68-1.28,0-3.59,1.72-6,4.17l-.83-1.24c4.79-5.93,9.79-10,13.62-10,3.38,0,4.44,3.47,2.42,12.93l-1.36,5.64c7.95-11.87,16.81-18.57,22.6-18.57,3.5,0,6.34,1.74,3.22,16.05l-.77,3.39C888.41,319.39,897.81,312.77,903.32,312.77Z"/><path class="cls-2" d="M953.53,348.53c-5.53,7.33-11.37,10.55-14.54,10.55s-4.07-2.91-2.51-10.45c3.44-17.41,7.71-37.85,10.83-53.89,1-4.77.42-5-3.81-5.87-.86-.18-1.36-.18-2-.28l.31-1.32a57.21,57.21,0,0,0,13.27-2.83,11,11,0,0,1,3-.83c.75,0,.72,1.06.2,3.45-4.14,19.81-9.32,44.6-12.54,61.18-.59,2.69-.17,3.66.69,3.66,1,0,3.35-1.26,6.32-4.58Z"/><path class="cls-2" d="M999.5,327.81c0,11.25-5.59,22.29-14.83,27.84a21.73,21.73,0,0,1-11.48,3.43c-10,0-13.49-7.24-13.49-15.18,0-13.24,7.38-23.95,16.38-28.53a24.06,24.06,0,0,1,10.2-2.6C994.92,312.77,999.5,318.9,999.5,327.81ZM969.74,343.6c0,8.66,3.21,12.59,7.29,12.59,9.77,0,12.49-20.33,12.49-28.19,0-8.63-2.89-12.38-6.83-12.38C972.91,315.62,969.74,335.06,969.74,343.6Z"/><path class="cls-2" d="M1019.37,347.09c-.56.63-1.79,1.92-1.79,3.25,0,1.87,2.92,3.52,8.69,6.52,10.29,5.4,13.73,9.24,13.73,13.53,0,9.34-15.28,16.34-25.76,16.34-9.83,0-18.43-5-18.43-11.42,0-5.15,7.89-9.79,17.84-14.9-2.68-1.71-4.09-3.64-4-5.3.07-1.93,3.13-4.9,7.8-8Zm12.4,28.14c0-2.67-1.76-4.79-4.72-7a112.39,112.39,0,0,0-11.91-6.69c-6.12,3.51-10.27,7.51-10.27,11.92,0,6.2,7.69,9.78,14.3,9.78C1027.74,383.26,1031.77,379.54,1031.77,375.23Zm-23.68-39.36A23.62,23.62,0,0,1,1019.41,316a22.3,22.3,0,0,1,10.87-3.22,13.52,13.52,0,0,1,8.47,2.74c5.45.25,8.93-1,10.82-2.4l.69,1.05a12.64,12.64,0,0,1-9.58,5.68,16.2,16.2,0,0,1,.59,4.67,22.29,22.29,0,0,1-8.23,17.36c-4.25,3.45-10.61,5.82-14.46,5.78C1011.81,347.58,1008.09,342.54,1008.09,335.87Zm24.34-12.3c0-5.36-1.65-8.23-5.25-8.23-5.79,0-10,10.84-10,21.4,0,5.1,1.76,8.08,5.27,8.08C1027.67,344.82,1032.43,335.62,1032.43,323.57Z"/><path class="cls-2" d="M1076.82,318.09c0,1.7-2.07,4.49-3.56,5-.66.2-1.07-.06-2-1-2-2.27-4.58-4.94-7.68-4.94a5.15,5.15,0,0,0-5.06,5.24c0,3.24,2.62,5.26,7.11,8.82,7.21,5.77,8.46,8.24,8.46,12.08,0,8.08-12.61,15.85-18.8,15.85-4.63,0-9.6-3.15-9.6-7.19,0-1.63,2.28-4.94,4.07-4.94a1.45,1.45,0,0,1,1.31.66c3.7,4.81,6.92,6.87,10.23,6.87a5.61,5.61,0,0,0,5.83-5.34c0-2.5-1.38-4.59-6-8.51-3.88-3.29-8.93-6.68-8.93-12.21,0-3.08,1.25-6.82,6.15-10.93,2.93-2.46,7.13-4.72,10.7-4.72C1073.17,312.77,1076.82,315.09,1076.82,318.09Z"/><path class="cls-2" d="M1127.57,318.09c0,1.7-2.07,4.49-3.56,5-.66.2-1.07-.06-2-1-2-2.27-4.58-4.94-7.68-4.94a5.16,5.16,0,0,0-5.06,5.24c0,3.24,2.62,5.26,7.11,8.82,7.21,5.77,8.46,8.24,8.46,12.08,0,8.08-12.61,15.85-18.8,15.85-4.63,0-9.6-3.15-9.6-7.19,0-1.63,2.28-4.94,4.07-4.94a1.45,1.45,0,0,1,1.31.66c3.7,4.81,6.92,6.87,10.23,6.87a5.61,5.61,0,0,0,5.83-5.34c0-2.5-1.38-4.59-6-8.51-3.88-3.29-8.93-6.68-8.93-12.21,0-3.08,1.25-6.82,6.15-10.93,2.93-2.46,7.13-4.72,10.7-4.72C1123.92,312.77,1127.57,315.09,1127.57,318.09Z"/><path class="cls-2" d="M1151.34,348.66c-5.57,7.33-11.54,10.42-14.75,10.42s-4-3.12-2.06-10.85c2.37-9.74,3.9-16,5.66-23.71.76-3.47.76-4.75-.34-4.75s-3.62,1.86-6.11,4.34l-.87-1.38c4.64-5.32,11.43-10,15.09-10,3.32,0,3.24,3.47,1.26,12.16-1.84,7.81-3.68,15.56-5.48,23.31-.66,2.69-.21,3.63.61,3.63,1,0,3.22-1.23,6.19-4.49Zm2.72-52.67c0,3.36-2.25,6.29-5.35,6.29-2.7,0-4.39-1.91-4.39-4.76s2-6.25,5.67-6.25C1152.78,291.27,1154.06,293.51,1154.06,296Z"/><path class="cls-2" d="M1202.51,349c-5.49,7-11,10.11-14.5,10.11-3.15,0-4.21-2.51-2.37-10.25s3.36-14.54,5.13-22.05c1.21-5.68.94-7.73-1.33-7.73-4,0-10.93,7.5-14.89,14.47a32.75,32.75,0,0,0-3.6,9.55c-1,4.34-2.21,9.91-3,14a57.33,57.33,0,0,0-9,1.94l-.56-.59c2.2-9.76,5.25-22.22,7.81-33.87.77-3.47.69-4.57-.41-4.57-1.28,0-3.66,1.75-6,4.2l-.9-1.35c4.82-6.27,10.79-10,14.12-10,3.52,0,3.83,3.47,1.81,12.79l-1.43,6.1c6.5-10.32,16.3-18.89,23-18.89,3.71,0,6.19,1.82,3.21,15.11-1.64,6.87-3,13.24-4.51,20-.7,3.09-.42,4.17.52,4.17s3.2-1.16,6.25-4.49Z"/><path class="cls-2" d="M1240.49,347.73c-6.19,7.58-13.48,11.35-19.47,11.35-6.58,0-11.08-5.1-11.08-14.66,0-8.23,3.44-18.1,10-24.23,4.29-3.92,10.7-7.42,15.91-7.42,4.16,0,7.31,1.91,7.34,4.57a6.34,6.34,0,0,1-3.31,5.15c-1.31.75-2.24.41-3.07-.94-2.1-3.3-4-5-6.9-5-5.34,0-10,10.62-10,25.14,0,8.2,3.11,11.52,7.22,11.52,4.83,0,9-3.24,12.55-6.9Z"/><path class="cls-2" d="M1257.46,359.08c-5,0-11.11-2.87-11.11-14.67,0-9.41,3.87-19.73,11.28-25.8,4-3.35,10-5.84,14.35-5.84,5.38,0,7.74,3.64,7.74,7.51,0,9.09-13.81,13.73-23.53,16a39.09,39.09,0,0,0-.24,4.14c0,6.48,1.91,12.53,7.91,12.53,3.89,0,8.3-2.09,13-7.13l.84,1.36C1270.42,356.19,1262.84,359.08,1257.46,359.08Zm-.92-25.17c11.72-2,14.82-7.69,14.82-12.75,0-2.91-1.57-5-4.36-5C1263.12,316.14,1258.42,320,1256.54,333.91Z"/><path class="cls-2" d="M1316.06,297.16a18.9,18.9,0,0,1,13.65-5.37c9.67,0,16.3,6.6,16.3,16.43,0,11.19-8.42,18.69-22.4,30.45l-12.19,10.42h20.67c5.51,0,7.39-.64,11.28-6.34l1.32.69c-2.32,4.77-4.5,10.27-6,14.39h-39.25l.21-1.11c26.34-22.48,35.85-33.19,35.85-45.73,0-7-3.72-12.13-11.1-12.13-5.92,0-9.75,3.27-13.92,8.14l-1.21-1.11Z"/><path class="cls-2" d="M1368.62,359.08c-14,0-16.3-12.67-16.3-21.29,0-19.26,10.3-46,28.71-46,14.35,0,15.85,14,15.85,21.91C1396.88,331.83,1386.76,359.08,1368.62,359.08Zm11.93-65.22c-10.46,0-17.91,33.67-17.91,49,0,7,.95,14.22,6.53,14.22,10.06,0,17.35-33.26,17.42-49.72C1386.66,301.58,1386.17,293.86,1380.55,293.86Z"/><path class="cls-2" d="M1425.71,345.83c-1.32,7-1.66,9.06,5.49,10,.9.11,2.66.39,3.84.49l-.38,1.52h-32.13l.34-1.52c.87-.1,2.07-.28,3-.42,7-1.11,7.78-1.74,9.44-10.06l7.84-39.56c1.18-6,.72-7-5.44-7.57-.94-.1-2.56-.2-3.46-.31l.42-1.45a88,88,0,0,0,21.36-5.15Z"/><path class="cls-2" d="M1494.75,313.38c0,19.63-13.39,35.94-30.82,42.86a66.8,66.8,0,0,1-14.26,3.35l-.27-1.45c14.09-2.87,27-13.62,32.37-31.26-2.5,1.19-5,2.41-7.51,3.45a15.53,15.53,0,0,1-5.73,1.45c-8.31,0-15.2-6.29-15.2-16.6a23.15,23.15,0,0,1,23.15-23.39C1488.73,291.79,1494.75,301.43,1494.75,313.38Zm-30.86-.9c0,8.55,3.61,14.25,11.38,14.25a14,14,0,0,0,7-2c1.1-3.19,2-10.57,2-15.52,0-6.05-.79-15.28-8.91-15.28C1468,293.9,1463.89,303.4,1463.89,312.48Z"/></svg>