<?xml version="1.0" encoding="utf-8"?>
<!-- Generator: Adobe Illustrator 23.0.3, SVG Export Plug-In . SVG Version: 6.00 Build 0)  -->
<svg version="1.1" id="Layer_1" xmlns="http://www.w3.org/2000/svg" xmlns:xlink="http://www.w3.org/1999/xlink" x="0px" y="0px"
	 viewBox="0 0 1379.9 328.3" style="enable-background:new 0 0 1379.9 328.3;" xml:space="preserve">
<style type="text/css">
	.st0{fill:#7A4417;}
	.st1{font-family:'PlantagenetCherokee';}
	.st2{font-size:248px;}
	.st3{letter-spacing:29;}
</style>
<title>Asset 1</title>
<g>
	<g id="Layer_1-2">
		<text transform="matrix(1 0 0 1 406.5906 236.1786)" class="st0 st1 st2 st3">LOGGE</text>
		<path class="st0" d="M293.9,251.6c0.3,0.8,0.5,1.5,0.7,2.3c0.2,1,0.3,2,0.3,3c0.1,1.4-0.9,2.6-2.2,2.9c-0.1,0-0.2,0.1-0.3,0.1
			c-2.1,0.1-3.8,1.3-5.7,2c-1.5,0.7-3.2,1.1-4.8,1.2c-0.9,0-1.1,0.7-1.4,1.4c-0.2,0.7-0.4,1.3-0.5,2c-0.5,2.5-1,4.9-1.5,7.5
			c0.7,0.3,1.4,0.5,2,0.7c1.8,0.7,2.1,2.1,0.6,3.3c-1.7,1.3-3.6,2.4-5.5,3.6c-0.9,0.6-2.1,0.8-2.6,2c-0.1,0.3-0.6,0.4-1,0.5
			c-4.2,0.8-8,2.5-12,3.9c-1.8,0.6-3.1,1.4-3.5,3.4c-0.2,0.6-0.4,1.1-0.8,1.6c-1.2,1.7-2.3,3.6-3.2,5.5c-0.2,0.4-0.4,0.7-0.7,1
			c-1,1.1-1.6,1.1-2.6-0.2c-1.5,0.8-3,1.7-4.6,2.5c-1.2,0.6-2.2,1.4-2.9,2.5c-0.9,1.3-1.9,2.5-2.9,3.7c-0.7,0.8-1.6,1.5-2.6,1.9
			c-0.4,0.2-0.6,0.5-0.8,0.9c-0.2,1-1,1.8-1.9,2c-0.6,0.3-1.3,0.6-1.9,1c-1.4,0.8-3,0.9-4.5,0.3c-0.4,0.3-0.8,0.7-1.2,1
			c-1.6,1.2-3.2,0.8-3.8-1.1c-0.2-0.5-0.3-1.1-0.5-1.7c-1.5-0.1-3-0.1-4.4-0.3c-2.4-0.3-4.9-0.8-7.3-1.1c-0.5-0.1-1,0-1.5,0.1
			c-4.3,2.2-8.9,3.5-13.7,3.9c-3.3,0.4-6.6,0.7-10,1.1c-0.8,0.1-1.6,0.4-2.3,0.9c-2.1,1.7-4.2,3.4-6.2,5.2c-0.6,0.6-1.1,1.3-1.4,2
			c-0.8,1.5-2.5,2.2-4.1,1.8c-1.1-0.4-2.1-0.9-3.1-1.5c-1.1-0.7-2.4-1.1-3.7-1.1c-2-0.1-4.1-0.2-6.1-0.5c-1.9-0.3-3.7-1.2-4.9-2.7
			c-0.2-0.2-0.4-0.4-0.6-0.6c-0.6,0.6-1.2,1.2-1.6,1.8c-0.7,0.8-1.7,1.5-2.7,1.9c-1,0.5-2.3,0.3-3.1-0.5c-0.1-0.1-0.2-0.2-0.3-0.3
			c-1.3-1.9-3.2-2.9-4.9-4.2c-1.3-0.9-2.3-2-3.1-3.3c-0.2-0.4-0.6-0.7-1.1-0.6c-0.3,0-0.6,0-0.8,0c-3.1,1-6.1,2-9.2,3
			c0.1,0.8,0.3,1.5,0.4,2.1c0.3,1.9-0.7,2.8-2.5,2.2c-0.6-0.2-1.2-0.4-1.8-0.8c-1.8-1-3.5-2-5.2-2.9c-0.4-0.2-0.8-0.4-1.3-0.4
			c-0.6,0-1.1-0.2-1.4-0.7c-2.5-2.8-5.3-5.3-8.3-7.6c-1-0.8-1.9-2-3.1-2.4s-2.4,0.1-3.7,0.3c-0.2,0-0.4,0-0.6,0
			c-2.3-0.2-4.5-0.3-6.8-0.1c-0.2,0-0.5,0-0.7-0.1c-1.8-0.2-2.1-0.7-1.5-2.5c-1.9-1.2-3.8-2.4-5.8-3.5c-0.3-0.2-0.7-0.2-1.1-0.3
			c-1.9-0.3-3.9-0.5-5.8-0.8c-1.1-0.1-2.1-0.6-2.9-1.3c-0.3-0.3-0.8-0.4-1.3-0.2c-0.8,0.3-1.8,0.1-2.4-0.6c-0.5-0.4-1.1-0.8-1.6-1.1
			c-1.5-0.9-2.6-2.1-2.8-4c-0.6-0.2-1.2-0.4-1.7-0.6c-1.1-0.4-1.8-1.6-1.4-2.7c0.1-0.4,0.3-0.7,0.6-0.9c0.4-0.5,0.9-1,1.3-1.4
			c-0.8-1.7-1.7-3.4-2.4-5.1c-0.8-1.9-1.5-3.8-2.2-5.7c-0.1-0.5-0.5-1-0.9-1.3c-3.6-2.3-6.7-5.2-9.3-8.6c-2.5-3-4.8-6.1-6.9-9.3
			c-0.5-0.7-1.2-1.3-2-1.6c-2.3-1-4.7-1.8-7-2.6c-0.9-0.3-1.9-0.4-2.9-0.4c-1.7,0.1-3.2-1-3.7-2.6c-0.3-1.1-0.3-2.3-0.3-3.4
			c0-1.3-0.3-2.7-1-3.8c-1-1.7-1.8-3.6-2.5-5.4c-0.7-1.8-0.8-3.8-0.2-5.6c0.1-0.3,0.1-0.5,0.2-0.9c-0.8-0.2-1.6-0.4-2.4-0.5
			c-1-0.2-2-0.7-2.9-1.3c-1.1-0.6-1.6-1.9-1.3-3.1c0-0.1,0-0.2,0.1-0.3c1.1-2.2,0.8-4.6,1.3-6.9c0.3-1.2,0.6-2.3,1.1-3.4
			c0.5-0.7,0.3-1.7-0.3-2.2c-0.4-0.4-0.9-0.8-1.3-1.2l-5.9-5.3c-0.6,0.5-1.1,1-1.6,1.4c-1.5,1.2-2.7,0.8-3.2-1
			c-0.1-0.3-0.1-0.5-0.2-0.8c-0.1-2.1-0.2-4.3-0.2-6.4c0-0.8,0.3-1.6-0.4-2.4c-0.2-0.2-0.1-0.8,0-1.2c1.6-4.7,2.1-9.6,3-14.5
			c0.1-0.5,0-0.9-0.4-1.3c-1.5-1.7-2.7-3.7-3.5-5.8c-0.2-0.4-0.4-0.7-0.7-1c-0.6-0.9-1.1-1.8-1.6-2.8c-0.6-1.3-0.1-1.9,1.5-2.2
			c0-1.5,0-3,0.1-4.5c0.2-1.7-0.2-3.5-1-5c-0.7-1.5-1.3-3-1.7-4.6c-0.2-0.7-0.3-1.5-0.2-2.3c0.1-0.5,0-1.1-0.5-1.5
			c-0.6-0.6-0.9-1.5-0.7-2.3c0.1-0.8,0.2-1.6,0.2-2.4c-0.1-1.6,0.7-3.1,2-4C2.1,141.3,2,140.6,2,140c-0.2-1.1,0.5-2.2,1.6-2.5
			c0.3-0.1,0.6-0.1,0.9,0c0.7,0.1,1.3,0.3,2.1,0.4c0.3-0.4,0.5-0.7,0.7-1c1.9-3,4-5.8,6.4-8.4c0.3-0.3,0.5-0.7,0.6-1.1
			c0-5.4,1.9-10.4,3.9-15.3c1.1-2.6,2.4-5.1,3.5-7.8c0.4-0.8,0.5-1.8,0.4-2.7c-0.4-2.8-0.9-5.5-1.5-8.2c-0.1-0.6-0.4-1.2-0.7-1.7
			c-1.2-1.7-0.8-4,0.8-5.2c0.7-0.5,1.5-1,2.4-1.4c1.2-0.6,2.2-1.6,2.8-2.8c1-1.6,2.1-3.2,3.2-4.7c1.2-1.7,3.1-2.8,5.1-3.2
			c0.2-0.1,0.5-0.2,0.7-0.3c-0.2-0.8-0.4-1.6-0.7-2.3c-0.3-1-0.5-2.1-0.3-3.2c0-1.3,0.8-2.4,2.1-2.7c0.1,0,0.2-0.1,0.3-0.1
			c2.3-0.2,4.2-1.5,6.4-2.2c1.2-0.4,2.5-0.8,3.8-1c1.3-0.2,1.7-0.4,2-1.6c0.4-1.9,0.8-3.8,1.2-5.7c0.2-1.2,0.5-2.3,0.7-3.6
			c-0.8-0.3-1.5-0.5-2.2-0.8c-1.5-0.6-1.8-1.8-0.7-3c0.4-0.4,0.8-0.8,1.3-1.1c1.7-1.1,3.5-2.2,5.2-3.2c0.6-0.4,1.3-0.6,1.6-1.4
			c0.1-0.3,0.7-0.5,1-0.6c4.8-0.9,9.3-3,13.9-4.6c0.5-0.1,1-0.6,1.1-1.1c0.7-2.1,1.8-4.1,3.2-5.8c0.2-0.4,0.5-0.8,0.6-1.2
			c0.4-0.9,0.9-1.8,1.5-2.6c0.9-1.2,1.6-1.1,2.6,0.2c1.1-0.6,2.1-1.3,3.2-1.8c2.1-0.9,3.8-2.4,5-4.3c0.7-1.1,1.5-2,2.4-2.9
			c0.6-0.6,1.3-1.1,2.1-1.5c0.5-0.2,0.9-0.6,1.1-1.1c0.2-0.8,0.8-1.5,1.6-1.7c0.8-0.3,1.5-0.7,2.2-1.1c1.3-0.8,3-0.9,4.4-0.2
			c0.4-0.4,0.9-0.8,1.3-1.1c0.9-0.8,2.3-0.8,3.1,0.1c0.3,0.3,0.5,0.6,0.6,1c0.2,0.6,0.3,1.1,0.6,1.8c0.5,0,0.9,0.1,1.4,0.1
			c3.5,0.1,7.1,0.5,10.5,1.3c0.4,0.1,0.9,0,1.3-0.2c4.1-2.1,8.5-3.4,13-3.8c3.5-0.6,7-1,10.5-1.2c0.9-0.1,1.7-0.4,2.4-0.9
			c2.1-1.7,4.2-3.5,6.3-5.3c0.5-0.5,0.9-1,1.2-1.7c0.9-1.7,2.9-2.5,4.7-1.8c1,0.4,1.9,0.8,2.7,1.4c1.1,0.7,2.3,1,3.6,1
			c2,0.1,4,0.2,6,0.5c2,0.3,3.8,1.2,5.2,2.7c0.2,0.2,0.3,0.3,0.6,0.6c0.6-0.6,1.1-1.1,1.6-1.7c0.7-0.8,1.6-1.4,2.6-1.9
			c1.1-0.7,2.6-0.5,3.5,0.5c0.1,0.1,0.1,0.1,0.2,0.2c1.2,1.8,3.2,2.8,4.8,4.1c1.3,0.9,2.4,2.1,3.2,3.4c0.4,0.7,1,0.8,2.1,0.5
			c1.8-0.6,3.6-1.1,5.4-1.8c1.2-0.4,2.4-0.8,3.6-1.3c-0.1-0.8-0.3-1.5-0.4-2.3c-0.2-1.6,0.6-2.4,2.2-2.1c0.5,0.1,1,0.3,1.4,0.5
			c1.7,0.9,3.5,1.8,5.2,2.8c0.8,0.4,1.5,1.1,2.5,1c0.3,0,0.8,0.4,1,0.6c3.2,3.7,7.2,6.5,10.9,9.7c0.4,0.3,0.9,0.5,1.4,0.3
			c2.1-0.4,4.4-0.5,6.5-0.1c0.6,0,1.1,0,1.7-0.1c0.9-0.1,1.8-0.1,2.6,0c1.7,0.2,2,0.7,1.5,2.5c1.9,1.1,3.8,2.3,5.7,3.5
			c0.5,0.2,1,0.3,1.5,0.4c1.9,0.3,3.8,0.5,5.6,0.8c1,0.1,2,0.6,2.8,1.2c0.3,0.2,0.6,0.3,1,0.2c1-0.3,2.2,0,2.9,0.8
			c0.5,0.4,1,0.7,1.5,1c1.4,0.7,2.4,2.1,2.6,3.7c0.5,0.2,1,0.3,1.5,0.5c1.8,0.8,2.2,2.4,0.9,3.9c-0.4,0.4-0.8,0.7-1.3,1.1
			c0.3,0.7,0.5,1.1,0.8,1.6c1.6,3,3,6.2,4,9.5c0.1,0.4,0.4,0.8,0.7,1.1c4,2.6,7.5,6,10.3,9.9c2,2.6,3.9,5.4,5.9,8
			c0.5,0.7,1.1,1.2,1.9,1.6c2.8,1.4,5.7,2.4,8.8,3.1c0.4,0.1,0.8,0.1,1.2,0.1c1.9-0.2,3.7,1.1,4,3.1c0.2,1.1,0.2,2.1,0.2,3.2
			c0,1.2,0.3,2.4,0.9,3.5c1,1.9,1.9,3.9,2.7,5.9c0.7,2,0.6,4.2-0.2,6.1c0.8,0.2,1.5,0.4,2.3,0.6c1.1,0.2,2,0.6,2.9,1.3
			c1.1,0.6,1.7,2,1.4,3.2c0,0.1,0,0.2-0.1,0.3c-1,2.1-0.8,4.5-1.3,6.8c-0.3,1.2-0.6,2.4-1.1,3.6c-0.4,1.1-0.5,1.6,0.4,2.5
			c0.7,0.7,1.5,1.4,2.3,2.1l4.9,4.3c0.6-0.6,1.2-1,1.8-1.5c1.3-1,2.5-0.7,3,1c0.1,0.5,0.2,1,0.3,1.5c0.1,2.3,0.1,4.6,0.1,6.8
			c0,0.4,0.1,0.8,0.3,1.2c0.3,0.5,0.3,1.1,0.1,1.6c-1.2,3.8-2,7.6-2.5,11.6c-0.2,1.1-0.7,2.3-0.4,3.3s1.2,1.8,1.8,2.7
			c0.3,0.4,0.5,0.8,0.7,1.2c0.8,1.9,1.8,3.6,3,5.3c0.2,0.3,0.4,0.6,0.5,1c0.6,1.5,0.3,2.1-1.4,2.4c-0.1,2.3-0.1,4.5-0.2,6.8
			c0.1,0.5,0.2,0.9,0.4,1.3c0.7,1.6,1.4,3.3,2,4.9c0.3,0.7,0.5,1.5,0.5,2.3c0,1.1-0.1,2.1,0.9,3c0.3,0.2,0.2,0.9,0.2,1.3
			c0,0.7-0.1,1.5-0.1,2.2c0,1.8-0.4,3.4-2,4.5c0.1,0.7,0.2,1.4,0.3,2.1c0.1,1.2-0.7,2.2-1.9,2.3c-0.2,0-0.5,0-0.7-0.1
			c-0.6-0.1-1.3-0.3-2-0.5c-0.3,0.4-0.5,0.8-0.8,1.2c-1.8,2.9-3.9,5.7-6.3,8.2c-0.4,0.4-0.6,0.9-0.6,1.5c-0.1,3.7-0.8,7.3-2.2,10.7
			c-1.5,4.1-3.2,8.1-5.1,12.1c-0.4,0.8-0.5,1.8-0.4,2.7c0.4,2.8,0.9,5.5,1.5,8.2c0.1,0.6,0.4,1.1,0.7,1.6c1.2,1.6,0.9,3.9-0.7,5.1
			c-0.8,0.6-1.7,1.2-2.6,1.6c-1.1,0.6-2,1.4-2.6,2.5c-1.1,1.8-2.3,3.5-3.6,5.1c-1.2,1.6-3,2.6-4.9,3
			C294.4,251.5,294.1,251.6,293.9,251.6z M206.3,50.4l-4.2-1.5c-0.4,2-0.7,3.8-1,5.7l2.2,0.8L206.3,50.4l-1.4,5.6l5.8,2.6
			c0.8-2.4,1.4-4.8,1.9-7.3c-1.6-0.3-3.1-0.5-4.6-0.8C207.4,50.5,206.9,50.4,206.3,50.4z M177.6,263c-0.3,1.4-0.3,1.4,0,2.1
			C177.9,264.4,177.9,263.7,177.6,263c0.1,0.2,0.3,0.3,0.4,0.5c0.1,0.4,0.2,0.9,0.2,1.3c0.6,0.1,1.2-0.3,1.3-1c0-0.1,0-0.1,0-0.2
			c0.2-1.7,0.4-3.4,0.6-5.1c0.2,1.8-0.1,3.6,0.5,5.4c0.5-1.2,0.9-2.5,1.1-3.9c0.3-1.4,0.6-2.8,0.9-4.2c0.4-1.4,0.6-2.8,0.8-4.2
			l-1.2,0.7c-2.5,1.6-5.2,2.7-8.1,3.3c-2.3,0.4-4.5,0.8-6.8,1.2l-0.7,0.1l-2,8.9c1.5,0.3,2.9,0.5,4.3,0.9c1.1,0.3,2.3,0.2,3.4-0.1
			c0.8-0.2,1.4-0.7,1.6-1.5c0.7-2,1.9-3.9,3.4-5.4c-0.5,1.9-1,3.9-1.6,5.8l0.3,0.1c0.2-0.2,0.4-0.4,0.5-0.7
			C177,264.2,177.3,263.6,177.6,263z M195.6,118.6c0.4-0.8,0.8-1.5,1.3-2.3c0.9-1.4,1.8-2.8,2.6-4.1c-2.3-2.3-4.6-4.5-6.8-6.7
			c-0.9,2.3-1.8,4.6-2.7,6.9c-0.1,0.4-0.1,0.8,0.1,1.2c1,2,2.5,3.6,4.3,4.8C194.8,118.8,195.3,118.8,195.6,118.6
			c-0.2,0.6,0.3,0.9,0.8,1.1c3.5,2.1,6.6,4.8,9.2,8c2.7,2.9,4.5,6.6,5.2,10.5c0.4,2.1,1.2,4.2,2.4,6c1.7,2.7,2.7,5.9,2.8,9.1
			c0.1,1.8,0.1,3.5,0.4,5.3c0.8,5.2,1.7,10.5,2.6,15.7c0.7,3,0.9,6.2,0.6,9.3c0,0.2,0,0.4,0.1,0.6c2.5,0.4,5,0.9,7.6,1.1
			c0.1-0.6,0.3-1.1,0.4-1.6c0.6-3.7,0.5-7.4-0.4-11.1c-1.1-5.1-1.4-10.4-0.8-15.6c0.3-2.3,0.4-4.5,0.5-6.8c0.1-2.1-0.4-4.1-1.5-5.9
			c-1.2-2.1-2-4.3-2.6-6.6c-0.4-1.4-0.9-2.8-1.5-4.2c-0.8-2-1.9-3.9-2.6-6c-1-3-3.2-5.4-6.2-6.6c-0.3-0.1-0.5-0.2-0.8-0.3
			c-4.1-1.7-7.8-4.2-10.9-7.3c-0.3-0.2-0.6-0.5-0.9-0.7c-0.9,1.4-1.8,2.6-2.7,3.9C196.8,117.2,196.2,117.9,195.6,118.6L195.6,118.6z
			 M237.5,171.6L237.5,171.6c0.1-0.5,0.3-1.1,0.3-1.6c0.3-1.9,0.4-3.8,0.7-5.7c0.4-2.2,0.4-4.4,0-6.5c-0.3-2-0.3-4-0.1-6
			c0.3-2.8,0.4-5.6,0.6-8.5c0.1-2.2,0.2-4.4,0.3-6.5c0.1-1.2,0.2-2.4,0.2-3.6c0.1-0.7-0.2-1.3-0.6-1.8c-0.5-0.5-0.8-1.1-1.1-1.7
			c-1.1-2.3-2.3-4.6-3.4-6.8c-0.7-1.4-1.8-2.6-3.2-3.4c-1.9-1.3-3.7-2.7-5.4-4.1c-2-1.7-4.2-3.1-6.6-4.2c-2.4-1-4.5-2.4-6.5-4.1
			c-1.8-1.5-3.6-2.9-5.5-4.3c-0.3-0.2-0.6-0.3-0.9-0.5c-1.4,2.3-2.8,4.6-4.2,6.8c0.2,0.2,0.3,0.4,0.4,0.5c3.1,3.3,6.8,6,10.9,7.8
			c4.2,1.7,7.3,5.2,8.5,9.6c0.4,1.3,1,2.6,1.5,3.9c0.7,1.6,1.2,3.3,1.7,5c0.6,2.7,1.6,5.3,3,7.8c1,1.6,1.5,3.4,1.4,5.3
			c-0.1,2.8-0.2,5.7-0.5,8.5c-0.5,4.2-0.3,8.5,0.6,12.6c0.8,3.6,1.7,7.3,1.5,11c-0.1,1.6-0.3,3.1-0.4,4.8l2.1,0.3v0.1l-2.4,0.1
			c-0.1,0.5-0.2,0.9-0.3,1.5c2.2,0,4.2,0.5,6.4,0.3c-0.1-0.9-0.1-1.6-0.1-2.3c-0.4-2.7-0.4-5.5,0-8.2c0.3-1.6,0.6-3.2,0.8-4.8
			C237.6,172.5,237.6,172.1,237.5,171.6L237.5,171.6z M110.2,189c0.1-0.3,0.2-0.6,0.3-1c-0.3,0-0.6-0.2-0.7-0.1
			c-2.2,1.1-4.3,2.2-6.5,3.3c-0.2,0.1-0.2,0.3-0.4,0.8c0.4,0,0.7-0.1,1.1-0.2c1.7-0.8,3.4-1.6,5-2.3
			C109.3,189.2,109.8,189.1,110.2,189c-0.3,0.2-0.7,0.5-1.1,0.8c-1.4,0.8-2.9,1.5-4.3,2.3c-0.4,0.2-0.8,0.5-1.3,0.7
			c1,2.6,3.1,4.7,5.6,5.9c1,0.4,2,0.9,3.1,1.3c3.7,1.4,7,3.9,9.3,7.1c0.6,0.7,1.1,1.5,1.7,2.2c1.8,2.6,4.1,4.8,6.7,6.4
			c3.3,2,6.2,4.6,8.6,7.7c1.3,1.7,3.1,2.9,5.1,3.5c5.2,1.7,10.3,3.3,15.4,5.4c1.9,0.8,4.1,1,6.2,0.5l3.8-0.9
			c6.1-1.3,11.8-3.8,16.8-7.5c1.5-1.1,3.1-2.1,4.6-3.1c3.3-2.1,6.4-4.7,9-7.6c1.6-1.8,3.2-3.5,4.8-5.3c2-2.3,4.7-3.9,7.6-4.6
			c5-1.1,9.3-4.1,12.2-8.3c0.9-1.2,1.5-2.5,1.8-4c-0.3,0-0.7,0-1,0c-4.1,0.5-8.2,1-12.3,1.5c-0.5,0.1-1.1,0.3-1.5,0.7
			c-1.6,1.1-2.9,2.6-3.8,4.3c-0.7,1.3-1.3,2.6-2,3.9c-2,3.7-5.6,6.3-9.7,7c-1.3,0.2-2.7,0.4-4,0.4c-1.7,0.1-3.3,0.7-4.6,1.7
			c-0.9,0.7-1.8,1.3-2.8,1.9c-1.8,1.1-3.4,2.3-4.8,3.8c-0.6,0.7-1.3,1.3-2,2c-1.9,1.9-4.4,3.1-7.1,3.5c-5.1,0.7-10.1,1.4-15.2,2.1
			c-4.1,0.8-8.2-0.7-11-3.8c-3.3-3.4-6.8-6.6-9.1-10.8c-1-1.8-2.5-3.2-4.3-4.1c-2.7-1.4-5-3.5-6.6-6.1c-1.1-1.8-2.8-3.2-4.8-3.8
			c-3.3-1-6.1-3.2-7.7-6.2l-0.1-0.1C111.1,188.8,110.7,188.9,110.2,189z M120,182.3c0.4-0.3,0.5-0.9,0.3-1.4
			c-0.6-2.4-1.1-4.8-1.8-7.2c-1.1-3.8-0.8-7.9,0.7-11.6c1.3-3.3,2.5-6.6,3.7-9.9c1.2-3.2,1.9-6.6,2-10.1c0-1.7-0.1-3.4-0.1-5.1
			c0-3.9,1.5-6,5.3-7.2c0.3-0.1,0.6-0.2,0.9-0.3c1.9-0.4,3.9-0.7,5.9-1.1c6.1-1.3,10.9-4.4,13.9-10c0.4-0.8,0.9-1.5,1.4-2.3
			c2.8-4.4,7-7.6,11.9-9.2c2.1-0.9,4.4-0.5,6.2,0.9c0.7,0.5,1.4,0.9,2.2,1.2c1.6,0.5,2.9,1.7,3.5,3.2c0.7,1.8,1.9,3.3,3.4,4.5
			c1.1,0.9,2.1,2.1,2.7,3.4c0.4,0.7,0.7,1.4,1.1,2.1c0.3,0.7,0.8,1.2,1.5,1.5c0.1-0.2,0.3-0.3,0.4-0.5c0.8-2.2,1.5-4.4,2.3-6.6
			c0.1-0.2,0.1-0.4,0-0.5c-0.7-1.3-1.4-2.7-2.1-4.1c-0.3,0.4-0.4,0.6-0.6,1c0.3-2.3,0.3-2.4-0.8-4.5c-0.3-0.5-0.6-1.1-0.9-1.6
			c-1.9-2.6-4.1-4.9-7.5-5.5c-1.3-0.4-2.6-0.9-3.9-1.5c-3-1.5-6.6-1.7-9.7-0.4c-3.8,1.6-7.3,3.7-10.4,6.5c-2.7,2.4-5.3,4.9-8,7.4
			c-4.7,4.5-10.5,7.6-16.8,9.2c-2.2,0.5-4.3,1.1-6.5,1.7c-1.1,0.2-2,1-2.5,2c-1.7,3.6-2.4,7.7-1.8,11.7c0.8,4.6,0.5,9.3-0.8,13.8
			c-0.6,2.2-1.2,4.4-1.7,6.6c-0.7,3-1.3,6.1-1.8,9.2c-0.3,1.5-0.4,3-0.4,4.6c-0.1,2,0,4.1,0,6.1c0,1.4-0.1,2.8-0.1,4.2
			c0,1.3,0.6,2.5,1.7,3.3c1.3-0.5,2.5-1,3.7-1.5c0.7-0.3,1.5-0.5,2.2-0.8c-0.4,0.3-0.9,0.6-1.3,0.9c-1.3,0.8-2.7,1.5-4,2.3
			c0.3,0.4,0.5,0.7,0.7,1c1.4,2.6,3.7,4.5,6.5,5.4c3,1,5.6,3.2,7.1,5.9c1,1.7,2.5,3.1,4.3,4.1c2.6,1.4,4.8,3.5,6.3,6.1
			c1.6,2.8,3.7,5.3,6.1,7.4c1.2,1.1,2.4,2.3,3.6,3.5c1.2,1.1,2.8,1.7,4.4,1.7c1-0.1,2-0.1,3.1-0.2c4-0.5,8.1-1.2,12.2-1.5
			c3.8-0.2,7.4-1.9,9.8-4.9c1.4-1.6,3.1-3,4.9-4.1c0.6-0.4,1.2-0.8,1.8-1.4c2.3-2.5,5.6-3.9,8.9-3.9c3,0,5.8-1.3,7.8-3.5
			c0.8-0.9,1.5-1.8,2.1-2.8c1-1.4,1.9-2.8,2.9-4.3c0.1-0.1,0.1-0.3,0.3-0.6c-1.5,0.2-2.8,0.6-4.1,0.7s-2.7,0.1-4,0.1
			c-1.1-0.1-2.1-0.1-3.2-0.1c-1.5,0.1-3,0.5-4.5,0.7c-1.7,0.2-3.3,0.8-4.8,1.8c-0.8,0.6-1.4,1.2-2.2,1.7c-1.3,0.9-2.7,1.7-4.1,2.4
			c-1.8,0.7-3.4,1.9-4.7,3.4c-0.6,0.7-1.2,1.4-1.8,2.2c-1.3,1.9-3.3,3.1-5.6,3.3c-2.6,0.4-5.1,1.1-7.4,2.2c-1.7,0.7-3.5,1.4-5.2,1.9
			c-4.3,1.4-8.9-0.1-11.6-3.6c-2-2.3-3.3-5.2-3.6-8.3c-0.2-1.7-0.3-3.4-0.5-5.1c-0.1-2-1.4-3.7-3.2-4.3c-1.3-0.5-2.6-1.2-3.9-1.9
			c-2.4-1.6-4.9-3-7.6-4.2c-1.5-0.6-2.7-2-3-3.6c-0.1-0.3-0.2-0.6-0.3-0.9C120.5,182.3,120.2,182.3,120,182.3L120,182.3z
			 M238.9,66.4c0.2-0.6-0.3-0.7-0.6-0.9c-1.7-1.1-3.5-2-5.4-2.9c-3.9-1.7-7.6-3.9-11-6.5l-4.3-3.3c-1-0.8-2.3-1.3-3.6-1.3l-1.9,7.6
			c0.2,0.2,0.4,0.3,0.6,0.4c2.7,1.4,5.4,2.8,8.1,4.3c1.7,1,3.4,2.1,4.9,3.4c2.9,2.4,6.3,3.7,9.8,5L238.9,66.4
			c-0.2,0.5-0.4,1.2-0.6,1.8c-0.6,1.5-1.3,3-1.9,4.4l0.7,0.5c4,2.8,8.1,5.5,12.1,8.3c5.5,3.9,8.8,9.5,11,15.7c0.3,0.8,0.6,1.7,1,2.5
			c0.8,1.5,1.3,3.2,1.6,4.9c0.3,1.5,0.8,2.9,1.4,4.2c1,2.1,1.8,4.2,2.5,6.3c1,3.2,2.4,6.3,4.1,9.1c0.9,1.5,1.8,3.1,2.6,4.6
			c1.2,2.2,2.1,4.7,2.6,7.2c0.6,3.3,1,6.6,1.5,9.9c0.6,4.8,0.9,9.5,1,14.3c0.2,2.7,0,5.5-0.5,8.2c-0.4,2.2-0.4,4.4-0.1,6.5
			c0.5,2.6,0.7,5.3,0.6,7.9c-0.4,4.7-0.8,9.4-1.4,14.1c-0.6,4.2-2.2,8.1-4.6,11.5c-1.2,1.7-2.6,3.4-3.9,5.1
			c-0.3,0.4-0.7,0.8-0.9,1.2c-1.1,1.6-2.4,3.1-3.9,4.4c-0.8,0.8-1.6,1.7-2.3,2.6c-1.6,2-3.1,4.1-4.7,6c-2.1,2.3-3.9,4.9-5.5,7.6
			c-0.8,1.4-1.6,2.8-2.5,4.2c-1.9,3.2-4.4,5.9-7.3,8.1c-1,0.7-1.9,1.5-2.8,2.2c-5.7,4.5-11.7,8.6-18,12.2c-0.9,0.6-2,1-3,1.4
			c-2.9,1-5.6,2.5-8,4.5c-1.6,1.3-3.2,2.4-5,3.3c-4.2,2.1-8.5,4.1-12.9,6c-3.5,1.5-7.2,2.2-11,2.1c-0.3,0-0.7,0-1,0.1
			c-0.2,1.5-0.5,3-0.7,4.5c1.2-0.3,2.5-0.6,3.7-0.8c3.5-0.4,7-1.2,10.3-2.5c2.5-0.9,5.1-1.5,7.7-1.9c3-0.2,5.9-0.9,8.6-2.2
			c2.6-1.1,5.2-2.6,7.5-4.3c3.6-2.7,7.6-4.9,11.8-6.6c1.2-0.5,2.4-1,3.6-1.5c1.6-0.6,3-1.6,4.1-3c1.5-2.1,3.2-4.1,5-6
			c4.6-4.3,8.9-8.9,14-12.7c1.6-1.2,3-2.7,4.1-4.3c2.6-3.8,5.7-7.2,9.3-10.1c1.2-0.9,2.2-2.2,2.8-3.6c1.1-2.3,2.2-4.6,3.2-7
			c0.6-1.6,1.1-3.2,1.4-4.8c0.4-2.3,1.1-4.5,2-6.7c0.9-2,1.6-4.1,2-6.2c0.8-4.8,2.2-9.4,4.2-13.8c0.2-0.5,0.4-1,0.5-1.6
			c0.8-4,1-8,0.7-12.1c-0.4-3-0.5-6.1-0.3-9.2c0.3-2.8,0.6-5.5,1-8.3c0.3-1.8,0.1-3.6-0.6-5.3c-1.3-2.9-2.4-5.8-3.1-8.9
			c-0.8-3.3-1.6-6.6-2.3-9.9c-0.3-1.5-0.6-3.1-0.8-4.7c-0.4-3.2-1.2-6.4-2.6-9.3c-1.8-3.7-2.9-7.6-3.5-11.6
			c-0.2-1.6-0.8-3.2-1.8-4.5c-1.1-1.7-2.3-3.3-3.4-4.9c-1.3-1.9-2.9-3.6-4.6-5.2c-1.5-1.2-2.8-2.6-4-4.1c-1.8-2.5-4-4.7-6.4-6.7
			c-3-2.5-5.7-5.4-8-8.7c-1.5-1.9-3.3-3.4-5.3-4.7C239.5,66.4,239.1,66.5,238.9,66.4z M178.3,303.7c1.8-0.3,3.4-0.6,4.9-0.9
			c10.9-2.3,21.8-4.6,32.7-7c3.5-0.8,6.9-1.9,10.5-2.4c2.5-0.3,4.9-1,7.2-2c1.6-0.7,3.2-1.3,4.8-1.9c0.3-0.1,0.5-0.2,0.8-0.3
			c0.8-0.2,1.5-0.5,2.2-0.8c2.5-1.7,4.9-3.3,7.3-5.2c4.6-3.8,9.2-7.7,13.8-11.6c0.3-0.2,0.5-0.5,0.7-0.8c1.7-3.1,3.9-5.9,6.6-8.3
			c2.6-2.5,4.8-5.4,6.3-8.7c2.2-4.6,4.9-9,8.1-13c1.2-1.6,2.4-3.2,3.5-4.9c0.7-1.1,1.2-2.3,1.7-3.5c0.8-2.1,1.5-4.3,2.3-6.4
			c5.4-15.3,10.7-30.5,15.1-46.1c0.6-2.2,1.3-4.3,2.1-6.3c0.6-1.3,1-2.7,1.3-4.1c0.1-0.9,0.2-1.8,0.3-2.6c0.2-1.9,0.5-3.7,0.9-5.5
			c0.4-1.3,0.5-2.7,0.4-4c-0.3-3.2-0.6-6.4-1.2-9.5c-0.8-5.1-1.8-10.2-2.8-15.2c-0.2-0.7-0.4-1.4-0.8-2.1c-0.7-1.6-1.6-3.2-2.2-4.8
			c-0.6-1.6-1-3.2-1.4-4.8c-0.7-2.9-1.9-5.7-3.5-8.2c-3.4-4.9-6.2-10.2-8.4-15.7c-1.4-3.5-3.5-6.8-6-9.7
			c-12.1-14-24.2-28.1-37.2-41.4c-0.8-0.8-1.6-1.7-2.2-2.6c-1-1.5-2.3-2.8-3.8-3.9c-1.9-1.3-3.7-2.8-5.4-4.4
			c-1.6-1.7-3.6-2.5-5.6-3.5c-0.6-0.3-1.3-0.6-1.9-0.9c-6.6-2.4-13.2-4.9-19.9-7.3c-0.5-0.2-1-0.2-1.5-0.2c-2.2,0.1-4.4-0.2-6.5-0.7
			c-0.9-0.2-1.9-0.4-2.8-0.7c-4.1-1.2-8.4-1.6-12.6-1.2c-2.7,0.1-5.5,0.1-8.2,0c-3.5-0.2-7-0.7-10.6-1c-1.4-0.1-2.8-0.1-4.1,0.1
			c-8,1.5-16,2.9-24,4.5c-10.1,2-20.1,4-30.1,6.6c-2.5,0.7-5,1.2-7.5,1.5c-1.6,0.2-3.2,0.6-4.7,1.2c-2.2,0.9-4.3,1.7-6.5,2.6
			c-0.3,0.1-0.6,0.2-0.9,0.3c-0.7,0.1-1.3,0.4-1.9,0.7c-1.9,1.2-3.7,2.4-5.5,3.8c-5.3,4.3-10.5,8.7-15.7,13.1
			c-0.3,0.2-0.5,0.5-0.7,0.8c-1.6,3-3.8,5.7-6.4,8c-2.7,2.5-4.9,5.5-6.4,8.9c-2.2,4.5-4.9,8.8-8,12.8c-0.5,0.7-1.1,1.4-1.6,2.1
			c-2,2.5-3.4,5.3-4.4,8.3c-0.4,1.5-1,2.9-1.5,4.3c-5.5,15.7-10.9,31.3-15.4,47.3c-0.5,1.8-1.1,3.7-1.8,5.4c-0.6,1.3-1,2.6-1.2,4
			c-0.1,0.9-0.2,1.8-0.3,2.6c-0.2,1.9-0.5,3.7-0.9,5.5c-0.4,1.4-0.6,2.9-0.4,4.4c0.4,3.7,0.9,7.4,1.4,11.1s1.4,7.4,2,11.1
			c0.2,1.9,0.8,3.8,1.9,5.5c0.5,0.9,1,1.8,1.3,2.8c0.6,1.7,1.1,3.4,1.5,5.1c0.8,3.6,2.3,7,4.4,10c2.9,4.2,5.2,8.7,7.1,13.4
			c0.8,1.9,1.6,3.7,2.5,5.4c0.6,1.1,1.3,2.2,2.2,3.2c1.3,1.7,2.8,3.3,4.2,4.9C56.8,254,68,266.9,80,279.1c1,1,2,2.1,2.8,3.3
			c1,1.4,2.2,2.7,3.6,3.7c1.8,1.4,3.7,2.9,5.5,4.3c0.2,0.2,0.4,0.4,0.6,0.6c0.5,0.5,1,1,1.6,1.4c2.7,1.3,5.3,2.6,8.1,3.7
			c5.6,2.1,11.3,4.1,17,6.2c0.4,0.2,0.8,0.2,1.2,0.2c3.2-0.1,6.4,0.4,9.5,1.4c1,0.3,2,0.5,3,0.8c2.2,0.6,4.4,0.8,6.6,0.6
			c6.6-0.5,13.2-0.2,19.8,0.8c1.8,0.3,3.7,0.2,5.6,0.3c0.6-2.6,1.3-5.1,1.9-7.6c-0.9,0-1.5,0-2.1,0c-3.1,0.1-6.2,0.2-9.3,0.1
			c-2.6,0-5.2-0.5-7.6-1.5c-1.7-0.7-3.5-1.3-5.3-1.8c-3.7-1.1-7.6-1.2-11.5-1.4c-6.7-0.2-13.2-2.2-18.8-5.9
			c-3.3-2.2-6.8-4.1-10.2-6.3c-1.8-1-3.4-2.2-5-3.5c-3.4-3-7.2-5.6-11.2-7.8c-1.9-1-3.7-2.3-5.3-3.9c-2.1-2.2-4.5-4.1-7-5.7
			c-1.2-0.8-2.2-1.7-3.1-2.8c-2.2-2.4-4.1-5.1-5.7-8c-0.5-0.8-1.1-1.6-1.9-2.2c-2.8-2.4-5.5-4.8-8.2-7.4c-3.1-3.2-5.8-6.8-8.1-10.6
			c-0.3-0.4-0.6-0.9-0.9-1.3c-1.3,0.7-2.4,1.4-3.6,1.9c-0.5,0.2-0.9,0.4-1.5,0.4c-0.6,0-0.8-0.4-0.5-0.9c0.3-0.4,0.6-0.7,0.9-1.1
			c1-1,2-2,3-3.1c-0.4-0.7-0.7-1.4-1.1-2.1c-1.6-2.8-2.7-5.8-3.1-9c-0.6-4.5-2-8.8-4.2-12.8c-0.5-0.9-0.9-1.8-1.4-2.7
			c-3.2-5.9-4.6-12.5-4.3-19.2c0.3-3.9,0.2-7.9,0.3-11.8c0-1.8,0.1-3.6,0.4-5.4c1-4.9,1.4-9.9,1.3-14.8c-0.1-2,0.2-4,0.7-5.9
			c0.8-3,1.3-6.1,1.5-9.2c0.1-1.4,0.4-2.9,0.9-4.2c1.1-3.2,2.5-6.2,4.2-9.1c0.3-0.6,0.6-1.3,0.7-1.9c0.8-3.7,1.4-7.5,2.4-11.2
			c1.8-6.8,5.3-12.9,8.8-18.9c1.5-2.7,3.6-5.1,6.2-7c0.6-0.4,1.1-0.9,1.6-1.3c3.4-3.1,6.3-6.7,8.6-10.7c3.7-6.2,9.1-11.1,15.5-14.2
			c3.2-1.5,6.2-3.4,9.4-5.1c2-1.1,4-2.1,6.2-2.9c4.2-1.4,8.2-3.3,12-5.6c1.9-1.2,3.9-2.1,6.1-2.7c2.9-0.8,5.7-1.9,8.4-3.2
			c1.4-0.7,2.8-1.1,4.3-1.4c3.1-0.6,6.4-0.9,9.6-0.9c0.9,0,1.8-0.2,2.7-0.5c4.7-1.9,9.5-3.3,14.5-4.2c6.3-0.9,12.7-1.2,19-0.9
			c1.9,0.1,3.8,0.5,5.6,1.2c1.7,0.6,3.4,1.3,5.1,1.8c3.6,1,7.4,1.5,11.2,1.5c7.4,0,14.7,2.3,20.8,6.6c2.8,2,5.9,3.5,8.8,5.4
			c2,1.2,4,2.6,5.8,4.1c3.3,2.8,6.8,5.3,10.6,7.3c2.1,1.1,3.9,2.5,5.6,4.1c2.1,2.1,4.4,4,6.9,5.6c1.2,0.8,2.3,1.8,3.2,2.8
			c2.2,2.4,4.1,5.2,5.7,8.1c0.4,0.8,1,1.5,1.7,2c3.2,2.5,6.3,5.3,9.1,8.3c4.9,5.6,9,11.8,12.2,18.4c0.9,1.9,1.5,3.9,1.8,6
			c0.3,2,0.8,4,1.3,6c1,3.3,2.4,6.5,4.2,9.6c3.4,6,5,12.9,4.5,19.8c-0.3,3.8-0.2,7.6-0.3,11.4c0,2-0.1,3.9-0.4,5.8
			c-1,4.9-1.4,9.9-1.3,14.8c0.1,2-0.2,3.9-0.7,5.8c-0.8,3-1.3,6.1-1.5,9.2c-0.1,1.4-0.4,2.8-0.8,4.2c-1.1,3.2-2.5,6.2-4.2,9.1
			c-0.3,0.6-0.6,1.3-0.7,2.1c-0.7,3.4-1.3,6.9-2.2,10.4c-1.8,7.1-5.4,13.4-9.1,19.7c-1.6,2.7-3.7,5.1-6.2,6.9
			c-3.2,2.5-6,5.5-8.1,8.9c-0.7,1.1-1.5,2.3-2.2,3.4c-3.6,6-8.9,10.7-15.2,13.8c-3.4,1.6-6.5,3.6-9.8,5.3c-1.9,1.1-3.8,2-5.8,2.7
			c-4.3,1.4-8.4,3.4-12.2,5.8c-1.9,1.2-3.9,2.1-6,2.6c-3,0.8-5.9,1.9-8.6,3.3c-1,0.5-2.1,0.9-3.3,1.2c-3.5,0.8-7.1,1.1-10.7,1.1
			c-0.8,0-1.5,0.1-2.3,0.4c-2.7,0.9-5.4,1.9-8.2,2.8c-0.3,0.1-0.7,0.3-1.1,0.4L178.3,303.7z M208.1,99.8c0.4,0.4,0.7,0.7,1.1,1
			c1.7,1.4,3.4,2.8,5,4.3c1.9,1.7,4.2,3.1,6.6,4.2c1.9,0.8,3.7,1.8,5.3,3.1c2.4,1.9,4.9,3.8,7.4,5.7c1.2,0.9,2.2,2,3,3.3
			c0.8,1.3,1.6,2.6,2.3,4c1.9,3.6,3.2,7.3,3,11.5c-0.1,2.7,0.1,5.4,0.1,8.1c0,1.9,0.1,3.8-0.1,5.7c-0.3,2.7-0.3,5.5,0.2,8.2
			c0.4,2,0.3,4-0.1,6c-0.6,3.4-1.1,6.8-1.9,10.1c-1,4.4-1.1,8.9-0.5,13.3c0,0.2,0,0.4,0.1,0.5c0.3,0.2,0.4,0.3,0,0.5
			c-0.2,0.1-0.2,0.5-0.2,0.8c-0.5,3.6-0.9,7.3-1.5,10.9c-0.2,1.1-0.5,2.3-1,3.3c-0.8,1.6-1.6,3.1-2.6,4.6c-2.2,3.4-4.8,6.4-8.5,8.2
			c-2.1,1.1-4.1,2.3-6,3.6c-2.4,1.5-4.8,2.8-7.3,4c-1.6,0.7-3,1.6-4.4,2.7c-2.1,1.7-4.5,3.1-7.1,4c-3.6,1.2-7.1,2.6-10.6,3.7
			c-2.8,0.9-5.4,2.3-7.8,4c-1.6,1.1-3.2,2-5,2.8c-2.8,1.3-5.7,2.4-8.6,3.6c-1.2,0.5-2.4,0.8-3.6,0.9c-2,0.2-4,0.2-6,0.1
			c-3.8-0.1-7.6-1.2-10.8-3.2c-1.9-1.2-3.9-2.3-6-3.3c-2.6-1.3-5-2.8-7.4-4.4c-1.4-1-3-1.9-4.6-2.5c-2.4-0.9-4.7-2.3-6.7-3.9
			c-3.1-2.6-6.2-5.2-9.2-7.9c-1.9-1.7-4.1-3.1-6.5-4.1c-2.3-1-4.4-2.3-6.2-3.9c-1.6-1.4-3.3-2.7-5.1-3.9c-2.2-1.4-4-3.3-5.2-5.7
			c-0.4-0.9-1-1.7-1.5-2.6l-7.6,5.2c1.1,1.7,1.7,3.6,3.5,4.8c2,1.5,3.9,3.3,5.5,5.3c1.8,2,4.1,3.6,6.6,4.6c3.1,1.3,6.1,2.9,9,4.6
			c1.2,0.6,2.1,1.5,2.8,2.6c1.2,1.8,2.7,3.4,4.6,4.6c1.5,1,3,2,4.6,2.9c1.7,1,3.5,1.7,5.4,2c2.3,0.4,4.4,1.2,6.4,2.4
			c0.8,0.5,1.7,0.9,2.6,1.3c1.9,0.7,3.5,1.9,4.7,3.5c0.3,0.3,0.5,0.6,0.8,0.9l0.5-0.4c0.2,0.4,0.3,0.9,0.6,1.2
			c1.7,1.3,3.5,2.6,5.3,3.9c0.5,0.3,1,0.6,1.5,0.8c2,0.9,4.1,1.6,6,2.6c3.7,1.9,7.7,1.8,11.7,1.7c0.6,0,1.1-0.4,1.2-1
			c0.3-1.2,0.6-2.3,0.9-3.5c0.1-0.4,0.3-0.7,0.4-1.1c0.7,1.6-0.1,3.1,0,4.6c1.8-0.5,3.5-1.1,5.3-1.4c3.7-0.7,7.2-2.3,10.1-4.8
			c0.3-0.3,0.6-0.5,1-0.7c0.9-0.4,1.5-1.3,1.5-2.3c0.1-0.5,0.2-1,0.3-1.5h0.2c-0.1,0.8-0.2,1.6-0.2,2.4c0.1,0,0.3,0,0.4-0.1
			c1.9-1,3.9-2,5.8-3.1c0.2-0.1,0.3-0.4,0.5-0.6s0.3-0.4,0.6-0.8c0.5,1.3,1.5,1.1,2.4,0.9c1.4-0.3,2.8-0.7,4.1-1.2
			c4.2-1.8,8.1-3.9,11-7.6c1-1.1,2.2-2,3.5-2.8c1.1-0.8,2.3-1.5,3.4-2.2c1.5-1.2,3.2-1.9,5.1-2.1c0.3,0,0.6-0.1,0.8-0.2
			c0.2-0.2,0.4-0.3,0.5-0.6c0.5,0,1-0.1,1.4-0.2c1.1-0.4,2.1-0.8,3.1-1.3c1.4-0.6,2.8-1.4,4.2-2.2c1.7-1.1,3.2-2.5,4.9-3.7
			c2.5-1.7,4.6-4,6-6.6c0.2-0.5,0.5-0.9,0.8-1.3c0.8-1,1.3-2.1,1.5-3.3c0.3-2.3,0.9-4.6,1.6-6.8c1-2.9,1.3-5.9,0.8-8.9
			c-0.5-3.3-0.6-6.6-0.4-9.9c0-1.2,0.3-2.4,0.8-3.5c1-2.1,1.6-4.4,1.8-6.7c0.3-4.1,0.5-8.2-1.1-12.2c-0.4-1.5-0.7-3.1-0.7-4.6
			c-0.1-1.3-0.2-2.7-0.3-4c-0.3-1.8,0-3.7,0.7-5.5c0.2-0.4,0.3-0.8,0.4-1.3l-0.8-0.3c0.7-0.2,1.1-1,1-1.7c0-0.6,0.2-1.1,0.2-1.7
			c0.2-2.1,0.3-4.2,0.3-6.2c-0.1-2.2-0.5-4.3-0.8-6.5c-0.2-2.5-0.9-4.9-2.2-7c-0.6-0.9-1-1.9-1.6-2.8c-0.4-0.7-0.9-1.3-1.5-1.8
			c-2.2-1.8-4.3-3.8-6.2-6c-1.9-2-4.2-3.6-6.8-4.6c-2.1-1-4.2-2-6.3-3c-1.1-0.6-2.1-1.2-3.2-1.8l-1.9,3l-0.2-0.1
			c0.5-1.2,0.9-2.3,1.3-3.3c-1.9-3.2-4.6-5.8-7.8-7.8c-3.2-2-6.4-3.7-10.3-3.9c-0.7,1.9-1.4,3.8-2.2,5.8c3.1,1.2,5.3,3.5,7.8,5.5
			c0.9-1.2,1.6-2.3,2.3-3.5l0.3,0.2C209.5,97.3,208.8,98.5,208.1,99.8z M186.6,276.5c1.1-0.4,2-0.8,2.9-1.2c4-1.9,8-3.9,12.1-5.8
			c1.8-0.9,3.5-2,4.9-3.4c0.9-0.8,1.8-1.5,2.7-2.2c2.5-2,5.5-3.3,8.6-3.7c1.2-0.1,2.3-0.5,3.3-1c2.3-1.1,4.6-2.4,6.8-3.8
			c4.4-3.1,8.7-6.5,13.1-9.7c2.5-1.8,4.6-4.1,6.1-6.8c1-1.6,1.8-3.2,2.9-4.8c1.3-2.2,2.8-4.3,4.4-6.3c2-2.4,3.9-4.9,5.6-7.5
			c0.8-1.1,1.7-2.2,2.7-3.2c0.7-0.6,1.4-1.3,2-2.1c1.2-1.5,2.5-2.9,3.9-4.2c2-2.1,3.8-4.3,4.5-7.1c0.6-2.3,1-4.7,1.3-7.1
			c0.4-3.2,0.5-6.4,0.8-9.6c0.4-3.5,0.2-7-0.5-10.4c-1-4-0.7-8.1,1-11.9c0.4-0.8,0.6-1.7,0.6-2.6c0.2-2.4,0.2-4.8,0.1-7.2
			c-0.3-5.5-1.1-11-1.9-16.5c-0.4-3.4-1.4-6.7-3.1-9.8c-0.8-1.5-1.7-2.9-2.5-4.4c-1.2-2.2-2.3-4.6-3.2-6.9c-1-3-2.3-5.9-3.7-8.7
			c-0.6-1.2-1-2.5-1.4-3.8c-0.4-1.2-0.7-2.3-1-3.5s-0.9-2.4-1.1-3.6c-1-4.1-2.7-7.8-6.1-10.5c-1.2-1-2.4-2-3.7-3
			c-3.2-2.3-6.5-4.5-9.8-6.7c-1-0.6-2-1.2-3-1.8c-0.3-0.2-0.7-0.3-1-0.4l-6.1,10.9c0.4,0.2,0.6,0.3,0.9,0.4
			c4.3,1.8,8.4,4.1,12.2,6.9c3.4,2.5,7,4.9,9.8,8.3c0.2,0.2,0.4,0.4,0.6,0.6c0.9,0.8,1.6,1.8,1.9,3c0.6,2,1.4,3.9,2,6
			c0.5,1.7,0.9,3.4,1.2,5.1c0.4,3.5,1.4,6.8,3,9.9c0.8,1.7,1.4,3.4,2,5.2c0.4,1.1,0.8,2.3,1.2,3.4c0.4,0.9,0.6,1.7,0.8,2.7
			c0.2,2.8,0.4,5.6,0.5,8.5c0,3.1-0.1,6.2-0.2,9.3c0,4.1-0.6,8.1-1.8,12c-1.1,3.4-1.3,7.1-0.5,10.6c0.7,3.5,1.1,7.1,1,10.7
			c-0.1,3.2-0.3,6.4-0.8,9.6c-0.1,2.5-0.6,4.9-1.3,7.2c-0.3,0.9-0.6,1.9-0.8,2.8c-0.3,1.3-0.9,2.5-1.8,3.4c-1.2,1.3-2.4,2.7-3.5,4
			c-1.6,1.9-3.5,3.7-5.5,5.1c-2.1,1.5-3.9,3.4-5.2,5.6c-0.9,1.4-2,2.8-3.1,4.1c-1.5,1.5-2.9,3.1-4.2,4.8c-0.7,0.8-1.5,1.6-2.4,2.1
			c-0.9,0.7-1.8,1.3-2.8,1.8c-4.4,2.4-8.8,4.9-13.2,7.3c-2.9,1.6-5.9,2.7-9.1,3.5c-3.8,0.8-7.4,2.7-10.3,5.3c-2.4,2.2-5,4-7.8,5.5
			c-0.7,0.3-1.2,1-1.3,1.8c-0.6,4.1-1.7,8.2-3.3,12.1C186.9,275.7,186.7,276.1,186.6,276.5z M214.6,47.7l0.6,0.1
			c2,0.3,3.9,1.2,5.4,2.6c2.2,1.8,4.6,3.5,6.8,5.3c1.1,0.9,2.3,1.8,3.4,2.6c0.9,0.7,1.9,1.4,2.9,2c3.3,2,6.7,4,9.5,6.8
			c2.6,2.7,5.1,5.4,7.6,8.2c1.2,1.4,2.6,2.6,4.1,3.7c2.1,1.4,3.9,3.1,5.4,5.2c1.1,1.5,2.3,2.8,3.6,4c3.7,3.1,6.4,7,9.3,10.8
			c1.5,1.9,2.4,4.2,2.7,6.7c0.4,3.2,1.4,6.3,3,9.1c0.4,0.6,0.6,1.2,1,1.8c1.1,2.1,1.8,4.4,2.2,6.7c0.4,3,1.1,6,1.9,9
			c0.7,2.3,1.2,4.7,1.9,7s1.4,4.6,2.2,6.9c0.4,1.2,1,2.3,1.4,3.5c0.6,1.4,0.8,3,0.6,4.5c-0.5,3.7-1,7.5-1.5,11.2
			c-0.4,2.8-0.7,5.6-0.7,8.5c0.1,3.3-0.3,6.6-1.2,9.8c-1.1,3.7-2.3,7.4-3.4,11c-0.5,1.5-0.8,3.1-0.9,4.6c-0.2,2.6-0.8,5.1-1.9,7.5
			c-0.8,1.7-1.3,3.5-1.7,5.3c-0.9,4.9-3,9.4-5,13.9c-0.8,1.8-2,3.3-3.5,4.4c-3.2,2.4-5.8,5.4-7.7,8.9c-1.4,2.3-3.2,4.4-5.3,6
			c-2.8,2.2-5.4,4.6-7.8,7.2c-1.1,1.2-2.3,2.3-3.5,3.4c-2,1.8-3.9,3.9-5.6,6.1c-0.7,0.9-1.4,1.8-2.1,2.8c-1,1.3-2.4,2.3-3.9,2.8
			c-4.7,1.9-9.3,3.8-14.1,5.8c-0.5,0.2-1,0.5-1.5,0.8c-2.4,1.2-4.8,2.5-7.2,3.6c-1.4,0.7-2.9,1.2-4.5,1.6c-2.9,0.7-5.8,1.4-8.7,2
			c-2.8,0.5-5.6,1.4-8.2,2.7c-1.3,0.6-2.6,1-4,1.2c-1.9,0.4-3.9,0.5-5.8,1c-2.5,0.6-2.1,0.3-2.2,2.7c-0.1,1.4,0,2.8,0,4.3l2.6-0.6
			c4.6-1,9.2-2.3,13.9-3.1c3.3-0.5,6.5-1.4,9.6-2.7c2-0.8,4-1.5,6.1-1.8c2.6-0.4,5-1.3,7.3-2.5c3.2-1.7,6.5-3.1,10-4.2
			c3.1-0.9,6-2.3,8.7-4c2.4-1.6,4.8-3.1,7.4-4.5c4.5-2.5,8.4-6,11.4-10.3c1.6-2.3,3.2-4.7,4.7-7.1c2.5-4,5.7-7.4,9.6-10
			c2.3-1.5,4.2-3.4,5.6-5.7c1.6-2.6,3.1-5.2,4.7-7.8c2.7-4.7,4.6-9.9,5.7-15.2c0.1-0.3,0.1-0.6,0.1-0.9l-0.2-0.1c-0.4,1-0.8,2-1.3,3
			c-0.1-0.2-0.1-0.2-0.1-0.3c1.5-6,3.4-11.9,5.7-17.6c0.9-2.1,1.5-4.4,1.6-6.7c0.2-2.8,0.9-5.5,2-8.1c0.6-1.6,1-3.2,1.1-4.9
			c0.1-4.5,0.7-8.9,1.6-13.3c0.8-3.4,1-6.8,0.7-10.3c-0.1-2.4-0.3-4.7-0.2-7.1c0.1-5.5-1.1-11-3.5-15.9c-1.2-2.5-2.5-4.9-3.7-7.3
			c-2.1-3.9-3.4-8.2-3.8-12.7c-0.2-2.8-0.9-5.6-2.2-8.1c-1.5-2.9-3.1-5.7-4.8-8.5c-2.7-4.5-6.1-8.5-10-12c-0.2-0.2-0.4-0.3-0.7-0.4
			l-0.1,0.2c0.7,0.9,1.3,1.8,2,2.6c-0.6-0.4-1.1-0.9-1.6-1.4c-3.9-3.8-7.5-7.8-10.9-12c-1.5-2-3.3-3.8-5.4-5.2
			c-2-1.3-3.7-2.9-5.2-4.8c-1.8-2.2-3.9-4.1-6.4-5.6c-3.1-2-6-4.2-8.7-6.7c-1.8-1.7-3.9-3.2-6.1-4.4c-3.7-2-7.4-4-11-6
			c-0.3-0.2-0.6-0.3-1-0.4C214.2,41.8,214.4,44.7,214.6,47.7L214.6,47.7z M44.3,110c-1.4,6.1-3.2,12.2-5.5,18
			c-0.9,2.1-1.4,4.3-1.6,6.6c-0.2,2.8-0.9,5.5-2,8.1c-0.6,1.6-1,3.3-1.1,5c-0.1,4.4-0.7,8.8-1.6,13.1c-0.8,3.4-1,6.9-0.8,10.4
			c0.1,2.5,0.3,5,0.2,7.5c-0.1,5.2,1,10.3,3.2,15c1.2,2.6,2.5,5.2,3.8,7.7c2.1,3.9,3.3,8.2,3.7,12.6c0.2,3.2,1.1,6.3,2.6,9.2
			c0.2,0.3,0.4,0.6,0.6,1l6.6-4.8c-0.2-2.4-0.9-4.7-2-6.9c-0.4-0.7-0.7-1.4-1.1-2.1c-1.5-2.8-2.5-5.9-3-9.1
			c-0.4-2.6-1.1-5.2-1.7-7.8c-0.5-2.3-1.1-4.5-1.8-6.7c-0.7-2.4-1.5-4.8-2.3-7.2c-0.5-1.3-1-2.6-1.5-3.9c-0.5-1.3-0.6-2.7-0.4-4.1
			c0.5-3.8,1-7.6,1.5-11.3c0.4-2.8,0.7-5.5,0.7-8.3c0-2.6,0.2-5.1,0.7-7.6c1-4.3,2.4-8.6,3.8-12.8c0.6-1.7,0.9-3.5,1-5.3
			c0-2,0.4-4,1.3-5.8c1.3-2.9,2.2-6,2.8-9.2c0.7-3.4,2.4-6.5,3.6-9.8c1.1-2.8,2.9-5.2,5.3-6.9c2.4-1.8,4.3-4,5.8-6.5
			c2-3.5,4.7-6.6,8-9c0.4-0.3,0.8-0.7,1.2-1.1c-0.3-0.7-0.7-1.2-0.9-1.7c-0.1-0.3,0-0.5,0.2-0.7c0.1-0.1,0.5,0,0.7,0.1
			c0.4,0.3,0.8,0.6,1.1,1c1.8-1.7,3.5-3.4,5.3-5c3.5-3,6.6-6.4,9.3-10.2c1.2-1.6,2.8-2.8,4.7-3.4c2.3-0.9,4.6-1.8,6.8-2.8
			c1.7-0.7,3.4-1.5,5.1-2.2c1.3-0.6,2.7-1.2,4-1.9c3.5-1.9,7-3.8,11-4.7c2.6-0.6,5.2-1.2,7.7-1.8c3.2-0.6,6.2-1.5,9.1-2.9
			c1.5-0.6,3.2-1.1,4.8-1.3c2.1-0.5,4.2-0.7,6.3-1.3c2.8-1,5.6-1.6,8.5-2c0.7-0.1,1.5-0.2,2.2-0.3c3.9-0.6,7.7-0.6,11.3,1.1
			c2.2,1,4.6,1.5,7.1,1.5c1.8,0.1,3.5,0.2,5.3,0.3c2.6,0.4,5.1,1.1,7.5,2.2c3.1,1.1,6.2,2,9.4,2.6c0.9-3,2-5.8,2-9
			c-0.5-0.1-0.9-0.2-1.3-0.2c-1.9-0.1-3.9-0.3-5.8-0.3c-5.4,0-10.7-1.3-15.5-3.6c-2-1-4.2-1.6-6.4-1.8c-3.4-0.1-6.9-0.2-10.3-0.3
			c-5.5,0-10.9,1-16.1,2.8c-0.2,0.1-0.5,0.2-0.7,0.3l0.1,0.2l3.5-0.5c-1.6,0.6-3.3,1.1-5,1.5c-3.8,0.9-7.6,1.8-11.4,2.4
			c-3.3,0.4-6.5,1.4-9.5,2.7c-2.2,1-4.6,1.7-7.1,2c-1.5,0.2-3,0.7-4.4,1.3c-1.1,0.5-2.1,1.1-3.1,1.5c-2.8,1.2-5.6,2.5-8.5,3.5
			c-3.7,1.2-7.2,2.9-10.5,5.1c-2,1.3-4.2,2.7-6.3,3.9c-4.3,2.4-8,5.7-10.8,9.7c-1.6,2.3-3.2,4.7-4.7,7.1c-2.6,4.2-6.1,7.8-10.2,10.6
			c-2,1.3-3.7,3-5,5c-1.7,2.7-3.3,5.4-4.9,8.1c-2.8,4.9-4.7,10.1-5.8,15.6c0,0.2,0,0.5,0,0.7H43C43.4,112.1,43.8,111,44.3,110z
			 M198.1,181.5c0-0.2,0.1-0.3,0.1-0.5l6.8,1.1c0-3.7,0.1-7.2,0-10.8c-0.1-1.1-0.4-2.1-0.8-3.1c-0.8-1.7-1.3-3.6-1.5-5.5
			c-0.1-1.5-0.3-3.1-0.4-4.6c0-2.6-0.9-5.2-2.4-7.3c-1.4-2-2.6-4.2-3.3-6.6c-0.7-2.1-1.8-4.1-3.2-5.9c-1.5-1.9-2.8-3.9-4-6
			c-1.1-2.2-2.9-4-5-5.3c-2.1-1.2-3.8-3-4.8-5.3c-0.5-1.1-1.2-2.1-2-3c-1.8-1.6-3.1-3.7-4-5.9c-0.4-0.9-1.1-1.6-2-2
			c-1.1-0.5-2.2-1.2-3.2-1.8c-0.6-0.4-1.3-0.6-1.9-0.5c-1.1,0.3-2.3,0.5-3.4,0.6c-0.7,0-1.4,0.3-2,0.7c-3.1,1.9-5.6,4.6-7.2,7.8
			c-0.9,1.7-1.8,3.4-2.7,5c-1.5,2.6-3.6,4.8-6.1,6.4c-2.8,1.7-6,2.9-9.2,3.4c-1.7,0.3-3.4,0.7-5.2,1.2c-1.3,0.2-2.2,1.4-2.2,2.7
			c0,0.6-0.1,1.2-0.2,1.8c-0.3,5.6-1.4,11.1-3.3,16.3c-1.2,3.2-2.4,6.5-3.6,9.7c-1,2.6-1.1,5.4-0.4,8.1c0.8,3.3,1.6,6.6,2.3,9.9
			c0.3,1.3,1.2,2.5,2.5,2.9c1.5,0.6,3,1.4,4.3,2.2c2.1,1.4,4.4,2.6,6.8,3.5c2.5,0.9,4.3,3.1,4.7,5.8c0.3,1.9,0.6,3.8,0.8,5.6
			c0.4,3,2.1,5.8,4.6,7.5c1.1,0.8,2.3,1.2,3.6,1.2c1.8-0.1,3.5-0.5,5.1-1.2c3.7-1.7,7.8-2.6,11.9-2.7c1.1,0,2.1-0.4,2.9-1.2
			c0.9-0.9,1.9-1.8,2.8-2.7c1.1-1.2,2.4-2.2,3.9-2.9c2.2-0.9,4.2-2.2,6.1-3.6c1.3-0.9,2.7-1.7,4.2-2.5c0.2-0.1,0.3-0.2,0.6-0.4
			l-4.1-1v-0.3l9.7-0.2c0.8,0.1,1.6,0,2.4-0.1c1.9-0.5,3.7-1.2,5.5-1.9c2.6-1.1,3.7-3.3,3.5-6.3
			C202.7,183.5,200.3,182.7,198.1,181.5L198.1,181.5z M222.6,97.4c2.7,1.7,5.6,3.2,8.5,4.6c3.5,1.4,6.6,3.7,9,6.6
			c1.4,1.8,2.9,3.5,4.3,5.2c0.1,0.1,0.2,0.2,0.3,0.3c3.1,2.7,4.3,6.4,5.3,10.1c0.9,3,1.5,6,2,9.1c0.4,2.6,0.4,5.3,0,7.9
			c-0.2,1.6-0.6,3.2-1,4.8c-0.3,1-0.5,2.1-0.4,3.1c0.1,1.5,0.2,3.1,0.2,4.6c-0.1,1.7,0.2,3.4,0.8,5.1c1.1,3,1.5,6.2,1.3,9.3
			c-0.2,3.9-0.5,7.7-2.2,11.3c-0.3,0.6-0.4,1.3-0.4,2c0,2.5,0,5,0.1,7.5c0,1.3,0.2,2.5,0.3,3.7c0.4,4.6-1.6,8.7-2.9,12.9
			c-0.4,1.3-0.9,2.5-1.4,3.8c-0.3,1-0.7,1.9-1.3,2.8c-1.3,1.9-2.8,3.7-4.4,5.4c-1.5,1.6-3.3,3-4.9,4.6c-1,0.9-1.9,1.8-2.9,2.6
			c-2.7,2-5.8,3.4-9,4.3c-2.5,0.6-4.8,1.7-6.9,3.2c-0.2,0.1-0.4,0.2-0.6,0.4c-2.2,1.1-4.1,2.6-5.6,4.5c-1.3,1.6-3,3-4.9,3.9
			c-1,0.5-2,1.1-2.9,1.6c-2.8,1.6-6,2.7-9.2,3.1c-0.3,0-0.6,0.1-0.9,0.3c-0.6,4.3-1.2,8.5-1.9,13c0.6-0.3,1.1-0.6,1.6-1
			c2.1-1.6,4.2-3.2,6.3-4.9c2.1-1.8,4.5-3.3,7.1-4.4c1.5-0.6,3-1.2,4.6-1.7c2.9-1,5.6-2.2,8.3-3.6c4-2.1,8-4.3,12.1-6.4
			c1.5-0.7,2.9-1.7,3.9-3c0.4-0.5,0.9-1,1.5-1.5c0.4-0.4,0.8-0.8,1.1-1.2c1.2-1.4,2.5-2.9,3.7-4.3c0.6-0.7,1.2-1.4,1.8-2.2
			c1.3-1.9,2.9-3.6,4.8-5c1.2-0.9,2.4-2,3.4-3.1c1.9-2,3.7-4.1,5.5-6.3c0.5-0.6,0.8-1.2,1-1.9c1.1-3.7,2-7.5,2.5-11.3
			c0.7-5.8,1-11.6-0.2-17.3c-1-4.9-0.9-10,0.2-14.9c0.5-2.8,0.8-5.6,1-8.4c0.3-3.5,0.4-7,0.5-10.4s0.6-6.9-1-10.1
			c-0.1-0.3-0.1-0.5-0.2-0.8c-0.1-0.5-0.3-1-0.5-1.4c-0.6-1.6-1.1-3.1-1.7-4.7c-0.5-1.2-0.9-2.5-1.4-3.6c-0.8-1.8-1.4-3.7-1.6-5.6
			c-0.3-2.2-0.7-4.4-1.5-6.5c-0.7-2.1-1.4-4.2-2.2-6.3c-0.2-0.6-0.4-1.1-0.8-1.6c-1.6-1.9-3.3-3.6-5.1-5.2c-3.8-3.3-8-6.2-12.4-8.7
			c-1.9-1-3.8-1.8-5.8-2.6L222.6,97.4z M92.1,199.1c0.8,1.4,1.5,2.6,2.2,3.9c0.8,1.4,1.8,2.6,3.2,3.4c1.9,1.3,3.7,2.7,5.4,4.1
			c2,1.7,4.2,3.1,6.6,4.2c1.7,0.8,3.4,1.7,4.9,2.8c4,3,7.9,6.1,11.8,9.1c1.6,1.2,3.4,2.3,5.3,3c1.6,0.6,3,1.4,4.4,2.3
			c3.1,2.3,6.3,4.4,9.7,6.4c1.4,0.8,2.8,1.8,4.2,2.8c0.8,0.5,1.6,1.1,2.4,1.6c0.7,0.5,1.5,0.7,2.4,0.4c0.6-0.2,1.2-0.2,1.8-0.1
			c2.6,0.4,5.2,0.5,7.8,0.5c1.5,0,3-0.3,4.3-1c2.2-1,4.4-2,6.7-2.8c2.4-0.9,4.6-2,6.6-3.5c1.6-1.1,3.3-2.1,5.1-2.9
			c4.6-2,9.4-3.9,14.1-5.7c1.7-0.7,3.3-1.6,4.8-2.8c1.5-1.3,3.3-2.4,5.2-3.1c2.6-1,5.2-2.3,7.6-3.7c2.2-1.3,4.5-2.3,6.8-3.5
			c0.9-0.5,1.9-0.9,2.7-1.4c0.4-0.3,0.7-0.7,0.9-1.2c0.4-0.6,0.6-1.3,1-1.9c1.5-2.3,3.1-4.6,4.5-6.9c0.5-0.9,0.9-1.9,1-3
			c0.5-3.1,0.9-6.3,1.3-9.4c0-0.3,0-0.7,0-1l-6.7,1.2c-0.5,1.6-1.1,3.3-1.8,4.8c-2.5,4.7-6.6,8.5-11.5,10.5c-1.3,0.5-2.7,1-4.1,1.4
			c-1.9,0.5-3.7,1.5-5.1,3c-1.4,1.5-2.8,3.1-4.2,4.6c-3,3.5-6.6,6.5-10.5,8.9c-2.9,1.8-5.8,3.6-8.6,5.4c-2.9,1.8-6,3.2-9.2,4.2
			c-2.9,0.8-5.7,1.6-8.6,2.3c-0.9,0.2-1.8,0.3-2.8,0.4c-2.7,0-5.4-0.6-7.8-1.8c-3.9-1.7-7.8-3.4-11.8-5.1c-3-1.2-5.7-3.2-7.7-5.8
			c-1.6-2-3.5-3.7-5.7-5.1c-3.7-2.2-6.9-5.1-9.6-8.4c-2.1-2.6-4.9-4.6-8-5.8c-2-0.8-3.9-1.7-5.9-2.6c-2.3-1.1-4.2-2.8-5.4-5
			c-0.4-0.7-0.8-1.3-1.2-2L92.1,199.1z M90.5,91.6c0.2-0.3,0.4-0.5,0.6-0.8c1.1-1.6,2.6-3,4.4-4c4.7-2.8,9.5-5.3,14.3-7.8
			c3.1-1.7,6.4-3,9.9-3.8c3.5-0.8,6.7-2.4,9.3-4.8c4.8-4.2,10.3-7.5,16.3-9.9c1-0.4,1.9-0.9,2.9-1.3c1.3-0.5,2.7-1,4.1-1.5
			s2.8-0.7,4.2-1.1c1.1-0.4,2.3-0.4,3.4-0.1c1,0.3,2.1,0.5,3.1,0.6c3.3,0.5,6.5,1.4,9.5,2.7c2.5,1.1,5.1,1.7,7.8,1.7
			c2.5,0.1,4.9,0.5,7.3,1.2c0.6,0.2,1.2,0.4,1.9,0.4c1.6,0.1,3.1,0.4,4.6,1.1c0.3,0.1,0.7,0.2,1.1,0.4c0.9-3.2,1.8-6.4,2.7-9.5
			c-1.6-0.9-3.4-1.4-5.2-1.6c-2.9-0.2-5.8-0.3-8.6-0.4c-3,0.1-6-0.2-8.9-0.8c-2.8-0.7-5.7-1-8.6-1c-1.4,0-2.8-0.3-4.1-0.7
			c-1-0.4-2-0.7-3.1-0.8c-1.8-0.3-3.6-0.6-5.3-1.2c-2.5-0.7-5.1-0.9-7.6-0.5c-2.6,0.5-5.1,1.3-7.5,2.5c-3.8,1.8-7.6,3.7-11.4,5.5
			c-2,0.9-3.8,2.2-5.5,3.6c-1.2,1.1-2.4,2-3.7,2.9c-2,1.5-4.3,2.4-6.8,2.7c-1.9,0.3-3.8,0.9-5.5,1.9c-7.6,4-14.1,9.5-20.7,14.9
			c-0.6,0.6-1.2,1.2-1.6,1.8L90.5,91.6z M66,215.6c1.4,2.2,2.3,4.7,2.6,7.3c0.1,0.3,0.1,0.5,0.3,0.8c0.8,1.8,1.4,3.7,1.8,5.6
			c0.9,3.1,2.2,6,4.8,8.2c1.7,1.5,3.5,2.9,5.3,4.3c2.4,1.8,4.9,3.4,7.4,5c2.8,2.1,5.9,3.7,9.3,4.8c0.5,0.2,1,0.3,1.4,0.5
			c3.2,1.2,5.9,3.2,8,5.9c0.9,1.1,1.9,2,3.1,2.8c2.2,1.5,4.6,2.8,7,4c5.2,2.3,10.4,4.5,15.6,6.6c1,0.4,1.9,0.6,2.9,0.9
			c2.7,0.5,5.5,0.7,8.3,0.5c4.1-0.1,8.2,0.3,12.2,1.3c1.5,0.4,3.1,0.5,4.7,0.3c0.5-2.1,1.1-4.2,1.6-6.1c-3-1.1-5.8-2.2-8.7-3.2
			c-0.9-0.4-1.9-0.5-2.9-0.5c-4.6,0.1-8.9-1.6-13.4-2.1c-1-0.2-2-0.5-2.9-1c-1-0.4-2-0.9-3-1.5c-4.1-2.4-8.1-4.9-12.2-7.4
			c-2.9-1.7-5.5-3.8-7.8-6.3c-2.8-3-6.3-5.3-10.2-6.5c-5.1-1.7-9.8-4.3-14.1-7.5c-3.5-2.6-7.1-4.9-9.9-8.4c-0.1-0.1-0.3-0.3-0.4-0.4
			c-1.1-1-1.9-2.3-2.3-3.7c-0.8-2.6-1.7-5.1-2.6-7.8L66,215.6z M58.9,241.1c4.2,3.8,8.1,7.9,11.7,12.3c1.7,2.2,3.7,4.2,6,5.9
			c1.8,1.4,3.5,2.9,5,4.6c1.8,2.1,3.9,4,6.3,5.5c3,1.8,5.7,4,8.3,6.3c2.4,2.3,5.2,4.2,8.2,5.8c2.9,1.5,5.7,3.1,8.6,4.6
			c2.9,1.6,6,2.8,9.2,3.4c3.8,0.7,7.7,1.1,11.6,1.1c5.1,0.1,10.1,1.3,14.7,3.5c1.6,0.8,3.4,1.4,5.2,1.6c4.3,0.5,8.7,0.7,13.1,0.4
			c0.2,0,0.4-0.1,0.6-0.2c0.4-2.3,0.8-4.6,1.3-7c-1.1,0.1-2,0.2-2.8,0.3c-2.4,0.4-4.9,0.1-7.1-0.9c-3.5-1.5-7.2-2.2-11-2.1
			c-2.7,0-5.5-0.5-8-1.6c-3.1-1.3-6.4-2.3-9.7-3c-1.3-0.3-2.5-0.6-3.8-1c-3.8-1.3-7.8-2.1-11.8-2.5c-2.4-0.2-4.6-1.2-6.4-2.8
			c-2-1.7-4.2-3.3-6.3-4.9c-1.2-1-2.5-1.9-3.8-2.8c-1-0.7-2-1.5-3.1-2.1c-3.3-2-6.6-3.9-9.3-6.7s-5.1-5.4-7.6-8.2
			c-1.3-1.5-2.8-2.8-4.5-3.9c-1.9-1.2-3.6-2.8-4.9-4.7c-1.4-1.9-3.1-3.7-4.9-5.3c-1.5-1.3-2.8-2.8-4.1-4.4c-2.2-2.8-4.6-5.5-6.1-8.9
			l-5.9,3.8c3.1,6.2,7.6,11.7,13,16L58.9,241.1z M81.8,86.6c-1,1.7-1.8,3.2-2.8,4.7c-1.4,2.3-2.9,4.4-4.5,6.5
			c-2.1,2.5-4.1,5.1-5.8,7.8c-0.7,1.1-1.6,2.1-2.5,3c-0.8,0.7-1.5,1.5-2.2,2.3c-1.1,1.4-2.3,2.7-3.6,3.9c-2.2,2-3.8,4.6-4.7,7.4
			c-0.4,1.4-0.7,2.9-0.9,4.3c-0.3,2.9-0.5,5.8-0.8,8.7c-0.2,2.4-0.4,4.7-0.5,7.1c-0.2,2.6,0.5,5.2,0.9,7.7c0.7,3.5,0.4,7.1-0.9,10.4
			c-0.4,1.2-0.7,2.4-0.8,3.6c-0.2,1.2-0.2,2.4-0.2,3.6c0.2,4,0.5,8,0.9,11.9c0.1,1.1,0.3,2.2,0.5,3.3c0.1,0,0.3,0,0.4,0
			c3.1-1.4,6.2-2.8,9.3-4.1c0.7-0.3,0.7-0.8,0.7-1.3c0.1-2.5,0.1-4.9,0.2-7.4c0-4.1,0.6-8.2,1.8-12.2c1.1-3.4,1.2-7,0.5-10.5
			c-0.7-3.2-1-6.4-1-9.7c0-3.4,0.2-6.8,0.7-10.1c0.3-2.3,0.3-4.6,1.1-6.9c0.4-1.3,0.8-2.6,1.1-3.9c0.3-1.1,0.8-2.2,1.6-3
			c1-1,1.9-2.1,2.8-3.1c2-2.4,4.3-4.6,6.8-6.5c1.4-1.1,2.6-2.3,3.6-3.6c1.6-2,3-4.2,4.6-6.5L81.8,86.6z M80.6,206.7l-6.4,3.6
			c0,0.3,0.1,0.6,0.2,0.9c0.9,2.8,1.8,5.6,2.8,8.3c0.2,0.6,0.6,1.1,1,1.5c2.7,2.9,5.6,5.6,8.7,8c4.8,3.8,10.3,6.8,16.1,8.8
			c2.4,0.8,4.8,1.9,6.8,3.4c1.6,1.2,3.1,2.4,4.6,3.6c2.1,1.6,4.2,3.4,6.4,4.9c4.6,3,9.3,5.9,13.9,8.8c0.4,0.3,0.8,0.5,1.2,0.7
			c2,0.5,4.1,0.9,6.1,1.4c1.6,0.3,3.2,0.6,4.8,0.9c0.9,0.2,1.9,0.4,2.9,0.5c2.7,0.2,5.3,0.9,7.8,2c1.7,0.7,3.6,1.2,5.4,1.4
			c0.7-2.7,1.3-5.3,1.9-7.9c-0.2-0.1-0.3-0.1-0.5-0.1c-2.6,0.6-5.2,0-7.7-0.6s-4.9-1.4-7.3-2.2c-1.4-0.4-2.8-0.8-4.1-1.3
			c-3.3-1.4-6.3-3.5-8.8-6.1c-1.5-1.6-3.3-2.8-5.3-3.7c-0.6-0.2-1.1-0.5-1.6-0.9c-1.9-1.1-3.9-1.9-6.1-2.4c-1.7-0.3-3.3-0.9-4.8-1.6
			c-2.1-1.1-4.1-2.4-6-3.7c-2.1-1.4-3.9-3.1-5.4-5.2c-0.4-0.6-0.9-1.1-1.5-1.4c-2.7-1.5-5.4-3.1-8.2-4.4c-3.4-1.5-6.4-3.8-8.9-6.6
			c-1.4-1.8-2.9-3.5-4.3-5.2c-0.1-0.1-0.1-0.1-0.2-0.2C82.7,210.4,81.4,208.6,80.6,206.7z M160.1,276.4c-2.3-0.4-4.6-0.9-6.9-1.3
			s-4.9-0.6-7.3-0.8c-2-0.1-3.9,0-5.9-0.1c-3.5,0-7-0.8-10.3-2.1c-1.3-0.5-2.6-1-3.9-1.5c-6.7-2.6-13.2-5.8-19.4-9.5
			c-0.9-0.5-1.8-1.1-2.6-1.9c-2.3-2-4.9-3.6-7.7-4.6c-2.2-0.8-4.3-1.8-6.2-3.1c-3.6-2.5-7.3-5-10.8-7.6c-1.5-1.2-3-2.5-4.2-4
			c-2.9-3.3-4.7-7.2-6.2-11.3c-0.2-0.7-0.5-1.4-0.8-2c-1-2-1.7-4.1-2-6.3c-0.3-1.3-0.8-2.5-1.5-3.6l-8.6,5.3c0.6,1.1,1,2.1,1.6,2.9
			c1.1,1.6,2.2,3.2,3.3,4.8c1.4,2,3,3.8,4.8,5.4c1.4,1.2,2.7,2.5,3.9,4c2,2.7,4.4,5.2,7,7.3c2.4,1.9,4.4,4.1,6.2,6.6
			c1.9,2.8,4.4,5.1,7.3,6.8c1.9,1.3,3.9,2.4,6,3.3c4.1,1.8,7.9,4.1,11.4,6.9c1.1,0.9,2.3,1.7,3.4,2.6c1.1,0.9,2.5,1.5,3.9,1.7
			c3.7,0.3,7.4,1.1,10.9,2.1c2.2,0.7,4.5,1.3,6.7,2c2.7,0.9,5.4,1.8,8.1,2.9c2.1,0.8,4.2,1.4,6.5,1.6c1.1,0.1,2.1,0.3,3.2,0.4
			c3.4,0.4,6.7,1.2,9.8,2.5c3.1,1.2,6.2,0.7,9.3,0.3c0.5-2.7,0.9-5.3,1.4-7.7c-1.9-0.5-3.7-1-5.5-1.6c-1.3-0.4-2.6-0.5-4-0.5
			l-0.9,1.4l-0.1-0.1C160,277.3,160,276.8,160.1,276.4z M194.1,67.6c-0.7-0.6-1.6-1-2.6-1.2c-1-0.2-2-0.4-3-0.7
			c-0.6-0.2-1.3-0.3-1.9-0.4l-4.4-0.8c-1.1-0.3-2.3-0.5-3.4-0.6c-2.4-0.2-4.8-0.7-7-1.7c-1.2-0.5-2.5-1-3.8-1.3
			c-2.9-0.7-5.9-1.3-8.9-1.8c-0.7-0.2-1.4-0.2-2.1,0c-3.6,0.9-7.3,1.7-10.7,3.4c-0.4,0.2-0.9,0.4-1.4,0.6c-5,1.9-9.7,4.7-13.8,8.3
			c-3.7,3.3-8,5.8-12.7,7.2c-3,1-6,2.3-8.8,3.8c-2.9,1.5-5.8,3-8.6,4.5c-1.2,0.7-2.4,1.3-3.8,2.1l6.3,7.9c0.9-0.3,1.8-0.5,2.8-0.7
			c1.2-0.2,2.3-0.6,3.3-1.3c1-0.7,2.1-1.4,3.2-2c1.8-0.9,3.4-2.2,4.7-3.8c1.5-1.9,3.4-3.4,5.6-4.5c1.1-0.6,2.2-1.2,3.3-1.8
			c2.8-1.5,5.8-2.4,8.8-2.8c0.8-0.1,1.6-0.4,2.3-0.8c2.7-1.6,5.3-3.4,8-5c0.6-0.4,1.2-0.7,1.8-1.1c3.6-2.4,7.8-2.7,11.9-3.6
			c1.5-0.4,3.1-0.6,4.6-0.8c0.9-0.2,1.8-0.3,2.8-0.3c2.3,0.2,4.6,0.6,6.9,1.1c3.1,0.8,6.1,1.8,9,2.8c1.4,0.5,2.8,1.2,4.1,2.1
			c1.5,0.9,2.8,2.1,4.3,3.1c0.3,0.2,0.5,0.3,0.8,0.4C192.6,74.4,193.4,71.1,194.1,67.6L194.1,67.6z M76.5,192.1c0-1.7-0.1-3.1,0-4.6
			s0.3-3.1,0.6-4.7c0.1-1,0.4-2,0.7-3c0.4-1,0.5-2,0.4-3c-0.1-1.6-0.2-3.2-0.2-4.7c0.1-1.7-0.2-3.4-0.8-5.1c-1-2.7-1.4-5.6-1.2-8.5
			c0.2-4.1,0.4-8.2,2.2-12c0.3-0.7,0.4-1.4,0.4-2.2c0-2.5,0-4.9-0.1-7.4c0-1.3-0.2-2.6-0.3-3.9c-0.4-4.6,1.6-8.8,3-13
			c0.4-1.2,0.8-2.4,1.3-3.5c0.4-1.1,0.8-2.2,1.4-3.2c1.5-2.3,3.4-4.5,5.4-6.3c1.7-1.4,3.3-3,4.9-4.6l-4.5-6c-1.4,1.7-2.8,3.2-4,4.8
			c-1.2,1.7-2.7,3.2-4.3,4.5c-1.8,1.3-3.4,2.8-4.8,4.5c-1.5,1.7-3,3.4-4.5,5.2c-0.5,0.6-0.8,1.2-1.1,1.9c-1.1,3.6-1.9,7.4-2.5,11.1
			c-0.8,5.9-1,11.8,0.2,17.6c0.9,4,1,8.2,0.3,12.3c-0.4,2.1-0.9,4.1-1.1,6.2c-0.3,3.8-0.4,7.6-0.6,11.4c0,0.3,0.1,0.6,0.2,0.9
			c0,0.1,0.1,0.3,0.1,0.3c-0.7,0.7-0.5,1.6-0.5,2.4c-0.1,1.5-0.1,3.1-0.2,4.6c-0.2,1.4,0,2.8,0.6,4.1c0.2,0.7,0.5,1.4,0.6,2.1
			c0.5,1.5,1,2.9,1.6,4.5L76.5,192.1z M57.3,200.4c-0.6-1.1-1.1-2-1.6-2.9c-1.5-2.7-2.6-5.7-3-8.8c-0.4-1.8-0.7-3.6-0.8-5.4
			c0-1.1-0.3-2.2-0.4-3.3c-0.6-4.7-0.9-9.4-1-14.2c-0.2-2.8,0-5.7,0.5-8.5c0.4-2.1,0.4-4.3,0.1-6.4c-0.5-2.8-0.7-5.7-0.6-8.6
			c0.3-4,0.7-8.1,1.1-12.1c0.3-2.7,1-5.4,2.1-7.9c1.6-3.5,3.7-6.7,6.2-9.6c0.5-0.6,1-1.2,1.4-1.8c1.1-1.6,2.4-3.1,3.8-4.3
			c0.7-0.6,1.3-1.3,1.9-2c1.9-2.8,4-5.4,6.2-7.9c3.1-3.4,5-7.6,7.4-11.5l-4.1-4.5c-2.7,1.8-5.2,4-7.2,6.6c-2.6,3.8-5.7,7.2-9.3,10.1
			c-1.2,0.9-2.2,2.2-2.8,3.6c-1,2.2-2.2,4.4-3.1,6.7c-0.7,1.6-1.1,3.3-1.6,5c-0.7,2.2-1.1,4.4-2,6.5c-0.9,2.1-1.5,4.2-2,6.4
			c-0.8,4.8-2.2,9.4-4.2,13.8c-0.2,0.5-0.4,1-0.5,1.6c-0.8,4-1,8-0.7,12.1c0.4,3,0.5,6.1,0.3,9.2c-0.3,2.8-0.6,5.5-1,8.3
			c-0.3,1.8-0.1,3.6,0.7,5.3c1.4,2.9,2.4,5.8,3.2,8.9c0.7,3.3,1.5,6.5,2.3,9.8c0.4,1.6,0.6,3.2,0.9,4.8s0.5,3,0.8,4.6L57.3,200.4z
			 M199.8,48.2c-0.7-0.2-1.2-0.4-1.8-0.5c-3.3-0.9-6.5-2-9.6-3.3c-2.4-1-4.9-1.6-7.5-1.7c-3.3-0.2-6.6-0.8-9.8-2
			c-3.2-1.4-6.7-1.8-10.1-1.3c-2.6,0.4-5.2,0.5-7.7,1.1c-3.5,1-7,1.8-10.5,2.4c-2.3,0.5-4.6,1.1-6.8,1.9c-2.8,1-5.7,1.7-8.6,2.1
			c-1.8,0.2-3.5,0.5-5.2,1c-3.8,1.3-7.4,3.1-10.6,5.5c-3.3,2.5-6.8,4.5-10.6,6c-1.5,0.6-2.9,1.3-4.4,1.8c-1.8,0.6-3.3,1.8-4.3,3.3
			c-2.5,3.5-5.4,6.6-8.7,9.4c-1.9,1.7-3.7,3.5-5.6,5.4l4.1,3.4c1.7-1.5,3.3-3,4.9-4.4c1-0.9,2.1-1.7,3.2-2.5
			c5.7-4.5,11.7-8.6,18-12.2c1-0.6,2.1-1.1,3.2-1.4c2.8-1,5.3-2.4,7.6-4.2c1.6-1.3,3.3-2.4,5.1-3.4c4.3-2.2,8.7-4.2,13.1-6.1
			c5.6-2.4,11.4-2.3,17.3-1.5c1.3,0.2,2.6,0.5,4,0.6c1.7,0.2,3.3,0.6,4.9,1.1c1.3,0.3,2.5,0.6,3.8,0.7c2.3,0.3,4.6,0.5,6.9,1
			c3.1,0.7,6.2,1,9.4,1c1.6,0,3.2,0,4.7,0c3.3,0,6.5,0.6,9.6,1.6c0.2,0.1,0.5,0.1,0.7,0.2L199.8,48.2z M189.2,80.7
			c-0.2-0.4-0.2-1-0.5-1.2c-1.8-1.4-3.6-2.7-5.5-4c-0.4-0.3-0.8-0.5-1.2-0.6c-2.1-0.9-4.2-1.8-6.3-2.7c-2.5-1.2-5.2-1.8-8-1.7
			c-0.7,0-1.5-0.1-2.2,0c-0.9,0-1.7,0.2-2.6,0.4c-2.5,1-5,1.7-7.6,2.2c-2.8,0.5-5.4,1.7-7.7,3.5c-2.7,2-5.6,3.9-8.6,5.5
			c-1.2,0.7-2.5,1.1-3.8,1.2c-1.9,0.1-3.8,0.5-5.5,1.3c-1.3,0.6-2.7,1.3-4,2c-2.5,1.2-4.8,2.9-6.5,5.1c-1.2,1.4-2.7,2.6-4.3,3.5
			c-1,0.6-1.9,1.2-2.9,1.8c-1.6,1.3-3.4,2.1-5.4,2.3c-0.4,0.1-0.9,0.2-1.3,0.3l3.4,6c0.2-0.1,0.5-0.2,0.7-0.3
			c2.4-1.6,4.9-2.9,7.6-4.1c1.5-0.7,2.8-1.6,4.1-2.6c1.9-1.6,4.1-2.9,6.5-3.7c3.8-1.3,7.7-2.8,11.6-4c2.5-0.8,4.9-2.1,7-3.7
			c1.7-1.3,3.5-2.3,5.4-3.1c2.8-1.1,5.5-2.2,8.2-3.4c1.4-0.6,2.9-1,4.4-1c1.6,0,3.2-0.1,4.7,0c4.1,0.1,8,1.2,11.5,3.3
			c2.9,1.8,6,3.3,9,4.9c0.1,0,0.2,0,0.4-0.1c0.3-1.4,0.6-3,1-4.4c0.5-1.2,0-2.5-1.1-3.1L189.2,80.7z M217.3,183.8
			c0.1-0.3,0.3-0.7,0.4-1c0.4-1.8,0.4-3.7,0.1-5.5c-1.3-7.7-2.9-15.4-3.6-23.3c-0.3-3.6-1.6-6.9-3.8-9.7c-1.2-1.5-1.9-3.2-2.3-5
			c-0.7-3.2-2.2-6.2-4.4-8.6c-2.7-3.3-6-6-9.6-8.1c-2.2-1.1-4.1-2.7-5.6-4.7c-0.1-0.1-0.2-0.1-0.3-0.2c-1,2.2-2,4.3-3.1,6.4
			c0.4,0.3,0.9,0.6,1.4,0.9c2.4,1.4,4.2,3.4,5.4,5.8c1.1,2.2,2.4,4.2,4,6.1c1.3,1.6,2.3,3.4,3,5.3c1,3,2.4,5.8,4.1,8.3
			c1.2,1.7,1.9,3.7,1.9,5.8c0,1.6,0.1,3.2,0.1,4.7c-0.1,2.4,0.4,4.7,1.3,6.9c0.5,1.1,0.7,2.2,0.8,3.4c0.2,3.2,0.2,6.4,0.2,9.6
			c0,0.5,0,1,0,1.6L217.3,183.8z M95.8,104.5c-0.9,0.6-1.6,1.3-2.4,1.8c-3.6,2.2-6.6,5.4-8.5,9.2c-0.6,1-1,2.1-1.2,3.2
			c-0.3,2.3-0.9,4.7-1.7,6.9c-1,2.9-1.3,5.9-0.8,8.9c0.4,3.2,0.6,6.5,0.5,9.7c0,1.3-0.3,2.6-0.8,3.8c-1,1.9-1.6,4.1-1.8,6.3
			c-0.3,4.2-0.6,8.4,1,12.5c0.4,1.5,0.7,3.1,0.8,4.6c0.2,1.3,0.2,2.7,0.3,4c0.3,1.9,0,3.7-0.7,5.5c-0.1,0.4-0.3,0.8-0.3,1.2l6.6-2.7
			c0.1-1.6,0.2-3.2,0.3-4.8c0.3-2.5,0.2-5-0.2-7.5c-0.3-2-0.3-4,0.1-6c0.7-3.5,1.3-7,2-10.4c0.8-3.4,1.1-6.9,0.7-10.4
			c-0.3-2.5-0.2-5,0.4-7.5c0.4-1.8,0.6-3.7,0.7-5.5c0-2.7,0.8-5.2,2.3-7.5c0.4-0.6,0.7-1.3,1.1-1.9c1.1-1.6,2.2-3.2,3.5-4.7
			c1-1.2,2.2-2.2,3.3-3.4L95.8,104.5z M186,105.4c0.6-2.8,1.1-5.2,1.6-7.7c0-0.4-0.2-0.8-0.4-1.1c-0.9-1-2.1-1.7-3.4-2.1
			c-4-1.3-8-2.7-12.1-3.8c-1.6-0.3-3.2-0.5-4.8-0.4c-1.2,0-2.4,0.1-3.6,0.3c-0.4,0-0.9-0.1-1.3-0.3c-0.5-0.1-1.1,0.3-1.7,0.5
			c-5.5,1.9-10.6,4.8-15.1,8.5c-1.9,1.6-3.9,3.1-5.9,4.5c-2.7,2.1-5.6,3.7-8.7,4.9c-3.9,1.4-7.8,2.8-11.8,4.2
			c-3.5,1.1-6.2,3.5-9.1,5.6l4.9,7.7c0.1-0.2,0.3-0.5,0.4-0.8c0.7-2.2,2.4-4,4.6-4.7c1.9-0.7,3.8-1.4,5.7-1.9c5.7-1.5,11-4.2,15.5-8
			c3.5-2.8,7-5.6,10.5-8.3c3.3-2.6,7-4.4,11.1-5.4c3.5-0.8,7.1-0.5,10.4,0.8c1.4,0.6,2.8,1.1,4.2,1.3c3.2,0.6,6.1,2.4,8.1,5
			L186,105.4z M97,175.8c0.7-2.9,1.4-5.8,2.1-8.5c0.9-3.2,1-6.5,0.3-9.7c-0.8-3.6-0.8-7.4-0.1-11.1c1.4-6.8,2.1-13.7,2.2-20.6
			c0-1.2,0.2-2.3,0.3-3.5c0.2-1.7,1.3-3.3,2.8-4.1c0.7-0.4,1.3-0.8,2.2-1.3c-1.5-1.8-2.9-3.6-4.3-5.3c-1.4,0.7-2.7,1.1-2.9,2.7
			c-0.1,0.5-0.4,0.9-0.8,1.3c-1.8,2.2-3.3,4.5-4.5,7c-0.5,0.9-0.8,1.9-0.9,2.9c-0.4,2.8-0.7,5.5-1.1,8.3c-0.4,2.1-0.5,4.3-0.3,6.5
			c0.3,2.1,0.3,4.3,0.1,6.4c-0.7,4.6-1.3,9.1-1.9,13.6c-0.4,2-0.5,4.1-0.3,6.1c0.6,3,0.6,6,0,9c-0.2,0.8-0.2,1.7-0.3,2.8L97,175.8z
			 M108.3,172.4c-0.4-3.5,0.9-6.5,1.7-9.6c0.3-1.3,0.6-2.5,0.8-3.8c0.4-1.9,0.9-3.9,1.3-5.8c0.4-1.5,0.9-2.9,1.2-4.4
			c0.6-3.4,0.5-7-0.1-10.4c-0.5-2.8-0.4-5.7,0.3-8.4c0.2-0.7,0.4-1.4,0.6-2.2c0.2-0.4,0.1-0.8-0.2-1.1c-1.8-1.9-3.5-4-4.9-6.3
			c-0.2-0.3-0.5-0.7-0.8-1c-0.7,0.4-1.3,0.8-1.9,1c-1.4,0.6-2.2,1.9-2.2,3.4c-0.1,1.5-0.2,3.1-0.3,4.6c0,5.9-0.5,11.8-1.7,17.6
			c-1,4.1-0.9,8.4,0.3,12.4c0.7,2.7,0.8,5.5,0.2,8.1c-0.4,2.1-1,4.1-1.5,6.2c-0.1,0.6-0.2,1.1-0.4,1.9L108.3,172.4z M189.1,91
			c-0.8-0.5-1.4-0.8-2-1.2c-3.1-2-6.2-4-9.3-5.9l-1.7-1c-0.5-0.3-1.1-0.4-1.6-0.2c-0.6,0.1-1.3,0.2-1.9,0.1c-2.5-0.1-5-0.3-7.5-0.5
			c-1.8-0.1-3.6,0.3-5.2,1.2c-1.9,0.9-3.8,1.7-5.8,2.4c-2.6,0.9-5,2.2-7.3,3.8c-1.5,1.1-3.1,2-4.8,2.8c-4.8,2-9.6,3.9-14.4,5.9
			c-1.3,0.5-2.6,1.3-3.7,2.2c-2.2,1.8-4.7,3.3-7.4,4.3c-0.7,0.2-1.3,0.5-1.9,0.8c-1.5,0.8-3.1,1.7-4.6,2.5l0.9,1.7l-0.2,0.1
			l-1.2-1.5l-5.1,2.6l3.9,5.2c1-0.9,2-1.6,3-2.4c1.3-1.2,2.9-2.2,4.5-3c1.6-0.8,3.2-1.5,4.7-2.5c1.8-1.1,3.8-2,5.8-2.6
			c3.2-0.9,6.2-2.2,9-4c3-2,6-3.9,8.9-6c5.3-3.6,11.3-6.2,17.6-7.4c1.1-0.3,2.3-0.3,3.4,0c0.4,0.1,0.7,0.1,1.1,0
			c2.1-0.2,4.2-0.3,6.2-0.2c4.9,0.4,9.5,1.9,14.1,3.4c0.7,0.3,1.5,0.6,2.2,1C188.9,92,188.9,91.6,189.1,91z M211.4,61.1
			c-1.3,3.8-2.5,7.4-3.8,11.2c0.4,0.3,0.7,0.5,1.1,0.7c3.4,2.1,6.6,4.7,9.4,7.6c0.6,0.6,1.3,1.2,1.9,1.8c2,1.7,4.4,2.9,7,3.6
			c2.2-3.6,4.3-7.2,6.5-10.8c-1.2-0.4-2.2-0.8-3.2-1.2c-3.4-1.1-6.3-3.3-8.5-6.1c-0.6-0.8-1.3-1.5-2.1-2c-2.5-1.6-5.1-3-7.7-4.5
			C211.9,61.2,211.7,61.2,211.4,61.1L211.4,61.1z M203.1,85.1c7.6,1.3,13.4,5.6,18.5,11l4.1-7.8c-0.1-0.1-0.1-0.2-0.1-0.2
			c-0.2-0.1-0.4-0.2-0.6-0.3c-2.9-1-5.6-2.5-8-4.5c-1.7-1.4-3.4-2.9-5.1-4.3s-3.4-2.4-5.2-3.8C205.4,78.6,204.3,81.8,203.1,85.1
			L203.1,85.1z M58.9,199.5l8.1-3.6c-0.7-2-0.8-4-1.8-5.8c-0.4-0.7-0.6-1.6-0.7-2.4c-0.2-2.4-0.3-4.8-0.5-7.2c0-0.4,0-0.9-0.1-1.4
			L54,184C54,189.6,55.8,195,58.9,199.5z M109.6,186.7c-1.8-2-1.7-4.3-1.6-6.6c0.1-2.1,0.1-4.2,0.2-6.3c0-0.4-0.1-0.8-0.1-1.1
			c-2.3,0.8-4.4,1.6-6.5,2.3c-0.7,0.2-1.2,0.8-1.2,1.5c-0.2,2.2-0.5,4.4-0.5,6.6c0,2.5,1.2,4.7,2.3,7L109.6,186.7z M203.7,35.7
			c-0.3,3.2-0.6,6.3-0.9,9.4c3.4,1.3,7,2.1,10.6,2.3c0.1-3.1,0.7-6,0.1-9C210.4,37.1,207,36.1,203.7,35.7L203.7,35.7z M62.5,212.2
			c-0.9-3.5-2.3-6.8-4.2-9.8l-7.6,3.2l4.4,11.4L62.5,212.2z M71,206.4c-0.2-3-1.7-5.5-3-8.1l-7.8,3.2l4,9.6L71,206.4z M191.2,246.8
			c-0.2,0-0.3,0-0.4,0l-5.6,3.3c-0.5,0.3-0.7,0.8-0.7,1.4c-0.5,3.3-1,6.6-1.5,9.9c-0.1,0.5-0.1,0.9-0.2,1.8c2.1-1,3.9-1.8,5.7-2.7
			c0.6-0.3,0.7-0.8,0.8-1.4c0.5-2.8,0.9-5.5,1.4-8.2C190.8,249.5,191,248.2,191.2,246.8L191.2,246.8z M188.5,263.2
			c-2,0.9-3.9,1.7-5.7,2.4c-0.6,0.2-0.7,0.7-0.8,1.2c-0.4,2.6-0.9,5.2-1.4,7.8c-0.2,1-0.3,2.1-0.5,3.3c0.6,0,1.2,0,1.8-0.1
			c0.9-0.2,1.9-0.5,2.8-0.7c0.9-0.1,1.6-0.9,1.6-1.8c0.4-2.3,0.7-4.7,1.1-7C187.8,266.7,188.1,265.1,188.5,263.2L188.5,263.2z
			 M201.8,108.7l4.2-6.9c-2.5-1.7-4.5-4-7.4-5.1l-1.4,3.2l-0.2-0.1l1-3.4l-1.5-0.6c-0.6,1.5-1,2.8-1.6,4.2c-0.3,0.6-0.2,1.2,0.2,1.7
			C197.2,104.2,199.4,106.6,201.8,108.7L201.8,108.7z M204.6,57.9c-1,3.7-1.7,7.4-2.2,11.2l4.1,2.5c1.3-3.8,2.5-7.4,3.8-11.1
			L204.6,57.9z M90.7,195.3l8.1-3.6c-0.8-2.4-1.6-4.6-2.4-6.9c-0.1,0-0.1,0-0.2,0c-2.1,1.2-4.2,2.4-6.3,3.6
			c-0.3,0.2-0.4,0.4-0.5,0.8c-0.1,1.2-0.2,2.4-0.3,3.6c-0.1,0.6,0.2,1.1,0.6,1.5C90.1,194.6,90.4,194.9,90.7,195.3z M102.3,97.7
			c-1.6-2.9-3.5-5.6-5.5-8.3c-2.3,0.8-3.1,3.1-4.9,4.3c0.9,1.2,1.7,2.3,2.4,3.4s1.5,2.2,2.2,3.2L102.3,97.7z M163.9,268.3
			c-0.7,2-1.4,3.9-2,6c0.5,0.1,0.9,0.1,1.3,0.2c1.1,0.2,2.1,0.4,3.1,0.6c0.8,0.2,1.6,0.5,2.4,0.7c0.7,0.1,1.5,0.2,2.2,0.3
			c0.5-2.4,1-4.6,1.6-7C169.5,269.9,166.9,268.4,163.9,268.3L163.9,268.3z M87.1,187.8c0-2.3,0-4.6-0.2-7c-1.9,0.5-3.7,0.9-5.4,1.5
			c-1.1,0.2-1.8,1.2-1.7,2.3c0,0,0,0,0,0c0,0.4-0.1,0.8-0.2,1.2c-0.2,1.6-0.4,3.3-0.6,5.2L87.1,187.8z M86.8,190.1l-7.2,3.6
			c0.4,2.2,0.3,4.5,0.8,6.7l7.6-3.9C87.6,194.3,87.2,192.2,86.8,190.1z M78.8,201.3c-0.5-2.2-1-4.4-1.6-6.7l-6.8,2.7l2.9,7.4
			L78.8,201.3z M89.7,186.8l6.6-2.5c0.2-2.5,0.3-4.9,0.5-7.4c-2.2,0.9-4.4,1.6-6.5,2.5c-0.3,0.2-0.5,0.5-0.5,0.8
			C89.7,182.4,89.7,184.5,89.7,186.8z M103.8,100.3l-5.8,2.5l4.8,6.5l4.8-2.8L103.8,100.3z M204.9,190.6c0.6-0.1,0.8-0.1,1-0.1
			l5.7-1.2c2-0.6,3.6-2,4.5-3.9l-8.9-1.1C207.3,186.7,206.5,188.9,204.9,190.6L204.9,190.6z M201.8,72.5c-0.7,3.8-1.3,7.5-1.9,11.3
			l1.8,1l3.6-10.1L201.8,72.5z M197.7,82.5c0.1-0.6,0.3-1.1,0.4-1.6c0.5-2.8,0.9-5.6,1.4-8.4c0.3-1.6,0.1-1.8-1.6-2.3
			c-0.7,3.8-1.4,7.6-2.1,11.4L197.7,82.5z M188.7,110.8c0.9-2.6,1.6-4.8,2.4-7c0.1-0.3,0.1-0.6,0-0.9c-0.3-0.6-0.7-1.2-1.2-2
			c-1,2.1-1.9,4-2.7,5.9c-0.1,0.3-0.1,0.6,0,0.9C187.6,108.5,188.1,109.5,188.7,110.8L188.7,110.8z M198.6,66.8l1.5,0.8l2.4-10.5
			l-1.8-0.6C200,60,199.3,63.4,198.6,66.8L198.6,66.8z M227,186.4l-7.9-0.6l-1.6,2.6l9.1-0.5C226.8,187.4,226.9,187,227,186.4z
			 M195.3,91.8l1.8-6.3l-2-0.8c-0.5,2.1-0.9,4.1-1.4,6.1L195.3,91.8z M197.5,92.8c0.2,0.1,0.5,0.3,0.7,0.3c0.2,0.1,0.5,0.1,0.7,0.1
			l1.9-5.9l-1.6-0.7C198.6,88.8,198,90.8,197.5,92.8L197.5,92.8z M172.9,298.6h-0.2c-0.8,2.1-1.5,4.2-2.4,6.6l2.6-0.5L172.9,298.6z
			 M192.8,93.9c-1.2,2.5-1.2,2.6,0.3,4.2c0.4-1.1,0.8-2.2,1.1-3.3L192.8,93.9z M185,306.6v0.4l6.5-0.5v-0.4L185,306.6z M136.8,19.8
			c1.5-0.1,3-0.2,4.6-0.3c0.7-0.1,1.4-0.2,2.2-0.3C141.2,19,139,19.2,136.8,19.8z M67.4,47.9l0.2,0.2l2.7-2.8L70,45
			C68.6,45.4,68.4,47,67.4,47.9z M301.8,211.5c-1,1.5-1.7,3.1-2.3,4.8C300.6,214.9,301.3,213.2,301.8,211.5z M178.4,294.4l3.8-1.2
			C179.8,293,178.8,293.3,178.4,294.4z M113.5,304.3c-1.3-0.5-2.6-0.8-4-0.8C110.7,304.5,112.1,304.1,113.5,304.3z M312.5,136.5
			l-0.3,0.1c0.4,1.2,0.7,2.4,1.1,3.6l0.4-0.1C314,138.7,312.8,137.8,312.5,136.5L312.5,136.5z M277.9,72.5c-0.5-1.6-1.5-3-2.8-4.1
			L277.9,72.5z M215.7,21.4c0,0.1,0,0.2-0.1,0.3l3.8,0.9c-0.2-0.4-0.2-0.6-0.3-0.7C218,21.8,216.8,21.6,215.7,21.4z M50.8,253.4
			c0.5,1.6,1.5,3,2.8,4.1C52.7,256.1,51.8,254.8,50.8,253.4z M232.1,310.3c1.2-0.3,1-1.4,1.5-2.3
			C231.8,308.8,231.8,308.9,232.1,310.3z M324.6,175.6c-0.2,1.9-0.1,2,1.2,2.2C326.1,176.8,325.2,176.4,324.6,175.6L324.6,175.6z
			 M15.4,185.4c-0.6,0.9-0.3,1.8,1.1,3.8C16.2,188,15.8,186.8,15.4,185.4L15.4,185.4z M96.7,15.6c-1.3,0.4-1,1.4-1.5,2.3
			C96.9,17,96.9,17,96.7,15.6z M70.6,295.2c1,0.8,1.7,0.2,2.7,0.1C71.7,294.3,71.7,294.3,70.6,295.2z M255.4,30.5
			c1.5,1,1.7,1,2.6,0.1C257.2,29.8,256.4,30.4,255.4,30.5z M2.9,147.9c0,1.1,0.1,1.3,1.3,2.1C4.2,148.4,4.2,148.4,2.9,147.9z
			 M31.9,87.2c0.5-0.9,0.2-1.5,0.2-2.5l-1.3,1.3L31.9,87.2z M165,315.7l-0.3-0.3l-1.8,1.1l1.7,0.5
			C164.7,316.5,164.9,316.1,165,315.7z M27,113.6l0.4,0.2l2-4.3l-0.3-0.1C28.4,110.8,27.7,112.2,27,113.6z M30.9,238.5l-0.3,0.2
			c0.1,0.4,0.2,0.9,0.3,1.4l1.4-0.2C32.2,238.8,31.2,239.1,30.9,238.5z M296.4,86c0,0.1-0.1,0.3-0.1,0.4l1.9,1
			c-0.2-0.7-0.3-1.2-0.5-1.7L296.4,86z M164.2,8.8c-0.2,0.6-0.6,1-0.1,1.6l1.8-1.1L164.2,8.8z M296.6,241.1l1.3-1.2
			c-0.4-0.5-0.4-1.1-1.3-0.9V241.1z M258.6,280.6l0.2,0.3c1.2-0.4,1.4-1.6,1.9-2.2L258.6,280.6z M155.5,7.6l0.2,0.3l1.9-1l-0.2-0.3
			C156.7,6.8,155.9,6.7,155.5,7.6z M294.4,77.7c0.5,0.5,1,1.1,1.9,1C295.7,78.3,295.4,77.4,294.4,77.7z M173.4,318
			c-0.8,0.2-1.5,0.6-2.1,1.3C172,319.1,172.9,319.1,173.4,318z M10.4,145.1c-0.4,0.8-0.3,1.8,0.2,2.6L10.4,145.1z M318.6,178.1h-0.4
			l0.2,2.6h0.2V178.1z M175.4,271.3l0.2-1.6c0-0.4,0.1-0.9,0.1-1.3h-0.3V271.3z M34.4,248.2c-0.5-0.7-1.3-1.1-2.2-1.2
			C33,247.7,33.4,248.4,34.4,248.2L34.4,248.2z M25.6,92.9c0.2-0.7,0.2-1.4,0-2.1C25.2,91.5,24.9,92.2,25.6,92.9z M100.3,21.9
			l0.2,0.3l2.3-1.5l-0.2-0.3L100.3,21.9z M256.5,38.3l0.1-0.3l-2.2-1.1l-0.1,0.3L256.5,38.3z M302.9,235.1c0.8-1.2,0.8-1.6,0.1-2.2
			C303,233.7,303,234.4,302.9,235.1z M74.2,288.9l0.2-0.3l-2.3-1.1l-0.1,0.3L74.2,288.9z M99.5,193.4l-0.2-0.3l-1.9,0.9l0.1,0.2
			L99.5,193.4z M226.1,305l0.2,0.3l1.9-1.2l-0.2-0.3L226.1,305z M175.2,272.6h-0.1v1.2h0.1V272.6z M171.5,322.5l0.1,0.2
			c0.2,0,0.4,0.1,0.5,0s0.2-0.3,0.3-0.5l-0.1-0.1L171.5,322.5z M22.2,90l0.4,0.1v-0.8h-0.2L22.2,90z M30.2,249.6l0.3-0.3l-0.6-0.4
			l-0.2,0.2L30.2,249.6z M299.2,77.1c-0.2-0.7-0.2-0.7-0.8-0.6L299.2,77.1z M157.4,3.3c-0.6-0.3-0.9-0.3-1.1,0.5L157.4,3.3z
			 M306.6,235.8l-0.4-0.1v0.9h0.3C306.5,236.3,306.5,236.1,306.6,235.8z"/>
		<path class="st0" d="M191.9,166.5c-0.6,4.6-1.1,9.1-1.7,13.7c-0.2,1.1-0.8,2.1-1.7,2.8c-1.6,1.2-3.3,2.4-4.9,3.7
			c-0.4,0.3-0.8,0.6-1.3,0.8c-2,0.9-3.7,2.4-5,4.1c-2.7,3.3-6.1,6-10.1,7.8c-2.1,0.9-4,2.2-6.1,3.1c-1.5,0.8-3.2,1.3-4.9,1.6
			c-4.1,0.6-6.3-1-7.5-4.1c-1.6-3.9-3.1-7.9-4.7-11.9c-0.2-0.5-0.3-1-0.5-1.5c-0.7-2.7-2.4-5.1-4.7-6.7c-1.6-1.2-3.3-2.3-5.1-3.1
			c-0.4-0.2-0.9-0.4-1.3-0.6c-1.3-0.6-2-1.9-1.8-3.3c0.1-1.2,0.4-2.3,0.5-3.4c0.2-1.7,0.3-3.4,0.3-5.1c-0.3-4.3,0.1-8.7,1-12.9
			c0.6-2.8,1.7-5.5,3.3-7.9c1.1-1.9,3.2-3.1,5.4-3.2c1.6,0,3.2-0.7,4.4-1.9c1.2-1.1,2.4-2.4,3.4-3.6c1.8-2.2,3.5-4.6,5.3-6.9
			c1.8-2.4,3.3-5,4.5-7.8c1-2.1,2.4-4,4.2-5.5c0.5-0.5,1.3-0.6,1.9-0.3c1,0.4,1.9,1.1,2.4,2c0.2,0.2,0.3,0.5,0.4,0.7
			c0.8,2.9,2.8,4.8,4.8,6.9c2.5,2.6,4.9,5.3,7.2,8c1.4,1.7,2.3,3.8,2.6,6c0.2,0.9,0.4,1.7,0.5,2.6c0.3,1.7,1,3.4,2,4.9
			c1.4,2.1,2.4,4.4,2.9,6.9c0.6,2.9,1.6,5.7,2.8,8.5C191.5,162.7,191.9,164.6,191.9,166.5z M164.2,116.4c-1.4,0.5-2.6,1.6-2.9,3.1
			c-1.9,5.3-4.3,10.3-7.3,15c-1.5,2.5-3.4,4.7-5.5,6.7c-1.9,1.9-4.4,2.9-7,3c-1.3,0-2.5,0.6-3.3,1.6c-0.9,1.2-1.6,2.5-2.1,3.9
			c-1.2,3.6-1.8,7.4-1.9,11.2c-0.1,2.6-0.2,5.1-0.4,7.6c-0.1,1.4-0.5,2.7-0.7,4.1c-0.2,1.1-0.1,1.2,0.9,1.7c0.7,0.3,1.4,0.6,2,0.9
			c4.8,2.5,8.7,5.8,10.1,11.4c0.4,1.5,0.9,3,1.7,4.4c1,1.9,1.9,3.9,2.6,6c0.2,0.5,0.4,1,0.6,1.6c1,2.2,2.4,2.9,4.7,2.2
			c1.5-0.5,3-1.1,4.4-1.8c1.9-0.9,3.7-2.1,5.7-3c3.4-1.6,6.4-3.9,8.8-6.9c0.3-0.3,0.6-0.6,0.8-0.9c1.3-1.5,3-2.8,4.8-3.7
			c0.7-0.4,1.3-0.8,1.9-1.2c1.4-1,2.9-2,4.3-3.1c0.3-0.2,0.6-0.6,0.7-1c0.6-3.4,1.2-6.9,1.7-10.3c0.5-3,0.1-6.1-1.1-8.9
			c-0.9-2.2-1.6-4.5-2.1-6.8c-0.5-2.4-1.5-4.7-2.8-6.8c-1.2-1.7-2-3.7-2.3-5.8c-0.1-0.9-0.4-1.7-0.5-2.6c-0.4-2.3-1.5-4.4-3.1-6
			c-1.2-1.3-2.4-2.6-3.5-3.9c-1-1.1-1.9-2.3-2.9-3.4c-2-1.8-3.6-4.1-4.4-6.6C165.7,117.4,165.1,116.7,164.2,116.4L164.2,116.4z"/>
		<path class="st0" d="M237.5,171.7c-1.5,0.6-3,1.3-4.6,1.9c-0.2,0.1-0.5-0.1-0.8-0.2c0.1-0.2,0.3-0.5,0.5-0.6
			C234.2,172.4,235.9,172.1,237.5,171.7L237.5,171.7z"/>
		<path class="st0" d="M179,166.1c-0.1,2.4-0.2,5-0.3,7.6c-0.1,2.3-0.9,4.6-2.2,6.5c-2.5,3.8-5.5,7.2-9,10.1
			c-1.6,1.4-3.7,2.3-5.9,2.3c-2.1,0-4-1.1-5-3c-0.7-1.2-1.1-2.6-1.2-4c0-1.1,0-2.1-0.1-3.2c-0.1-2.6-1.3-4-3.9-4.5
			c-0.4-0.1-0.7-0.1-1.1-0.2c-1.5-0.2-2.9-0.9-3.9-2c-0.7-0.7-1.3-1.5-1.7-2.4c-2.2-4.5-3.5-9.4-3.6-14.4c-0.1-1.5,0.6-2.9,1.9-3.7
			c4.3-2.7,7.5-6.6,11-10.2c2.7-2.8,4.7-6.1,5.9-9.7c0.2-0.4,0.3-0.9,0.4-1.3c0-1.4,1-2.1,1.7-3c0.8-0.8,2-0.9,2.9-0.3
			c0.3,0.2,0.7,0.5,1,0.8c1,1,2.3,1.6,3.7,1.9c1,0.2,1.9,0.8,2.4,1.8c0.3,0.5,0.5,1,0.7,1.5c1.5,3.8,2.7,7.8,3.6,11.9
			c0.4,2.3,1,4.5,1.6,6.8c0.7,2,1,4.2,0.9,6.3C178.9,163,179,164.5,179,166.1z M176.3,163.8c-0.2-2.9-0.3-5.8-0.5-8.6
			c-0.1-1.8-0.6-3.5-0.8-5.2c-0.6-4.6-2.4-8.7-3.9-13c-0.1-0.2-0.2-0.4-0.3-0.6c-0.3-0.7-1-1.3-1.8-1.4c-1.4-0.2-2.7-0.9-3.7-1.8
			c-0.3-0.3-0.7-0.6-1.1-0.8c-0.3-0.1-0.8-0.3-1-0.1c-0.8,0.6-1.6,1.3-1.6,2.5c0.1,1.7-0.3,3.5-1.1,5c-1,1.9-2.1,3.7-3.4,5.3
			c-1.8,2.3-3.9,4.3-5.9,6.5c-1.8,2.1-3.9,3.9-6.2,5.4c-1,0.6-1.6,1.7-1.4,2.8c0.3,4.3,1.3,8.5,3.1,12.3c1,2.4,2.7,4,5.5,4.1h0.1
			c2.6,0.4,4.6,2.6,4.9,5.2c0.1,1,0.1,2,0.2,3c0,1.3,0.3,2.6,0.9,3.8c0.8,1.6,2.7,2.4,4.4,1.7c1.6-0.5,3-1.4,4-2.7
			c2.1-2.6,4.2-5.3,6.2-8c1.3-1.7,2.1-3.8,2.4-5.9C175.7,170.1,176,166.9,176.3,163.8L176.3,163.8z"/>
		<path class="st0" d="M162,146.8l-0.9,0.4l-0.1-0.2c0.6-0.4,1.1-0.9,1.6-1.3c0.4-0.5,0.7-1,1.1-1.5c0.4,0,0.7-0.1,1.1-0.2
			c1.1-0.6,2.3-1,3.6-1c0.8-0.1,1.6,0.3,1.9,1.1c0.3,0.7,0.6,1.4,0.8,2.1c0.2,0.7,0.5,1.3,0.8,1.9c0.9,1.5,1.3,3.3,1.1,5.1
			c-0.6,5-0.5,10-1.6,15c-0.7,3.2-1.5,6.3-2.4,9.5c-0.2,0.8-0.6,1.6-1.1,2.2c-0.4,0.8-1.4,1.1-2.2,0.7c-0.4-0.2-0.6-0.5-0.8-0.9
			c-0.4-0.9-0.7-1.9-0.7-2.9c-0.1-1.5,0-3.1,0-4.6c0-0.4,0-0.8-0.1-1.3c0-0.4-0.3-0.8-0.8-0.8c-0.1,0-0.1,0-0.2,0
			c-0.8,0.1-1.5,0.3-2.3,0.4c-1.3,0.2-2.7,0.4-4,0.4c-1.9,0-3.8-0.9-4.9-2.5c-2.5-3.4-2.7-8-0.3-11.5c0.5-0.7,1.1-1.3,1.9-1.8
			c0.8-0.6,1.7-1.1,2.6-1.6C158.7,152,160.7,149.7,162,146.8z M164.6,145.6c-0.2,0.7-0.4,1.5-0.7,2.2c-1.2,2.7-3.2,5-5.6,6.6
			c-1.2,0.8-2.4,1.4-3.6,2.2c-0.7,0.5-1.4,1.1-1.8,1.8c-1.6,2.7-1.5,6.1,0.4,8.7c0.8,1.2,2.2,2,3.7,1.9c0.9-0.1,1.8-0.2,2.8-0.4
			c1.2-0.2,2.4-0.4,3.6-0.4c1.3-0.1,2.4,0.8,2.5,2c0,0,0,0,0,0.1c0.1,0.7,0.2,1.5,0.2,2.2c0,1.5,0,3,0,4.5c0.1,0.6,0.2,1.2,0.4,1.8
			c0.3-0.4,0.4-0.5,0.4-0.6c0.2-0.3,0.3-0.6,0.4-0.9c1.5-4.9,2.6-9.9,3.1-15c0.2-2.6,0.4-5.2,0.5-7.8c0.2-1.3,0.1-2.6-0.3-3.9
			c-0.7-1.6-1.4-3.1-2.1-4.7c-0.1-0.3-0.4-0.6-0.8-0.7C166.5,145.1,165.5,145.2,164.6,145.6z"/>
		<path class="st0" d="M165,153.4l-0.6-0.1c0,0,0-0.1,0-0.1c0.3-1.1,1-1.9,2-2.5c0.9-0.2,1.4,0.1,2.2,1c1.1,1.3,1.6,3,1.3,4.7
			c-0.2,1.4-0.3,2.8-0.5,4.1c-0.1,0.5-0.3,1-0.7,1.5c-0.8,1-1.7,1.9-2.6,2.9c-0.7,0.9-1.8,1.4-2.9,1.4c-1.8-0.3-3.2-1.6-3.6-3.4
			c0-0.6,0.3-1.2,0.8-1.6C162.5,159.1,164.1,156.4,165,153.4z M161.7,162.9c1,1.9,1.7,2,3.3,0.8c0.9-0.6,1.7-1.3,2.5-2
			c0.4-0.2,0.6-0.6,0.7-1c0.3-1.7,0.5-3.5,0.6-5.2c0-1.4-0.9-2.6-2.2-3C166,156.3,164.2,159.9,161.7,162.9L161.7,162.9z"/>
	</g>
</g>
</svg>
