<svg id="Layer_1" data-name="Layer 1" xmlns="http://www.w3.org/2000/svg" viewBox="0 0 978.38 1148.67"><defs><style>.cls-1{font-size:248px;font-family:PlantagenetCherokee, Plantagenet Cherokee;letter-spacing:0.12em;}.cls-1,.cls-2{fill:#7a4417;}</style></defs><title>Artboard 4</title><text class="cls-1" transform="translate(-0.45 1010.33)">LOGGE</text><path class="cls-2" d="M782.82,572.28a50.35,50.35,0,0,1,1.55,5.26,35.36,35.36,0,0,1,.79,6.85c0,3.5-1.67,5.39-5,6.51a2.22,2.22,0,0,1-.61.17c-4.74.35-8.72,2.9-13,4.57-3.56,1.39-7.08,2.84-11,2.73-2-.06-2.6,1.63-3.13,3.06a32.55,32.55,0,0,0-1.06,4.64c-1.14,5.58-2.27,11.17-3.46,17,1.63.58,3.1,1.08,4.55,1.62,4.06,1.51,4.88,4.73,1.47,7.41-3.89,3-8.23,5.53-12.4,8.23-2.06,1.34-4.72,1.83-5.83,4.51-.24.58-1.39,1-2.17,1.11-9.55,1.72-18.34,5.73-27.44,8.82-4.11,1.4-7.14,3.2-8,7.75a11.47,11.47,0,0,1-1.81,3.68c-2.59,4.09-5.54,8-7.38,12.5a8.83,8.83,0,0,1-1.63,2.33c-2.21,2.56-3.65,2.47-5.9-.53-3.46,1.88-6.91,3.89-10.47,5.66a16.38,16.38,0,0,0-6.55,5.75,102.6,102.6,0,0,1-6.66,8.48,13.36,13.36,0,0,1-5.83,4.24,3.17,3.17,0,0,0-1.72,2,5.79,5.79,0,0,1-4.42,4.46,28.56,28.56,0,0,0-4.22,2.17c-3.25,1.62-6.58,2.3-10.24.62-.92.79-1.83,1.64-2.82,2.4-3.65,2.82-7.18,1.76-8.71-2.61-.41-1.19-.7-2.42-1.09-3.78-3.38-.24-6.77-.3-10.1-.74-5.55-.72-11.06-1.72-16.61-2.5a5.67,5.67,0,0,0-3.31.33c-9.75,5.34-20.36,7.63-31.23,9-7.55.93-15.14,1.53-22.69,2.49a11,11,0,0,0-5.23,2c-4.82,3.77-9.5,7.75-14.07,11.83a18.46,18.46,0,0,0-3.32,4.59c-1.86,3.22-5.9,5.22-9.44,4.06a33.93,33.93,0,0,1-7.12-3.39,16.18,16.18,0,0,0-8.36-2.43A128.8,128.8,0,0,1,473.23,734,18.32,18.32,0,0,1,462,727.91a16.44,16.44,0,0,0-1.48-1.27c-1.32,1.41-2.65,2.63-3.76,4-1.64,2.07-3.9,3.21-6.17,4.32a6.19,6.19,0,0,1-7.09-1,3.11,3.11,0,0,1-.7-.65c-2.85-4.22-7.38-6.49-11.19-9.59-2.71-2.21-5.5-4.35-7.11-7.57a2.44,2.44,0,0,0-2.55-1.45,7.39,7.39,0,0,0-1.89.09c-6.92,2.25-13.84,4.54-21,6.89.31,1.78.59,3.31.83,4.85.68,4.21-1.65,6.27-5.73,5a23,23,0,0,1-4.09-1.72c-4-2.18-7.91-4.48-11.9-6.66a6.38,6.38,0,0,0-2.87-.9,3.94,3.94,0,0,1-3.29-1.57c-5.53-6.64-12.37-11.84-19-17.31-2.28-1.89-4.34-4.53-7-5.38-2.47-.8-5.56.31-8.38.58a9,9,0,0,1-1.27,0c-5.15-.28-10.3-.84-15.47-.22a6.56,6.56,0,0,1-1.58-.12c-4-.45-4.76-1.65-3.47-5.57-4.37-2.66-8.76-5.37-13.21-8a6.88,6.88,0,0,0-2.43-.58c-4.39-.62-8.81-1.14-13.19-1.86a11.46,11.46,0,0,1-6.56-2.93,2.5,2.5,0,0,0-2.9-.54,5,5,0,0,1-5.5-1.32,23,23,0,0,0-3.7-2.44c-3.37-2.09-6-4.7-6.26-9-1.37-.48-2.7-.85-3.94-1.42-3.7-1.71-4.5-5.12-1.93-8.29.92-1.14,2-2.16,3-3.23-1.91-3.93-3.91-7.66-5.55-11.53-1.82-4.28-3.38-8.67-4.91-13.06a4.94,4.94,0,0,0-2.11-3c-8.38-5-15.07-11.9-21.06-19.54-5.41-6.91-11.06-13.64-15.7-21.14a10.28,10.28,0,0,0-4.59-3.7c-5.26-2.2-10.63-4.16-16-5.95a22.74,22.74,0,0,0-6.55-.85c-3.89-.07-7.44-2.28-8.34-6a29.51,29.51,0,0,1-.66-7.85,16.28,16.28,0,0,0-2.24-8.74,111.42,111.42,0,0,1-5.76-12.33,18.56,18.56,0,0,1-.4-12.77c.18-.58.25-1.19.41-2-1.91-.44-3.62-.93-5.36-1.21a17.17,17.17,0,0,1-6.58-3,6.46,6.46,0,0,1-2.91-7.15,2.15,2.15,0,0,1,.14-.62c2.42-5,1.82-10.5,3-15.69a57.53,57.53,0,0,1,2.46-8.15c.85-2.19.92-3.33-.71-5.1-.93-1-2-1.88-3-2.8l-13.53-12c-1.3,1.13-2.45,2.17-3.63,3.15-3.35,2.77-6.15,1.84-7.25-2.39a9.41,9.41,0,0,1-.33-1.87c-.19-4.87-.38-9.73-.5-14.59,0-1.86.57-3.72-.87-5.44-.45-.53-.25-1.87,0-2.7,3.74-10.67,4.72-21.9,6.79-32.91a3.08,3.08,0,0,0-.87-2.86,39.82,39.82,0,0,1-8-13.23,14.45,14.45,0,0,0-1.54-2.36,52.74,52.74,0,0,1-3.64-6.28c-1.28-3-.29-4.36,3.39-4.91.07-3.41,0-6.88.25-10.31a20.59,20.59,0,0,0-2.17-11.31A70.58,70.58,0,0,1,117,350.55a11.38,11.38,0,0,1-.35-5,3.29,3.29,0,0,0-1.08-3.36,5.1,5.1,0,0,1-1.51-5.18,45.71,45.71,0,0,0,.38-5.38c.21-3.63,1.22-6.87,4.54-9a44.27,44.27,0,0,1-.7-4.41c-.24-3.88,1.95-6,5.81-5.6,1.55.16,3.08.58,4.73.9.58-.83,1.14-1.58,1.64-2.38A122.3,122.3,0,0,1,145.05,292a4.09,4.09,0,0,0,1.24-2.4c.06-12.37,4.28-23.66,9-34.81,2.49-5.95,5.41-11.71,7.89-17.66a12.34,12.34,0,0,0,1-6.14c-.88-6.28-2.13-12.5-3.36-18.72a9.54,9.54,0,0,0-1.65-3.74,8.78,8.78,0,0,1,1.76-11.92,37.4,37.4,0,0,1,5.37-3.36,15.22,15.22,0,0,0,6.46-6.28,101.42,101.42,0,0,1,7.37-10.69A19,19,0,0,1,191.63,169a11.89,11.89,0,0,0,1.63-.61c-.54-1.8-.94-3.53-1.6-5.17a16.15,16.15,0,0,1-.73-7.19,6.32,6.32,0,0,1,4.7-6.1,2.86,2.86,0,0,1,.6-.21c5.29-.39,9.65-3.43,14.49-5.06a48.88,48.88,0,0,1,8.55-2.15c2.89-.41,3.9-.85,4.57-3.74,1-4.33,1.86-8.69,2.75-13,.55-2.67,1-5.35,1.58-8.2-1.84-.64-3.45-1.12-5-1.74-3.36-1.35-4-4.06-1.53-6.74a14.14,14.14,0,0,1,2.92-2.42q5.91-3.72,11.92-7.27c1.43-.85,3-1.37,3.7-3.19.26-.66,1.48-1.18,2.34-1.35,11-2.13,21.14-6.72,31.57-10.49a3.65,3.65,0,0,0,2.54-2.51,39.74,39.74,0,0,1,7.3-13.27,18.28,18.28,0,0,0,1.45-2.78,50.33,50.33,0,0,1,3.47-6c2-2.66,3.59-2.52,6,.43,2.41-1.32,4.81-2.85,7.37-4a24.37,24.37,0,0,0,11.3-9.73A36.81,36.81,0,0,1,319,39.81a17.65,17.65,0,0,1,4.84-3.45,3.61,3.61,0,0,0,2.39-2.61,4.94,4.94,0,0,1,3.7-3.9A42.53,42.53,0,0,0,335,27.32c3.8-1.84,5.94-1.94,9.91-.48,1-.82,2-1.77,3.06-2.57,3.45-2.52,6.84-1.51,8.34,2.5.48,1.28.8,2.61,1.26,4.13,1.08.07,2.11.19,3.15.22a120.91,120.91,0,0,1,23.89,3,4.61,4.61,0,0,0,3-.39c9.26-5.08,19.31-7.37,29.66-8.74,8-1.06,15.87-2.5,23.95-2.66a10,10,0,0,0,5.51-2.12c4.91-3.85,9.62-7.94,14.31-12.07a11.6,11.6,0,0,0,2.81-3.78A8.64,8.64,0,0,1,474.5,0a35.77,35.77,0,0,1,6.19,3.17,15,15,0,0,0,8.07,2.32A125.78,125.78,0,0,1,502.33,6.6a19,19,0,0,1,11.83,6.25c.35.39.76.72,1.34,1.26,1.25-1.32,2.56-2.51,3.63-3.88A16.59,16.59,0,0,1,525,6a6.52,6.52,0,0,1,7.92,1,3.19,3.19,0,0,1,.46.44c2.81,4.11,7.19,6.37,10.94,9.39,2.81,2.26,5.59,4.51,7.39,7.76.86,1.57,2.35,1.9,4.74,1.17,4.15-1.26,8.26-2.62,12.38-4,2.69-.9,5.36-1.87,8.23-2.87-.34-1.86-.67-3.49-.91-5.14-.54-3.59,1.43-5.48,5-4.75a12.75,12.75,0,0,1,3.27,1.16q5.91,3.08,11.74,6.29c1.82,1,3.35,2.5,5.75,2.22.7-.08,1.7.8,2.28,1.48,7.29,8.51,16.46,14.9,24.89,22.11a3.34,3.34,0,0,0,3.18.72,39.55,39.55,0,0,1,14.83-.34,20,20,0,0,0,3.77-.15,40.11,40.11,0,0,1,6-.07c3.92.46,4.59,1.67,3.43,5.61,4.29,2.62,8.59,5.31,13,7.85a9.41,9.41,0,0,0,3.34.8c4.29.64,8.59,1.17,12.86,1.87a12.52,12.52,0,0,1,6.29,2.83,2.83,2.83,0,0,0,2.23.55,6.32,6.32,0,0,1,6.64,1.77,22.36,22.36,0,0,0,3.48,2.21c3.12,2,5.6,4.53,5.85,8.71,1.19.41,2.39.76,3.54,1.23,4.2,1.72,5.08,5.44,2,8.86a22.75,22.75,0,0,1-3,2.42c.76,1.5,1.25,2.54,1.78,3.55a126.19,126.19,0,0,1,9.09,21.62,4.67,4.67,0,0,0,1.62,2.53c9.54,5.72,16.85,13.74,23.43,22.52,4.5,6,8.8,12.16,13.33,18.14A12.1,12.1,0,0,0,770,159.2a92.5,92.5,0,0,0,20,7.05,12.86,12.86,0,0,0,2.84.21c4.77-.19,8.19,2.24,9.12,6.95a32.58,32.58,0,0,1,.39,7.26,15.18,15.18,0,0,0,2,7.85,134.07,134.07,0,0,1,6.24,13.5c1.76,4.5,1.28,9.16-.38,13.92a45.6,45.6,0,0,0,5.29,1.29c2.53.31,4.56,1.63,6.61,2.91a6.52,6.52,0,0,1,3.09,7.37,2.38,2.38,0,0,1-.16.61c-2.34,4.88-1.8,10.29-2.91,15.39a54.59,54.59,0,0,1-2.4,8.16c-1,2.54-1.07,3.66.91,5.6,1.66,1.63,3.43,3.15,5.18,4.69,3.63,3.22,7.28,6.42,11.09,9.76,1.44-1.23,2.67-2.36,4-3.4,3-2.35,5.65-1.49,6.73,2.18a13.38,13.38,0,0,1,.57,3.43c.14,5.18.17,10.36.31,15.54a5.58,5.58,0,0,0,.68,2.62,3.91,3.91,0,0,1,.27,3.63c-3.08,8.52-4.2,17.46-5.69,26.32-.42,2.5-1.53,5.18-1,7.47s2.73,4.12,4.17,6.18a23.29,23.29,0,0,1,1.68,2.69c2.09,4.13,3.89,8.42,6.83,12.08a8.75,8.75,0,0,1,1.1,2.28c1.37,3.46.68,4.71-3.2,5.49-.13,5.12-.32,10.28-.35,15.45a8.58,8.58,0,0,0,.94,3c1.5,3.72,3.13,7.4,4.53,11.16a14.4,14.4,0,0,1,1.11,5.24c-.08,2.56-.22,4.89,2,6.82.6.53.52,2,.51,3,0,1.69-.3,3.37-.33,5.06-.09,4.08-1,7.77-4.58,10.18a39.84,39.84,0,0,1,.68,4.82c.08,3.6-2.38,5.72-5.95,5.19-1.45-.21-2.87-.68-4.58-1.09-.6.91-1.23,1.86-1.84,2.82a117.05,117.05,0,0,1-14.23,18.64,4.57,4.57,0,0,0-1.5,3.32,69.14,69.14,0,0,1-5.08,24.42c-3.63,9.25-7,18.63-11.68,27.43a10.54,10.54,0,0,0-1,6.13c.89,6.28,2.13,12.5,3.37,18.72a11.91,11.91,0,0,0,1.66,3.74c2.53,4.16,2.07,8.55-1.62,11.66a31.73,31.73,0,0,1-5.86,3.75,14.69,14.69,0,0,0-5.84,5.6,140.31,140.31,0,0,1-8.13,11.7,18.72,18.72,0,0,1-11.16,6.8C783.93,571.88,783.46,572.07,782.82,572.28ZM583.55,114.21l-9.63-3.48c-.81,4.59-1.52,8.68-2.27,12.93l5.06,1.77c2.44-4,4.68-7.67,6.91-11.34-1.07,4.26-2.13,8.51-3.22,12.87l13.21,5.83a146.77,146.77,0,0,0,4.27-16.53c-3.76-.62-7.18-1.19-10.6-1.71C586.06,114.36,584.81,114.3,583.55,114.21ZM518.16,598.14c-.64,3.22-.64,3.22.07,4.69a6,6,0,0,0-.09-4.65c.29.32.76.6.85,1a29.68,29.68,0,0,1,.46,3c2,0,2.88-.85,3.07-2.66.42-3.87,1-7.73,1.45-11.65.5,4.06-.17,8.16,1.1,12.23,1.51-2.76,1.79-5.84,2.41-8.81.67-3.21,1.32-6.42,2-9.63a94.19,94.19,0,0,0,1.91-9.6l-2.66,1.55c-5.78,3.34-11.72,6.3-18.42,7.39-5.17.84-10.34,1.78-15.51,2.68-.51.09-1,.21-1.66.35l-4.53,20.2c3.46.7,6.68,1.24,9.82,2a14.42,14.42,0,0,0,7.79-.27,4.86,4.86,0,0,0,3.65-3.43,30.06,30.06,0,0,1,7.8-12.22q-1.8,6.55-3.58,13.12l.64.3a13.56,13.56,0,0,0,1.2-1.54C516.69,600.87,517.42,599.49,518.16,598.14Zm41.06-328.63c1-1.71,1.84-3.47,2.88-5.14,2-3.21,4.1-6.36,6-9.26l-15.54-15.27c-2,5.11-4.12,10.39-6.09,15.72a3.63,3.63,0,0,0,.3,2.63,30,30,0,0,0,9.77,11,2.63,2.63,0,0,0,2.82.18c-.56,1.55.64,2.06,1.62,2.63,8.18,4.73,14.79,11.23,20.94,18.28s10.26,14.73,11.87,23.83a36.88,36.88,0,0,0,5.39,13.77,43.08,43.08,0,0,1,6.45,20.67c.28,4,.32,8.06.93,12q2.76,17.86,5.91,35.66c1.24,7,2.34,14,1.45,21.11a4.53,4.53,0,0,0,.21,1.27c5.79.87,11.42,2.09,17.25,2.59.33-1.46.62-2.58.83-3.71a62.7,62.7,0,0,0-.88-25.19,107.46,107.46,0,0,1-1.81-35.63c.58-5.15.81-10.33,1.09-15.5a23.48,23.48,0,0,0-3.4-13.32,59.31,59.31,0,0,1-6-15,72.43,72.43,0,0,0-3.4-9.52c-1.89-4.59-4.28-9-5.91-13.66a23.63,23.63,0,0,0-14.1-14.94c-.58-.23-1.14-.53-1.73-.78a78.25,78.25,0,0,1-24.92-16.62,20.37,20.37,0,0,0-2-1.58c-2.11,3.08-4,6-6.06,8.82C561.9,266.31,560.53,267.88,559.22,269.51Zm95.36,120.73.07.07c.26-1.23.61-2.45.78-3.7.56-4.3.93-8.63,1.63-12.9a42.51,42.51,0,0,0-.1-14.84,47.16,47.16,0,0,1-.12-13.58c.63-6.41.92-12.86,1.29-19.29.28-5,.44-9.93.69-14.9.14-2.74.39-5.48.55-8.23a5,5,0,0,0-1.5-4,16.21,16.21,0,0,1-2.56-4c-2.63-5.17-5.21-10.38-7.76-15.59a20.88,20.88,0,0,0-7.22-7.83c-4.23-3-8.43-6.05-12.35-9.42a56.18,56.18,0,0,0-15-9.45,56.26,56.26,0,0,1-14.71-9.24c-4-3.42-8.28-6.57-12.46-9.82a15.3,15.3,0,0,0-2-1.09l-9.63,15.39c.47.54.72.88,1,1.17,7.26,7.37,15.19,13.81,24.85,17.82,10,4.13,16.24,11.47,19.33,21.74.91,3,2.27,5.91,3.36,8.89a109.89,109.89,0,0,1,4,11.35,68.48,68.48,0,0,0,6.85,17.68,23,23,0,0,1,3.29,12.12c-.19,6.44-.5,12.9-1.11,19.31a93.57,93.57,0,0,0,1.27,28.73c1.76,8.27,3.88,16.5,3.44,25.07-.19,3.57-.57,7.12-.89,11l4.82.71,0,.35-5.43.33c-.19,1.18-.35,2.17-.56,3.42,5,.08,9.64,1.08,14.62.62-.12-1.94-.16-3.61-.32-5.28-.59-6.22-1.17-12.43.08-18.65.73-3.63,1.32-7.29,1.87-10.95A15.65,15.65,0,0,0,654.58,390.24ZM364.69,429.72c.19-.73.37-1.46.56-2.19-.56-.07-1.24-.37-1.66-.16-4.93,2.42-9.82,4.91-14.7,7.43-.33.17-.45.77-.95,1.69a13,13,0,0,0,2.49-.51c3.84-1.75,7.65-3.57,11.48-5.33.92-.42,1.92-.69,2.88-1a18.71,18.71,0,0,1-2.42,1.88c-3.25,1.76-6.56,3.42-9.84,5.14-1,.52-1.94,1.12-2.91,1.68,2.84,6.14,6.71,10.84,12.8,13.43,2.34,1,4.62,2.12,7,3a47.5,47.5,0,0,1,21.23,16.06c1.28,1.68,2.6,3.34,3.82,5.07a52.37,52.37,0,0,0,15.31,14.57,69.89,69.89,0,0,1,19.52,17.45,22.81,22.81,0,0,0,11.59,7.92c11.77,3.79,23.55,7.57,35,12.35a22.54,22.54,0,0,0,14,1.12c2.89-.66,5.76-1.37,8.65-2a100.65,100.65,0,0,0,38.25-17.06c3.4-2.5,7-4.74,10.57-7a100.42,100.42,0,0,0,20.52-17.39c3.6-4,7.26-8,10.87-12a33.46,33.46,0,0,1,17.35-10.53c11.62-2.79,20.71-9.3,27.64-19a22,22,0,0,0,4.08-9,15.92,15.92,0,0,0-2.31-.1c-9.35,1.1-18.69,2.19-28,3.4a8.6,8.6,0,0,0-3.42,1.52,26.91,26.91,0,0,0-8.76,9.89c-1.55,2.88-2.89,5.88-4.49,8.74a30.75,30.75,0,0,1-22.11,16,82.14,82.14,0,0,1-9.14,1A19.67,19.67,0,0,0,539,479.7a69.7,69.7,0,0,1-6.21,4.39,52,52,0,0,0-10.87,8.7c-1.48,1.52-3,3-4.5,4.47a28.74,28.74,0,0,1-16.27,7.94c-11.51,1.66-23,3.24-34.54,4.89-9.79,1.4-18-1.22-25-8.53-7.45-7.8-15.49-15-20.83-24.62a23.64,23.64,0,0,0-9.74-9.34,39.32,39.32,0,0,1-15-13.84,20.66,20.66,0,0,0-11-8.68c-7.62-2.58-13.71-7-17.55-14.21a2.4,2.4,0,0,1-.16-.27C366.78,429.32,365.76,429.46,364.69,429.72ZM387,414.44a2.94,2.94,0,0,0,.78-3.12c-1.37-5.43-2.5-10.93-4-16.32a40.42,40.42,0,0,1,1.57-26.42c2.93-7.48,5.65-15.05,8.32-22.63A72.35,72.35,0,0,0,398.18,323c.07-3.91-.26-7.83-.27-11.74,0-9,3.47-13.66,12-16.35a20,20,0,0,1,2.14-.6c4.45-.87,8.93-1.63,13.36-2.58,13.86-3,24.72-10.14,31.67-22.75,1-1.76,2-3.5,3.08-5.18a51.27,51.27,0,0,1,27-21.06c4.83-1.65,9.72-1.49,14,2.14a16,16,0,0,0,5,2.62,12.49,12.49,0,0,1,7.91,7.27A24.51,24.51,0,0,0,522,265a22.72,22.72,0,0,1,6.09,7.63c.82,1.6,1.61,3.21,2.51,4.76a7.2,7.2,0,0,0,3.45,3.5,5.87,5.87,0,0,0,.83-1.17q2.58-7.49,5.1-15a1.82,1.82,0,0,0,0-1.24c-1.5-3.05-3.06-6.07-4.72-9.31l-1.42,2.18c.61-5.33.61-5.43-1.83-10.33a24.65,24.65,0,0,0-2-3.59c-4.38-6-9.29-11.17-17.17-12.58-3.05-.55-5.94-2.13-8.83-3.41-7.26-3.23-14.54-4.1-22.11-1a83.15,83.15,0,0,0-23.58,14.73c-6.17,5.48-12.16,11.16-18.18,16.8a84.76,84.76,0,0,1-38.32,20.84c-4.92,1.21-9.83,2.51-14.73,3.81a8,8,0,0,0-5.67,4.66c-3.7,8.51-5.7,17.29-4.19,26.59a70.5,70.5,0,0,1-1.9,31.4c-1.45,5-2.78,10-3.88,15q-2.26,10.38-4.05,20.86a75,75,0,0,0-1,10.37c-.14,4.65.1,9.31.07,14,0,3.17-.23,6.34-.31,9.52a8.77,8.77,0,0,0,3.76,7.46c2.83-1.18,5.65-2.37,8.49-3.51,1.64-.66,3.33-1.24,5-1.85-1,.7-2,1.46-3.07,2.08-3,1.74-6,3.42-9.11,5.16.59.9,1.08,1.58,1.5,2.3a25.81,25.81,0,0,0,14.77,12.24c7.15,2.3,12.37,7.16,16.21,13.53a25.23,25.23,0,0,0,9.72,9.32,36.79,36.79,0,0,1,14.39,14,70.37,70.37,0,0,0,13.87,16.82c2.81,2.56,5.47,5.29,8.27,7.88a13.42,13.42,0,0,0,10.12,3.77c2.32-.12,4.65-.18,6.95-.47,9.23-1.15,18.42-2.78,27.68-3.47s16.42-4.13,22.29-11.08a44.73,44.73,0,0,1,11.17-9.31,20.82,20.82,0,0,0,4-3.08,28.65,28.65,0,0,1,20.36-8.95,24,24,0,0,0,17.72-8,68.83,68.83,0,0,0,4.83-6.28c2.26-3.18,4.43-6.44,6.63-9.68a12.75,12.75,0,0,0,.66-1.31c-3.31.56-6.3,1.25-9.33,1.53s-6.09.19-9.13.17c-2.41,0-4.84-.4-7.21-.18-3.46.34-6.87,1.15-10.33,1.63A23.4,23.4,0,0,0,535.57,449c-1.71,1.25-3.31,2.66-5.09,3.78a71,71,0,0,1-9.3,5.38,28.93,28.93,0,0,0-10.7,7.71c-1.37,1.61-2.74,3.23-4,4.92a17.38,17.38,0,0,1-12.74,7.47c-6,.56-11.45,2.81-16.95,5a112.8,112.8,0,0,1-11.91,4.3c-10.5,2.92-19.34.17-26.5-8.17a34.06,34.06,0,0,1-8.11-18.94c-.43-3.88-.77-7.78-1.08-11.68-.38-4.85-2.92-7.94-7.37-9.77a58.15,58.15,0,0,1-8.82-4.33c-5.56-3.47-11.11-6.93-17.2-9.46a11.45,11.45,0,0,1-6.8-8.26,8.2,8.2,0,0,0-.68-2.1C388.14,414.55,387.45,414.56,387,414.44ZM657.58,150.7c.47-1.34-.7-1.65-1.44-2.07-4-2.28-8-4.84-12.23-6.66a115.64,115.64,0,0,1-25-14.85q-4.9-3.77-9.8-7.55a12.61,12.61,0,0,0-8.25-2.83L596.57,134c.56.34,1,.63,1.44.87,6.15,3.27,12.4,6.38,18.43,9.87a81.72,81.72,0,0,1,11.19,7.71c6.56,5.44,14.27,8.39,22.38,11.44l7.62-13.3c-.46,1.39-.84,2.82-1.4,4.17-1.41,3.38-2.9,6.72-4.38,10.12.71.47,1.15.75,1.58,1.05,9.15,6.28,18.4,12.43,27.43,18.89,12.53,9,20,21.59,25,35.83a49.3,49.3,0,0,0,2.2,5.6,38.78,38.78,0,0,1,3.66,11.11A38.3,38.3,0,0,0,715,247a147.79,147.79,0,0,1,5.78,14.41,101.6,101.6,0,0,0,9.32,20.8c2.06,3.45,4,7,5.89,10.52a54.46,54.46,0,0,1,6,16.33c1.29,7.5,2.35,15,3.35,22.59a306.08,306.08,0,0,1,2.34,32.59c.15,6.25.23,12.47-1.09,18.64a42.33,42.33,0,0,0-.19,14.85c.86,6,1.88,11.94,1.34,18-.94,10.74-1.72,21.52-3.12,32.21A57.43,57.43,0,0,1,734,474.16c-2.83,3.94-5.89,7.7-8.85,11.55-.71.92-1.5,1.8-2.11,2.78a48.19,48.19,0,0,1-8.83,9.92,50.81,50.81,0,0,0-5.22,5.92c-3.63,4.54-7,9.33-10.8,13.68a101.27,101.27,0,0,0-12.42,17.21c-1.82,3.22-3.71,6.41-5.63,9.58a62.9,62.9,0,0,1-16.65,18.53c-2.21,1.62-4.34,3.38-6.48,5.11a311.45,311.45,0,0,1-40.92,27.76,36.25,36.25,0,0,1-6.9,3.19,59.46,59.46,0,0,0-18.17,10.16,70.09,70.09,0,0,1-11.3,7.57c-9.64,4.82-19.42,9.41-29.31,13.69a59.08,59.08,0,0,1-25.08,4.71,14.58,14.58,0,0,0-2.18.25c-.55,3.46-1.07,6.76-1.63,10.34,3.15-.65,5.8-1.53,8.49-1.7,8.14-.52,15.71-3.15,23.33-5.74a78.71,78.71,0,0,1,17.53-4.25c6.76-.66,13.37-1.91,19.58-4.91,5.91-2.86,11.86-5.66,17.07-9.69a113.56,113.56,0,0,1,26.77-15c2.74-1.13,5.45-2.34,8.23-3.33a19.53,19.53,0,0,0,9.24-6.9c3.57-4.71,7.06-9.62,11.34-13.65,10.45-9.87,20.33-20.39,31.93-29a42.44,42.44,0,0,0,9.43-9.81c6-8.62,12.81-16.56,21.21-23a21.61,21.61,0,0,0,6.44-8.14c2.47-5.27,5.08-10.48,7.28-15.86a69.17,69.17,0,0,0,3.28-10.9c1.17-5.16,2.23-10.35,4.5-15.17a55.65,55.65,0,0,0,4.44-14.18c1.92-10.88,4.75-21.47,9.48-31.5a14.82,14.82,0,0,0,1.21-3.6,98.88,98.88,0,0,0,1.6-27.47c-.69-6.94-1.53-13.9-.75-20.9.71-6.3,1.37-12.62,2.27-18.9A20.9,20.9,0,0,0,764,340.45a108,108,0,0,1-7.19-20.31c-1.71-7.52-3.58-15-5.26-22.55-.79-3.5-1.47-7-1.92-10.6a69.31,69.31,0,0,0-5.94-21.28,88.81,88.81,0,0,1-7.91-26.34,23.57,23.57,0,0,0-4-10.25c-2.58-3.75-5.24-7.44-7.81-11.19a65.32,65.32,0,0,0-10.54-11.8,62.18,62.18,0,0,1-9.06-9.3,86.14,86.14,0,0,0-14.58-15.39,102.79,102.79,0,0,1-18.26-19.76c-3.18-4.52-7.63-7.57-12-10.73C659.08,150.61,658.25,150.77,657.58,150.7ZM519.83,690.78c4-.75,7.61-1.36,11.22-2.13q37.25-7.87,74.47-15.83c8-1.71,15.77-4.29,23.8-5.37a63.67,63.67,0,0,0,16.35-4.61c3.61-1.51,7.29-2.86,10.94-4.27.59-.22,1.21-.37,1.8-.57,1.67-.59,3.54-.88,5-1.84,5.6-3.8,11.27-7.54,16.51-11.8,10.59-8.61,20.92-17.54,31.34-26.36a6.17,6.17,0,0,0,1.65-1.89c3.58-7.4,9.15-13.2,15-18.76a65.76,65.76,0,0,0,14.25-19.67,158.72,158.72,0,0,1,18.48-29.55c2.78-3.59,5.41-7.32,7.84-11.17a45.5,45.5,0,0,0,3.86-7.94c1.87-4.84,3.47-9.77,5.19-14.66,12.2-34.73,24.29-69.5,34.29-104.95a112.88,112.88,0,0,1,4.87-14.4,41.1,41.1,0,0,0,2.83-9.35c.34-2,.48-4,.77-6,.62-4.18.82-8.51,2.07-12.5a21.89,21.89,0,0,0,.87-9c-.73-7.26-1.45-14.54-2.63-21.73-1.89-11.59-4.1-23.12-6.28-34.65a22.3,22.3,0,0,0-1.81-4.68c-1.64-3.65-3.56-7.2-5-10.94a110.25,110.25,0,0,1-3.2-11,57.83,57.83,0,0,0-8-18.56,178.54,178.54,0,0,1-19-35.8,76.54,76.54,0,0,0-13.56-22c-27.64-31.93-55.06-64.05-84.71-94.18a34.19,34.19,0,0,1-5-6.1c-2.21-3.62-5.29-6.27-8.56-8.81-4.18-3.24-8.76-6.12-12.34-9.94s-8.23-5.76-12.7-8A40.16,40.16,0,0,0,636,69.87q-22.6-8.37-45.24-16.65a9.16,9.16,0,0,0-3.43-.38,51.4,51.4,0,0,1-14.77-1.66c-2.16-.53-4.37-.89-6.46-1.6-9.42-3.19-19.07-3.37-28.87-2.8a153.52,153.52,0,0,1-18.7-.1c-8-.52-16-1.67-24-2.32a37,37,0,0,0-9.46.24c-18.21,3.31-36.41,6.67-54.55,10.32-22.91,4.6-45.84,9.17-68.47,15.06A138.39,138.39,0,0,1,345,73.49a43.05,43.05,0,0,0-10.67,2.75c-4.9,2-9.82,3.92-14.74,5.86-.69.27-1.41.44-2.11.67a19.58,19.58,0,0,0-4.38,1.54A137.14,137.14,0,0,0,300.57,93c-12.05,9.84-23.92,19.9-35.83,29.89a6.32,6.32,0,0,0-1.61,1.93c-3.48,7.19-8.9,12.86-14.57,18.27a67.57,67.57,0,0,0-14.65,20.17,150.49,150.49,0,0,1-18.14,29c-1.25,1.58-2.43,3.21-3.62,4.83-4.31,5.81-8,11.94-9.93,19-.92,3.36-2.27,6.6-3.43,9.89-12.54,35.62-24.91,71.3-35.11,107.68a84.3,84.3,0,0,1-4.28,12.26,37,37,0,0,0-2.74,9.05c-.35,2-.48,4-.77,6-.62,4.18-.78,8.52-2.07,12.5a23.1,23.1,0,0,0-.83,10c.94,8.4,1.95,16.81,3.29,25.16s3.22,16.83,4.66,25.27c.75,4.41,1.53,8.68,4.21,12.47a24.59,24.59,0,0,1,2.84,6.35c1.29,3.8,2.55,7.63,3.47,11.53a66.42,66.42,0,0,0,10.15,22.75,157.43,157.43,0,0,1,16.19,30.5c1.71,4.21,3.63,8.35,5.74,12.37a46.83,46.83,0,0,0,4.94,7.33c3.05,3.79,6.32,7.41,9.49,11.1,25.28,29.5,50.68,58.88,78,86.59a48.07,48.07,0,0,1,6.33,7.51,34,34,0,0,0,8.12,8.37q6.24,4.89,12.45,9.84c.49.39.92.86,1.4,1.28,1.24,1.09,2.34,2.5,3.78,3.2,6.09,2.94,12.15,6,18.46,8.41,12.84,4.89,25.83,9.41,38.77,14.05a7.18,7.18,0,0,0,2.77.5c7.41-.5,14.51,1.12,21.57,3.07,2.24.62,4.51,1.14,6.76,1.72a44.56,44.56,0,0,0,15.1,1.47c15.07-1.29,30-.33,44.95,1.74,4.15.57,8.39.5,12.81.74,1.46-6,2.83-11.58,4.25-17.38-2,0-3.44,0-4.9,0-7.09.12-14.18.4-21.26.33A47.3,47.3,0,0,1,450,676.2c-3.92-1.57-8-2.83-12-4-8.51-2.51-17.32-2.72-26.09-3.09-15.56-.65-30-4.71-43-13.49-7.54-5.07-15.54-9.44-23.24-14.28a86.18,86.18,0,0,1-11.41-8,134.48,134.48,0,0,0-25.46-17.73,49.25,49.25,0,0,1-11.95-8.84,96.92,96.92,0,0,0-15.95-13,39.62,39.62,0,0,1-7.13-6.25,94.89,94.89,0,0,1-13.06-18.32,19,19,0,0,0-4.27-5c-6.28-5.51-12.62-11-18.64-16.75-7.36-7.09-13-15.62-18.4-24.21-.66-1-1.38-2-2.09-3.06-2.92,1.6-5.48,3.08-8.12,4.41a8.71,8.71,0,0,1-3.3.92c-1.37.08-1.92-1-1.19-2.14a15,15,0,0,1,2-2.41c2.27-2.35,4.57-4.66,6.85-7-.91-1.7-1.69-3.2-2.51-4.67a56.21,56.21,0,0,1-7.11-20.55,83.79,83.79,0,0,0-9.6-29.07c-1.11-2.05-2.16-4.13-3.23-6.2-7.1-13.72-10.7-28.16-9.67-43.74.6-9,.42-18,.73-27a76.38,76.38,0,0,1,1-12.31A149,149,0,0,0,186,336.66a46.18,46.18,0,0,1,1.61-13.51A98.06,98.06,0,0,0,191,302.2a38.2,38.2,0,0,1,2-9.57,107.94,107.94,0,0,1,9.56-20.71,15.41,15.41,0,0,0,1.56-4.42c1.82-8.47,3.17-17.07,5.42-25.42,4.18-15.46,12.07-29.29,20.11-43a51.38,51.38,0,0,1,14-15.82c1.28-.93,2.43-2,3.64-3.06,8.1-6.89,14-15.48,19.58-24.42,8.72-14.12,20.27-25,35.42-32.19,7.35-3.47,14.27-7.85,21.48-11.63a103.55,103.55,0,0,1,14.05-6.56,136.79,136.79,0,0,0,27.2-12.81A51.51,51.51,0,0,1,379,86.51a99.05,99.05,0,0,0,19.24-7.3A41.14,41.14,0,0,1,408.09,76a98.83,98.83,0,0,1,21.77-2A15.61,15.61,0,0,0,436,72.8c10.74-4.24,21.66-8,33.11-9.7a213.21,213.21,0,0,1,43.07-1.85A41.7,41.7,0,0,1,524.86,64c3.85,1.47,7.74,2.85,11.68,4.06,8.27,2.54,16.81,3.15,25.4,3.38,17.22.44,33.12,4.9,47.38,15,6.38,4.5,13.4,8.08,20,12.28A110.37,110.37,0,0,1,642.56,108a135.26,135.26,0,0,0,24.19,16.8,52.38,52.38,0,0,1,12.74,9.35,96.27,96.27,0,0,0,15.71,12.82,41.54,41.54,0,0,1,7.36,6.47,96.51,96.51,0,0,1,13,18.34,14.83,14.83,0,0,0,3.84,4.54,167.79,167.79,0,0,1,20.65,18.78C751.44,207.64,760.2,222,767.93,237A45.26,45.26,0,0,1,772,250.6c.75,4.58,1.75,9.14,2.91,13.64,2,7.75,5.76,14.76,9.48,21.77,7.5,14.13,11.44,29,10.31,45.17-.6,8.64-.41,17.34-.72,26-.16,4.43-.16,8.94-1,13.26a151.87,151.87,0,0,0-2.9,33.76,45.38,45.38,0,0,1-1.56,13.19,98.09,98.09,0,0,0-3.4,21,37.77,37.77,0,0,1-2,9.58,110.09,110.09,0,0,1-9.52,20.73,16.15,16.15,0,0,0-1.66,4.7C770.25,481.22,769,489.18,767,497c-4.14,16.16-12.3,30.55-20.67,44.8a54.57,54.57,0,0,1-14,15.8,80.83,80.83,0,0,0-18.55,20.3c-1.67,2.57-3.34,5.15-5,7.74-8.61,13.66-19.87,24.29-34.58,31.3-7.62,3.64-14.82,8.15-22.31,12.09a91.73,91.73,0,0,1-13.18,6.17,134.52,134.52,0,0,0-27.8,13,50.08,50.08,0,0,1-13.6,6,93.76,93.76,0,0,0-19.53,7.42,33.73,33.73,0,0,1-7.44,2.68,112.88,112.88,0,0,1-24.26,2.55,17.52,17.52,0,0,0-5.22.87c-6.22,2.05-12.39,4.26-18.58,6.42-.78.27-1.53.6-2.44,1Zm67.75-464.2c.89.82,1.65,1.55,2.44,2.23,3.79,3.23,7.67,6.35,11.35,9.69a52.75,52.75,0,0,0,15,9.44,51.57,51.57,0,0,1,12,7c5.55,4.41,11.18,8.71,16.84,13a24,24,0,0,1,6.81,7.42c1.7,3,3.67,5.95,5.27,9,4.23,8.16,7.23,16.6,6.76,26.07-.31,6.11.19,12.27.24,18.4,0,4.33.14,8.68-.19,13-.47,6.24-.86,12.41.4,18.64a35.29,35.29,0,0,1-.24,13.58c-1.44,7.69-2.5,15.47-4.36,23.06-2.46,10.07-2.27,20.12-1.16,30.26,0,.41,0,1,.28,1.18.6.47.91.64,0,1.19-.39.23-.47,1.11-.55,1.71-1.11,8.28-2.09,16.57-3.34,24.83a27,27,0,0,1-2.34,7.5,95.86,95.86,0,0,1-5.91,10.51c-5,7.71-10.87,14.49-19.38,18.69a151.33,151.33,0,0,0-13.61,8.13,145,145,0,0,1-16.65,9.19,48.93,48.93,0,0,0-10,6.06A53.35,53.35,0,0,1,571,525.52c-8.09,2.79-16.11,5.81-24.25,8.47a66.51,66.51,0,0,0-17.66,9.16,69.42,69.42,0,0,1-11.31,6.31c-6.44,2.92-13,5.57-19.61,8.12a29.65,29.65,0,0,1-8.23,2.09,98.54,98.54,0,0,1-13.64.1c-8.74-.5-17.12-2.25-24.62-7.28a142.55,142.55,0,0,0-13.57-7.58,153.58,153.58,0,0,1-16.84-10.12,53.26,53.26,0,0,0-10.55-5.71,52.85,52.85,0,0,1-15.21-9c-7-6-14-11.93-20.93-18a53.29,53.29,0,0,0-14.7-9.24A53.53,53.53,0,0,1,345.65,484a114.15,114.15,0,0,0-11.54-8.92,32.65,32.65,0,0,1-11.88-12.88c-1-2-2.34-3.92-3.5-5.82l-17.21,11.86c2.41,3.87,4,8.2,7.87,11a76.7,76.7,0,0,1,12.59,12,38,38,0,0,0,15,10.42c7.26,2.81,13.87,6.75,20.57,10.58a17.84,17.84,0,0,1,6.45,6,35,35,0,0,0,10.42,10.53c3.42,2.3,6.92,4.47,10.39,6.71a32.51,32.51,0,0,0,12.39,4.63,39.54,39.54,0,0,1,14.46,5.43,47.12,47.12,0,0,0,6,2.92c4.22,1.86,8.08,4.16,10.78,8.06a19.16,19.16,0,0,0,1.91,2l1.13-.89c.46.91.67,2.14,1.4,2.7,3.92,3.06,7.95,6,12,8.88a16.92,16.92,0,0,0,3.34,1.77c4.57,2,9.29,3.61,13.7,5.87,8.51,4.36,17.59,4.06,26.69,3.9a2.5,2.5,0,0,0,2.65-2.21c.61-2.68,1.33-5.33,2-8a23.56,23.56,0,0,1,.94-2.41c1.52,3.61-.27,7,.07,10.43,4.15-1.1,8.07-2.4,12.08-3.17a48.12,48.12,0,0,0,22.91-11,9.69,9.69,0,0,1,2.32-1.64c2.36-1,3-3.05,3.39-5.32.19-1.19.5-2.35.76-3.52l.41.11c-.19,1.81-.37,3.63-.56,5.51a4.11,4.11,0,0,0,1-.11c4.38-2.33,8.77-4.64,13.12-7,.49-.27.78-.91,1.16-1.39s.7-.92,1.3-1.71c1.23,2.87,3.49,2.41,5.45,2a55,55,0,0,0,9.37-2.83c9.49-4,18.49-8.78,25.12-17.19,2-2.57,5.15-4.31,7.89-6.29,2.47-1.79,5.14-3.32,7.65-5.08,3.51-2.45,7.15-4.52,11.56-4.82a4.14,4.14,0,0,0,1.83-.43,5.78,5.78,0,0,0,1.21-1.27,17,17,0,0,0,3.26-.52,69.78,69.78,0,0,0,7-2.89,80.31,80.31,0,0,0,9.48-5.05c3.87-2.57,7.38-5.68,11.19-8.34A41.1,41.1,0,0,0,667,481.53a21.56,21.56,0,0,1,1.73-3,17,17,0,0,0,3-7.93,77.62,77.62,0,0,1,3.72-15.39,40.89,40.89,0,0,0,1.89-20.35,120.82,120.82,0,0,1-1-22.48,20.65,20.65,0,0,1,1.76-8,43.37,43.37,0,0,0,4.13-15.21c.71-9.41,1.17-18.74-2.43-27.87-1.28-3.24-1.3-7-1.7-10.57-.34-3-.36-6.11-.59-9.17-.32-4.26-.3-8.45,1.59-12.44a20.5,20.5,0,0,0,.91-2.88l-1.81-.64c2-.71,2.29-2.15,2.33-3.82,0-1.26.38-2.51.46-3.78.28-4.73.85-9.48.68-14.2-.19-4.95-1.17-9.87-1.71-14.81A38,38,0,0,0,675,273.07c-1.26-2.09-2.33-4.28-3.66-6.32a18,18,0,0,0-3.38-4.11A122.36,122.36,0,0,1,653.72,249c-4.2-4.77-9.64-7.82-15.37-10.44-4.8-2.2-9.52-4.57-14.23-7-2.43-1.24-4.74-2.7-7.26-4.15l-4.45,6.92-.51-.32c1-2.63,2.07-5.27,3-7.63-4.48-7.57-10.56-13.1-17.73-17.69s-14.54-8.49-23.4-8.9c-1.66,4.35-3.31,8.66-5,13.19,7,2.76,12.08,7.92,17.71,12.49l5.33-7.88.56.36C590.75,220.85,589.19,223.67,587.58,226.58ZM538.7,628.91c2.55-1,4.62-1.7,6.59-2.63Q559,619.71,572.71,613A46.39,46.39,0,0,0,584,605.4c1.95-1.79,4-3.48,6.1-5.07,5.84-4.38,12.17-7.56,19.6-8.34a21.73,21.73,0,0,0,7.53-2.3,124.35,124.35,0,0,0,15.43-8.75c10.1-7.15,19.81-14.84,29.8-22.15a53,53,0,0,0,14-15.39c2.2-3.61,4.17-7.38,6.49-10.91,3.19-4.86,6.25-9.87,10-14.24a154.37,154.37,0,0,0,12.71-17,58.89,58.89,0,0,1,6.11-7.23c1.49-1.64,3.42-2.94,4.66-4.74,2.49-3.62,5.78-6.43,8.76-9.57,4.44-4.69,8.64-9.71,10.18-16.2a143.51,143.51,0,0,0,3-16.19c.85-7.25,1.16-14.55,1.78-21.83.67-7.94.72-15.78-1.08-23.66-2.09-9.15-1.92-18.26,2.18-27a16,16,0,0,0,1.35-5.84c.27-5.49.6-11,.32-16.49-.64-12.58-2.57-25-4.23-37.51a60.7,60.7,0,0,0-7.08-22.2c-1.86-3.32-3.9-6.56-5.6-10-2.6-5.19-5.42-10.34-7.33-15.79a153.07,153.07,0,0,0-8.49-19.79,58.69,58.69,0,0,1-3.08-8.61c-.85-2.6-1.54-5.27-2.35-7.88s-2-5.37-2.62-8.13c-2.22-9.4-6.18-17.74-13.88-23.94-2.8-2.26-5.5-4.65-8.44-6.7-7.37-5.15-14.84-10.17-22.31-15.19-2.19-1.47-4.49-2.79-6.77-4.12a17.21,17.21,0,0,0-2.26-.94c-4.67,8.39-9.22,16.58-13.82,24.86.84.4,1.4.69,2,.93a124.53,124.53,0,0,1,27.78,15.81c7.81,5.78,16,11.19,22.18,18.84a11.43,11.43,0,0,0,1.39,1.3,15.27,15.27,0,0,1,4.38,6.87c1.47,4.53,3.19,9,4.53,13.54a70,70,0,0,1,2.73,11.71,62.07,62.07,0,0,0,6.91,22.59c2,3.68,3,7.86,4.46,11.84.92,2.57,1.78,5.16,2.64,7.75.65,2,1.64,4,1.81,6.05.53,6.42,1,12.86,1,19.3.08,7.09-.24,14.18-.48,21.27-.31,9.22-1.24,18.38-4,27.24a46.8,46.8,0,0,0-1.15,24.12A111.14,111.14,0,0,1,713.05,430a211.94,211.94,0,0,1-1.7,21.81c-.61,5.58-1,11.15-3,16.5a49.05,49.05,0,0,0-1.77,6.41,16.32,16.32,0,0,1-4.07,7.77c-2.72,3-5.38,6-8,9.06a67.73,67.73,0,0,1-12.52,11.64,45.26,45.26,0,0,0-11.86,12.65,75.78,75.78,0,0,1-7,9.41c-3.19,3.65-6.9,6.8-9.67,10.87-1.32,2-3.43,3.44-5.35,4.91a52.37,52.37,0,0,1-6.35,4.19c-10,5.56-20,11.11-30,16.5a80.67,80.67,0,0,1-20.69,7.92,49.85,49.85,0,0,0-23.35,12.14,85.38,85.38,0,0,1-17.86,12.6,5.08,5.08,0,0,0-2.85,4.16c-1.56,9.41-3.72,18.67-7.54,27.46A26.12,26.12,0,0,0,538.7,628.91ZM602.4,108c.39.08.89.22,1.4.29,4.78.65,8.72,2.9,12.42,5.92,5.07,4.16,10.37,8,15.57,12,2.61,2,5.2,4,7.85,5.94,2.13,1.56,4.26,3.13,6.5,4.51,7.58,4.65,15.3,9.16,21.57,15.56,5.92,6.05,11.63,12.3,17.26,18.63a43.38,43.38,0,0,0,9.48,8.36,46.22,46.22,0,0,1,12.29,11.78,55.09,55.09,0,0,0,8.23,9.19c8.42,7,14.59,15.85,21.08,24.47a31.22,31.22,0,0,1,6.05,15.15A55.07,55.07,0,0,0,749,260.51c.79,1.37,1.48,2.81,2.21,4.22a50.9,50.9,0,0,1,5.05,15.3,155.74,155.74,0,0,0,4.34,20.46c1.6,5.26,2.72,10.66,4.25,15.94s3.23,10.49,5,15.69c.91,2.7,2.15,5.29,3.2,7.95a20.13,20.13,0,0,1,1.35,10.27c-1.13,8.49-2.29,17-3.38,25.47a152.76,152.76,0,0,0-1.69,19.25c0,7.51-.5,15.06-2.64,22.32-2.47,8.42-5.33,16.73-7.79,25.15a48.81,48.81,0,0,0-2,10.54,52.7,52.7,0,0,1-4.21,17.16,58.05,58.05,0,0,0-3.92,12c-1.93,11.21-6.75,21.33-11.28,31.57a25.36,25.36,0,0,1-8,10.14,66.1,66.1,0,0,0-17.6,20.2,48.11,48.11,0,0,1-12.09,13.76,153.09,153.09,0,0,0-17.67,16.39c-2.52,2.71-5.22,5.27-8,7.74a99.56,99.56,0,0,0-12.64,13.8c-1.6,2.1-3.24,4.18-4.87,6.26a20.82,20.82,0,0,1-8.86,6.48q-16,6.51-32,13.11c-1.17.48-2.26,1.14-3.39,1.72-5.46,2.79-10.84,5.75-16.4,8.33a59.59,59.59,0,0,1-10.16,3.53Q576,637.8,566,639.79a69.46,69.46,0,0,0-18.58,6.14,35.29,35.29,0,0,1-9.07,2.74c-4.34.9-8.82,1.18-13.11,2.23-5.72,1.41-4.74.68-5,6.22-.13,3.13,0,6.28,0,9.72l6-1.35c10.52-2.38,21-5.13,31.56-7,7.55-1.34,14.85-3,21.92-6.06a57.66,57.66,0,0,1,14-4.06,53.64,53.64,0,0,0,16.71-5.72,132.6,132.6,0,0,1,22.81-9.49A78,78,0,0,0,653.06,624c5.52-3.54,11-7.15,16.74-10.33a76.72,76.72,0,0,0,25.93-23.4c3.69-5.29,7.19-10.72,10.7-16.14a76.87,76.87,0,0,1,21.86-22.72,43.4,43.4,0,0,0,12.81-13c3.67-5.81,7.13-11.76,10.61-17.69A116.29,116.29,0,0,0,764.66,486a17.2,17.2,0,0,0,.23-2l-.45-.15-3,6.82c-.14-.37-.23-.48-.2-.56C765,476.55,768.55,463,774,449.93a50.67,50.67,0,0,0,3.77-15.34,61.8,61.8,0,0,1,4.45-18.44,33.94,33.94,0,0,0,2.51-11.08c.64-10.14,1.31-20.27,3.75-30.2,1.89-7.67,2.1-15.48,1.67-23.34-.29-5.39-.61-10.79-.48-16.18a78.13,78.13,0,0,0-7.92-36.24c-2.71-5.62-5.58-11.16-8.39-16.73A74.74,74.74,0,0,1,765,253.6a45.59,45.59,0,0,0-5-18.54c-3.48-6.53-7.14-13-10.86-19.37-6-10.45-14-19.32-23-27.38a11.29,11.29,0,0,0-1.51-1l-.25.36,4.55,6a38.66,38.66,0,0,1-3.64-3.15c-8.71-8.66-17.26-17.46-24.77-27.21a54.58,54.58,0,0,0-12.24-11.89,50.43,50.43,0,0,1-11.86-10.94c-4-5.29-9-9.22-14.46-12.69a133.6,133.6,0,0,1-19.81-15.32,67,67,0,0,0-13.82-10.07q-12.55-6.8-25.12-13.59a20.82,20.82,0,0,0-2.21-.9C601.49,94.63,601.93,101.14,602.4,108ZM214.6,250C211.18,264,207.51,277.82,202,291a50.12,50.12,0,0,0-3.66,15,61.78,61.78,0,0,1-4.44,18.44,34.41,34.41,0,0,0-2.52,11.08c-.66,10-1.26,20.06-3.69,29.88A80.27,80.27,0,0,0,186,389.12c.3,5.71.59,11.43.5,17.13a76.25,76.25,0,0,0,7.38,34.13c2.79,5.93,5.79,11.77,8.76,17.61,4.6,9.06,7.75,18.57,8.42,28.74a52.37,52.37,0,0,0,6,20.88c.37.72.86,1.38,1.34,2.15l15-10.94a39.32,39.32,0,0,0-4.68-15.63c-.81-1.61-1.6-3.23-2.49-4.79a62.42,62.42,0,0,1-6.87-20.65c-1-5.94-2.46-11.79-3.86-17.65-1.23-5.14-2.55-10.26-4-15.34-1.59-5.47-3.35-10.9-5.17-16.3-1-3-2.33-5.9-3.48-8.86a18.68,18.68,0,0,1-1-9.37c1.13-8.59,2.3-17.19,3.42-25.78a153.65,153.65,0,0,0,1.65-18.94,77.25,77.25,0,0,1,1.68-17.33c2.36-9.85,5.5-19.53,8.54-29.21a44.37,44.37,0,0,0,2.31-12.09,33.79,33.79,0,0,1,2.88-13.26,92.91,92.91,0,0,0,6.41-20.86c1.56-7.84,5.41-14.88,8.28-22.27a35,35,0,0,1,12-15.69,48.13,48.13,0,0,0,13.15-14.89,65.91,65.91,0,0,1,18.28-20.44c1-.74,1.87-1.61,2.82-2.42a39.82,39.82,0,0,1-2-3.92,1.81,1.81,0,0,1,.33-1.67c.29-.24,1.22,0,1.64.28a30.44,30.44,0,0,1,2.56,2.3c4.19-4,8-7.78,12-11.37a144.18,144.18,0,0,0,21.07-23.22,22.2,22.2,0,0,1,10.59-7.76c5.24-2,10.42-4.12,15.59-6.27,3.91-1.62,7.77-3.33,11.63-5.07,3.08-1.38,6.17-2.74,9.15-4.31,8.05-4.25,16-8.65,25-10.79,5.86-1.4,11.72-2.81,17.63-4,7.18-1.44,14.13-3.3,20.74-6.65,3.31-1.67,7.26-2.14,11-3,4.74-1,9.65-1.47,14.26-2.91a95.36,95.36,0,0,1,19.43-4.45c1.68-.17,3.35-.48,5-.75,8.82-1.45,17.43-1.41,25.81,2.41a41.92,41.92,0,0,0,16.06,3.37c4,.15,8,.35,12,.78,5.94.65,11.49,2.79,17,5,6.87,2.77,14.09,4.22,21.42,6,2-6.79,4.45-13.21,4.42-20.39-1.14-.16-2.06-.36-3-.41-4.43-.27-8.87-.59-13.31-.73-12.3-.39-24.16-2.56-35.27-8.14a35.83,35.83,0,0,0-14.6-4c-7.81-.34-15.64-.5-23.46-.57-12.62-.12-24.8,2.44-36.73,6.33a13.52,13.52,0,0,0-1.65.75c0,.14.07.27.11.41l8-1.09a85.77,85.77,0,0,1-11.38,3.4c-8.66,1.93-17.3,4-26,5.52-7.44,1.28-14.72,2.74-21.58,6.06a52.54,52.54,0,0,1-16.15,4.48,33.84,33.84,0,0,0-10,3c-2.4,1.12-4.71,2.43-7.14,3.46-6.42,2.71-12.76,5.7-19.36,7.88A100.52,100.52,0,0,0,320,118.62c-4.68,3.09-9.44,6.07-14.33,8.8a74.27,74.27,0,0,0-24.61,22.08c-3.74,5.25-7.28,10.66-10.75,16.1a79.58,79.58,0,0,1-23.09,24.13,38.78,38.78,0,0,0-11.36,11.39c-3.88,6.06-7.57,12.23-11.22,18.43-6.52,11-10.62,23-13.32,35.49a9.53,9.53,0,0,0-.09,1.69l.45.12ZM564.83,412.72c.1-.38.2-.76.31-1.14l15.56,2.47c0-8.41.14-16.44-.08-24.46a18.87,18.87,0,0,0-1.89-7,36.62,36.62,0,0,1-3.36-12.49c-.27-3.48-.75-7-.8-10.44A27.8,27.8,0,0,0,569,343.1a51.19,51.19,0,0,1-7.48-15,46.28,46.28,0,0,0-7.19-13.33A123.64,123.64,0,0,1,545.3,301c-2.81-5.06-6.3-9.21-11.38-12A25.72,25.72,0,0,1,523,277a22.87,22.87,0,0,0-4.57-6.78,35.29,35.29,0,0,1-9.22-13.48,7.94,7.94,0,0,0-4.61-4.51,62.85,62.85,0,0,1-7.39-4.22,5.57,5.57,0,0,0-4.45-1.07A44.43,44.43,0,0,1,485,248.4a9.1,9.1,0,0,0-4.67,1.53,44.84,44.84,0,0,0-16.45,17.67q-3,5.79-6.22,11.42a41.56,41.56,0,0,1-13.89,14.56c-6.44,4.12-13.57,6.3-21,7.66-3.95.73-7.87,1.62-11.75,2.63a6.05,6.05,0,0,0-5,6.14c0,1.37-.28,2.73-.37,4.11a130.7,130.7,0,0,1-7.46,37.2q-4.05,11-8.12,22a31.23,31.23,0,0,0-1,18.42c1.76,7.51,3.63,15,5.3,22.54a8.74,8.74,0,0,0,5.7,6.61,71.56,71.56,0,0,1,9.88,5A94.39,94.39,0,0,0,425.37,434,16.1,16.1,0,0,1,436,447.15c.71,4.27,1.25,8.58,1.86,12.87,1,7.22,4.74,12.8,10.5,17.1a13.45,13.45,0,0,0,8.29,2.69,30.31,30.31,0,0,0,11.67-2.69c8.68-3.54,17.51-6.33,27-6.15a9.11,9.11,0,0,0,6.58-2.71q3.22-3.08,6.34-6.23c2.62-2.66,5.36-5.18,8.88-6.55,5.1-2,9.45-5.09,13.8-8.32,2.94-2.18,6.32-3.78,9.49-5.66a13.23,13.23,0,0,0,1.26-1l-9.31-2.36c0-.22,0-.43.05-.65l22.17-.4c1.79,0,3.69.27,5.36-.21a110.46,110.46,0,0,0,12.57-4.36c5.86-2.52,8.47-7.49,7.91-14.34C575.14,416.85,569.6,415.74,564.83,412.72Zm55.66-191.47c6.5,3.72,12.55,7.56,19.18,10.41a52.13,52.13,0,0,1,20.5,15.08c3.23,4,6.54,7.94,9.82,11.91a5.4,5.4,0,0,0,.64.71c7,6,9.77,14.46,12.16,22.91,1.92,6.81,3.31,13.78,4.65,20.73a52.22,52.22,0,0,1,.72,9.76,51.55,51.55,0,0,1-.81,8.21,88.13,88.13,0,0,1-2.18,10.84,21,21,0,0,0-1,7.15c.19,3.48.38,7,.36,10.46A30.91,30.91,0,0,0,686.33,361a49.56,49.56,0,0,1,2.89,21.21c-.51,8.79-1.19,17.52-5,25.7a11.31,11.31,0,0,0-.85,4.63q0,8.58.28,17.14c.09,2.85.46,5.69.69,8.53.83,10.49-3.65,19.79-6.64,29.41-.91,2.92-2,5.77-3.15,8.61-.85,2.16-1.51,4.51-2.84,6.34a131.08,131.08,0,0,1-10,12.32c-3.45,3.7-7.41,6.93-11.16,10.36-2.18,2-4.29,4.09-6.61,5.93-6.07,4.83-13.3,7.59-20.54,9.69a48.11,48.11,0,0,0-15.6,7.26,8.51,8.51,0,0,1-1.37.81,38.1,38.1,0,0,0-12.78,10.23,35,35,0,0,1-11,8.92c-2.25,1.18-4.44,2.46-6.7,3.61-6.63,3.36-13.36,6.4-20.9,7.1a8.81,8.81,0,0,0-1.92.58c-1.41,9.81-2.78,19.38-4.24,29.54a40.61,40.61,0,0,0,3.73-2.21c4.78-3.67,9.63-7.27,14.23-11.15A62.12,62.12,0,0,1,583,565.57c3.4-1.44,6.87-2.75,10.37-4a130.1,130.1,0,0,0,18.88-8.23c9.15-4.88,18.29-9.75,27.51-14.5,3.42-1.76,6.65-3.61,8.89-6.9A27.31,27.31,0,0,1,652,528.6c.89-.9,1.78-1.81,2.6-2.77q4.23-4.94,8.42-9.9a50.44,50.44,0,0,0,4-4.91A48.9,48.9,0,0,1,678,499.6a71.61,71.61,0,0,0,7.77-7c4.34-4.63,8.5-9.44,12.6-14.28a12.38,12.38,0,0,0,2.39-4.39,166.47,166.47,0,0,0,5.67-25.65c1.65-13.23,2.39-26.4-.52-39.46-2.54-11.43-1.76-22.65.39-34a169,169,0,0,0,2.27-19.2c.57-7.91.79-15.85,1.05-23.78s1.33-15.65-2.19-23.08a12.27,12.27,0,0,1-.4-1.86c-.33-1.11-.71-2.21-1.1-3.3Q704,298.24,702,292.88c-1-2.77-1.92-5.6-3.16-8.27a41.25,41.25,0,0,1-3.68-12.75A69.41,69.41,0,0,0,691.79,257c-1.63-4.8-3.23-9.62-4.92-14.41A10.15,10.15,0,0,0,685,239c-3.83-4.09-7.5-8.43-11.82-12-8.93-7.27-18-14.49-28.27-19.83a98.73,98.73,0,0,0-13.19-5.8C628,208,624.37,214.42,620.49,221.25ZM323.62,452.61c1.82,3.23,3.46,5.94,4.89,8.76a21.87,21.87,0,0,0,7.23,7.82c4.24,3,8.44,6.05,12.36,9.42a63.17,63.17,0,0,0,14.92,9.5,63.25,63.25,0,0,1,11.24,6.46c9.07,6.76,17.94,13.81,26.81,20.83a49.93,49.93,0,0,0,12.07,6.88,43.64,43.64,0,0,1,10,5.32,213.1,213.1,0,0,0,22,14.46c3.27,1.93,6.36,4.18,9.53,6.29,1.85,1.23,3.68,2.49,5.53,3.73a5.64,5.64,0,0,0,5.35.94,8.39,8.39,0,0,1,4.08-.11c5.87,1.06,11.78,1.05,17.71,1.14a22.55,22.55,0,0,0,9.79-2.22c5-2.27,10-4.5,15.21-6.33a65,65,0,0,0,15.09-7.94,69.05,69.05,0,0,1,11.5-6.64c10.58-4.57,21.3-8.79,32-13.06a38,38,0,0,0,10.84-6.47,40.11,40.11,0,0,1,11.91-7.16,133.47,133.47,0,0,0,17.36-8.51c5.07-2.84,10.34-5.32,15.52-8,2.07-1.06,4.21-2,6.16-3.26a7.44,7.44,0,0,0,2-2.65c.85-1.45,1.46-3,2.36-4.44,3.37-5.24,7-10.34,10.17-15.69a19.66,19.66,0,0,0,2.23-6.84c1.12-7.09,2-14.23,3-21.35a18.38,18.38,0,0,0,0-2.25L637.25,434c-1.44,3.89-2.34,7.68-4.15,11-6,10.9-14.54,19.16-26.21,23.87a78.25,78.25,0,0,1-9.3,3.15,23.42,23.42,0,0,0-11.53,6.91c-3.23,3.51-6.47,7-9.64,10.55a108,108,0,0,1-23.8,20.35C546,513.86,539.5,518,532.93,522a86,86,0,0,1-21,9.54c-6.49,1.89-13.06,3.52-19.63,5.13a38.77,38.77,0,0,1-6.29.79c-6.32.46-12.09-1.65-17.76-4.08-8.94-3.83-17.8-7.85-26.78-11.57a41.43,41.43,0,0,1-17.56-13.14,47.33,47.33,0,0,0-13-11.56,88.35,88.35,0,0,1-22-19,45.33,45.33,0,0,0-18.3-13.28c-4.5-1.82-8.95-3.82-13.33-5.91a27.77,27.77,0,0,1-12.37-11.49c-.88-1.53-1.82-3-2.79-4.6Zm-3.84-244.54c.52-.72.91-1.2,1.25-1.73a30.15,30.15,0,0,1,10-9.13c10.63-6.29,21.57-12.06,32.47-17.87A90.4,90.4,0,0,1,386,170.78a46.38,46.38,0,0,0,21.2-10.91c10.9-9.83,23.48-16.9,37-22.43,2.25-.92,4.42-2,6.69-2.91,3-1.19,6.1-2.35,9.21-3.31s6.35-1.64,9.51-2.5a15.07,15.07,0,0,1,7.83-.3c2.35.6,4.75,1,7.14,1.46,7.41,1.29,14.75,2.83,21.62,6.05A44,44,0,0,0,524,139.88a58.09,58.09,0,0,1,16.52,2.84,15.41,15.41,0,0,0,4.31.9,28.81,28.81,0,0,1,10.44,2.43c.75.3,1.53.53,2.51.87,2.11-7.36,4.17-14.51,6.23-21.67a32.51,32.51,0,0,0-11.84-3.7c-6.53-.5-13.09-.78-19.64-.94-6.77-.16-13.57-.18-20.18-1.83a90.3,90.3,0,0,0-19.5-2.26,32.17,32.17,0,0,1-9.33-1.61,34.26,34.26,0,0,0-7-1.83,74.8,74.8,0,0,1-12-2.72,39.91,39.91,0,0,0-17.27-1.25,65.1,65.1,0,0,0-17.12,5.66c-8.69,4.13-17.35,8.34-26,12.55a52.64,52.64,0,0,0-12.33,8.3,86.43,86.43,0,0,1-8.47,6.66,32.5,32.5,0,0,1-15.46,6.15,33.7,33.7,0,0,0-12.53,4.25c-17.2,9.19-32,21.72-47.11,33.83a33.44,33.44,0,0,0-3.81,4.18Zm-55.6,282.15c3.58,5.2,4.76,10.9,6,16.58a7.43,7.43,0,0,0,.58,1.8c2.06,4,2.78,8.41,4,12.66,2.08,7,5,13.75,10.81,18.67,3.95,3.35,7.92,6.7,12.09,9.74,5.47,4,11.2,7.62,16.75,11.51,6.53,4.57,13.22,8.77,21,10.8a25.64,25.64,0,0,1,3.26,1.23c7.16,2.94,13.45,7,18.21,13.32a26.82,26.82,0,0,0,7,6.29,132.72,132.72,0,0,0,16,9c11.75,5.31,23.7,10.18,35.61,15.14a40.92,40.92,0,0,0,6.68,1.92c6.25,1.41,12.62,1.3,19,1.19A106.64,106.64,0,0,1,469,623a30.19,30.19,0,0,0,10.75.7c1.22-4.8,2.4-9.48,3.55-14-6.79-2.51-13.29-5-19.86-7.29a18.68,18.68,0,0,0-6.52-1.22c-10.52.35-20.36-3.55-30.62-4.77a24.82,24.82,0,0,1-6.57-2.29,60,60,0,0,1-6.79-3.43c-9.26-5.53-18.52-11.08-27.69-16.76a83.09,83.09,0,0,1-17.81-14.24,52.39,52.39,0,0,0-23.25-14.82c-11.7-3.76-22.18-9.94-32-17.18-7.92-5.81-16.18-11.24-22.46-19a7.57,7.57,0,0,0-.92-.87,17.2,17.2,0,0,1-5.33-8.45c-1.83-5.84-3.9-11.61-6-17.75Zm-16.11,58a226.38,226.38,0,0,1,26.56,28,72.71,72.71,0,0,0,13.72,13.54,66.38,66.38,0,0,1,11.33,10.56,59.12,59.12,0,0,0,14.26,12.44,123.69,123.69,0,0,1,18.88,14.44,82.11,82.11,0,0,0,18.62,13.1c6.56,3.42,13.06,7,19.53,10.56a72.54,72.54,0,0,0,21,7.83c8.75,1.78,17.64,2.19,26.51,2.48,11.68.39,22.86,2.7,33.39,7.88a39.93,39.93,0,0,0,11.74,3.73c9.89,1.51,19.83,1.21,29.77.87a5.31,5.31,0,0,0,1.36-.45c.95-5.23,1.89-10.47,2.9-16.06-2.49.26-4.48.44-6.45.67A31.2,31.2,0,0,1,475,656a62.69,62.69,0,0,0-25-4.84,49.39,49.39,0,0,1-18.27-3.56,142.91,142.91,0,0,0-22.07-6.9,81.29,81.29,0,0,1-8.57-2.28,118.12,118.12,0,0,0-26.92-5.75,25.76,25.76,0,0,1-14.54-6.41c-4.57-3.91-9.49-7.42-14.28-11.08-2.86-2.18-5.73-4.35-8.64-6.46-2.3-1.68-4.59-3.38-7-4.87-7.4-4.55-14.92-9-21-15.18-6-6-11.68-12.26-17.28-18.6a46.54,46.54,0,0,0-10.2-9A38,38,0,0,1,270,550.37a76.66,76.66,0,0,0-11.13-12.13,88.16,88.16,0,0,1-9.32-9.91c-5-6.36-10.56-12.4-13.95-20.29l-13.37,8.7a109.24,109.24,0,0,0,29.54,36.39ZM300.13,196.5c-2.34,4-4.2,7.38-6.32,10.63-3.29,5-6.37,10.3-10.26,14.85a157.18,157.18,0,0,0-13.29,17.75,51.11,51.11,0,0,1-5.7,6.74c-1.64,1.79-3.71,3.25-5.08,5.21-2.34,3.34-5.31,6-8.12,8.87-4.75,4.87-9,10.18-10.76,16.94a70.58,70.58,0,0,0-2.14,9.91c-.77,6.61-1.22,13.27-1.77,19.91-.44,5.37-.81,10.76-1.25,16.13-.48,6,1.09,11.77,2.05,17.6,1.33,8.06,1.23,16-2.12,23.68a32,32,0,0,0-1.93,8.29,41.22,41.22,0,0,0-.38,8.23c.55,9.08,1.25,18.15,2,27.21.2,2.48.68,4.94,1,7.39a3.84,3.84,0,0,0,.91-.08c7-3.16,14.05-6.37,21.13-9.45,1.52-.66,1.64-1.73,1.67-3,.12-5.6.19-11.21.38-16.82.3-9.33,1.27-18.59,4-27.55a46.48,46.48,0,0,0,1.13-23.81A105.3,105.3,0,0,1,263,313a163.48,163.48,0,0,1,1.59-23.09c.75-5.22.61-10.56,2.47-15.62a86.09,86.09,0,0,0,2.49-8.86,15.57,15.57,0,0,1,3.66-6.92c2.15-2.34,4.28-4.7,6.3-7.15a94.84,94.84,0,0,1,15.58-14.85,48.18,48.18,0,0,0,8.27-8.25c3.66-4.63,6.87-9.62,10.53-14.83Zm-2.76,273.43L282.86,478a14.89,14.89,0,0,0,.34,2.13c2.1,6.32,4.18,12.65,6.4,18.93a9.79,9.79,0,0,0,2.17,3.44,178.27,178.27,0,0,0,19.88,18.15c11.29,8.62,23.27,15.76,36.83,20.12a54.26,54.26,0,0,1,15.58,7.72c3.58,2.62,7,5.5,10.49,8.21,4.85,3.75,9.54,7.75,14.65,11.11,10.43,6.86,21.08,13.37,31.65,20a10.06,10.06,0,0,0,2.79,1.49c4.61,1.12,9.25,2.13,13.9,3.1,3.62.75,7.26,1.37,10.9,2.05a47.76,47.76,0,0,0,6.54,1.18,49.94,49.94,0,0,1,17.72,4.51A43,43,0,0,0,485,603.4c1.49-6.07,2.95-12,4.42-18-.57-.14-.89-.33-1.16-.27-6,1.28-11.85-.08-17.6-1.28S459.54,580.69,454,579c-3.13-1-6.32-1.78-9.36-3-7.72-3-14.1-8.27-19.95-13.85-3.68-3.52-7.35-6.54-12-8.49a22.23,22.23,0,0,1-3.59-2,40.39,40.39,0,0,0-13.8-5.37,45.41,45.41,0,0,1-11-3.73,155.88,155.88,0,0,1-13.73-8.52,48.49,48.49,0,0,1-12.37-11.75,11.5,11.5,0,0,0-3.39-3.28c-6.17-3.47-12.35-6.94-18.7-10-7.7-3.77-14.72-8.31-20.16-15.06-3.22-4-6.53-7.93-9.8-11.9-.14-.16-.27-.33-.42-.47A31.13,31.13,0,0,1,297.37,469.93Zm181,158.74c-5.32-1-10.49-2.13-15.71-2.88-5.53-.78-11.11-1.36-16.69-1.72-4.43-.29-8.88-.07-13.33-.14A61.39,61.39,0,0,1,409.2,619c-2.91-1.26-5.89-2.35-8.85-3.5A313,313,0,0,1,356.21,594a36.11,36.11,0,0,1-5.95-4.21,53.43,53.43,0,0,0-17.61-10.48,62.41,62.41,0,0,1-14.13-7.11c-8.26-5.73-16.55-11.41-24.59-17.43a68.4,68.4,0,0,1-9.62-9.18c-6.67-7.44-10.7-16.41-14.12-25.68a37.46,37.46,0,0,0-1.69-4.43,49.69,49.69,0,0,1-4.65-14.44,21.47,21.47,0,0,0-3.51-8.28L240.75,505c1.29,2.43,2.27,4.66,3.59,6.67,2.43,3.71,5.09,7.28,7.6,11a67.23,67.23,0,0,0,11,12.26,56.83,56.83,0,0,1,8.81,9.08c4.56,6.36,10.17,11.59,16,16.66,5.21,4.51,10.23,9.23,14.09,15A53.93,53.93,0,0,0,318.4,591,101.66,101.66,0,0,0,332,598.58,122.75,122.75,0,0,1,358,614.19c2.6,2,5.23,4,7.76,6a16.92,16.92,0,0,0,8.87,3.86c8.39,1,16.77,2.15,24.85,4.87,5,1.69,10.14,3,15.16,4.63q9.33,3.06,18.54,6.48a55.06,55.06,0,0,0,14.72,3.66c2.42.21,4.82.67,7.24.91a81.77,81.77,0,0,1,22.34,5.76c7,2.8,14.08,1.52,21.15.63q1.65-9.3,3.13-17.61c-4.42-1.25-8.49-2.33-12.51-3.58a29.84,29.84,0,0,0-9.05-1.15l-2,3.08-.34-.14C478,630.62,478.21,629.62,478.37,628.67ZM555.8,153.43a10.84,10.84,0,0,0-5.81-2.64c-2.28-.41-4.53-1-6.79-1.53-1.44-.33-2.86-.72-4.31-1-3.32-.61-6.66-1.13-10-1.74a70,70,0,0,0-7.78-1.45,49.63,49.63,0,0,1-16-3.78,56.29,56.29,0,0,0-8.69-3c-6.69-1.54-13.44-2.85-20.19-4.12a11.23,11.23,0,0,0-4.69.1c-8.27,2.13-16.69,3.85-24.41,7.75-1,.52-2.16.87-3.24,1.31-11.44,4.66-22.19,10.56-31.34,18.93a77.92,77.92,0,0,1-29,16.47,123.26,123.26,0,0,0-20.07,8.66c-6.51,3.51-13.1,6.9-19.64,10.35-2.8,1.48-5.58,3-8.71,4.66l14.44,18a45.39,45.39,0,0,1,6.36-1.62,16.43,16.43,0,0,0,7.53-3.09,83.88,83.88,0,0,1,7.22-4.6,35.51,35.51,0,0,0,10.79-8.7,39.47,39.47,0,0,1,12.73-10.32c2.54-1.29,5-2.71,7.58-4,6.37-3.18,12.95-5.67,20.13-6.41a13.38,13.38,0,0,0,5.31-1.91c6.13-3.74,12.15-7.66,18.22-11.5,1.34-.85,2.73-1.62,4.05-2.5,8.19-5.42,17.82-6.11,27-8.24,3.49-.81,7.06-1.3,10.6-1.84a24,24,0,0,1,6.28-.57,116.81,116.81,0,0,1,15.62,2.5c6.95,1.76,13.8,4,20.58,6.39a46.16,46.16,0,0,1,9.29,4.66c3.39,2.14,6.48,4.74,9.73,7.11a11.93,11.93,0,0,0,1.86.92C552.3,168.88,554,161.27,555.8,153.43ZM288,436.81c0-3.77-.16-7.15.05-10.51.22-3.58.7-7.16,1.25-10.71a35.32,35.32,0,0,1,1.62-6.75,17,17,0,0,0,1-6.83c-.18-3.59-.38-7.19-.37-10.78a31.78,31.78,0,0,0-1.83-11.53,47.2,47.2,0,0,1-2.94-19.31c.49-9.31.95-18.6,4.95-27.3a12.29,12.29,0,0,0,.91-4.94c0-5.61-.06-11.22-.24-16.82-.1-2.95-.48-5.9-.71-8.85-.8-10.57,3.69-20,6.78-29.64.86-2.71,1.87-5.38,2.93-8,1-2.45,1.77-5.07,3.26-7.19,3.63-5.19,7.44-10.25,12.4-14.36,3.88-3.22,7.4-6.86,11.16-10.38L318,219.18c-3.27,3.85-6.48,7.23-9.22,10.95A46.77,46.77,0,0,1,299,240.4a66.75,66.75,0,0,0-10.89,10.15c-3.4,3.92-6.9,7.75-10.23,11.73a12.43,12.43,0,0,0-2.43,4.36A173.84,173.84,0,0,0,269.77,292c-1.71,13.43-2.38,26.78.46,40.09a72.18,72.18,0,0,1,.6,28.05c-.84,4.69-2,9.35-2.41,14.07-.71,8.64-1,17.32-1.35,26a7,7,0,0,0,.53,2c.06.22.23.57.14.65-1.6,1.54-1,3.57-1.17,5.39-.23,3.49-.13,7-.38,10.47a18.08,18.08,0,0,0,1.32,9.3,50.53,50.53,0,0,1,1.42,4.86c1.15,3.36,2.38,6.69,3.68,10.3Zm-43.73,18.86c-1.35-2.46-2.54-4.58-3.68-6.71-3.37-6.29-6.07-12.87-6.9-20-.49-4.1-1.85-8.05-1.89-12.24a69.53,69.53,0,0,0-1-7.54,319.67,319.67,0,0,1-2.33-32.27c-.15-6.46-.27-12.9,1.11-19.28a40.54,40.54,0,0,0,.16-14.53c-1-6.5-1.86-13-1.3-19.59.79-9.17,1.54-18.34,2.52-27.49a62.89,62.89,0,0,1,4.76-18c3.44-8.06,8.45-15.1,14.06-21.75a42.2,42.2,0,0,0,3.34-4.23,46.5,46.5,0,0,1,8.67-9.64,24.73,24.73,0,0,0,4.3-4.62,147.35,147.35,0,0,1,14.18-17.89c7.09-7.73,11.3-17.31,17-26.12l-9.35-10.27c-6.17,4.48-12,9-16.33,15.13-6,8.64-12.83,16.55-21.22,23a21.82,21.82,0,0,0-6.43,8.16c-2.38,5.07-4.91,10.09-7,15.28-1.5,3.7-2.43,7.63-3.56,11.47-1.47,5-2.57,10.06-4.43,14.86a77.81,77.81,0,0,0-4.48,14.51,124.44,124.44,0,0,1-9.47,31.5,14.92,14.92,0,0,0-1.22,3.59,98.56,98.56,0,0,0-1.58,27.48c.69,7,1.53,13.9.74,20.9-.71,6.3-1.37,12.62-2.28,18.9a21,21,0,0,0,1.48,12.05,108.65,108.65,0,0,1,7.17,20.31c1.69,7.43,3.54,14.81,5.2,22.24.81,3.61,1.37,7.27,2,10.92.59,3.4,1.13,6.81,1.74,10.54Zm324.5-346.38c-1.56-.47-2.76-.85-4-1.19a161,161,0,0,1-21.91-7.43,55.42,55.42,0,0,0-16.91-4c-7.58-.75-15.22-1.62-22.29-4.61a40.89,40.89,0,0,0-22.94-3c-5.83,1-11.88,1-17.52,2.6-8,2.19-15.82,4.43-24,5.58-5.28.74-10.4,2.77-15.52,4.41-6.46,2.07-12.9,4-19.7,4.73a55.09,55.09,0,0,0-11.79,2.25,83.88,83.88,0,0,0-24.13,12.52A107.29,107.29,0,0,1,343.84,135c-3.33,1.37-6.57,3-10,4.12a19.41,19.41,0,0,0-9.9,7.52,121.87,121.87,0,0,1-19.7,21.46c-4.37,3.81-8.4,8-12.8,12.26l9.23,7.77c3.84-3.48,7.45-6.87,11.17-10.12,2.31-2,4.82-3.8,7.2-5.73A314.41,314.41,0,0,1,360,144.47a39.53,39.53,0,0,1,7.19-3.28,58.84,58.84,0,0,0,17.37-9.68,72.08,72.08,0,0,1,11.53-7.8c9.82-4.93,19.79-9.62,29.88-14,12.67-5.45,26-5.29,39.33-3.36,3,.44,6,1.19,9.06,1.45a59.13,59.13,0,0,1,11.11,2.48,72.55,72.55,0,0,0,8.67,1.69c5.22.8,10.52,1.22,15.68,2.29a98.23,98.23,0,0,0,21.4,2.32c3.6-.06,7.2,0,10.8.09a65.79,65.79,0,0,1,21.79,3.73,12.85,12.85,0,0,0,1.57.33ZM544.54,183.2c-.37-.91-.48-2.23-1.19-2.78-4.08-3.19-8.29-6.21-12.49-9.24a14.57,14.57,0,0,0-2.81-1.43c-4.76-2.05-9.57-4-14.29-6.1a40.47,40.47,0,0,0-18.14-3.86c-1.69.05-3.39-.11-5.07,0a24.47,24.47,0,0,0-5.88.93c-5.69,2-11.33,4.07-17.3,5.11a38.32,38.32,0,0,0-17.44,7.94c-6.08,4.86-12.78,8.65-19.45,12.52a19,19,0,0,1-8.71,2.64,32.69,32.69,0,0,0-12.55,3.08q-4.59,2.17-9.13,4.42a42.47,42.47,0,0,0-14.86,11.63,33.4,33.4,0,0,1-9.78,8,71.06,71.06,0,0,0-6.61,4.35c-3.73,2.74-7.7,4.82-12.4,5.24a20.57,20.57,0,0,0-2.94.77l7.66,13.65a15.61,15.61,0,0,0,1.56-.8,130.69,130.69,0,0,1,17.24-9.4,47.88,47.88,0,0,0,9.36-5.89,49.94,49.94,0,0,1,14.79-8.45c8.77-3.08,17.51-6.26,26.33-9.22a54.9,54.9,0,0,0,15.91-8.39,51.76,51.76,0,0,1,12.4-7c6.3-2.45,12.54-5.05,18.74-7.73a25.37,25.37,0,0,1,10.11-2.36c3.6,0,7.21-.27,10.79-.07,9.27.51,18.11,2.28,26.19,7.44,6.58,4.2,13.69,7.55,20.58,11.26.13.07.37-.07.83-.17.72-3.28,1.29-6.72,2.27-10,.93-3.12.06-5.32-2.59-7.06Zm64,234.71a21.58,21.58,0,0,0,.84-2.2,31,31,0,0,0,.24-12.61c-3-17.62-6.49-35.14-8.12-53A40.45,40.45,0,0,0,592.83,328a25.74,25.74,0,0,1-5.17-11.47c-1.46-7.49-5.12-13.81-10-19.52-6.34-7.34-13.35-13.83-21.94-18.53a38.87,38.87,0,0,1-12.83-10.71c-.15-.2-.47-.27-.7-.39-2.34,4.92-4.63,9.73-7,14.65,1,.7,2,1.46,3.13,2.1a30.79,30.79,0,0,1,12.33,13.31,72.2,72.2,0,0,0,9.05,13.76,37.44,37.44,0,0,1,6.86,12.09A71.45,71.45,0,0,0,576,342.19a23.94,23.94,0,0,1,4.36,13.08c.13,3.59.16,7.19.17,10.79a39.9,39.9,0,0,0,2.9,15.8,22.84,22.84,0,0,1,1.83,7.66c.38,7.29.39,14.59.54,21.89,0,1.13,0,2.27,0,3.59Zm-276.5-180.5c-2,1.46-3.69,2.89-5.56,4.05a51,51,0,0,0-19.29,21,24.92,24.92,0,0,0-2.68,7.37,80.86,80.86,0,0,1-3.76,15.7,41,41,0,0,0-1.91,20.34c1.15,7.37,1.1,14.75,1.09,22.16a18.42,18.42,0,0,1-1.88,8.6,36.53,36.53,0,0,0-4,14.25c-.81,9.62-1.36,19.15,2.32,28.49,1.28,3.25,1.32,7,1.72,10.57.34,3,.35,6.11.58,9.16.33,4.26.33,8.46-1.57,12.44a18.8,18.8,0,0,0-.74,2.78l15-6.18c.25-3.72.37-7.3.76-10.86a56.71,56.71,0,0,0-.51-17.05,36.45,36.45,0,0,1,.25-13.57c1.48-7.9,2.85-15.82,4.45-23.69s2.78-15.61,1.49-23.61c-.92-5.72-.09-11.37.91-17a104.83,104.83,0,0,0,1.66-12.56c.33-6.17,1.7-11.9,5.23-17.05.95-1.39,1.56-3,2.54-4.39,2.56-3.61,5.08-7.27,7.91-10.67,2.28-2.72,5-5.08,7.59-7.69Zm205.28,1.89c1.29-6.29,2.51-11.93,3.55-17.6a3.52,3.52,0,0,0-1-2.45,17.44,17.44,0,0,0-7.69-4.89c-9.14-3-18.27-6.05-27.53-8.63-3.48-1-7.32-.81-11-.87a61.12,61.12,0,0,0-8.19.68c-1.15.14-2-.48-2.93-.7-1.15-.26-2.59.63-3.88,1.1a115.92,115.92,0,0,0-34.4,19.35q-6.5,5.34-13.32,10.27c-6.17,4.49-12.57,8.6-19.84,11.16-9,3.15-17.89,6.47-26.93,9.44-7.94,2.61-14.05,7.95-20.64,12.75l11.11,17.52a14.58,14.58,0,0,0,.83-1.74c1.73-5.33,5.48-8.75,10.56-10.67a119.32,119.32,0,0,1,12.93-4.28c13.19-3.32,24.72-9.7,35.23-18.19,7.91-6.37,15.88-12.68,24-18.8a67.64,67.64,0,0,1,25.18-12.34,38,38,0,0,1,23.58,1.91,45.68,45.68,0,0,0,9.64,3c7.8,1.26,13.58,5.53,18.52,11.32ZM334.63,399.55c1.67-6.71,3.18-13.08,4.86-19.41a48.37,48.37,0,0,0,.77-22,61.09,61.09,0,0,1-.19-25.19c3.4-15.46,4.6-31.15,5-46.92a59.7,59.7,0,0,1,.77-7.89,11.92,11.92,0,0,1,6.43-9.27c1.56-.8,3-1.78,4.9-2.88l-9.78-12c-3.13,1.52-6,2.52-6.58,6.24a6.71,6.71,0,0,1-1.75,3,91,91,0,0,0-10.35,15.93,20.92,20.92,0,0,0-2.1,6.55c-1,6.26-1.49,12.6-2.53,18.84a52.7,52.7,0,0,0-.65,14.83,55.79,55.79,0,0,1,.21,14.55c-1.5,10.35-2.87,20.72-4.34,31.08-.66,4.61-1.54,9.26-.6,13.87a54.93,54.93,0,0,1,0,20.49c-.33,1.93-.36,3.9-.57,6.31Zm25.69-7.72c-.94-7.87,2-14.79,3.82-21.94.72-2.87,1.25-5.78,1.9-8.67,1-4.43,2-8.86,3.08-13.26.84-3.39,2-6.7,2.7-10.11,1.61-7.89.85-15.8-.28-23.67a47.2,47.2,0,0,1,.75-19.19c.44-1.64.85-3.28,1.31-4.9a2.26,2.26,0,0,0-.51-2.59c-4.49-4.12-7.61-9.32-11.07-14.24-.54-.76-1.13-1.49-1.79-2.35-1.52.84-2.85,1.71-4.27,2.34-3.39,1.52-4.85,4.25-5.09,7.78s-.54,7-.61,10.44c-.26,13.44-.9,26.85-3.81,40a56.23,56.23,0,0,0,.67,28.22,37.86,37.86,0,0,1,.5,18.53c-1,4.76-2.32,9.45-3.48,14.17-.31,1.28-.54,2.58-.9,4.33Zm184-185.15c-1.72-1.06-3.17-1.93-4.59-2.83l-21.12-13.49c-1.25-.79-2.51-1.56-3.77-2.34a4.39,4.39,0,0,0-3.62-.51,15.17,15.17,0,0,1-4.37.3q-8.55-.47-17.08-1.07a22.82,22.82,0,0,0-11.9,2.65,107.1,107.1,0,0,1-13.15,5.5,63.91,63.91,0,0,0-16.53,8.6,60.31,60.31,0,0,1-11,6.28c-10.88,4.66-21.95,8.89-32.86,13.48a34.76,34.76,0,0,0-8.45,4.91,57.24,57.24,0,0,1-17,9.76,33.81,33.81,0,0,0-4.36,1.9c-3.5,1.86-7,3.81-10.43,5.72l1.93,3.88-.47.3L363,246.29l-11.54,6,8.79,11.9c2.4-2,4.68-3.66,6.76-5.57a43.17,43.17,0,0,1,10.18-6.92c3.61-1.78,7.25-3.52,10.67-5.6a52.82,52.82,0,0,1,13.29-5.88A72.68,72.68,0,0,0,421.59,231c6.8-4.48,13.71-8.82,20.34-13.54,12.12-8.62,25.68-13.72,40.05-16.93a15.82,15.82,0,0,1,7.85.1,8.2,8.2,0,0,0,2.48.07c4.74-.2,9.53-.91,14.22-.54,11,.89,21.52,4.35,32,7.74a42.19,42.19,0,0,1,5,2.36C543.76,209,544,208,544.27,206.68Zm50.91-68.11L586.63,164c.9.6,1.66,1.14,2.45,1.64a108.23,108.23,0,0,1,21.46,17.22,53.35,53.35,0,0,0,4.37,4.14,41.09,41.09,0,0,0,15.87,8.25c5-8.26,9.89-16.36,14.9-24.65-2.64-1-5-1.78-7.38-2.69-7.62-3-14.38-7-19.27-13.86a17.61,17.61,0,0,0-4.77-4.58c-5.72-3.58-11.61-6.89-17.45-10.29A9.41,9.41,0,0,0,595.18,138.57Zm-18.94,54.69c17.39,3,30.48,12.7,42.11,25q4.75-9.06,9.37-17.81c-.21-.29-.25-.41-.33-.45a13,13,0,0,0-1.43-.64,58.9,58.9,0,0,1-18.13-10.23c-4-3.17-7.73-6.57-11.74-9.68-3.74-2.9-7.68-5.55-11.89-8.57C581.49,178.48,579,185.62,576.24,193.26ZM248,453.69l18.43-8.25c-1.53-4.49-1.89-9.06-4.18-13.12a14.06,14.06,0,0,1-1.61-5.43c-.51-5.47-.76-11-1.11-16.44-.07-1-.13-1.95-.21-3.18l-22.53,11C237.26,431.32,240.49,443.08,248,453.69Zm115.29-29.16c-4.07-4.57-3.8-9.77-3.59-15,.18-4.75.31-9.5.43-14.25a20.17,20.17,0,0,0-.33-2.61c-5.18,1.87-10,3.71-14.9,5.33a3.51,3.51,0,0,0-2.73,3.37c-.43,5-1.19,10.06-1.18,15.09,0,5.71,2.79,10.67,5.35,16ZM577.45,80.87c-.71,7.38-1.39,14.36-2.07,21.42a88.93,88.93,0,0,0,24.09,5.33c.34-7,1.53-13.78.31-20.58A73.07,73.07,0,0,0,577.45,80.87ZM256.21,482.46c-2.38-8.06-5-15.59-9.52-22.41l-17.27,7.27,10,25.85Zm19.24-13.19c-.46-6.93-3.84-12.44-6.94-18.51L250.84,458l9.25,21.81C265.07,476.39,270.17,472.89,275.45,469.27Zm273.59,92c-.45,0-.7-.08-.85,0-4.29,2.51-8.55,5-12.84,7.54-1.26.74-1.49,1.86-1.69,3.18-1.13,7.52-2.34,15-3.52,22.54-.16,1.07-.26,2.16-.48,4,4.83-2.25,8.92-4.17,13-6,1.37-.63,1.57-1.86,1.79-3.13,1-6.24,2.12-12.49,3.15-18.74C548.13,567.51,548.57,564.39,549,561.24Zm-6.25,37.37c-4.64,2-8.79,3.79-13,5.51-1.3.54-1.56,1.52-1.76,2.72-1,5.93-2.07,11.85-3.07,17.78-.4,2.35-.68,4.72-1.07,7.47a32.91,32.91,0,0,0,4.08-.26c2.17-.44,4.28-1.19,6.45-1.55,2.37-.4,3.29-1.81,3.63-4q1.21-8,2.58-15.92C541.28,606.62,542,602.91,542.79,598.61ZM573.09,247l9.64-15.7c-5.7-3.91-10.28-9-16.79-11.57l-3.11,7.33-.51-.21,2.17-7.74L561,217.84c-1.25,3.36-2.35,6.43-3.57,9.46a3.51,3.51,0,0,0,.53,3.79C562.33,236.85,567.72,241.6,573.09,247Zm6.42-115.77a193.48,193.48,0,0,0-5.08,25.47l9.33,5.63,8.6-25.27ZM320.27,444l18.39-8.2c-1.93-5.48-3.71-10.54-5.51-15.68a.81.81,0,0,0-.44,0c-4.77,2.72-9.56,5.43-14.29,8.22a2.59,2.59,0,0,0-1.11,1.73c-.29,2.73-.42,5.48-.57,8.23a3.86,3.86,0,0,0,1.43,3.35A25,25,0,0,1,320.27,444Zm26.46-222.19c-4.17-6.58-7.7-13.06-12.49-18.79-5.17,1.84-7,7-11.07,9.87,2,2.77,3.79,5.22,5.55,7.71s3.43,4.94,5,7.24ZM487.06,610.21l-4.67,13.66c1.08.17,2,.28,2.9.46,2.38.47,4.76.9,7.12,1.47,1.84.45,3.63,1.18,5.48,1.57,1.6.33,3.26.37,5,.55,1.24-5.39,2.38-10.39,3.63-15.82C499.67,613.78,493.74,610.47,487.06,610.21ZM312.2,426.86c0-5.32,0-10.53-.49-15.88-4.4,1.2-8.39,2.14-12.28,3.41-2.33.76-4.2,2.18-3.83,5.19a13.29,13.29,0,0,1-.36,2.82c-.42,3.75-.82,7.5-1.29,11.83Zm-.68,5.37L295,440.4c.85,5.1.75,10.16,1.93,15.34l17.27-8.93C313.28,441.72,312.42,437.09,311.52,432.23Zm-18.28,25.58c-1.17-5-2.33-10-3.56-15.24l-15.44,6.19,6.64,16.87ZM318,424.68,333,419l1.1-16.76c-5.08,1.93-10,3.76-14.86,5.73a2.52,2.52,0,0,0-1.2,1.91C317.94,414.62,318,419.36,318,424.68Zm32.22-196.79L337,233.5l11,14.77,10.84-6.45ZM580.39,433.44c1.29-.13,1.81-.14,2.32-.24,4.33-.9,8.66-1.83,13-2.73,3.72-.77,8.54-4.83,10.24-8.83l-20.15-2.57A21.71,21.71,0,0,1,580.39,433.44ZM573.31,164.5c-1.5,8.72-2.93,17.09-4.39,25.61l4.16,2.22,8.16-23ZM564,187.14c.34-1.45.67-2.55.86-3.67q1.57-9.51,3.08-19c.58-3.67.28-4.07-3.72-5.32-1.58,8.61-3.15,17.18-4.76,26ZM543.4,251.49c2-5.81,3.76-10.86,5.45-15.94a3.06,3.06,0,0,0,0-2.11c-.72-1.45-1.67-2.77-2.78-4.55-2.23,4.76-4.27,9-6.21,13.33a2.85,2.85,0,0,0,0,2.07C540.86,246.49,542,248.62,543.4,251.49Zm22.43-100,3.36,1.8c1.89-8.11,3.7-15.86,5.56-23.87L570.68,128C569,136,567.44,143.69,565.83,151.48Zm64.82,272.37-17.9-1.39-3.59,5.89,20.77-1.16C630.17,426.05,630.37,425.15,630.65,423.85ZM558.54,208.46,562.61,194l-4.43-1.87c-1.11,4.79-2.15,9.28-3.23,13.92Zm4.82,2.32a12.84,12.84,0,0,0,1.66.79,12,12,0,0,0,1.67.28c1.43-4.5,2.82-8.85,4.25-13.34L567.28,197C566,201.63,564.7,206.05,563.36,210.78ZM507.52,679.24l-.45,0c-1.73,4.77-3.45,9.54-5.41,14.94l5.86-1.18Zm45.26-466c-2.68,5.6-2.66,5.84.78,9.59l2.57-7.48ZM535,697.43c0,.27,0,.53.07.8L550,697c0-.28-.05-.56-.08-.85ZM425.22,44.49c3.46-.2,6.92-.36,10.37-.62,1.66-.13,3.3-.45,5-.69A39.41,39.41,0,0,0,425.22,44.49Zm-157.88,64,.47.44,6.18-6.42-.63-.59C270.09,102.88,269.53,106.44,267.34,108.45ZM801,481a43.55,43.55,0,0,0-5.12,10.92A37.73,37.73,0,0,0,801,481ZM520,669.61l8.54-2.64C523.1,666.48,520.92,667.1,520,669.61ZM372.16,692.23c-3-.94-5.85-2.09-9.06-1.82C365.78,692.53,369.1,691.78,372.16,692.23Zm453.08-382-.62.26q1.23,4.14,2.44,8.28l.86-.26C828.66,315.31,825.91,313.09,825.24,310.27ZM746.6,164.48c-.77-3.24-3.94-7.78-6.39-9.29ZM604.79,48.2l-.15.73,8.65,2.15c-.37-.88-.46-1.47-.65-1.51C610,49.07,607.41,48.65,604.79,48.2ZM229.57,576.34c.85,3.34,3.92,7.7,6.4,9.29ZM642.26,705.71c2.68-.7,2.19-3.2,3.33-5.18C641.63,702.38,641.51,702.57,642.26,705.71ZM852.81,399.3c-.39,4.29-.27,4.48,2.84,5C856.12,401.85,854.09,401,852.81,399.3ZM149,421.61c-1.36,2.09-.75,4.12,2.47,8.59C150.65,427.44,149.86,424.69,149,421.61ZM334,35c-2.84.8-2.36,3.18-3.4,5.2C334.44,38.24,334.44,38.24,334,35ZM274.63,671.56c2.19,1.85,4,.51,6.18.12C277.1,669.48,277.1,669.48,274.63,671.56ZM695.34,68.94c3.45,2.35,3.83,2.35,6,.13C699.37,67.23,697.46,68.74,695.34,68.94ZM120.58,336.16c0,2.59.25,3,2.83,4.79C123.54,337.26,123.54,337.26,120.58,336.16ZM186.45,198c1.19-2,.37-3.47.52-5.62l-2.87,3Zm303,520.18-.73-.6L484.55,720l3.86,1.19C488.81,720,489.12,719.08,489.44,718.16ZM175.34,258.09l.87.35q2.26-4.86,4.52-9.73l-.69-.31Zm8.91,284.28-.58.47c.24,1,.47,1.94.77,3.15l3.19-.55C187.23,543.1,185,543.75,184.25,542.37Zm604.32-347c-.09.28-.17.56-.25.85l4.23,2.3c-.43-1.6-.72-2.71-1.06-4ZM487.72,19.6c-.5,1.35-1.42,2.22-.29,3.66l4-2.62ZM789.07,548.22l2.85-2.7c-.81-1-1-2.53-2.85-2.09Zm-86.61,89.91.55.63c2.65-.87,3.26-3.61,4.41-5C706.06,634.94,704.26,636.53,702.46,638.13ZM467.81,16.72l.43.62L472.65,15l-.41-.79C470.67,14.88,468.71,14.72,467.81,16.72ZM784,176.33c1.27,1.17,2.4,2.57,4.38,2.39C787.08,177.64,786.3,175.7,784,176.33ZM508.59,723.24c-2.17.83-3.73,1.35-4.76,2.86C505.48,725.75,507.42,725.94,508.59,723.24ZM137.46,329.74c-.49,2-1,4,.43,5.8C137.75,333.61,137.6,331.68,137.46,329.74ZM839.08,405h-.91l.48,5.89.43,0ZM513.19,617c.16-1.3.3-2.42.43-3.55s.22-2,.33-2.94h-.76ZM192.12,564.43c-1.26-1.23-2.39-2.63-4.91-2.71C189,563.26,189.91,565,192.12,564.43ZM172.05,211c.28-1.57.89-3.18,0-4.74C171.27,207.84,170.6,209.4,172.05,211ZM342.2,49.26l.41.66,5.28-3.34c-.12-.2-.25-.4-.38-.6ZM697.74,86.7l.33-.66-5-2.51-.33.66ZM803.46,534.55c1.93-2.71,1.93-3.57.23-4.91C803.61,531.39,803.54,533,803.46,534.55ZM282.69,657.07c.11-.26.23-.51.35-.77l-5.19-2.49-.28.6Zm57.72-217.32-.35-.77-4.36,2.12c.05.14.11.28.17.42ZM628.64,693.83l.37.62,4.43-2.72-.39-.65ZM512.67,620h-.25v2.67h.25Zm-8.48,113.62.21.56c.39,0,.86.14,1.15,0s.47-.66.7-1l-.33-.32ZM164.34,204.45l.92.12v-1.9l-.56-.07Zm18.15,363.27.58-.71c-.49-.33-1-.66-1.48-1l-.4.48ZM794.71,174.88c-.45-1.6-.45-1.6-1.88-1.38ZM472.26,7c-1.28-.65-2-.6-2.59,1ZM811.75,536.21l-.9-.14V538l.57.06Z"/><path class="cls-2" d="M550.76,378.52c-1.29,10.38-2.56,20.77-3.88,31.15A9,9,0,0,1,543,416c-3.76,2.74-7.44,5.59-11.17,8.37a15.26,15.26,0,0,1-2.91,1.92,31,31,0,0,0-11.45,9.33,62.07,62.07,0,0,1-22.91,17.65c-4.71,2.15-9.11,5-13.83,7.09A42.54,42.54,0,0,1,469.67,464c-9.37,1.37-14.22-2.36-17.08-9.26-3.72-9-7.13-18.08-10.65-27.13a32.09,32.09,0,0,1-1.07-3.32,26.91,26.91,0,0,0-10.74-15.23,54.8,54.8,0,0,0-11.69-6.94c-1-.4-1.95-.84-2.88-1.33a7,7,0,0,1-4.09-7.54c.31-2.63.94-5.21,1.19-7.84a76.27,76.27,0,0,0,.71-11.67,107.27,107.27,0,0,1,2.31-29.32,53.18,53.18,0,0,1,7.55-18c2.94-4.45,6.84-7.15,12.29-7.27a14.45,14.45,0,0,0,10-4.22,94.29,94.29,0,0,0,7.87-8.25c4.14-5.08,8-10.36,12-15.59a86.22,86.22,0,0,0,10.28-17.83,35.29,35.29,0,0,1,9.56-12.44,4,4,0,0,1,4.44-.7,11.11,11.11,0,0,1,5.55,4.54,6.64,6.64,0,0,1,.89,1.68c1.73,6.56,6.35,11,10.93,15.63,5.71,5.79,11,12,16.38,18.11,3.36,3.85,4.83,8.63,5.85,13.55.4,2,.8,3.93,1.17,5.9A29.29,29.29,0,0,0,535,330.56a45,45,0,0,1,6.64,15.68,103.34,103.34,0,0,0,6.31,19.26A32.77,32.77,0,0,1,550.76,378.52Zm-63-114c-3.83,1.26-5.55,3.81-6.71,7.09a174.51,174.51,0,0,1-16.63,34.15,72.2,72.2,0,0,1-12.45,15.15c-4.53,4.15-9.66,6.81-15.91,6.89a9.66,9.66,0,0,0-7.39,3.72,26.47,26.47,0,0,0-4.76,8.89c-2.93,8.26-4,16.83-4.26,25.55-.17,5.81-.39,11.62-.84,17.41-.25,3.15-1.1,6.24-1.58,9.38-.39,2.52-.18,2.8,2.15,3.87,1.54.7,3.13,1.3,4.62,2.08,11,5.72,19.89,13.17,22.93,26a44.19,44.19,0,0,0,3.82,10.06,91.9,91.9,0,0,1,5.79,13.7A31.84,31.84,0,0,0,458,452c2.36,5,5.34,6.62,10.75,5.08a59.9,59.9,0,0,0,9.92-4.13c4.36-2.14,8.49-4.76,12.9-6.8a54.28,54.28,0,0,0,20-15.74c.59-.74,1.26-1.43,1.9-2.14a35.49,35.49,0,0,1,11-8.5A29.71,29.71,0,0,0,528.6,417c3.28-2.32,6.56-4.63,9.77-7a4,4,0,0,0,1.57-2.17c1.37-7.81,2.77-15.62,3.86-23.46a36.67,36.67,0,0,0-2.55-20.17,104.71,104.71,0,0,1-4.85-15.4A48.18,48.18,0,0,0,530,333.31a33.38,33.38,0,0,1-5.2-13.18c-.34-2-.79-3.94-1.17-5.91a25.69,25.69,0,0,0-7-13.62c-2.82-2.86-5.41-5.94-8.07-9-2.23-2.54-4.21-5.34-6.66-7.65-4.55-4.28-8.27-9-10.08-15.11A6.29,6.29,0,0,0,487.73,264.55Z"/><path class="cls-2" d="M654.58,390.24c-3.48,1.47-6.94,3-10.45,4.35-.47.19-1.2-.26-1.82-.41.34-.46.61-1.21,1-1.32,3.74-.92,7.52-1.72,11.29-2.56Z"/><path class="cls-2" d="M521.28,377.48c-.21,5.55-.36,11.47-.68,17.38a29.83,29.83,0,0,1-5.05,14.86,106,106,0,0,1-20.39,22.92,20.07,20.07,0,0,1-13.32,5.2,12.61,12.61,0,0,1-11.45-6.71,19.38,19.38,0,0,1-2.66-9.05c-.09-2.43-.06-4.87-.13-7.3-.19-6-2.92-9.1-8.83-10.16-.83-.15-1.66-.32-2.5-.43a14,14,0,0,1-8.82-4.59,23.54,23.54,0,0,1-3.91-5.35,78.45,78.45,0,0,1-8.19-33,9.21,9.21,0,0,1,4.26-8.4c9.79-6.21,17.16-15,25-23.26a59.86,59.86,0,0,0,13.47-22,10.45,10.45,0,0,0,.93-3c0-3.07,2.25-4.84,3.92-6.87,1.54-1.88,4.55-2,6.68-.59a25.2,25.2,0,0,1,2.23,1.78c2.47,2,5,3.81,8.37,4.21a7.31,7.31,0,0,1,5.43,4,19.66,19.66,0,0,1,1.67,3.42c3.07,8.89,6.49,17.65,8.08,27a125.59,125.59,0,0,0,3.73,15.4,44,44,0,0,1,2.14,14.35C521.2,370.54,521.28,373.83,521.28,377.48Zm-6.17-5.15c-.36-6.7-.56-13.14-1.11-19.55-.35-4-1.32-7.92-1.84-11.91-1.35-10.38-5.54-19.91-8.92-29.68a11.68,11.68,0,0,0-.7-1.42,4.87,4.87,0,0,0-3.84-3c-3.3-.41-5.9-2.18-8.39-4.21a14.93,14.93,0,0,0-2.52-1.91c-.66-.33-1.86-.63-2.28-.28-1.76,1.45-3.66,2.92-3.54,5.62a21,21,0,0,1-2.57,11.31,87.48,87.48,0,0,1-7.87,12.22c-4.18,5.17-8.93,9.88-13.44,14.78-4.24,4.6-8.7,9-14.09,12.23a6.4,6.4,0,0,0-3.25,6.36,79.26,79.26,0,0,0,7.1,28.1c2.36,5.39,6.06,9.17,12.41,9.32a1.77,1.77,0,0,1,.32.05c6.22,1.32,10.22,5.46,11.16,11.83.34,2.29.31,4.63.43,6.95a18.77,18.77,0,0,0,2.13,8.53c2.24,3.92,5.6,5.23,9.95,3.94a18,18,0,0,0,9.1-6.07c4.82-6,9.6-12.09,14.19-18.29a28,28,0,0,0,5.36-13.41C513.75,386.63,514.4,379.37,515.11,372.33Z"/><path class="cls-2" d="M482.54,333.71l-2.07.9c-.07-.12-.13-.25-.2-.38a36.14,36.14,0,0,0,3.59-3,27.47,27.47,0,0,0,2.41-3.42,6.67,6.67,0,0,0,2.5-.47c2.49-1.7,5.38-1.87,8.18-2.26a4,4,0,0,1,4.37,2.5c.71,1.54,1.26,3.14,1.89,4.71a38.58,38.58,0,0,0,1.79,4.4,19.38,19.38,0,0,1,2.48,11.62c-1.27,11.35-1.2,22.85-3.6,34.07-1.55,7.23-3.44,14.39-5.34,21.54a15.92,15.92,0,0,1-2.49,5.1c-2.07,2.86-5.31,2.7-6.87-.46a18.35,18.35,0,0,1-1.66-6.67c-.26-3.47,0-7-.07-10.47a22.59,22.59,0,0,0-.17-2.85,1.78,1.78,0,0,0-2.21-1.71c-1.78.27-3.52.73-5.3,1a70.24,70.24,0,0,1-9.1,1c-4.61,0-8.28-2.11-11.12-5.78-6.71-8.69-5.17-19.22-.79-26.21A16.19,16.19,0,0,1,463,352.7a56.38,56.38,0,0,1,6-3.63C475.14,345.52,479.41,340.24,482.54,333.71Zm5.91-2.87a38,38,0,0,1-1.67,5c-3,6.07-7,11.34-12.73,15.1-2.65,1.74-5.48,3.2-8.06,5a13.14,13.14,0,0,0-4.19,4.17c-3.44,6.69-3.56,13.37.93,19.77a9.43,9.43,0,0,0,8.35,4.35c2.09-.06,4.17-.55,6.27-.82a75.19,75.19,0,0,1,8.15-1c3.22-.08,5.11,1.61,5.74,4.8a30.16,30.16,0,0,1,.42,5c.06,3.38,0,6.77.07,10.15a25.47,25.47,0,0,0,.85,4,9.54,9.54,0,0,0,1.83-3.42c3.22-11.18,6.2-22.42,7-34.1.41-5.9.82-11.81,1.11-17.73.15-2.94.46-5.94-.76-8.77-1.55-3.58-3.11-7.16-4.77-10.69a2.83,2.83,0,0,0-1.71-1.51C493,330,490.68,329.6,488.45,330.84Z"/><path class="cls-2" d="M489.51,348.7l-1.36-.17a1.09,1.09,0,0,1-.07-.3c.05-1.53,3.11-5.24,4.68-5.67,2-.54,3.26.22,5,2.38a12.92,12.92,0,0,1,2.95,10.61c-.45,3.13-.65,6.3-1.18,9.42a7.62,7.62,0,0,1-1.58,3.35c-1.86,2.28-3.92,4.4-5.89,6.6-1.76,2-3.79,3.33-6.59,3.16-3.57-.21-7.8-4.21-8.17-7.74-.17-1.58.76-2.53,1.76-3.52C484.19,361.8,487.06,355.52,489.51,348.7Zm-7.67,21.53c2.32,4.24,3.87,4.6,7.43,1.88,1.93-1.48,3.91-2.88,5.79-4.42a4.34,4.34,0,0,0,1.64-2.18c.63-4,1.16-7.94,1.48-11.93.24-3-1.74-5.57-5.06-6.93C491.77,355.7,487.55,363.37,481.84,370.23Z"/><path class="cls-2" d="M125.29,1047a63.41,63.41,0,0,0,12.69-2.68,13.22,13.22,0,0,1,3.06-.78c.68,0,.68,1,.19,3.22-3,12.8-5.8,25.6-8.65,38.38,6.09-7.85,14.3-13.93,19.55-13.93,4.4,0,6.58,4.06,6.58,10.3,0,10.17-6,21.88-14.28,27.76-5.69,3.91-10.66,5.57-14.68,5.57a8.47,8.47,0,0,1-7.29-3.46c-1.74-2.44-2.32-6.1-1-12.82,2.55-14.44,6.12-28.9,9-43.58,1.08-5.54.34-6.13-3.74-6.58-.75-.1-.87-.1-1.69-.2Zm23.93,36.63c0-4.08-.92-6.74-3.41-6.74s-6.5,2.68-11.06,8.57c-3,3.88-4.15,8.7-5,13.59-1.57,9.8,1.62,12.49,5,12.49C144.76,1111.58,149.22,1092,149.22,1083.67Z"/><path class="cls-2" d="M163.27,1081.26c3.16-5,8.39-10,11.88-10s4.5,4.72,5.32,13c.69,6.31,1.25,16.82,1.55,24.1,3.74-5.55,12.59-19.06,12.56-25.68-.06-2.72-1.68-5.33-2-6.32a2.67,2.67,0,0,1,.74-2.69,7.18,7.18,0,0,1,4.39-2.41c2.15,0,3.39,2,3.51,5.28a23.47,23.47,0,0,1-3.5,11.19A445.85,445.85,0,0,1,163,1137.64l-10.41,2.9-.46-1.23c9-5.88,18.07-15.54,22.29-21.46.1-5.21-1.05-21.86-2.23-31.1-.81-6.11-1.3-8.71-2.83-8.71-.84,0-2.71,1.18-5.16,4.29Z"/><path class="cls-2" d="M280.39,1047.87c-.88,3.38-2.25,10.46-3,16l-1.57.1c-.09-1.63-.13-3-.16-4.45-.49-5.4-1.55-7-8.9-7H259L249.51,1102c-1.66,8.63-.94,9.09,7.75,10.33l-.26,1.43H228.53l.33-1.43c8.13-1,8.92-1.57,10.64-10.33l9.58-49.38h-6c-7.19,0-8.92.69-11.33,3.6a32.33,32.33,0,0,0-4.37,7.8l-1.47-.16c1.4-4.9,3-11,3.88-15.94H231c1.08,2.13,1.91,2.13,4.55,2.13h38.6c2.45,0,3.24-.46,4.94-2.13Z"/><path class="cls-2" d="M305.25,1085.42c0,10.6-5.27,21-14,26.23a20.49,20.49,0,0,1-10.83,3.23c-9.41,0-12.71-6.82-12.71-14.3,0-12.48,7-22.57,15.44-26.89a22.65,22.65,0,0,1,9.61-2.44C300.93,1071.25,305.25,1077,305.25,1085.42Zm-28,14.87c0,8.17,3,11.87,6.87,11.87,9.2,0,11.77-19.16,11.77-26.57,0-8.13-2.73-11.66-6.45-11.66C280.19,1073.93,277.21,1092.25,277.21,1100.29Z"/><path class="cls-2" d="M324,1103.58c-.53.6-1.69,1.82-1.69,3.06,0,1.77,2.76,3.32,8.19,6.15,9.7,5.09,12.94,8.71,12.94,12.76,0,8.8-14.39,15.39-24.28,15.39-9.25,0-17.36-4.74-17.36-10.76,0-4.86,7.43-9.23,16.81-14-2.52-1.61-3.85-3.43-3.79-5,.07-1.81,3-4.62,7.36-7.56Zm11.69,26.52c0-2.52-1.66-4.51-4.45-6.57a104.79,104.79,0,0,0-11.22-6.31c-5.78,3.31-9.68,7.08-9.68,11.24,0,5.83,7.25,9.21,13.47,9.21C331.85,1137.67,335.66,1134.16,335.66,1130.1ZM313.34,1093A22.29,22.29,0,0,1,324,1074.27a21.25,21.25,0,0,1,10.26-3,12.67,12.67,0,0,1,8,2.58c5.14.23,8.42-.94,10.2-2.26l.65,1a11.87,11.87,0,0,1-9,5.35,15.66,15.66,0,0,1,.55,4.41,21,21,0,0,1-7.75,16.35c-4,3.26-10,5.49-13.63,5.45C316.85,1104,313.34,1099.29,313.34,1093Zm22.94-11.59c0-5.05-1.56-7.75-4.95-7.75-5.45,0-9.4,10.21-9.4,20.17,0,4.8,1.66,7.61,5,7.61C331.79,1101.45,336.28,1092.77,336.28,1081.42Z"/><path class="cls-2" d="M368.36,1103.58c-.53.6-1.68,1.82-1.68,3.06,0,1.77,2.75,3.32,8.19,6.15,9.69,5.09,12.94,8.71,12.94,12.76,0,8.8-14.4,15.39-24.28,15.39-9.26,0-17.37-4.74-17.37-10.76,0-4.86,7.43-9.23,16.82-14-2.53-1.61-3.86-3.43-3.8-5,.07-1.81,3-4.62,7.36-7.56Zm11.69,26.52c0-2.52-1.66-4.51-4.44-6.57a104.9,104.9,0,0,0-11.23-6.31c-5.77,3.31-9.68,7.08-9.68,11.24,0,5.83,7.25,9.21,13.48,9.21C376.25,1137.67,380.05,1134.16,380.05,1130.1ZM357.73,1093a22.27,22.27,0,0,1,10.67-18.74,21.18,21.18,0,0,1,10.25-3,12.72,12.72,0,0,1,8,2.58c5.13.23,8.41-.94,10.19-2.26l.65,1a11.86,11.86,0,0,1-9,5.35,15.3,15.3,0,0,1,.55,4.41,20.94,20.94,0,0,1-7.75,16.35c-4,3.26-10,5.49-13.63,5.45C361.24,1104,357.73,1099.29,357.73,1093Zm22.94-11.59c0-5.05-1.56-7.75-4.95-7.75-5.45,0-9.4,10.21-9.4,20.17,0,4.8,1.67,7.61,5,7.61C376.18,1101.45,380.67,1092.77,380.67,1081.42Z"/><path class="cls-2" d="M406.23,1114.88c-4.69,0-10.47-2.7-10.47-13.82,0-8.87,3.65-18.59,10.63-24.31,3.77-3.16,9.38-5.5,13.52-5.5,5.07,0,7.29,3.42,7.29,7.07,0,8.56-13,12.94-22.17,15.1-.19,1.77-.23,3.29-.23,3.91,0,6.1,1.8,11.8,7.46,11.8,3.66,0,7.82-2,12.26-6.71l.79,1.27C418.44,1112.16,411.3,1114.88,406.23,1114.88Zm-.87-23.71c11-1.9,14-7.25,14-12,0-2.74-1.47-4.73-4.1-4.73C411.56,1074.42,407.14,1078.09,405.36,1091.17Z"/><path class="cls-2" d="M450.41,1089.77h39.72l-1,4.56H449.43Z"/><path class="cls-2" d="M508.44,1114.88c-4.68,0-10.47-2.7-10.47-13.82,0-8.87,3.65-18.59,10.63-24.31,3.78-3.16,9.39-5.5,13.52-5.5,5.07,0,7.29,3.42,7.29,7.07,0,8.56-13,12.94-22.16,15.1a37.67,37.67,0,0,0-.24,3.91c0,6.1,1.8,11.8,7.46,11.8,3.66,0,7.82-2,12.26-6.71l.79,1.27C520.65,1112.16,513.51,1114.88,508.44,1114.88Zm-.87-23.71c11-1.9,14-7.25,14-12,0-2.74-1.47-4.73-4.1-4.73C513.78,1074.42,509.35,1078.09,507.57,1091.17Z"/><path class="cls-2" d="M560,1076.26a6.46,6.46,0,0,1-3.35,4.68c-.63.19-1,0-1.94-1-1.88-2.14-4.32-4.65-7.24-4.65a4.85,4.85,0,0,0-4.76,4.94c0,3,2.47,5,6.7,8.31,6.8,5.43,8,7.76,8,11.38,0,7.61-11.88,14.93-17.71,14.93-4.37,0-9-3-9-6.77,0-1.53,2.14-4.66,3.83-4.66a1.4,1.4,0,0,1,1.24.62c3.48,4.54,6.52,6.48,9.64,6.48a5.28,5.28,0,0,0,5.49-5c0-2.35-1.3-4.32-5.64-8-3.66-3.11-8.41-6.3-8.41-11.51,0-2.9,1.17-6.42,5.79-10.3,2.76-2.31,6.72-4.44,10.08-4.44C556.55,1071.25,560,1073.43,560,1076.26Z"/><path class="cls-2" d="M589.51,1075c-3,.1-5.73.16-8.73.23-3.26,15.72-5.22,25.26-5.63,27.3-.72,4.35-.45,6,1,6,1.89,0,4.28-1.76,7.59-5.17l.75,1c-3.29,4.59-9.52,10.53-14.62,10.53-3.81,0-5.37-3-2.92-14.52l5.3-25.1h-7l-.2-.53,2.19-2.31h5.56l2.15-10a53.82,53.82,0,0,0,9.33-5.56l.78.35c-1.17,4-2.51,10-3.68,15.17h9.68Z"/><path class="cls-2" d="M596.22,1114.88a5.12,5.12,0,0,1-5.07-5.46,6.14,6.14,0,0,1,6.05-6.47,5.24,5.24,0,0,1,5.13,5.56C602.33,1112.74,599.53,1114.88,596.22,1114.88Z"/><path class="cls-2" d="M640.79,1056.54a17.74,17.74,0,0,1,12.85-5.07c9.12,0,15.37,6.22,15.37,15.49,0,10.54-7.94,17.61-21.12,28.69l-11.48,9.82h19.47c5.2,0,7-.6,10.64-6l1.24.65c-2.19,4.49-4.24,9.68-5.68,13.56h-37l.19-1c24.82-21.18,33.78-31.28,33.78-43.09,0-6.62-3.5-11.44-10.46-11.44-5.58,0-9.19,3.09-13.12,7.68l-1.14-1Z"/><path class="cls-2" d="M690.31,1114.88c-13.23,0-15.36-11.94-15.36-20.05,0-18.16,9.71-43.36,27.06-43.36,13.52,0,14.93,13.21,14.93,20.65C716.94,1089.21,707.4,1114.88,690.31,1114.88Zm11.24-61.45c-9.85,0-16.87,31.73-16.87,46.13,0,6.62.89,13.4,6.15,13.4,9.48,0,16.35-31.34,16.42-46.85C707.31,1060.7,706.85,1053.43,701.55,1053.43Z"/><path class="cls-2" d="M744.11,1102.4c-1.25,6.58-1.57,8.53,5.17,9.41.85.1,2.51.37,3.61.47l-.35,1.43H722.26l.33-1.43c.81-.1,1.94-.27,2.8-.4,6.58-1,7.33-1.64,8.9-9.48l7.39-37.28c1.1-5.64.68-6.64-5.13-7.13-.89-.1-2.41-.2-3.26-.3l.39-1.36a82.79,82.79,0,0,0,20.13-4.86Z"/><path class="cls-2" d="M809.16,1071.82c0,18.5-12.62,33.86-29,40.39a63.49,63.49,0,0,1-13.44,3.16l-.26-1.37c13.28-2.7,25.47-12.84,30.51-29.46-2.36,1.12-4.75,2.27-7.08,3.25a14.59,14.59,0,0,1-5.4,1.37c-7.83,0-14.32-5.93-14.32-15.65a21.81,21.81,0,0,1,21.82-22C803.49,1051.47,809.16,1060.56,809.16,1071.82Zm-29.07-.85c0,8.06,3.39,13.43,10.72,13.43a13.12,13.12,0,0,0,6.55-1.92c1-3,1.91-10,1.91-14.62,0-5.7-.75-14.4-8.4-14.4C784,1053.46,780.09,1062.41,780.09,1071Z"/><path class="cls-2" d="M813.59,1089.77h39.72l-1,4.56H812.61Z"/></svg>